<svg xmlns="http://www.w3.org/2000/svg" viewBox="0 0 350 70"><defs><style>.cls-1{fill:#fff;}.cls-2{fill:#0a3b67;}</style></defs><g id="レイヤー_2" data-name="レイヤー 2"><g id="レイヤー_2-2" data-name="レイヤー 2"><rect class="cls-1" width="350" height="70" rx="35"/><path class="cls-2" d="M146.71,16.66h7.69c5.88,0,9.16,2.31,8.15,8.61-.38,2.27-1.55,4.87-3.74,6.13,3.62.68,4.71,4.46,4.16,7.94-1,6.22-5.8,9-11.55,9h-9.7Zm2,26.72H150c3.32,0,6.22-.42,6.89-4.54s-2.69-4.28-5.8-4.28h-1Zm2.14-13.53h.76c3,0,4.62-.88,5.12-4.16s-1.17-4.07-3.78-4.07h-.8Z"/><path class="cls-2" d="M173.8,27.71,172,38.88c-.38,2.35-.46,5.17,2.52,5.17s3.82-2.82,4.2-5.17l1.77-11.17h5.88l-1.94,12.14c-1,6-4.57,9.16-10.71,9.16S165,45.86,166,39.85l1.93-12.14Z"/><path class="cls-2" d="M187.66,27.71h6.68l3.07,11.72,7.14-11.72h6.55l-20,31.63h-6.47l9-14.16Z"/></g></g></svg>