<svg xmlns="http://www.w3.org/2000/svg" viewBox="0 0 634 185.57"><defs><style>.a{fill:#e3be80;}.b{fill:#0a3b67;}.c{fill:#0e335e;}.d,.e{fill:none;stroke:#0e335e;stroke-miterlimit:10;stroke-width:2.4px;}.e{stroke-dasharray:4.87 4.87;}.f{fill:#fff;}</style></defs><rect class="a" x="22" y="27.79" width="590" height="130" rx="65"/><path class="b" d="M241.93,92.2l.69-3.9c-2.61.39-5.23.72-7.57.88l-.63-4.52a78.32,78.32,0,0,0,20.23-3.8l1.72,4.26a65.36,65.36,0,0,1-8.12,2.18l-.86,4.9h10.27L256.82,97H246.45c-1.45,5.63-4.4,9.46-12.06,12.55l-3-4.39C238,102.9,240,100.66,241,97H229.45l.84-4.78Z"/><path class="b" d="M271.13,109.79l-3.48-3.87c7.86-3.64,11.1-8.38,12.57-13.94h-5.88a46.44,46.44,0,0,1-7.3,7.83l-3.84-3.09c5.18-3.93,10.15-11.15,12.18-15.83l4.81,1.47c-.72,1.52-1.59,3.12-2.55,4.71H293.5L292.64,92h-7.06C283.69,98.87,279.62,105.14,271.13,109.79Z"/><path class="b" d="M302,91.07a29.11,29.11,0,0,1,1.78,6.34l-4.41,1.75a23,23,0,0,0-1.7-6.37Zm17.12.22A28.51,28.51,0,0,1,302,109.53l-2.29-4.16c7.65-2.28,12.44-7.51,14.71-15.05ZM308.6,89.7a29.64,29.64,0,0,1,1.63,6.44l-4.46,1.72a25.4,25.4,0,0,0-1.48-6.53Z"/><path class="b" d="M347.78,97.34l-4.3,4.49a49.4,49.4,0,0,0-9.33-6.44l-2.48,14.07h-5.46l5-28.6h5.46l-1.54,8.74A78.19,78.19,0,0,1,347.78,97.34Z"/><path class="b" d="M358.6,98.84h6.63l-1.89,10.72h-6.63l-.15.88H352.2l2.05-11.6h4.35Zm7-4.49L364.93,98H354.82l.64-3.64Zm2.56-9.2-.69,3.93H355l.69-3.93Zm-1.78,4.75-.64,3.64H355.6l.65-3.64Zm-6.73,15.53.43-2.47h-2.18l-.43,2.47Zm8-24.76-.65,3.7h-9.39l.65-3.7Zm5,17.29.38-2.12h-5l.77-4.35h5l.34-1.89h-5.92l.79-4.45h2.5a18.41,18.41,0,0,0-.91-3.67l4.54-1.63a19.72,19.72,0,0,1,1.19,4.88l-1.18.42h3.35a58.62,58.62,0,0,0,3.08-5.3l4.56,1.6c-.75,1.1-1.69,2.4-2.67,3.7h2.24l-.78,4.45h-5.79l-.33,1.89h4.84l-.77,4.35H378L377.64,98H384l-.8,4.52h-6.37l-1.41,8h-5l1.41-8h-6.5l.79-4.52Z"/><path class="b" d="M405.47,109l-.24,1.33h-4.42l.87-4.91-3.47.85a30.19,30.19,0,0,0,.11-5.59l-1.73,9.78h-4.68l1.57-8.87a35.86,35.86,0,0,1-2.65,6.89l-3.63-1.3a29.11,29.11,0,0,0,2.89-8l3.7.62.29-1.66c-1.72.2-3.35.36-4.6.49l0-4.29c.46,0,1,0,1.63,0q1.56-1.62,3-3.29a24.83,24.83,0,0,0-3.07-3.8l3-3.18.25.22a47.65,47.65,0,0,0,3.08-4.42l3.68,1.63c-1.16,1.62-2.75,3.61-4.42,5.52l.45.59c1.49-1.79,2.76-3.45,3.75-4.84l3.82,1.91c-1.7,2.08-3.89,4.55-6.25,7.06L402,90a20,20,0,0,1,1.63,4.58L406,81.06h16.18L417,110.31h-4.62l.24-1.33ZM399,94c-.24-.65-.51-1.33-.79-1.95-.68.68-1.36,1.4-2,2.11Zm3.21,5c.08.81.17,1.62.18,2.44l.82-4.62-3.3,1.56c0-.29-.06-.55-.07-.88l-1,.13-.4,2.28C399.71,99.62,401,99.29,402.19,99Zm5.44,5.46L408.94,97h-1.37l-1.31,7.44Zm2.08-11.83L411,85.48h-1.36l-1.26,7.15Zm3.7,11.83L414.72,97h-1.43L412,104.46Zm2.09-11.83,1.26-7.15h-1.43l-1.26,7.15Z"/><path class="b" d="M437,82a69.53,69.53,0,0,0-3.89,13.81,40.46,40.46,0,0,0-.55,12.32l-5.32,1.24a46.6,46.6,0,0,1,.72-13.3,86.09,86.09,0,0,1,4-14.79Zm9.14,4.94c.31-2.11.63-4.1.91-5.69h5.3c-.33,1.5-.69,3.32-1,5l-.11.65h4.42l-.84,4.71h-4.32c-.4,2.83-.75,5.56-1,7.61a17.64,17.64,0,0,1,4.48,3.31l-3.64,3.87a18.14,18.14,0,0,0-1.92-2c-1.22,3-3.56,4.71-7.72,4.71-4.72,0-6.86-2.79-6.32-5.85s3.91-5.59,8.17-5.59a19.74,19.74,0,0,1,2.06.1c.25-1.79.53-3.94.83-6.18H437l.83-4.71Zm-4.38,14.89c-1.65,0-2.67.61-2.83,1.52s.64,1.53,2.23,1.53c1.88,0,2.42-.81,2.8-2.79A9.15,9.15,0,0,0,441.79,101.83Z"/><path class="b" d="M461.44,102.83c.37-2.08,2.09-4.68,5.17-7.21L470,98.35c-1.84,1.43-2.89,2.76-3.06,3.7-.24,1.4,2.06,1.76,7.72,1.76a41.91,41.91,0,0,0,9.66-1.14l-.16,5.33a65.89,65.89,0,0,1-10.72.88c-8.71,0-12.83-1.53-12-6Zm15.82-19a79.35,79.35,0,0,0,8.55-.39l1.11,4.39c-2.15,1.14-7.66,4.75-10.15,6.53l-3-3.08c1.49-.88,3.17-2,4.38-2.73-1.05.06-2.45.09-3.23.09a45.77,45.77,0,0,1-9.13-.94l1.69-4.81a43,43,0,0,0,9.72.94Z"/><path class="b" d="M502.51,84.83c.37-1.37.67-2.7.93-4l5.3.16c-.3,1.33-.62,2.6-1,3.84h13.46l-.83,4.71H506.23a32.63,32.63,0,0,1-2.61,5.56,20.89,20.89,0,0,1,8.47-1.95c5.23,0,7.55,3.28,6.81,7.44-.85,4.84-5.2,8.87-15.28,8.87-1.39,0-2.88-.06-4.51-.19l.63-4.88a35,35,0,0,0,5.52.43c5.26,0,8.1-1.92,8.49-4.1.33-1.88-1.09-3.06-3.14-3.06-3.54,0-6.74,1.37-12,5.08l-3.28-3.16a30.3,30.3,0,0,0,5.7-10h-5.72l.83-4.71Z"/><path class="b" d="M533.66,96.33a20.76,20.76,0,0,1,9.77-2.86c5.07,0,7.74,2.9,7,7.12-1,5.62-5.73,8.87-15.74,8.87-.65,0-1.69,0-2.49,0l-.19-4.81c1.28.1,3,.16,4.09.16,6.08,0,8.65-1.65,9.07-4.06.3-1.66-.57-3-3.49-3s-6.34,1.66-10.31,5l-3.78-1.82c1.32-7.47,2.63-10.82,5.75-14.53l4.48,1.53A15.64,15.64,0,0,0,533.66,96.33Zm-1-11,2.1-4.72A100.19,100.19,0,0,1,549.59,84l-2.13,4.74A68.66,68.66,0,0,0,532.67,85.35Z"/><path class="c" d="M89.14,123.47a6.61,6.61,0,0,1-6.6-6.6V105h1.8a7.61,7.61,0,0,0,0-15.22h-1.8V77.81a6.62,6.62,0,0,1,6.6-6.61H188a6.62,6.62,0,0,1,6.6,6.61V89.73h-1.8a7.61,7.61,0,0,0,0,15.22h1.8v11.92a6.61,6.61,0,0,1-6.6,6.6Z"/><path class="c" d="M188,73a4.8,4.8,0,0,1,4.8,4.81V87.93a9.41,9.41,0,0,0,0,18.82v10.12a4.8,4.8,0,0,1-4.8,4.8H89.14a4.8,4.8,0,0,1-4.8-4.8V106.75a9.41,9.41,0,0,0,0-18.82V77.81A4.8,4.8,0,0,1,89.14,73H188m0-3.6H89.14a8.41,8.41,0,0,0-8.4,8.41V91.53h3.6a5.81,5.81,0,0,1,0,11.62h-3.6v13.72a8.41,8.41,0,0,0,8.4,8.4H188a8.41,8.41,0,0,0,8.4-8.4V103.15h-3.6a5.81,5.81,0,0,1,0-11.62h3.6V77.81A8.41,8.41,0,0,0,188,69.4Z"/><line class="d" x1="173.75" y1="73" x2="173.75" y2="75.4"/><line class="e" x1="173.75" y1="80.28" x2="173.75" y2="116.84"/><line class="d" x1="173.75" y1="119.27" x2="173.75" y2="121.67"/><path class="f" d="M77.78,114.37a6.61,6.61,0,0,1-6.6-6.6V95.84H73a7.61,7.61,0,0,0,0-15.21h-1.8V68.7a6.61,6.61,0,0,1,6.6-6.6H176.6a6.61,6.61,0,0,1,6.6,6.6V80.63h-1.8a7.61,7.61,0,1,0,0,15.21h1.8v11.93a6.61,6.61,0,0,1-6.6,6.6Z"/><path class="c" d="M176.6,63.9a4.8,4.8,0,0,1,4.8,4.8V78.83a9.41,9.41,0,1,0,0,18.81v10.13a4.8,4.8,0,0,1-4.8,4.8H77.78a4.8,4.8,0,0,1-4.8-4.8V97.64a9.41,9.41,0,0,0,0-18.81V68.7a4.8,4.8,0,0,1,4.8-4.8H176.6m0-3.6H77.78a8.41,8.41,0,0,0-8.4,8.4V82.43H73A5.81,5.81,0,0,1,73,94h-3.6v13.73a8.41,8.41,0,0,0,8.4,8.4H176.6a8.41,8.41,0,0,0,8.4-8.4V94h-3.6a5.81,5.81,0,1,1,0-11.61H185V68.7a8.41,8.41,0,0,0-8.4-8.4Z"/><line class="d" x1="162.22" y1="63.9" x2="162.22" y2="66.3"/><line class="e" x1="162.22" y1="71.17" x2="162.22" y2="107.73"/><line class="d" x1="162.22" y1="110.17" x2="162.22" y2="112.57"/><path class="b" d="M95.1,96.13H90.46V83.05H87.9V78.93h9.86v4.12H95.1Z"/><path class="b" d="M104.07,96.13H99.42V78.93h4.65Z"/><path class="b" d="M116.59,90.84l-.26,5a7.52,7.52,0,0,1-2.78.63,6.37,6.37,0,0,1-4.85-2.12,9.49,9.49,0,0,1-2.21-6.71,9.81,9.81,0,0,1,2.07-6.53,6.91,6.91,0,0,1,5.54-2.45,6.74,6.74,0,0,1,2.29.42V84a3,3,0,0,0-2.12-1A2.52,2.52,0,0,0,112,84.13a6.12,6.12,0,0,0-.8,3.39,7.61,7.61,0,0,0,.2,1.87,4.31,4.31,0,0,0,.57,1.39,2.63,2.63,0,0,0,.92.87,2.54,2.54,0,0,0,1.25.3A3.61,3.61,0,0,0,116.59,90.84Z"/><path class="b" d="M131.87,96.13h-5l-3.09-7.93.13,7.93h-4.65V78.93h4.65l-.13,7.37,2.74-7.37h4.9l-3.71,8.3Z"/><path class="b" d="M133.66,96.13V78.93h8.63v4h-4v2.51h3.58v3.89H138.3V92h4v4.14Z"/><path class="b" d="M150.73,96.13h-4.64V83.05h-2.56V78.93h9.86v4.12h-2.66Z"/><path class="a" d="M111.5,174.12c-.68,1.18-1.36,2.37-2,3.55a.41.41,0,0,0,0,.47l1.87,3.26a3.72,3.72,0,0,1,.19.34.19.19,0,0,1-.17.29h-4.12a.44.44,0,0,0-.44.25c-.6,1.07-1.22,2.12-1.83,3.18l0,0a.19.19,0,0,1-.33,0c-.63-1.08-1.24-2.12-1.83-3.17a.48.48,0,0,0-.48-.28H98.2a.19.19,0,0,1-.17-.29l0-.06c.68-1.18,1.35-2.36,2-3.53a.44.44,0,0,0,0-.5c-.69-1.18-1.37-2.37-2-3.55v0a.2.2,0,0,1,.17-.29h4.14a.38.38,0,0,0,.41-.23l1.65-2.86c.07-.12.14-.23.21-.36a.21.21,0,0,1,.34,0h0c.6,1,1.22,2.09,1.81,3.15a.51.51,0,0,0,.51.3c1.34,0,2.69,0,4.08,0a.2.2,0,0,1,.18.29Z"/><path class="f" d="M87,179.79A87,87,0,0,1,20.47,36.73a2,2,0,1,1,3.05,2.58A83,83,0,0,0,87,175.79a2,2,0,0,1,0,4Z"/><circle class="f" cx="28.94" cy="31.79" r="2"/><path class="a" d="M524,11.46c.68-1.19,1.36-2.38,2-3.56a.41.41,0,0,0,0-.47c-.63-1.08-1.25-2.17-1.87-3.26a3.72,3.72,0,0,1-.19-.34.19.19,0,0,1,.16-.29h4.13a.44.44,0,0,0,.44-.25c.6-1.06,1.22-2.12,1.83-3.18l0,0a.19.19,0,0,1,.33,0c.63,1.08,1.23,2.12,1.83,3.17a.48.48,0,0,0,.48.28h4.1a.2.2,0,0,1,.17.29l0,.06c-.68,1.18-1.35,2.36-2,3.53a.42.42,0,0,0,0,.5c.69,1.18,1.37,2.37,2.05,3.55v0a.2.2,0,0,1-.17.29h-4.14a.4.4,0,0,0-.41.23l-1.65,2.86-.21.36a.2.2,0,0,1-.34,0h0c-.61-1.05-1.22-2.1-1.81-3.16a.49.49,0,0,0-.51-.29c-1.34,0-2.69,0-4.09,0a.2.2,0,0,1-.17-.29Z"/><path class="f" d="M612,149.56a2,2,0,0,1-1.29-.48,2,2,0,0,1-.23-2.81A83,83,0,0,0,547,9.79a2,2,0,0,1,0-4,87,87,0,0,1,66.53,143.06A2,2,0,0,1,612,149.56Z"/><circle class="f" cx="605.06" cy="153.79" r="2"/></svg>