<svg xmlns="http://www.w3.org/2000/svg" viewBox="0 0 200 200"><defs><style>.a{fill:#e8c385;}.b{fill:#0a3b67;}.c{fill:#0e335e;}.d,.e{fill:none;stroke:#0e335e;stroke-miterlimit:10;stroke-width:2px;}.e{stroke-dasharray:4.06 4.06;}.f{fill:#fff;}</style></defs><circle class="a" cx="100" cy="100" r="100"/><path class="b" d="M35.81,124.05l.55-3.1c-1.85.3-3.69.52-5.34.67L30.66,119a53.54,53.54,0,0,0,13.47-2.58l1,2.47a44.7,44.7,0,0,1-5.51,1.48L39,124.05h7.09l-.49,2.77H38.44c-.95,3.93-2.9,6.5-8.08,8.59l-1.72-2.54c4.62-1.6,6-3.23,6.64-6.05H27.37l.49-2.77Z"/><path class="b" d="M54.89,135.56l-2-2.24c5.36-2.49,7.59-5.8,8.62-9.79H57.05a30.46,30.46,0,0,1-4.95,5.31L49.89,127a30.37,30.37,0,0,0,8.17-10.62l2.78.85A31.32,31.32,0,0,1,59,120.69h11l-.5,2.84H64.61A18.38,18.38,0,0,1,54.89,135.56Z"/><path class="b" d="M75.48,123.23a19.17,19.17,0,0,1,1.19,4.29l-2.56,1a15.76,15.76,0,0,0-1.15-4.3Zm11.4.08a19.13,19.13,0,0,1-11.25,12.07L74.3,133a14.69,14.69,0,0,0,9.88-10.23Zm-7-1a19.78,19.78,0,0,1,1.07,4.35l-2.6,1a16.31,16.31,0,0,0-1-4.42Z"/><path class="b" d="M106.05,127.54l-2.5,2.6a36.48,36.48,0,0,0-6.66-4.51l-1.71,9.73H92l3.34-18.94h3.16l-1,5.87A55.93,55.93,0,0,1,106.05,127.54Z"/><path class="b" d="M113.13,128.38h4.6l-1.23,7h-4.59l-.12.67h-2.54l1.35-7.63h2.53Zm4.84-3-.38,2.13H111l.37-2.13Zm1.76-6.08-.4,2.27H111.1l.4-2.27Zm-1.24,3.12-.37,2.12h-6.59l.37-2.12Zm-4.15,10.48.38-2.14h-2l-.38,2.14Zm5-16.57L119,118.5h-6.13l.38-2.14Zm3.55,11.57.32-1.82h-3.47l.44-2.51h3.47L124,122h-4.09l.45-2.58h1.87a14.62,14.62,0,0,0-.7-2.67l2.63-.93a13.51,13.51,0,0,1,.85,3.3l-.86.3h2.63a31.27,31.27,0,0,0,2.17-3.62l2.65.93c-.52.78-1.21,1.74-1.94,2.69h1.75l-.45,2.58h-4l-.29,1.65H130l-.45,2.51h-3.38l-.32,1.82h4.44l-.46,2.62h-4.44l-1,5.48h-2.9l1-5.48h-4.5l.46-2.62Z"/><path class="b" d="M136.85,128.9a24.64,24.64,0,0,1-2.16,5.75l-2.12-.78a19.56,19.56,0,0,0,2.05-5.33Zm7.51,6.09-.17.93h-2.57l.56-3.22-2.1.49a18.68,18.68,0,0,0-.1-4.2c.82-.22,1.56-.39,2.31-.58a22.94,22.94,0,0,1,.2,2.57l.69-3.94-2,.93c0-.24-.07-.47-.11-.71l-1,.11L138.57,136h-2.73l1.47-8.34L134,128l0-2.5,1.18-.06c.72-.74,1.42-1.5,2.11-2.26a16,16,0,0,0-2.18-2.75l1.78-1.84a2.78,2.78,0,0,0,.29.3,30.93,30.93,0,0,0,2.3-3.16l2.12,1a47.85,47.85,0,0,1-3.05,3.82c.18.21.35.45.51.67,1.09-1.28,2-2.49,2.74-3.49l2.23,1.11c-1.53,1.88-3.63,4.24-5.87,6.52l2.38-.13a11.79,11.79,0,0,0-.68-1.54l2.23-1.08a13.62,13.62,0,0,1,1.27,3.36L145,116.6h10.6l-3.41,19.32h-2.66l.16-.93Zm1.85-2.62,1-5.46h-1.39l-1,5.46Zm1.41-8,.92-5.22h-1.39l-.92,5.22Zm2.55,8,1-5.46h-1.46l-1,5.46Zm1.41-8,.92-5.22h-1.45l-.92,5.22Z"/><path class="b" d="M165.36,117.12a47.62,47.62,0,0,0-2.57,9.16,27.63,27.63,0,0,0-.39,8.28l-3.08.74a31,31,0,0,1,.48-8.87,56,56,0,0,1,2.62-9.73Zm6.65,3.46c.22-1.47.44-2.84.62-3.9h3.08c-.21,1-.49,2.15-.64,3.27l-.09.63h3.07l-.48,2.73h-3c-.3,2.08-.55,4.1-.76,5.53a12.35,12.35,0,0,1,3.05,2.23l-2.1,2.25a11.12,11.12,0,0,0-1.54-1.47c-.75,2.15-2.25,3.29-5.09,3.29-3,0-4.43-1.77-4.09-3.72s2.52-3.58,5.27-3.58A11.26,11.26,0,0,1,171,128c.19-1.32.41-3,.65-4.66H165.7l.48-2.73Zm-3.17,9.65c-1.26,0-2.06.49-2.19,1.21s.5,1.21,1.72,1.21c1.49,0,1.92-.6,2.22-2.19A6.77,6.77,0,0,0,168.84,130.23Z"/><path class="b" d="M67,160.91a9.16,9.16,0,0,1,3.32-4.75l2,1.58a5.74,5.74,0,0,0-2.13,2.73c-.2,1.13,1.46,1.46,5.53,1.46a28.4,28.4,0,0,0,6.37-.74l-.07,3.1a42.5,42.5,0,0,1-7,.58c-5.79,0-8.54-1-8-3.94ZM77.3,148.43a57.12,57.12,0,0,0,5.79-.26l.65,2.57c-1.41.74-4.93,3-6.59,4.21l-1.72-1.8c1.09-.65,2.39-1.47,3.24-2-.83.05-1.92.09-2.68.09a32.1,32.1,0,0,1-6.09-.61l1-2.77a30.39,30.39,0,0,0,6.42.59Z"/><path class="b" d="M94.3,149.1c.26-1,.46-1.89.64-2.78l3.09.09c-.21.91-.45,1.82-.7,2.69h9.28l-.48,2.73H96.44a22.72,22.72,0,0,1-2,4.33,14.56,14.56,0,0,1,6.12-1.56c3.39,0,4.93,2.15,4.46,4.86-.58,3.25-3.44,5.83-10.09,5.83-.91,0-1.85,0-2.9-.14l.37-2.81a26.87,26.87,0,0,0,3.47.24c3.87,0,5.87-1.35,6.17-3.06.24-1.36-.75-2.3-2.33-2.3-2.36,0-4.74,1-8.13,3.36l-1.93-1.84a20.64,20.64,0,0,0,3.82-6.91H89.51L90,149.1Z"/><path class="b" d="M114.57,156.9a14.35,14.35,0,0,1,6.83-2.1c3.38,0,5.16,1.84,4.66,4.66-.65,3.66-3.82,5.83-10.52,5.83-.39,0-1,0-1.47,0l-.11-2.79c.74.06,1.78.11,2.38.11,4.44,0,6.35-1.24,6.67-3.06.24-1.34-.48-2.28-2.63-2.28s-4.45,1.15-7.13,3.36l-2.2-1.06c.86-4.89,1.73-7.13,3.81-9.58l2.6.89A11.08,11.08,0,0,0,114.57,156.9Zm0-8,1.22-2.73a63,63,0,0,1,9.72,2.23l-1.24,2.73A45.93,45.93,0,0,0,114.52,149Z"/><path class="c" d="M62,98.69a5.51,5.51,0,0,1-5.5-5.5V83.25H58a6.34,6.34,0,0,0,0-12.68h-1.5V60.64A5.51,5.51,0,0,1,62,55.13h82.35a5.51,5.51,0,0,1,5.51,5.51v9.93h-1.5a6.34,6.34,0,0,0,0,12.68h1.5v9.94a5.51,5.51,0,0,1-5.51,5.5Z"/><path class="c" d="M144.39,56.63a4,4,0,0,1,4,4v8.43a7.84,7.84,0,0,0,0,15.68v8.44a4,4,0,0,1-4,4H62a4,4,0,0,1-4-4V84.75a7.84,7.84,0,0,0,0-15.68V60.64a4,4,0,0,1,4-4h82.35m0-3H62a7,7,0,0,0-7,7V72.07h3a4.84,4.84,0,0,1,0,9.68H55V93.19a7,7,0,0,0,7,7h82.35a7,7,0,0,0,7-7V81.75h-3a4.84,4.84,0,0,1,0-9.68h3V60.64a7,7,0,0,0-7-7Z"/><line class="d" x1="132.55" y1="56.63" x2="132.55" y2="58.63"/><line class="e" x1="132.55" y1="62.7" x2="132.55" y2="93.16"/><line class="d" x1="132.55" y1="95.19" x2="132.55" y2="97.19"/><path class="f" d="M52.57,91.1a5.5,5.5,0,0,1-5.5-5.5V75.66h1.5a6.34,6.34,0,1,0,0-12.67h-1.5V53.05a5.51,5.51,0,0,1,5.5-5.51h82.35a5.51,5.51,0,0,1,5.51,5.51V63h-1.5a6.34,6.34,0,1,0,0,12.67h1.5V85.6a5.51,5.51,0,0,1-5.51,5.5Z"/><path class="c" d="M134.92,49a4,4,0,0,1,4,4v8.44a7.84,7.84,0,1,0,0,15.67V85.6a4,4,0,0,1-4,4H52.57a4,4,0,0,1-4-4V77.16a7.84,7.84,0,1,0,0-15.67V53.05a4,4,0,0,1,4-4h82.35m0-3H52.57a7,7,0,0,0-7,7V64.49h3a4.84,4.84,0,1,1,0,9.67h-3V85.6a7,7,0,0,0,7,7h82.35a7,7,0,0,0,7-7V74.16h-3a4.84,4.84,0,1,1,0-9.67h3V53.05a7,7,0,0,0-7-7Z"/><line class="d" x1="122.94" y1="49.04" x2="122.94" y2="51.04"/><line class="e" x1="122.94" y1="55.11" x2="122.94" y2="85.57"/><line class="d" x1="122.94" y1="87.6" x2="122.94" y2="89.6"/><path class="b" d="M67,75.9H63.14V65H61V61.57h8.22V65H67Z"/><path class="b" d="M74.48,75.9H70.61V61.57h3.87Z"/><path class="b" d="M84.92,71.49l-.22,4.14a6.21,6.21,0,0,1-2.31.52,5.33,5.33,0,0,1-4-1.76,7.94,7.94,0,0,1-1.84-5.6,8.15,8.15,0,0,1,1.73-5.43,5.71,5.71,0,0,1,4.61-2,5.46,5.46,0,0,1,1.91.36v4.09A2.48,2.48,0,0,0,83,64.9a2.11,2.11,0,0,0-1.86,1,5.16,5.16,0,0,0-.66,2.82,6.74,6.74,0,0,0,.16,1.56,3.62,3.62,0,0,0,.48,1.16,2.2,2.2,0,0,0,.77.72,2.08,2.08,0,0,0,1,.25A3,3,0,0,0,84.92,71.49Z"/><path class="b" d="M97.65,75.9H93.47L90.9,69.29,91,75.9H87.14V61.57H91l-.11,6.15,2.29-6.15h4.08l-3.09,6.92Z"/><path class="b" d="M99.14,75.9V61.57h7.19v3.37H103V67h3v3.24h-3v2.19h3.32V75.9Z"/><path class="b" d="M113.37,75.9H109.5V65h-2.14V61.57h8.23V65h-2.22Z"/></svg>