<svg xmlns="http://www.w3.org/2000/svg" viewBox="0 0 691.78 307.23"><defs><style>.cls-1{fill:#fff;}</style></defs><g id="レイヤー_2" data-name="レイヤー 2"><g id="レイヤー_2-2" data-name="レイヤー 2"><path class="cls-1" d="M22.55,157a13.58,13.58,0,0,1-13,11.09A9.26,9.26,0,0,1,.14,157a13.62,13.62,0,0,1,12.94-11.14A9.35,9.35,0,0,1,22.55,157Zm-20,0a7.38,7.38,0,0,0,7.38,8.89A10.84,10.84,0,0,0,20.15,157c.77-4.88-2.48-8.9-7.41-8.9A10.73,10.73,0,0,0,2.54,157Z"/><path class="cls-1" d="M26.48,167.7h-2.4l3.39-21.49H31c1.85,0,3.76.06,5.16,1.14a5.1,5.1,0,0,1,1.65,4.9A7.3,7.3,0,0,1,35,156.87a8.67,8.67,0,0,1-5.33,1.42H28Zm1.85-11.63h1.6c2.65,0,5-.8,5.5-3.87.57-3.51-2.23-3.77-5-3.77h-.88Z"/><path class="cls-1" d="M41.81,146.21H53l-.34,2.22H43.86l-1,6.39h8.5L51,157h-8.5l-1.34,8.44H49.9l-.34,2.22H38.42Z"/><path class="cls-1" d="M57.31,145.3l14,17.56,2.62-16.65h2.39l-3.53,22.46-14-17.53L56.17,167.7H53.78Z"/><path class="cls-1" d="M95.34,138.81l2.39-3.33h7L99.7,167.7H96.11l4.57-28.89Z"/><path class="cls-1" d="M117.1,138.81l.51-3.33h23.76l-26.79,32.78L112,166.59l22.7-27.78Z"/><path class="cls-1" d="M146,165.82a3,3,0,0,1-2.78,2.44,2,2,0,0,1-2-2.44,2.93,2.93,0,0,1,2.78-2.35A2,2,0,0,1,146,165.82Zm2.61-16.41a3,3,0,0,1-2.78,2.43,2,2,0,0,1-2-2.43,2.93,2.93,0,0,1,2.78-2.35A2,2,0,0,1,148.56,149.41Z"/><path class="cls-1" d="M177.11,151.63c-1.28,8-6.84,16.63-14.19,16.63s-10.17-8.68-8.89-16.63c1-6.62,6-16.71,14.15-16.71S178.14,145,177.11,151.63Zm-19.53.17c-.64,4.53-.09,13.12,5.85,13.12s9.24-8.59,10-13.12.25-13.55-5.81-13.55S158.22,147.23,157.58,151.8Z"/><path class="cls-1" d="M203.44,151.63c-1.28,8-6.84,16.63-14.19,16.63s-10.17-8.68-8.89-16.63c1-6.62,6-16.71,14.15-16.71S204.47,145,203.44,151.63Zm-19.53.17c-.64,4.53-.08,13.12,5.86,13.12s9.23-8.59,10-13.12.26-13.55-5.81-13.55S184.55,147.23,183.91,151.8Z"/><path class="cls-1" d="M230.61,145l-17.67,27.14-1.71-.86,17.64-27.13Z"/><path class="cls-1" d="M251,150.4a3.27,3.27,0,0,0-3.34-2.34,4.12,4.12,0,0,0-4.07,3.34c-.32,1.85,1.48,2.7,2.82,3.36l1.31.63c2.62,1.22,4.76,2.62,4.22,6a8.08,8.08,0,0,1-7.81,6.64,5.47,5.47,0,0,1-5.82-5.56l2.42-.65a3.67,3.67,0,0,0,3.68,4,5.29,5.29,0,0,0,5.1-4.19c.4-2.51-1.45-3.37-3.3-4.28l-1.2-.57c-2.34-1.14-4.3-2.42-3.82-5.5a6.84,6.84,0,0,1,6.87-5.47,5.12,5.12,0,0,1,5,3.33Z"/><path class="cls-1" d="M260.1,167.7h-2.39l3.05-19.27h-5.19l.34-2.22h12.83l-.34,2.22h-5.25Z"/><path class="cls-1" d="M269.71,161.6l-3.57,6.1h-2.62L277,145.18l6.1,22.52h-2.65l-1.57-6.1Zm6.35-10.83-5,8.61h7.27Z"/><path class="cls-1" d="M287.83,167.7h-2.39l3.39-21.49h3.1c4.08,0,7.7,1.08,6.93,5.93a6.81,6.81,0,0,1-6.3,5.93l5.3,9.63h-2.93l-5-9.43h-.6Zm1.82-11.54h.75c2.7,0,5.53-.52,6.07-3.85.54-3.54-2-3.88-4.88-3.88h-.71Z"/><path class="cls-1" d="M306,167.7h-2.39l3.05-19.27h-5.19l.34-2.22h12.83l-.34,2.22h-5.25Z"/><path class="cls-1" d="M331.64,138.81l2.4-3.33h7L336,167.7h-3.59L337,138.81Z"/><path class="cls-1" d="M372.59,143.89a9.91,9.91,0,0,1-5,7.06c2.82,1.36,4.06,4.44,3.5,7.73a11.43,11.43,0,0,1-11.32,9.58c-5.56,0-9.19-4-8.34-9.58a10.25,10.25,0,0,1,6-7.73,6.91,6.91,0,0,1-2.82-7.06,10.69,10.69,0,0,1,10.42-9C370,134.92,373.4,138.72,372.59,143.89ZM355,158.73a5.16,5.16,0,0,0,5.26,6.19,7.5,7.5,0,0,0,7.22-6.19,5.14,5.14,0,0,0-5.25-6.2A7.54,7.54,0,0,0,355,158.73Zm3-14.92a4.66,4.66,0,0,0,4.7,5.64,6.88,6.88,0,0,0,6.5-5.64,4.68,4.68,0,0,0-4.75-5.56A6.74,6.74,0,0,0,358,143.81Z"/><path class="cls-1" d="M382.26,165.82a3,3,0,0,1-2.78,2.44,2,2,0,0,1-2-2.44,2.92,2.92,0,0,1,2.78-2.35A2,2,0,0,1,382.26,165.82Zm2.6-16.41a3,3,0,0,1-2.78,2.43,2,2,0,0,1-2-2.43,2.91,2.91,0,0,1,2.77-2.35A2,2,0,0,1,384.86,149.41Z"/><path class="cls-1" d="M413.41,151.63c-1.28,8-6.83,16.63-14.18,16.63s-10.18-8.68-8.89-16.63c1-6.62,6-16.71,14.14-16.71S414.44,145,413.41,151.63Zm-19.53.17c-.64,4.53-.08,13.12,5.86,13.12s9.23-8.59,10-13.12.26-13.55-5.81-13.55S394.52,147.23,393.88,151.8Z"/><path class="cls-1" d="M439.75,151.63c-1.29,8-6.84,16.63-14.19,16.63s-10.17-8.68-8.89-16.63c1-6.62,6-16.71,14.14-16.71S440.77,145,439.75,151.63Zm-19.54.17c-.64,4.53-.08,13.12,5.86,13.12s9.23-8.59,10-13.12.26-13.55-5.81-13.55S420.86,147.23,420.21,151.8Z"/><path class="cls-1" d="M458.25,146.21a44,44,0,0,0-4.45,13.68,37.36,37.36,0,0,0,.12,13.68l-2.17,1c-1.31-4.25-1-10-.29-14.65s2.26-10.4,4.94-14.65Z"/><path class="cls-1" d="M22.55,213a13.58,13.58,0,0,1-13,11.09A9.26,9.26,0,0,1,.14,213a13.62,13.62,0,0,1,12.94-11.14A9.35,9.35,0,0,1,22.55,213Zm-20,0c-.77,4.85,2.51,8.9,7.38,8.9a10.84,10.84,0,0,0,10.23-8.9c.77-4.87-2.48-8.89-7.41-8.89A10.73,10.73,0,0,0,2.54,212.93Z"/><path class="cls-1" d="M26.48,223.68h-2.4l3.39-21.49H31c1.85,0,3.76.05,5.16,1.14a5.1,5.1,0,0,1,1.65,4.9A7.3,7.3,0,0,1,35,212.85a8.67,8.67,0,0,1-5.33,1.42H28Zm1.85-11.63h1.6c2.65,0,5-.8,5.5-3.88.57-3.5-2.23-3.76-5-3.76h-.88Z"/><path class="cls-1" d="M41.81,202.19H53l-.34,2.22H43.86l-1,6.39h8.5L51,213h-8.5l-1.34,8.44H49.9l-.34,2.22H38.42Z"/><path class="cls-1" d="M57.31,201.28l14,17.55,2.62-16.64h2.39l-3.53,22.46-14-17.53-2.62,16.56H53.78Z"/><path class="cls-1" d="M95.34,194.79l2.39-3.34h7L99.7,223.68H96.11l4.57-28.89Z"/><path class="cls-1" d="M117.1,194.79l.51-3.34h23.76l-26.79,32.79L112,222.57l22.7-27.78Z"/><path class="cls-1" d="M146,221.8a3,3,0,0,1-2.78,2.44,2,2,0,0,1-2-2.44,2.93,2.93,0,0,1,2.78-2.35A2,2,0,0,1,146,221.8Zm2.61-16.41a3,3,0,0,1-2.78,2.43,2,2,0,0,1-2-2.43,2.92,2.92,0,0,1,2.78-2.35A2,2,0,0,1,148.56,205.39Z"/><path class="cls-1" d="M164.37,205.09c3.42-.13,6.54-1.16,7.19-5.22.55-3.42-1.37-5.64-4.75-5.64-3.21,0-5.34,2.14-6.11,5.17h-3.55c1.33-5.13,5-8.5,10.26-8.5s8.59,3.5,7.78,8.8a9.7,9.7,0,0,1-5.26,7.05c2.86,1.41,3.89,4.62,3.33,7.91a11.57,11.57,0,0,1-11.49,9.58c-5.22,0-8.94-3.55-8.17-8.94h3.51c-.34,3.29,2,5.6,5.3,5.6a7.66,7.66,0,0,0,7.31-6.45c.64-4.11-1.93-6.16-5.86-6Z"/><path class="cls-1" d="M203.44,207.61c-1.28,7.95-6.84,16.63-14.19,16.63s-10.17-8.68-8.89-16.63c1-6.63,6-16.71,14.15-16.71S204.47,201,203.44,207.61Zm-19.53.17c-.64,4.53-.08,13.12,5.86,13.12s9.23-8.59,10-13.12.26-13.55-5.81-13.55S184.55,203.21,183.91,207.78Z"/><path class="cls-1" d="M230.61,201l-17.67,27.13-1.71-.85,17.64-27.14Z"/><path class="cls-1" d="M251,206.38a3.27,3.27,0,0,0-3.34-2.34,4.12,4.12,0,0,0-4.07,3.34c-.32,1.85,1.48,2.7,2.82,3.36l1.31.63c2.62,1.22,4.76,2.62,4.22,6a8.08,8.08,0,0,1-7.81,6.64,5.47,5.47,0,0,1-5.82-5.56l2.42-.65a3.67,3.67,0,0,0,3.68,4,5.29,5.29,0,0,0,5.1-4.19c.4-2.51-1.45-3.37-3.3-4.28l-1.2-.57c-2.34-1.14-4.3-2.42-3.82-5.5a6.84,6.84,0,0,1,6.87-5.47,5.12,5.12,0,0,1,5,3.33Z"/><path class="cls-1" d="M260.1,223.68h-2.39l3.05-19.27h-5.19l.34-2.22h12.83l-.34,2.22h-5.25Z"/><path class="cls-1" d="M269.71,217.58l-3.57,6.1h-2.62L277,201.16l6.1,22.52h-2.65l-1.57-6.1Zm6.35-10.83-5,8.61h7.27Z"/><path class="cls-1" d="M287.83,223.68h-2.39l3.39-21.49h3.1c4.08,0,7.7,1.08,6.93,5.93a6.81,6.81,0,0,1-6.3,5.93l5.3,9.63h-2.93l-5-9.44h-.6Zm1.82-11.54h.75c2.7,0,5.53-.52,6.07-3.85.54-3.54-2-3.88-4.88-3.88h-.71Z"/><path class="cls-1" d="M306,223.68h-2.39l3.05-19.27h-5.19l.34-2.22h12.83l-.34,2.22h-5.25Z"/><path class="cls-1" d="M331.64,194.79l2.4-3.34h7L336,223.68h-3.59L337,194.79Z"/><path class="cls-1" d="M372.59,199.87a9.93,9.93,0,0,1-5,7.06c2.82,1.36,4.06,4.44,3.5,7.73a11.43,11.43,0,0,1-11.32,9.58c-5.56,0-9.19-4-8.34-9.58a10.25,10.25,0,0,1,6-7.73,6.92,6.92,0,0,1-2.82-7.06,10.69,10.69,0,0,1,10.42-9C370,190.9,373.4,194.7,372.59,199.87ZM355,214.7a5.16,5.16,0,0,0,5.26,6.2,7.5,7.5,0,0,0,7.22-6.2,5.14,5.14,0,0,0-5.25-6.19A7.54,7.54,0,0,0,355,214.7Zm3-14.91a4.66,4.66,0,0,0,4.7,5.64,6.88,6.88,0,0,0,6.5-5.64,4.68,4.68,0,0,0-4.75-5.56A6.74,6.74,0,0,0,358,199.79Z"/><path class="cls-1" d="M382.26,221.8a3,3,0,0,1-2.78,2.44,2,2,0,0,1-2-2.44,2.92,2.92,0,0,1,2.78-2.35A2,2,0,0,1,382.26,221.8Zm2.6-16.41a3,3,0,0,1-2.78,2.43,2,2,0,0,1-2-2.43,2.9,2.9,0,0,1,2.77-2.35A2,2,0,0,1,384.86,205.39Z"/><path class="cls-1" d="M413.41,207.61c-1.28,7.95-6.83,16.63-14.18,16.63s-10.18-8.68-8.89-16.63c1-6.63,6-16.71,14.14-16.71S414.44,201,413.41,207.61Zm-19.53.17c-.64,4.53-.08,13.12,5.86,13.12s9.23-8.59,10-13.12.26-13.55-5.81-13.55S394.52,203.21,393.88,207.78Z"/><path class="cls-1" d="M439.75,207.61c-1.29,7.95-6.84,16.63-14.19,16.63s-10.17-8.68-8.89-16.63c1-6.63,6-16.71,14.14-16.71S440.77,201,439.75,207.61Zm-19.54.17c-.64,4.53-.08,13.12,5.86,13.12s9.23-8.59,10-13.12.26-13.55-5.81-13.55S420.86,203.21,420.21,207.78Z"/><path class="cls-1" d="M458.25,202.19a44,44,0,0,0-4.45,13.68,37.37,37.37,0,0,0,.12,13.68l-2.17,1c-1.31-4.25-1-10-.29-14.65s2.26-10.4,4.94-14.65Z"/><path class="cls-1" d="M467.57,224.92l-.15,1.05h-1.94l2.7-19.2h3.42l.53-3.79H468l.29-2.09h13.8l-.3,2.09h-4.27l-.53,3.79h3.82l-2.7,19.2h-2l.15-1.05Zm9-2,.37-2.68h-8.69l-.38,2.68Zm.64-4.61.39-2.74h-1.8c-1.47-.06-1.74-.54-1.48-2.42l.63-4.51h-1.76l-.28,2a11.24,11.24,0,0,1-3.08,6.3l-1-.74-.3,2.11Zm-5.75-7.73.27-1.94h-1.85l-1,7.21A9.25,9.25,0,0,0,471.43,210.61Zm3.76-3.84.53-3.79H474l-.54,3.79Zm.55,6.41c-.11.82-.05,1,.44,1a10,10,0,0,0,1.34,0h.25l.77-5.48h-2.16Zm7.76-3.28H490l1-6.84h-7.84l.3-2.11h10.09L491.93,212h-7.79l-1.29,9.2c-.22,1.6,0,1.86,1.16,1.89s2.74,0,3.88,0,1.34-.23,1.81-3.17l2.14.37c-.92,4.53-1.41,5-4.1,5.1-1.29,0-3.17,0-4.28,0-2.76-.05-3.36-.79-2.89-4.16l1.59-11.34Z"/><path class="cls-1" d="M499.85,226h-2.37l2.08-14.73a47.88,47.88,0,0,1-3.44,4.19l-1.38-1.8a46.7,46.7,0,0,0,8.8-13.9l2.26.54a50.08,50.08,0,0,1-3.24,6.41Zm5.92-.94-.13.94h-2.28l1.3-9.26h14.39l-1.3,9.26h-2.37l.14-.94Zm16.75-20.4-.29,2.08H504l.29-2.08Zm-3.25,8.12L519,214.6H505.3l.26-1.85Zm.55-3.93-.26,1.85H505.85l.26-1.85Zm-4,14.19.61-4.36h-9.74l-.62,4.36Zm4.57-22.34-.27,1.88H507.73l.27-1.88Z"/><path class="cls-1" d="M547.37,201l-17.68,27.13L528,227.3l17.65-27.14Z"/><path class="cls-1" d="M565.78,206.38a3.27,3.27,0,0,0-3.34-2.34,4.14,4.14,0,0,0-4.08,3.34c-.31,1.85,1.49,2.7,2.83,3.36l1.31.63c2.62,1.22,4.76,2.62,4.22,6a8.08,8.08,0,0,1-7.81,6.64,5.47,5.47,0,0,1-5.82-5.56l2.42-.65a3.67,3.67,0,0,0,3.68,4,5.29,5.29,0,0,0,5.1-4.19c.4-2.51-1.45-3.37-3.3-4.28l-1.2-.57c-2.34-1.14-4.3-2.42-3.82-5.5a6.84,6.84,0,0,1,6.87-5.47,5.12,5.12,0,0,1,5,3.33Z"/><path class="cls-1" d="M571.62,223.68h-2.28l1.79-11.29h-1.4l.32-2.11h1.39l.77-4.81h2.28l-.76,4.81h2.39l-.31,2.11h-2.4Z"/><path class="cls-1" d="M580.11,211.74h.06c1-1.06,1.79-1.83,3.27-1.83a3.5,3.5,0,0,1,1.94.63L584,212.62a1.84,1.84,0,0,0-1.26-.6c-2.51,0-3.13,3.22-3.42,5l-1,6.7H576l2.11-13.4h2.28Z"/><path class="cls-1" d="M587.75,217.47a3.61,3.61,0,0,0,3.67,4.47c1.94,0,3.37-1.17,4.51-2.76l1.76,1.11a8.15,8.15,0,0,1-6.78,3.76c-4,0-6.07-3.05-5.47-6.9s3.47-7.24,7.66-7.24,6,3.57,5.16,7.56Zm8.4-1.94a3.35,3.35,0,0,0-3.36-3.51,5.21,5.21,0,0,0-4.65,3.51Z"/><path class="cls-1" d="M612.63,223.68h-2.28l.28-1.85h-.06a6.62,6.62,0,0,1-5,2.22c-3.93,0-5.9-3.33-5.3-7s3.57-7.1,7.58-7.1a4.83,4.83,0,0,1,4.22,2.28h.06l.28-1.91h2.28Zm-10-6.84c-.43,2.62.74,5.1,3.59,5.1s4.85-2.36,5.27-5.07-.91-4.85-3.73-4.85C605.16,212,603.08,214.33,602.68,216.84Z"/><path class="cls-1" d="M621,211.74h.06a4.61,4.61,0,0,1,3.53-1.83,3.38,3.38,0,0,1,3.34,2.23,5.35,5.35,0,0,1,4.39-2.23c3.42,0,3.82,2.8,3.36,5.62l-1.28,8.15h-2.28l1.23-7.78c.28-1.74.51-3.88-1.83-3.88-2.62,0-3.31,2.54-3.65,4.56l-1.11,7.1h-2.28l1.2-7.61c.25-1.65.45-4-1.74-4-2.68,0-3.39,2.71-3.74,4.73l-1.08,6.93h-2.28l2.11-13.4h2.28Z"/><path class="cls-1" d="M641.43,223.68h-2.28l2.11-13.4h2.28Zm3.4-18.44a2,2,0,0,1-1.88,1.62,1.34,1.34,0,0,1-1.37-1.62,2,2,0,0,1,1.91-1.63A1.35,1.35,0,0,1,644.83,205.24Z"/><path class="cls-1" d="M650.33,211.91h0a5.44,5.44,0,0,1,4.17-2c3.7,0,4.13,2.68,3.62,5.82l-1.26,8h-2.28l1.2-7.55c.34-2.17.48-4.11-2.17-4.11-3.13,0-3.79,2.91-4.19,5.3l-1,6.36h-2.28l2.11-13.4h2.28Z"/><path class="cls-1" d="M673.44,223c-.34,2.14-.66,4-2.28,5.76a7.63,7.63,0,0,1-5.56,2.37c-3.73,0-6.13-2.37-5.61-6.16h2.28c-.37,2.48,1.16,4,3.62,4,3.53,0,4.73-2.6,5.18-5.62l.26-1.59h-.06a7,7,0,0,1-5,2.22c-3.91,0-5.88-3.28-5.28-7s3.65-7.13,7.61-7.13a4.64,4.64,0,0,1,4.19,2.28h.06l.28-1.91h2.28Zm-10.06-6.18c-.43,2.62.74,5.1,3.59,5.1s4.85-2.36,5.27-5.07-.91-4.85-3.73-4.85C665.86,212,663.78,214.33,663.38,216.84Z"/><path class="cls-1" d="M690.88,201.22c1.31,4.25,1,10,.26,14.65s-2.23,10.4-4.91,14.65l-1.88-1a43.21,43.21,0,0,0,4.45-13.68,36.72,36.72,0,0,0-.12-13.68Z"/><path class="cls-1" d="M547.37,145l-17.68,27.14-1.71-.86,17.65-27.13Z"/><path class="cls-1" d="M562.75,162.6l8.73-16.39h2.59L561.76,169l-5.13-22.77h2.59Z"/><path class="cls-1" d="M572.87,161.49C572.5,164,574,166,576.55,166c1.94,0,3.36-1.17,4.5-2.76l1.77,1.11a8.17,8.17,0,0,1-6.79,3.76c-4,0-6.07-3-5.47-6.9s3.48-7.24,7.67-7.24,6,3.57,5.16,7.56Zm8.41-1.94a3.35,3.35,0,0,0-3.36-3.51,5.21,5.21,0,0,0-4.65,3.51Z"/><path class="cls-1" d="M589.66,155.93h.05a5.47,5.47,0,0,1,4.16-2c3.71,0,4.14,2.68,3.62,5.82l-1.25,7.95H594l1.2-7.55c.34-2.17.48-4.11-2.17-4.11-3.13,0-3.79,2.91-4.19,5.3l-1,6.36h-2.28l2.11-13.4h2.28Z"/><path class="cls-1" d="M603.62,161.77c-.37,2.25-.4,4.19,2.37,4.19s3.3-1.94,3.67-4.19l1.17-7.47h2.28l-1.2,7.73c-.57,3.56-2.31,6-6.27,6s-4.9-2.48-4.33-6l1.2-7.73h2.28Z"/><path class="cls-1" d="M617.3,161.49C616.93,164,618.38,166,621,166c1.93,0,3.36-1.17,4.5-2.76l1.77,1.11a8.17,8.17,0,0,1-6.79,3.76c-4,0-6.07-3-5.47-6.9s3.48-7.24,7.67-7.24,6,3.57,5.16,7.56Zm8.41-1.94a3.35,3.35,0,0,0-3.37-3.51,5.21,5.21,0,0,0-4.64,3.51Z"/><path class="cls-1" d="M643.06,145.24c1.31,4.25,1,10,.26,14.65s-2.23,10.4-4.91,14.65l-1.88-1A43.13,43.13,0,0,0,641,159.89a36.73,36.73,0,0,0-.11-13.68Z"/><path class="cls-1" d="M470.7,166.55c1.61-2.4,3.24-5,4.35-7.07H467.5l.3-2.14h23.74l-.3,2.14H477.68c-1.2,2-2.78,4.53-4.46,6.92,3.89-.25,8.2-.54,11.69-.82a43.6,43.6,0,0,0-3.1-3.85l2-1.17a35.48,35.48,0,0,1,6,8.15L487.42,170a14.84,14.84,0,0,0-1.32-2.56c-5.75.57-14.55,1.31-19.47,1.68l-.19-2.34C467.62,166.75,469.06,166.66,470.7,166.55Zm17-12.2H472.58l.25-1.8a32.82,32.82,0,0,1-4.77,2.34l-1.11-2a32.28,32.28,0,0,0,13.33-9.06h2.31a23.75,23.75,0,0,0,11.15,9.06l-1.8,2.08a25.78,25.78,0,0,1-4-2.22Zm-.47-2.11a27,27,0,0,1-6.15-6.33,40.23,40.23,0,0,1-7.73,6.33Z"/><path class="cls-1" d="M498,161.08l1.24-8.81H496l.31-2.17h3.19l.89-6.35h2.28l-.89,6.35h3l-.3,2.17h-3l-1.13,8c1.08-.37,2.1-.72,3-1.06l0,2c-2.6,1.08-6.58,2.59-8.83,3.39l-.32-2.34Zm5.44,8.32-1.5-1.09a26.43,26.43,0,0,0,7.3-7.55h-2.33a29.21,29.21,0,0,1-4.4,4.3L500.93,164a25.35,25.35,0,0,0,6.3-6.95h-3.44l.26-1.88h17.56l-.27,1.88H509.43a21.9,21.9,0,0,1-1.15,1.88h12.17c-1.4,6.75-2.42,10.15-3.5,10.74a3.4,3.4,0,0,1-1.57.37c-.54,0-1.82,0-2.53,0l0-2.06c.63,0,1.68.06,2.14,0a.92.92,0,0,0,.56-.14c.56-.31,1.26-2.48,2.21-7h-1.93a25.88,25.88,0,0,1-6.68,9.18l-1.56-1.08a24,24,0,0,0,6.13-8.1h-2.4A27.91,27.91,0,0,1,503.41,169.4Zm17.64-24.94-1.24,8.84H506.07l1.24-8.84Zm-12.52,7.18h9.21l.29-2.11h-9.2Zm.49-3.47h9.2l.29-2.06h-9.2Z"/><path class="cls-1" d="M261,290.44h2.05l-2.63,7.4c-.35,1-1,2.46,0,2.46,1.34,0,3.66-2.78,4.24-5.54,1.1-5.1-2.06-8.06-6.79-8.06a10.67,10.67,0,0,0-10.35,9.22c-.9,5.57,2.67,9.23,7.92,9.23a10.92,10.92,0,0,0,5.77-1.34l1.8,1.48a17.71,17.71,0,0,1-8.13,1.94c-6.23,0-10.5-4.78-9.45-11.31a13.38,13.38,0,0,1,12.85-11.31,8.65,8.65,0,0,1,6.44,2.49,7.48,7.48,0,0,1,2.2,6.65,11.65,11.65,0,0,1-2.78,6.09,6.59,6.59,0,0,1-4.85,2.49c-.81,0-1.3-.66-1.3-1.77a6.26,6.26,0,0,1-4.21,1.77c-2.55,0-4.49-2.35-4-5.31.55-3.48,3.39-6.84,7-6.84a3.79,3.79,0,0,1,3.54,2Zm-6.59,9.86c2.58,0,4-2.17,4.56-4.23.66-2.32-.35-3.92-2.35-3.92-2.35,0-4.44,2.44-4.79,4.67C251.52,298.79,252.39,300.3,254.42,300.3Z"/><path class="cls-1" d="M282.81,306.86h-2.44l3.11-19.61H278.2l.35-2.26H291.6l-.35,2.26h-5.34Z"/><path class="cls-1" d="M314.08,296a13.82,13.82,0,0,1-13.2,11.28,9.41,9.41,0,0,1-9.6-11.28,13.85,13.85,0,0,1,13.17-11.34A9.52,9.52,0,0,1,314.08,296Zm-20.37,0c-.78,4.93,2.56,9.05,7.52,9.05a11,11,0,0,0,10.41-9.05c.78-5-2.52-9.05-7.54-9.05A10.93,10.93,0,0,0,293.71,295.92Z"/><path class="cls-1" d="M317.12,285h2.81l4,9.74,7.11-9.74h2.81l-9.14,12.47-1.47,9.4h-2.44l1.48-9.4Z"/><path class="cls-1" d="M356.27,296a13.81,13.81,0,0,1-13.2,11.28,9.42,9.42,0,0,1-9.6-11.28,13.86,13.86,0,0,1,13.17-11.34A9.51,9.51,0,0,1,356.27,296Zm-20.36,0c-.78,4.93,2.55,9.05,7.51,9.05a11,11,0,0,0,10.41-9.05c.79-5-2.52-9.05-7.54-9.05A10.91,10.91,0,0,0,335.91,295.92Z"/><path class="cls-1" d="M370.54,289.25a3.33,3.33,0,0,0-3.4-2.38,4.2,4.2,0,0,0-4.15,3.4c-.31,1.88,1.51,2.75,2.88,3.42l1.33.64c2.67,1.24,4.85,2.67,4.29,6.15a8.2,8.2,0,0,1-7.94,6.75,5.57,5.57,0,0,1-5.92-5.65l2.46-.67a3.73,3.73,0,0,0,3.75,4.06,5.38,5.38,0,0,0,5.19-4.26c.4-2.55-1.48-3.42-3.37-4.35l-1.21-.58c-2.38-1.16-4.39-2.47-3.89-5.6a7,7,0,0,1,7-5.57,5.2,5.2,0,0,1,5.13,3.39Z"/><path class="cls-1" d="M377.81,298c-.26,1.63-.61,3.48.21,4.87a4.66,4.66,0,0,0,4.06,2.09,6.87,6.87,0,0,0,4.61-1.94c1.39-1.39,1.6-3.31,1.86-5l2.06-13H393l-2.14,13.69c-.38,2.38-.87,4.26-2.88,6.06a9.47,9.47,0,0,1-6.29,2.49,7,7,0,0,1-5.31-2.23c-1.62-1.83-1.54-3.83-1.13-6.32L377.44,285h2.43Z"/><path class="cls-1" d="M405.28,306.86h-2.44L406.29,285h3.6c1.88,0,3.83.05,5.25,1.16a5.19,5.19,0,0,1,1.68,5,7.46,7.46,0,0,1-2.84,4.7,8.91,8.91,0,0,1-5.43,1.45h-1.77ZM407.16,295h1.63c2.69,0,5.1-.81,5.6-3.94.58-3.57-2.27-3.83-5.11-3.83h-.9Z"/><path class="cls-1" d="M419.92,306.86h-2.44L420.94,285h2.43Z"/><path class="cls-1" d="M430.16,306.86h-2.44l3.11-19.61h-5.28l.34-2.26H439l-.35,2.26h-5.34Z"/><path class="cls-1" d="M53.24,72.22,52,80.39H.83L44.75,36.68c3.77-3.77,6.6-8.07,7.44-13.2,1.36-8.81-4.71-15.3-13.31-15.3-9.54,0-16.77,7-18.45,16.24h-8.8C14,10.59,25.88,0,39.82,0,53,0,63.2,9.64,61,23.37A28.65,28.65,0,0,1,52.4,40L19.91,72.22Z"/><path class="cls-1" d="M128,41c-3.14,19.5-16.77,40.77-34.8,40.77S68.23,60.48,71.37,41C73.89,24.74,86.05,0,106.06,0S130.49,24.74,128,41Zm-47.9.42c-1.57,11.11-.21,32.18,14.36,32.18s22.64-21.07,24.63-32.18.63-33.22-14.25-33.22S81.64,30.19,80.07,41.4Z"/><path class="cls-1" d="M182.37,72.22l-1.26,8.17H130l43.92-43.71c3.77-3.77,6.6-8.07,7.44-13.2,1.36-8.81-4.72-15.3-13.31-15.3-9.54,0-16.77,7-18.45,16.24h-8.8C143.17,10.59,155,0,169,0c13.21,0,23.38,9.64,21.18,23.37A28.65,28.65,0,0,1,181.53,40L149,72.22Z"/><path class="cls-1" d="M207.52,9.54l5.87-8.18h17.3l-12.48,79h-8.8L220.63,9.54Z"/><path class="cls-1" d="M256.58,75.78a7.26,7.26,0,0,1-6.82,6,4.94,4.94,0,0,1-4.92-6A7.15,7.15,0,0,1,251.65,70,4.83,4.83,0,0,1,256.58,75.78Z"/><path class="cls-1" d="M283.41,9.54l5.87-8.18h17.29l-12.47,79h-8.81L296.51,9.54Z"/><path class="cls-1" d="M382.88,41c-3.15,19.5-16.78,40.77-34.8,40.77S323.13,60.48,326.28,41C328.79,24.74,341,0,361,0S385.39,24.74,382.88,41ZM335,41.4c-1.58,11.11-.21,32.18,14.35,32.18S372,52.51,374,41.4s.62-33.22-14.26-33.22S336.55,30.19,335,41.4Z"/><path class="cls-1" d="M407.51,75.78a7.26,7.26,0,0,1-6.82,6,4.94,4.94,0,0,1-4.92-6A7.15,7.15,0,0,1,402.58,70,4.83,4.83,0,0,1,407.51,75.78Z"/><path class="cls-1" d="M480,72.22l-1.26,8.17H427.63l43.92-43.71c3.77-3.77,6.6-8.07,7.44-13.2,1.36-8.81-4.72-15.3-13.31-15.3-9.54,0-16.77,7-18.45,16.24h-8.81C440.84,10.59,452.68,0,466.62,0,479.83,0,490,9.64,487.79,23.37A28.58,28.58,0,0,1,479.2,40L446.71,72.22Z"/><path class="cls-1" d="M511.48,9.54l5.87-8.18h17.29l-12.47,79h-8.8L524.58,9.54Z"/><path class="cls-1" d="M582.73,80.39h-7l9-56.68H569.4l1-6.54h37.74l-1,6.54H591.7Z"/><path class="cls-1" d="M623.06,11.22l-5.45,34.37.08.17c3.44-3.77,7.38-5.87,12.25-5.87,10.9,0,12.15,7.88,10.64,17.11L636.9,80.39h-6.71l3.52-22.22c1-6.37,1.43-12.07-6.37-12.07-9.23,0-11.15,8.55-12.33,15.59l-2.93,18.7h-6.71l11-69.17Z"/><path class="cls-1" d="M658.61,63c-1.09,6.62-1.17,12.33,7,12.33S675.3,69.57,676.39,63l3.44-22h6.71L683,63.71c-1.67,10.48-6.79,17.77-18.44,17.77s-14.43-7.29-12.75-17.77L655.34,41h6.71Z"/></g></g></svg>