<svg xmlns="http://www.w3.org/2000/svg" viewBox="0 0 785.06 307.54"><defs><style>.cls-1{fill:#fff;}</style></defs><g id="レイヤー_2" data-name="レイヤー 2"><g id="レイヤー_2-2" data-name="レイヤー 2"><path class="cls-1" d="M29.52,169.59a13.42,13.42,0,0,1-12.68,10.84,9.13,9.13,0,0,1-9.22-10.84,13.36,13.36,0,0,1,12.66-10.83A9.15,9.15,0,0,1,29.52,169.59ZM9,169.59a8,8,0,0,0,8.09,9.58,11.84,11.84,0,0,0,11.12-9.58,8.06,8.06,0,0,0-8.1-9.57A11.75,11.75,0,0,0,9,169.59Z"/><path class="cls-1" d="M32.46,180.15H31.12L34.45,159h3.72c1.65,0,3.25.11,4.37,1.23a4.88,4.88,0,0,1,1.23,4.34,6.65,6.65,0,0,1-2.43,4.17,7.82,7.82,0,0,1-4.9,1.34H34.06Zm4.23-11.29a5.69,5.69,0,0,0,3.86-1.14,5,5,0,0,0,1.88-3.17,3.61,3.61,0,0,0-1-3.41,5.31,5.31,0,0,0-3.58-.84H35.6l-1.35,8.56Z"/><path class="cls-1" d="M48.81,160.3,47.61,168h8.51l-.2,1.26H47.41l-1.54,9.66h8.74l-.2,1.26H44.33L47.66,159H57.74l-.19,1.26Z"/><path class="cls-1" d="M77.48,180.85,62.76,162l-2.89,18.15H58.53l3.39-21.39,14.75,18.7L79.58,159h1.35Z"/><path class="cls-1" d="M101.19,150.36l1.26-1.89h6l-5,31.68h-2l4.71-29.79Z"/><path class="cls-1" d="M122.23,150.36l.29-1.89h23l-27.72,32-1.39-1.21,25.08-28.91Z"/><path class="cls-1" d="M149.07,178.85a2.11,2.11,0,0,1-2,1.72,1.4,1.4,0,0,1-1.43-1.72,2.07,2.07,0,0,1,2-1.73A1.44,1.44,0,0,1,149.07,178.85ZM151.71,162a2,2,0,0,1-2,1.73,1.45,1.45,0,0,1-1.47-1.73,2.11,2.11,0,0,1,2-1.72A1.4,1.4,0,0,1,151.71,162Z"/><path class="cls-1" d="M180.74,164.1c-1.05,6.55-6.09,16.47-14.16,16.47s-9.91-9.92-8.86-16.47,6.17-16,14-16S181.79,157.46,180.74,164.1Zm-2,0c.76-5-.5-14.16-7.27-14.16s-11,9.16-11.72,14.16c-.92,5.71.42,14.58,7.19,14.58S177.8,169.81,178.72,164.1Z"/><path class="cls-1" d="M206.78,164.1c-1.05,6.55-6.09,16.47-14.16,16.47s-9.91-9.92-8.86-16.47,6.17-16,14-16S207.83,157.46,206.78,164.1Zm-2,0c.76-5-.5-14.16-7.27-14.16s-11,9.16-11.72,14.16c-.92,5.71.42,14.58,7.19,14.58S203.84,169.81,204.76,164.1Z"/><path class="cls-1" d="M234.93,157.55,215.8,184.12l-1-.53L234,157.05Z"/><path class="cls-1" d="M255.84,162.51A4,4,0,0,0,252,160a4.84,4.84,0,0,0-4.62,4c-.34,2.21,1.6,3.13,3.19,3.95l3.7,2.1a3.88,3.88,0,0,1,1.73,4.2c-.56,3.5-4.17,6.13-7.58,6.13a5.36,5.36,0,0,1-5.49-4.54l1.26-.53c.53,2.24,2,3.81,4.51,3.81a6.25,6.25,0,0,0,6-5c.36-2.38-1.91-3.38-3.59-4.28l-3.5-2A3.53,3.53,0,0,1,246,164.1a6.22,6.22,0,0,1,6.24-5.34,4.87,4.87,0,0,1,4.68,3Z"/><path class="cls-1" d="M263.21,180.15h-1.35L265,160.3h-5.46l.19-1.26H272l-.2,1.26h-5.46Z"/><path class="cls-1" d="M272,173.2l-3.92,7h-1.38L279,158.34l5.37,21.81H283l-1.74-7Zm6.46-11.45-5.76,10.19H281Z"/><path class="cls-1" d="M297.25,180.15h-1.54l-5.29-10h-.67l-1.6,10h-1.34L290.14,159h2.63c1.71,0,3.39,0,4.65,1.06a4.6,4.6,0,0,1,1.43,4.54c-.59,3.66-3.44,5.57-6.92,5.51Zm-5.6-11.26a5.8,5.8,0,0,0,3.84-1,5,5,0,0,0,2-3.33,3.39,3.39,0,0,0-1.62-3.81,8.62,8.62,0,0,0-3.72-.47h-.87L290,168.89Z"/><path class="cls-1" d="M304.62,180.15h-1.35l3.14-19.85H301l.2-1.26h12.26l-.2,1.26h-5.46Z"/><path class="cls-1" d="M331.57,150.36l1.26-1.89h6.05l-5,31.68h-2l4.71-29.79Z"/><path class="cls-1" d="M350.09,171.87a10.48,10.48,0,0,1,6.47-8.23,6.85,6.85,0,0,1-3.32-7.23,10.07,10.07,0,0,1,9.83-8.36c4.79,0,7.94,3.57,7.14,8.36a9.94,9.94,0,0,1-5.59,7.23c3.16,1.64,4.46,4.45,3.87,8.23-.8,5-5.63,8.7-10.59,8.7S349.29,176.91,350.09,171.87Zm2.06-.21a5.93,5.93,0,0,0,6.09,7,8.69,8.69,0,0,0,8.27-7,5.94,5.94,0,0,0-6.09-7A8.65,8.65,0,0,0,352.15,171.66Zm3.15-15.29a5.34,5.34,0,0,0,5.46,6.39,7.88,7.88,0,0,0,7.48-6.39,5.44,5.44,0,0,0-5.46-6.43A7.88,7.88,0,0,0,355.3,156.37Z"/><path class="cls-1" d="M379.45,178.85a2.11,2.11,0,0,1-2,1.72,1.41,1.41,0,0,1-1.43-1.72,2.07,2.07,0,0,1,2-1.73A1.43,1.43,0,0,1,379.45,178.85ZM382.09,162a2,2,0,0,1-2,1.73,1.45,1.45,0,0,1-1.47-1.73,2.11,2.11,0,0,1,2-1.72A1.4,1.4,0,0,1,382.09,162Z"/><path class="cls-1" d="M411.12,164.1c-1.05,6.55-6.09,16.47-14.16,16.47s-9.91-9.92-8.86-16.47,6.18-16,14-16S412.17,157.46,411.12,164.1Zm-2,0c.76-5-.5-14.16-7.26-14.16s-11,9.16-11.72,14.16c-.93,5.71.42,14.58,7.18,14.58S408.18,169.81,409.1,164.1Z"/><path class="cls-1" d="M437.16,164.1c-1.05,6.55-6.09,16.47-14.16,16.47s-9.91-9.92-8.86-16.47,6.17-16,14-16S438.21,157.46,437.16,164.1Zm-2,0c.76-5-.5-14.16-7.26-14.16s-11,9.16-11.72,14.16c-.93,5.71.42,14.58,7.18,14.58S434.22,169.81,435.14,164.1Z"/><path class="cls-1" d="M453,159a52.21,52.21,0,0,0-3.78,12.85A45.56,45.56,0,0,0,449,184.4l-1.14.7c-.84-3.64-.51-9.32.11-13.21s2-9.83,4.14-13.58Z"/><path class="cls-1" d="M29.52,224.59a13.42,13.42,0,0,1-12.68,10.84,9.13,9.13,0,0,1-9.22-10.84,13.36,13.36,0,0,1,12.66-10.83A9.15,9.15,0,0,1,29.52,224.59ZM9,224.59a8,8,0,0,0,8.09,9.58,11.84,11.84,0,0,0,11.12-9.58,8.06,8.06,0,0,0-8.1-9.57A11.75,11.75,0,0,0,9,224.59Z"/><path class="cls-1" d="M32.46,235.15H31.12L34.45,214h3.72c1.65,0,3.25.11,4.37,1.23a4.88,4.88,0,0,1,1.23,4.34,6.65,6.65,0,0,1-2.43,4.17,7.82,7.82,0,0,1-4.9,1.34H34.06Zm4.23-11.29a5.69,5.69,0,0,0,3.86-1.14,5,5,0,0,0,1.88-3.17,3.61,3.61,0,0,0-1-3.41,5.31,5.31,0,0,0-3.58-.84H35.6l-1.35,8.56Z"/><path class="cls-1" d="M48.81,215.3,47.61,223h8.51l-.2,1.26H47.41l-1.54,9.66h8.74l-.2,1.26H44.33L47.66,214H57.74l-.19,1.26Z"/><path class="cls-1" d="M77.48,235.85,62.76,217l-2.89,18.15H58.53l3.39-21.39,14.75,18.7L79.58,214h1.35Z"/><path class="cls-1" d="M101.19,205.36l1.26-1.89h6l-5,31.68h-2l4.71-29.79Z"/><path class="cls-1" d="M122.23,205.36l.29-1.89h23l-27.72,32-1.39-1.21,25.08-28.91Z"/><path class="cls-1" d="M149.07,233.85a2.11,2.11,0,0,1-2,1.72,1.4,1.4,0,0,1-1.43-1.72,2.07,2.07,0,0,1,2-1.73A1.44,1.44,0,0,1,149.07,233.85ZM151.71,217a2,2,0,0,1-2,1.73,1.45,1.45,0,0,1-1.47-1.73,2.11,2.11,0,0,1,2-1.72A1.4,1.4,0,0,1,151.71,217Z"/><path class="cls-1" d="M169.1,217.71a8,8,0,0,0,7.77-6.59,5.19,5.19,0,0,0-5.29-6.18c-3.66,0-6.3,2.4-7.1,6h-2c1.1-4.79,4.54-7.9,9.46-7.9a6.77,6.77,0,0,1,6.93,8.15,9.77,9.77,0,0,1-5.88,7.36,6.91,6.91,0,0,1,4,7.68,11.16,11.16,0,0,1-10.8,9.33c-4.75,0-8.28-3.32-7.48-8.19h2c-.21,3.65,1.89,6.3,5.75,6.3a9,9,0,0,0,8.45-7.31c.67-4.12-2.14-6.77-6.09-6.77Z"/><path class="cls-1" d="M206.78,219.1c-1.05,6.55-6.09,16.47-14.16,16.47s-9.91-9.92-8.86-16.47,6.17-16,14-16S207.83,212.46,206.78,219.1Zm-2,0c.76-5-.5-14.16-7.27-14.16s-11,9.16-11.72,14.16c-.92,5.71.42,14.58,7.19,14.58S203.84,224.81,204.76,219.1Z"/><path class="cls-1" d="M234.93,212.55,215.8,239.12l-1-.53L234,212.05Z"/><path class="cls-1" d="M255.84,217.51A4,4,0,0,0,252,215a4.84,4.84,0,0,0-4.62,4c-.34,2.21,1.6,3.13,3.19,3.95l3.7,2.1a3.88,3.88,0,0,1,1.73,4.2c-.56,3.5-4.17,6.13-7.58,6.13a5.36,5.36,0,0,1-5.49-4.54l1.26-.53c.53,2.24,2,3.81,4.51,3.81a6.25,6.25,0,0,0,6-5c.36-2.38-1.91-3.38-3.59-4.28l-3.5-2A3.53,3.53,0,0,1,246,219.1a6.22,6.22,0,0,1,6.24-5.34,4.87,4.87,0,0,1,4.68,3Z"/><path class="cls-1" d="M263.21,235.15h-1.35L265,215.3h-5.46l.19-1.26H272l-.2,1.26h-5.46Z"/><path class="cls-1" d="M272,228.2l-3.92,7h-1.38L279,213.34l5.37,21.81H283l-1.74-7Zm6.46-11.45-5.76,10.19H281Z"/><path class="cls-1" d="M297.25,235.15h-1.54l-5.29-10h-.67l-1.6,10h-1.34L290.14,214h2.63c1.71,0,3.39,0,4.65,1.06a4.6,4.6,0,0,1,1.43,4.54c-.59,3.66-3.44,5.57-6.92,5.51Zm-5.6-11.26a5.8,5.8,0,0,0,3.84-1,5,5,0,0,0,2-3.33,3.39,3.39,0,0,0-1.62-3.81,8.62,8.62,0,0,0-3.72-.47h-.87L290,223.89Z"/><path class="cls-1" d="M304.62,235.15h-1.35l3.14-19.85H301l.2-1.26h12.26l-.2,1.26h-5.46Z"/><path class="cls-1" d="M331.57,205.36l1.26-1.89h6.05l-5,31.68h-2l4.71-29.79Z"/><path class="cls-1" d="M350.09,226.87a10.48,10.48,0,0,1,6.47-8.23,6.85,6.85,0,0,1-3.32-7.23,10.07,10.07,0,0,1,9.83-8.36c4.79,0,7.94,3.57,7.14,8.36a9.94,9.94,0,0,1-5.59,7.23c3.16,1.64,4.46,4.45,3.87,8.23-.8,5-5.63,8.7-10.59,8.7S349.29,231.91,350.09,226.87Zm2.06-.21a5.93,5.93,0,0,0,6.09,7,8.69,8.69,0,0,0,8.27-7,5.94,5.94,0,0,0-6.09-7A8.65,8.65,0,0,0,352.15,226.66Zm3.15-15.29a5.34,5.34,0,0,0,5.46,6.39,7.88,7.88,0,0,0,7.48-6.39,5.44,5.44,0,0,0-5.46-6.43A7.88,7.88,0,0,0,355.3,211.37Z"/><path class="cls-1" d="M379.45,233.85a2.11,2.11,0,0,1-2,1.72,1.41,1.41,0,0,1-1.43-1.72,2.07,2.07,0,0,1,2-1.73A1.43,1.43,0,0,1,379.45,233.85ZM382.09,217a2,2,0,0,1-2,1.73,1.45,1.45,0,0,1-1.47-1.73,2.11,2.11,0,0,1,2-1.72A1.4,1.4,0,0,1,382.09,217Z"/><path class="cls-1" d="M411.12,219.1c-1.05,6.55-6.09,16.47-14.16,16.47s-9.91-9.92-8.86-16.47,6.18-16,14-16S412.17,212.46,411.12,219.1Zm-2,0c.76-5-.5-14.16-7.26-14.16s-11,9.16-11.72,14.16c-.93,5.71.42,14.58,7.18,14.58S408.18,224.81,409.1,219.1Z"/><path class="cls-1" d="M437.16,219.1c-1.05,6.55-6.09,16.47-14.16,16.47s-9.91-9.92-8.86-16.47,6.17-16,14-16S438.21,212.46,437.16,219.1Zm-2,0c.76-5-.5-14.16-7.26-14.16s-11,9.16-11.72,14.16c-.93,5.71.42,14.58,7.18,14.58S434.22,224.81,435.14,219.1Z"/><path class="cls-1" d="M453,214a52.21,52.21,0,0,0-3.78,12.85A45.56,45.56,0,0,0,449,239.4l-1.14.7c-.84-3.64-.51-9.32.11-13.21s2-9.83,4.14-13.58Z"/><path class="cls-1" d="M464.63,236.17l-.16,1.12h-1.34l2.61-18.62h3.42l.6-4.29h-4.17l.2-1.4h13.3l-.2,1.4h-4.42l-.61,4.29h3.87l-2.62,18.62h-1.4l.16-1.12Zm9.43-1.35.46-3.3h-9.24l-.46,3.3Zm.65-4.65.45-3.22H473c-1.23,0-1.51-.42-1.29-2l.7-5h-2.13l-.28,2a11.4,11.4,0,0,1-3.38,6.52l-.81-.61-.32,2.29Zm-5.78-8.26.27-1.93h-2.3l-1.1,7.84A10.1,10.1,0,0,0,468.93,221.91Zm3.65-3.24.6-4.29h-2.13l-.6,4.29Zm.2,6.3c-.11.78,0,.89.49.92s1.17,0,1.6,0a1.69,1.69,0,0,0,.45,0l.82-5.88h-2.66Zm7.53-3h7.11l1.06-7.53h-8.12l.21-1.46h9.66l-1.47,10.42h-8l-1.39,9.91c-.2,1.45.12,1.73,1.35,1.76s3.16,0,4.45,0,1.55-.22,2.07-3.36l1.45.25c-.82,4.2-1.22,4.65-3.6,4.71-1.41,0-3.53,0-4.76,0-2.29-.06-2.88-.67-2.5-3.33l1.6-11.37Z"/><path class="cls-1" d="M496.28,237.29h-1.6l2.21-15.68a52.83,52.83,0,0,1-4.13,5.06l-1-1.17a46.59,46.59,0,0,0,9-13.75l1.51.36a48.82,48.82,0,0,1-3.34,6.44Zm5.55-1.07-.14,1h-1.54l1.25-8.93h13.86L514,237.26h-1.6l.15-1Zm17-19.57-.2,1.4H500.66l.2-1.4Zm-6.06,18.2.73-5.21H502.76l-.73,5.21Zm2.8-10.39-.18,1.29H502l.18-1.29Zm.54-3.83-.18,1.28H502.58l.18-1.28Zm.49-7.84-.19,1.31h-12l.18-1.31Z"/><path class="cls-1" d="M544.91,212.55l-19.12,26.57-1-.53L544,212.05Z"/><path class="cls-1" d="M562.46,217.51a4,4,0,0,0-3.89-2.49,4.85,4.85,0,0,0-4.62,4c-.33,2.21,1.6,3.13,3.19,3.95l3.7,2.1a3.9,3.9,0,0,1,1.74,4.2c-.56,3.5-4.17,6.13-7.59,6.13a5.36,5.36,0,0,1-5.49-4.54l1.26-.53c.53,2.24,2,3.81,4.51,3.81a6.25,6.25,0,0,0,6-5c.36-2.38-1.9-3.38-3.58-4.28l-3.5-2a3.54,3.54,0,0,1-1.57-3.78,6.22,6.22,0,0,1,6.24-5.34,4.87,4.87,0,0,1,4.68,3Z"/><path class="cls-1" d="M566.41,235.15h-1.26L567,223.39H565.6l.17-1.18h1.43l.72-4.62h1.26l-.72,4.62h2.26l-.16,1.18h-2.27Z"/><path class="cls-1" d="M573.92,223.89H574a3.56,3.56,0,0,1,3.11-2,2.92,2.92,0,0,1,1.32.31l-.84,1.12a1.57,1.57,0,0,0-.87-.25c-2.83,0-3.22,3.53-3.53,5.43l-1,6.61h-1.25l2-12.94h1.26Z"/><path class="cls-1" d="M579.66,228.79c-.62,3.28,1.31,5.46,4.31,5.46a6.31,6.31,0,0,0,5-2.94l1,.62a7.59,7.59,0,0,1-6.36,3.5c-3.83,0-5.76-3.11-5.18-6.78a7.73,7.73,0,0,1,7.34-6.72c3.92,0,5.74,3.14,5.12,6.86Zm10.16-1.17a4.2,4.2,0,0,0-4.23-4.51,6.18,6.18,0,0,0-5.74,4.51Z"/><path class="cls-1" d="M604.3,235.15H603l.36-2.33h-.06a6.88,6.88,0,0,1-5.34,2.61c-3.92,0-5.88-3.05-5.3-6.83a7.53,7.53,0,0,1,7.4-6.67,5,5,0,0,1,4.59,2.52h0l.34-2.24h1.26ZM594,228.6c-.47,3,1.07,5.65,4.2,5.65,3.31,0,5.52-2.69,6-5.79s-1.2-5.35-4.34-5.35C596.88,223.11,594.41,225.8,594,228.6Z"/><path class="cls-1" d="M611.66,223.84h.06a4.28,4.28,0,0,1,3.55-1.91,3.12,3.12,0,0,1,3.25,2.35,4.85,4.85,0,0,1,4.17-2.35c3.33,0,3.64,2.27,3.19,5.1l-1.28,8.12h-1.26l1.31-8.29c.31-2,.28-3.75-2.18-3.75-2.69,0-3.7,2.35-4.06,4.59l-1.18,7.45H616l1.26-8c.34-2,.28-4.06-2.24-4.06-2.71,0-3.67,2.83-4,4.93l-1.12,7.11h-1.26l2-12.94h1.26Z"/><path class="cls-1" d="M630.64,235.15h-1.26l2-12.94h1.26Zm3.28-17.25a1.41,1.41,0,0,1-1.34,1.15.94.94,0,0,1-1-1.15,1.39,1.39,0,0,1,1.32-1.15A1,1,0,0,1,633.92,217.9Z"/><path class="cls-1" d="M638.46,224.23h0a5.1,5.1,0,0,1,4.2-2.3c3.33,0,3.92,2.07,3.39,5.41l-1.23,7.81h-1.26l1.23-7.81c.36-2.33.39-4.23-2.44-4.23-3.24,0-4.25,3-4.67,5.65l-1,6.39h-1.26l2-12.94h1.26Z"/><path class="cls-1" d="M660.83,234.53a9.74,9.74,0,0,1-2.16,5.49,7.37,7.37,0,0,1-5.54,2.49c-3.39,0-5.85-2-5.49-5.54h1.26c-.31,2.69,1.71,4.37,4.31,4.37a5.69,5.69,0,0,0,4.45-1.94,9.55,9.55,0,0,0,1.94-4.9l.25-1.59h-.06a7.69,7.69,0,0,1-5.46,2.52c-3.75,0-5.77-3.17-5.18-6.78a7.83,7.83,0,0,1,7.51-6.72,4.83,4.83,0,0,1,4.48,2.52h.05l.34-2.24h1.26Zm-10.42-5.93c-.47,3,1.07,5.65,4.2,5.65,3.31,0,5.52-2.69,6-5.79s-1.2-5.35-4.34-5.35C653.32,223.11,650.86,225.8,650.41,228.6Z"/><path class="cls-1" d="M677.94,213.31c.86,3.75.44,9.6-.17,13.58s-2.07,9.57-4.09,13.21l-.93-.7a52.51,52.51,0,0,0,3.76-12.51,46.37,46.37,0,0,0,.25-12.85Z"/><path class="cls-1" d="M544.91,157.55l-19.12,26.57-1-.53L544,157.05Z"/><path class="cls-1" d="M559.22,177.07h0l9.1-18h1.35L558.6,180.85,554.46,159h1.34Z"/><path class="cls-1" d="M567.45,173.79c-.62,3.28,1.32,5.46,4.31,5.46a6.28,6.28,0,0,0,5-2.94l1,.62a7.57,7.57,0,0,1-6.35,3.5c-3.84,0-5.77-3.11-5.18-6.78a7.72,7.72,0,0,1,7.33-6.72c3.92,0,5.74,3.14,5.13,6.86Zm10.16-1.17a4.2,4.2,0,0,0-4.23-4.51,6.18,6.18,0,0,0-5.74,4.51Z"/><path class="cls-1" d="M583.72,169.23h0a5.1,5.1,0,0,1,4.2-2.3c3.33,0,3.92,2.07,3.39,5.41l-1.23,7.81h-1.26l1.23-7.81c.36-2.33.39-4.23-2.43-4.23-3.25,0-4.26,3-4.68,5.65l-1,6.39h-1.26l2-12.94H584Z"/><path class="cls-1" d="M605.58,167.21,604.35,175a6.56,6.56,0,0,1-1.37,3.72,5.66,5.66,0,0,1-4.14,1.74,4.1,4.1,0,0,1-3.59-1.74c-.64-1.09-.39-2.41-.19-3.72l1.23-7.76h1.26l-1.15,7.31c-.39,2.49-.48,4.73,2.63,4.73s3.76-2.24,4.15-4.73l1.14-7.31Z"/><path class="cls-1" d="M608.66,173.79c-.61,3.28,1.32,5.46,4.32,5.46a6.31,6.31,0,0,0,5-2.94l1,.62a7.59,7.59,0,0,1-6.36,3.5c-3.83,0-5.77-3.11-5.18-6.78a7.73,7.73,0,0,1,7.34-6.72c3.92,0,5.74,3.14,5.12,6.86Zm10.17-1.17a4.21,4.21,0,0,0-4.23-4.51,6.18,6.18,0,0,0-5.74,4.51Z"/><path class="cls-1" d="M634.82,158.31c.86,3.75.44,9.6-.17,13.58s-2.07,9.57-4.09,13.21l-.92-.7a52.94,52.94,0,0,0,3.75-12.51,46.37,46.37,0,0,0,.25-12.85Z"/><path class="cls-1" d="M468,179.46a87,87,0,0,0,4.92-7.76H465l.21-1.45h23.13l-.21,1.45H474.67c-1.26,2.19-3.06,5-4.94,7.65,4.24-.31,9.22-.7,13-1a37.44,37.44,0,0,0-3.41-4.2l1.31-.81a34.55,34.55,0,0,1,5.95,8.09l-1.55.87a21.57,21.57,0,0,0-1.44-2.69c-5.71.56-14.69,1.34-19.56,1.73l-.17-1.62C465,179.65,466.42,179.57,468,179.46Zm-2.8-12.18-.76-1.35a33.39,33.39,0,0,0,13.36-9.18h1.62a24.25,24.25,0,0,0,11.08,9.18l-1.2,1.38a26.3,26.3,0,0,1-10.92-9.13A36.48,36.48,0,0,1,465.18,167.28ZM485,165.23l-.21,1.43H470l.2-1.43Z"/><path class="cls-1" d="M495.21,174l1.31-9.35h-3.41l.2-1.46h3.42l.9-6.41h1.54l-.9,6.41h3.24l-.2,1.46h-3.25l-1.23,8.79c1.23-.42,2.41-.87,3.39-1.23l0,1.4c-2.58,1-6.55,2.55-8.76,3.36l-.25-1.6C492.21,175,493.67,174.53,495.21,174Zm4.71,7.73-1.07-.76a26.27,26.27,0,0,0,7.48-8h-2.91a27.63,27.63,0,0,1-4.48,4.39l-1.07-.73a27,27,0,0,0,6.47-7.25h-3.78l.19-1.29h17.13l-.18,1.29H505.86a22.62,22.62,0,0,1-1.45,2.3h12.32c-1.36,6.55-2.37,9.74-3.35,10.33a2.86,2.86,0,0,1-1.31.34c-.56,0-1.84,0-2.57-.06l.06-1.4c.64.06,1.81.06,2.32.06a1.12,1.12,0,0,0,.61-.17c.61-.37,1.36-2.75,2.44-7.81h-2.66a26,26,0,0,1-6.57,9.29l-1.07-.75a24.3,24.3,0,0,0,6.18-8.54h-3A28.6,28.6,0,0,1,499.92,181.7Zm17.34-24.22-1.17,8.34H502.9l1.18-8.34Zm-12.68,7.17h10.11l.35-2.52h-10.1Zm.5-3.53h10.11l.34-2.47H505.42Z"/><path class="cls-1" d="M23.39,290.79h1.23l-4.31,9.08c-.48,1-.9,2,.64,2,2.33,0,5.57-4,6.05-7.05.76-4.65-3-7.76-7.2-7.76-5.18,0-10.1,4.59-10.92,9.77a8,8,0,0,0,7.93,9.55,10.52,10.52,0,0,0,8.26-3.81h1.57a12.1,12.1,0,0,1-10,5c-6,0-9.82-4.9-8.87-10.92S14.26,285.87,20,285.87c5.37,0,9,3.8,8.23,9-.73,4.51-4.82,8.12-7.81,8.12a1.7,1.7,0,0,1-1.88-1.37A6.53,6.53,0,0,1,14.62,303c-2.4,0-3.44-1.79-3.08-4.12.62-3.83,4-8.68,8.15-8.68a3.37,3.37,0,0,1,3.08,1.88Zm-3.7,7.73,2-4.11a2.35,2.35,0,0,0-2.38-3c-2.94,0-6.1,4.48-6.55,7.34-.25,1.62.53,3.16,2.49,3.1S19,300,19.69,298.52Z"/><path class="cls-1" d="M43,307.26H41.64l3.14-19.85H39.32l.2-1.26H51.78l-.2,1.26H46.12Z"/><path class="cls-1" d="M73.2,296.7a13.42,13.42,0,0,1-12.68,10.84A9.13,9.13,0,0,1,51.3,296.7,13.36,13.36,0,0,1,64,285.87,9.15,9.15,0,0,1,73.2,296.7Zm-20.55,0a8,8,0,0,0,8.09,9.58,11.84,11.84,0,0,0,11.12-9.58,8.06,8.06,0,0,0-8.1-9.57A11.75,11.75,0,0,0,52.65,296.7Z"/><path class="cls-1" d="M76,286.15h1.49L82,296.84l7.9-10.69h1.48l-8.93,12.09-1.43,9H79.67l1.43-9Z"/><path class="cls-1" d="M112.76,296.7a13.41,13.41,0,0,1-12.68,10.84,9.12,9.12,0,0,1-9.21-10.84,13.34,13.34,0,0,1,12.65-10.83A9.15,9.15,0,0,1,112.76,296.7Zm-20.55,0a8,8,0,0,0,8.09,9.58,11.84,11.84,0,0,0,11.12-9.58,8.06,8.06,0,0,0-8.09-9.57A11.75,11.75,0,0,0,92.21,296.7Z"/><path class="cls-1" d="M126.93,289.62a4,4,0,0,0-3.89-2.49,4.84,4.84,0,0,0-4.62,4c-.34,2.21,1.6,3.13,3.19,3.95l3.7,2.1a3.88,3.88,0,0,1,1.73,4.2c-.56,3.5-4.17,6.13-7.58,6.13A5.36,5.36,0,0,1,114,303l1.26-.53c.53,2.24,2,3.81,4.51,3.81a6.25,6.25,0,0,0,6-5c.36-2.38-1.91-3.38-3.59-4.28l-3.5-2a3.52,3.52,0,0,1-1.56-3.78,6.22,6.22,0,0,1,6.24-5.34,4.88,4.88,0,0,1,4.68,3Z"/><path class="cls-1" d="M145.72,286.15h1.34L145,299.31c-.33,2.15-.64,4-2.35,5.76a9,9,0,0,1-6.13,2.47,6.5,6.5,0,0,1-5.35-2.47c-1.15-1.76-.84-3.61-.5-5.76l2.07-13.16h1.34l-2,12.76c-.3,1.91-.61,3.92.26,5.32a5.38,5.38,0,0,0,4.42,2,7.3,7.3,0,0,0,5-2c1.32-1.4,1.62-3.41,1.93-5.32Z"/><path class="cls-1" d="M158.09,307.26h-1.34l3.33-21.11h3.73c1.65,0,3.24.11,4.36,1.23a4.89,4.89,0,0,1,1.24,4.34,6.71,6.71,0,0,1-2.44,4.17,7.82,7.82,0,0,1-4.9,1.34h-2.38ZM162.32,296a5.72,5.72,0,0,0,3.87-1.14,4.94,4.94,0,0,0,1.87-3.17,3.6,3.6,0,0,0-1-3.41,5.35,5.35,0,0,0-3.59-.84h-2.21L159.89,296Z"/><path class="cls-1" d="M171.31,307.26H170l3.33-21.11h1.34Z"/><path class="cls-1" d="M180.55,307.26h-1.34l3.13-19.85h-5.46l.2-1.26h12.26l-.19,1.26h-5.46Z"/><path class="cls-1" d="M60,82.68,58.56,92H0L50.28,42c4.32-4.32,7.56-9.24,8.52-15.12C60.36,16.8,53.4,9.36,43.56,9.36c-10.92,0-19.2,8-21.12,18.6H12.36C15.12,12.12,28.68,0,44.64,0,59.76,0,71.4,11,68.88,26.76A32.73,32.73,0,0,1,59,45.84L21.84,82.68Z"/><path class="cls-1" d="M145.56,46.92C142,69.24,126.36,93.6,105.72,93.6s-28.56-24.36-25-46.68C83.64,28.32,97.56,0,120.48,0S148.44,28.32,145.56,46.92Zm-54.84.48c-1.8,12.72-.24,36.84,16.44,36.84s25.92-24.12,28.2-36.84.72-38-16.32-38S92.52,34.56,90.72,47.4Z"/><path class="cls-1" d="M207.84,82.68,206.4,92H147.84l50.28-50c4.32-4.32,7.56-9.24,8.52-15.12,1.56-10.08-5.4-17.52-15.24-17.52-10.92,0-19.2,8-21.12,18.6H160.2C163,12.12,176.52,0,192.48,0c15.12,0,26.76,11,24.24,26.76a32.73,32.73,0,0,1-9.84,19.08l-37.2,36.84Z"/><path class="cls-1" d="M236.64,10.92l6.72-9.36h19.8L248.88,92H238.8l12.84-81.12Z"/><path class="cls-1" d="M292.8,86.76A8.3,8.3,0,0,1,285,93.6a5.66,5.66,0,0,1-5.64-6.84,8.2,8.2,0,0,1,7.8-6.6A5.52,5.52,0,0,1,292.8,86.76Z"/><path class="cls-1" d="M323.52,10.92l6.72-9.36H350L335.76,92H325.68l12.84-81.12Z"/><path class="cls-1" d="M437.4,46.92c-3.6,22.32-19.2,46.68-39.84,46.68S369,69.24,372.6,46.92C375.48,28.32,389.4,0,412.32,0S440.28,28.32,437.4,46.92Zm-54.84.48c-1.8,12.72-.24,36.84,16.44,36.84s25.92-24.12,28.2-36.84.72-38-16.32-38S384.36,34.56,382.56,47.4Z"/><path class="cls-1" d="M465.6,86.76a8.3,8.3,0,0,1-7.8,6.84,5.66,5.66,0,0,1-5.64-6.84,8.2,8.2,0,0,1,7.8-6.6A5.52,5.52,0,0,1,465.6,86.76Z"/><path class="cls-1" d="M548.64,82.68,547.2,92H488.64l50.28-50c4.32-4.32,7.56-9.24,8.52-15.12C549,16.8,542,9.36,532.2,9.36c-10.92,0-19.2,8-21.12,18.6H501c2.76-15.84,16.32-28,32.28-28C548.4,0,560,11,557.52,26.76a32.73,32.73,0,0,1-9.84,19.08l-37.2,36.84Z"/><path class="cls-1" d="M584.64,10.92l6.72-9.36h19.8L596.88,92H586.8l12.84-81.12Z"/><path class="cls-1" d="M666.21,92h-8.06l10.27-64.89H651l1.15-7.49h43.2l-1.15,7.49H676.48Z"/><path class="cls-1" d="M712.39,12.84,706.15,52.2l.09.19c3.94-4.32,8.45-6.72,14-6.72,12.48,0,13.92,9,12.19,19.58L728.23,92h-7.68l4-25.44c1.15-7.3,1.63-13.83-7.3-13.83-10.56,0-12.76,9.8-14.11,17.86L699.81,92h-7.68l12.58-79.2Z"/><path class="cls-1" d="M753.09,72.07c-1.25,7.58-1.34,14.11,8,14.11s11.14-6.53,12.38-14.11l3.94-25.15h7.68l-4,26c-1.92,12-7.78,20.35-21.12,20.35s-16.51-8.35-14.59-20.35l4-26H757Z"/></g></g></svg>