<svg xmlns="http://www.w3.org/2000/svg" viewBox="0 0 528.49 184.92"><defs><style>.a{fill:#fff;}.b{fill:#60bbe0;}.c{fill:#c85888;}.d{fill:#e3be80;}</style></defs><path class="a" d="M94.07,46.31l73.65,92.4,13.8-87.6h12.6l-18.6,118.2L101.87,77.06l-13.8,87.15H75.47Z"/><path class="a" d="M211.07,131.51c-1.95,13.05,5.7,23.55,19.35,23.55,10.2,0,17.7-6.15,23.7-14.55l9.3,5.85c-8.7,12.6-21.3,19.8-35.7,19.8-21,0-31.95-16-28.8-36.3,3.3-20.85,18.3-38.1,40.35-38.1,22.65,0,31.65,18.75,27.15,39.75Zm44.25-10.2c0-10.2-7.2-18.45-17.7-18.45-10.35,0-21.3,8.25-24.45,18.45Z"/><path class="a" d="M304.82,141.41l30.3-53.1,13.65,53.1,28.5-47.7h13.64l-46.79,75.45-13.5-52.5-30,52.5-22.8-75.45h13.65Z"/><path class="a" d="M428.72,110.06c-1.05-3.75-4.05-7.2-8.4-7.2-4.2,0-9.3,3.3-9.9,7.8-1.05,6.45,6.6,8.85,14.4,12.3s15,8.4,13.05,20.25c-2.1,13.35-14.4,22.95-27.45,22.95-11.85,0-20.1-6.75-22.05-17.85l11.4-4.5c2,6.6,4.65,11.25,12.6,11.25a13,13,0,0,0,13.05-10.8c2.55-15.75-30.15-10.35-26.7-32.55,1.95-11.85,12.9-19.95,24.3-19.95,8.1,0,14.55,5.7,16.65,13Z"/><path class="a" d="M239.92,65l-.7,4H219.44l.7-4Zm-.66-12.1-.68,3.89H224.3l.68-3.89Z"/><path class="a" d="M260.4,69.56H244.56l.58-3.28h8.91l2-6.53h-7.58l.58-3.29h11.57l-2.91,9.82H261Z"/><path class="a" d="M288.8,58.38l-.71,4H268.31l.71-4Z"/><path class="a" d="M312.37,68.46l-4,2.45a31.29,31.29,0,0,0-4.49-6.24,37.84,37.84,0,0,1-9.36,6.24l-2-3.19c6.73-2.74,12.2-7.92,14.31-12.29H296.45l.62-3.53h12.77l2.46,1.56a39.26,39.26,0,0,1-5.51,8.23A55.58,55.58,0,0,1,312.37,68.46Z"/><circle class="b" cx="520.21" cy="128.35" r="8.29"/><circle class="c" cx="10.36" cy="174.57" r="10.36"/><path class="a" d="M369.6,42.92l-2.87,20.4a4.81,4.81,0,0,0,1.14,4,4.53,4.53,0,0,0,2.78,1.39,6.26,6.26,0,0,0,1.15,0,7.83,7.83,0,0,0,6.81-6.6L381.73,40h-8.82A3.57,3.57,0,0,0,369.6,42.92Z"/><path class="a" d="M447.93.56A1.76,1.76,0,0,0,446.55,0H396.31A3.56,3.56,0,0,0,393,2.92L388.63,34l-.42,3-.42,3-3.18,22.62-.06.4a11,11,0,0,1-.28,1.39c0,.13-.07.26-.11.4-.1.33-.21.67-.34,1,0,.13-.09.25-.14.38a12,12,0,0,1-.59,1.26.57.57,0,0,1-.08.13c-.2.37-.42.72-.65,1.07l-.09.15h50.38a7.59,7.59,0,0,0,7.17-6.3l8.49-60.4A1.91,1.91,0,0,0,447.93.56ZM396.75,50.84h12.38a3,3,0,0,1,0,6H396.75a3,3,0,0,1,0-6Zm34.21-7H398.57a3,3,0,0,1-3-3,2.9,2.9,0,0,1,.14-.84,3,3,0,0,1,2.86-2.16H431a3.05,3.05,0,0,1,.6.06,3,3,0,0,1-.6,5.94Zm1.83-13H400.4a3,3,0,0,1,0-6h32.39a3,3,0,0,1,0,6Zm2-14H402.37a3,3,0,0,1,0-6h32.38a3,3,0,0,1,0,6Z"/><path class="d" d="M463.06,54.93c.91,1.59,1.81,3.17,2.73,4.74a.54.54,0,0,1,0,.63c-.85,1.45-1.67,2.9-2.51,4.35l-.25.45a.25.25,0,0,0,.22.38h5.51a.56.56,0,0,1,.58.33c.8,1.42,1.63,2.83,2.44,4.24l0,0a.26.26,0,0,0,.45,0c.84-1.44,1.65-2.83,2.44-4.23a.63.63,0,0,1,.64-.38c1.81,0,3.62,0,5.43,0h0a.26.26,0,0,0,.23-.38.56.56,0,0,0,0-.08q-1.35-2.35-2.71-4.71a.57.57,0,0,1,0-.66q1.37-2.37,2.72-4.74l0,0a.26.26,0,0,0-.23-.38c-1.88,0-3.7,0-5.53,0a.55.55,0,0,1-.55-.31c-.72-1.28-1.46-2.54-2.19-3.81l-.28-.48a.26.26,0,0,0-.45,0h0c-.81,1.4-1.63,2.8-2.42,4.21a.68.68,0,0,1-.67.4c-1.8,0-3.59,0-5.45,0a.26.26,0,0,0-.23.38Z"/></svg>