<svg xmlns="http://www.w3.org/2000/svg" viewBox="0 0 463.54 269.82"><defs><style>.a{fill:#60c0e5;}.b{fill:#cd588d;}.c{fill:#fff;}.d{fill:#e8c385;}</style></defs><circle class="a" cx="322.57" cy="8.29" r="8.29"/><circle class="b" cx="133.58" cy="205.24" r="10.36"/><path class="c" d="M109.28,47.6,182.93,140l13.8-87.59h12.6l-18.6,118.19L117.08,78.35l-13.8,87.14H90.68Z"/><path class="c" d="M226.28,132.8c-1.95,13,5.7,23.54,19.35,23.54,10.2,0,17.7-6.15,23.7-14.55l9.3,5.85c-8.7,12.6-21.3,19.8-35.7,19.8-21,0-32-16.05-28.8-36.29,3.3-20.85,18.3-38.1,40.35-38.1,22.65,0,31.65,18.75,27.15,39.75Zm44.25-10.2c0-10.2-7.2-18.45-17.7-18.45s-21.3,8.25-24.45,18.45Z"/><path class="c" d="M320,142.7l30.3-53.1L364,142.7,392.48,95h13.65l-46.8,75.44L345.83,118l-30,52.49L293,95h13.65Z"/><path class="c" d="M443.93,111.35c-1.05-3.75-4.05-7.2-8.4-7.2-4.2,0-9.3,3.3-9.9,7.8-1.05,6.45,6.6,8.85,14.4,12.3s15,8.4,13.05,20.24c-2.1,13.35-14.4,22.95-27.45,22.95-11.85,0-20.1-6.75-22.05-17.85l11.4-4.5c1.95,6.6,4.65,11.25,12.6,11.25a13,13,0,0,0,13.05-10.8c2.55-15.74-30.15-10.34-26.7-32.54,1.95-11.85,12.9-20,24.3-20,8.1,0,14.55,5.7,16.65,13Z"/><path class="c" d="M255.13,66.31l-.7,4H234.65l.7-4Zm-.65-12.09-.69,3.89H239.51l.68-3.89Z"/><path class="c" d="M275.61,70.85H259.77l.58-3.29h8.91l2-6.53h-7.59l.58-3.28h11.57l-2.91,9.81h3.31Z"/><path class="c" d="M304,59.67l-.71,4H283.52l.71-4Z"/><path class="c" d="M327.58,69.75l-4,2.44A31.18,31.18,0,0,0,319.1,66a37.56,37.56,0,0,1-9.36,6.24l-2-3.19c6.73-2.73,12.2-7.92,14.32-12.29H311.66l.62-3.52h12.77l2.46,1.56A39.52,39.52,0,0,1,322,63,54.83,54.83,0,0,1,327.58,69.75Z"/><path class="d" d="M323.6,260.51c.9-1.58,1.8-3.16,2.72-4.74a.54.54,0,0,0,0-.63q-1.26-2.16-2.5-4.34l-.26-.45a.26.26,0,0,1,.23-.39h5.5a.57.57,0,0,0,.58-.33q1.22-2.13,2.45-4.24l0,0a.25.25,0,0,1,.44,0c.84,1.44,1.65,2.83,2.44,4.22a.63.63,0,0,0,.64.38c1.81,0,3.62,0,5.43,0h0a.26.26,0,0,1,.23.39l-.05.08c-.9,1.57-1.79,3.14-2.71,4.7a.59.59,0,0,0,0,.67c.92,1.57,1.82,3.16,2.73,4.74l0,0a.26.26,0,0,1-.23.39h-5.52a.54.54,0,0,0-.55.32l-2.2,3.81-.28.47a.26.26,0,0,1-.45,0h0q-1.21-2.1-2.42-4.2a.66.66,0,0,0-.67-.4c-1.8,0-3.59,0-5.45,0a.26.26,0,0,1-.23-.38Z"/><path class="c" d="M238.36,267.55c-130.18,0-236.08-43.22-236.08-96.33,0-28.05,29.55-53.34,76.61-71l.4-2.56q-4.64,1.72-9.1,3.55C24.93,119.85,0,144.7,0,171.22s24.93,51.37,70.19,70c44.93,18.46,104.66,28.63,168.17,28.63a567.77,567.77,0,0,0,62-3.34v-2.31A564.33,564.33,0,0,1,238.36,267.55Z"/><circle class="c" cx="308.3" cy="263.23" r="1.66"/><path class="c" d="M384.81,44.21,382,64.61a4.79,4.79,0,0,0,1.13,4A4.53,4.53,0,0,0,385.86,70a6.34,6.34,0,0,0,1.16,0,7.83,7.83,0,0,0,6.8-6.6l3.12-22.18h-8.82A3.56,3.56,0,0,0,384.81,44.21Z"/><path class="c" d="M463.14,1.85a1.76,1.76,0,0,0-1.38-.56H411.52a3.56,3.56,0,0,0-3.31,2.92l-4.37,31.08-.42,3-.42,3-3.18,22.62-.05.39a13.19,13.19,0,0,1-.29,1.39c0,.14-.07.27-.11.4-.1.34-.21.67-.33,1l-.15.37a12.17,12.17,0,0,1-.59,1.27l-.08.13c-.2.36-.42.72-.65,1.07l-.09.15h50.38A7.6,7.6,0,0,0,455,63.77l8.49-60.4A1.87,1.87,0,0,0,463.14,1.85ZM412,52.12h12.38a3,3,0,0,1,0,6H412a3,3,0,0,1,0-6Zm34.21-7H413.79a3,3,0,0,1-3-3,2.83,2.83,0,0,1,.13-.83,3,3,0,0,1,2.87-2.17h32.38a3.05,3.05,0,0,1,.6.06,3,3,0,0,1-.6,5.94Zm1.83-13H415.61a3,3,0,0,1,0-6H448a3,3,0,1,1,0,6Zm2-14H417.58a3,3,0,1,1,0-6H450a3,3,0,0,1,0,6Z"/></svg>