<svg xmlns="http://www.w3.org/2000/svg" viewBox="0 0 368.62 125.7"><defs><style>.a{fill:#fff;}</style></defs><path class="a" d="M66.75,32.7c-3.3-7.8-8-12.3-17.55-12.3C39.15,20.4,29.4,27.6,27.75,38,26.1,47.7,35.55,52.2,42.6,55.65L49.5,59c13.8,6.45,25,13.8,22.2,31.8-3.15,19.8-21.45,35-41.1,35C12.45,125.7.75,114,0,96.45L12.75,93c-.15,11.55,7.2,21,19.35,21S56.85,104.7,59,92c2.1-13.2-7.65-17.7-17.4-22.5l-6.3-3C23,60.45,12.6,53.7,15.15,37.5,18,20,34.5,8.7,51.3,8.7c12.6,0,22.35,6.45,26.55,17.55Z"/><path class="a" d="M116.55,0,106.8,61.5l.15.3c6.15-6.75,13.2-10.5,21.9-10.5,19.5,0,21.75,14.1,19.05,30.6l-6.6,41.85h-12L135.6,84c1.8-11.4,2.55-21.6-11.4-21.6-16.5,0-20,15.3-22,27.9L96.9,123.75h-12L104.55,0Z"/><path class="a" d="M228.45,123.75h-12L218,114h-.3c-7.35,7.79-16.2,11.7-26.1,11.7-20.7,0-31.05-17.55-27.9-37,3.15-20.1,18.75-37.35,39.9-37.35,9.6,0,17.55,4.5,22.2,12h.3l1.5-10h12Zm-52.35-36c-2.25,13.8,3.9,26.85,18.9,26.85,15.45,0,25.5-12.45,27.75-26.7S218,62.4,203.1,62.4C189.15,62.4,178.2,74.55,176.1,87.75Z"/><path class="a" d="M272,60.9h.3c5.1-5.55,9.45-9.6,17.25-9.6,4.05,0,7.05,1.35,10.2,3.3l-7.5,10.95c-2.1-1.65-3.45-3.15-6.6-3.15-13.2,0-16.5,16.95-18,26.1l-5.55,35.25h-12l11.1-70.5h12Z"/><path class="a" d="M312.15,91.05c-1.95,13,5.7,23.55,19.35,23.55,10.2,0,17.7-6.15,23.69-14.55l9.3,5.85c-8.7,12.6-21.29,19.8-35.69,19.8-21,0-31.95-16-28.8-36.3,3.3-20.85,18.3-38.1,40.35-38.1C363,51.3,372,70.05,367.49,91.05Zm44.24-10.2c0-10.2-7.19-18.45-17.69-18.45-10.35,0-21.3,8.25-24.45,18.45Z"/><path class="a" d="M153.22,13.49l1.48,2.09A40.75,40.75,0,0,1,136,27.92l-1-2.67A35.84,35.84,0,0,0,153.22,13.49Zm-10.41,2.93-1.7,2.33A35,35,0,0,0,135.38,16l1.73-2.35A36.53,36.53,0,0,1,142.81,16.42Zm3.45-5.25-1.74,2.27a33.52,33.52,0,0,0-5.49-2.9l1.72-2.28A37.63,37.63,0,0,1,146.26,11.17Z"/><path class="a" d="M164.82,24.36l1.41-8h-4.75l.4-2.28h12.34l-.41,2.28h-5l-1.41,8h6.39l-.41,2.31H158.24l.41-2.31Z"/><path class="a" d="M192.44,13.18c-1.31,7.44-2.49,11.16-8.89,14.88l-1.87-2c5.9-3.09,6.68-5.92,7.91-12.86Zm8.12-4.25,1.88,1.44a83.73,83.73,0,0,1-7.69,8.11L192.62,17a45.27,45.27,0,0,0,5.42-5.4H182.51L183,8.93Z"/></svg>