<svg xmlns="http://www.w3.org/2000/svg" viewBox="0 0 392.95 493.73"><defs><style>.cls-1{fill:#f3e521;}</style></defs><g id="レイヤー_2" data-name="レイヤー 2"><g id="レイヤー_2-2" data-name="レイヤー 2"><path class="cls-1" d="M90.14,56.55l7.2-45.9h12.6L92.09,123.75H79.49l8.85-55.5H30.44l-8.85,55.5H9L26.84,10.65h12.6l-7.2,45.9Z"/><path class="cls-1" d="M114.74,88.65C118,68,137.09,51.3,157.79,51.3S192.14,68,188.84,88.65s-22.35,37.05-42.9,37.05S111.44,109.35,114.74,88.65Zm12-.15c-2.25,14.4,6.15,26.1,21,26.1s26.85-11.7,29.1-26.1c2.25-14.25-6-26.1-20.85-26.1S129,74.25,126.74,88.5Z"/><path class="cls-1" d="M236.84,69.6c-1.05-3.75-4.05-7.2-8.4-7.2-4.2,0-9.3,3.3-9.9,7.8-1,6.45,6.6,8.85,14.4,12.3,7.65,3.45,15,8.4,13.05,20.25-2.1,13.35-14.4,23-27.45,23-11.85,0-20.1-6.75-22-17.85l11.4-4.5c2,6.6,4.65,11.25,12.6,11.25a13,13,0,0,0,13-10.8c2.55-15.75-30.15-10.35-26.7-32.55,1.95-11.85,12.9-20,24.3-20,8.1,0,14.55,5.7,16.65,13Z"/><path class="cls-1" d="M291.29,0l-9.75,61.5.15.3c6.15-6.75,13.19-10.5,21.89-10.5,19.5,0,21.75,14.1,19.05,30.6L316,123.75H304L310.33,84c1.8-11.4,2.55-21.6-11.4-21.6-16.49,0-19.94,15.3-22,27.9l-5.25,33.45h-12L279.29,0Z"/><path class="cls-1" d="M353.09,123.75h-12l11.1-70.5h12Zm17.85-97a10.38,10.38,0,0,1-9.9,8.55,7.12,7.12,0,0,1-7.2-8.55,10.7,10.7,0,0,1,10.05-8.55A7.08,7.08,0,0,1,370.94,26.7Z"/><path class="cls-1" d="M30.29,200.9h.3c4.8-5.85,11.4-9.6,18.6-9.6,8.25,0,15,4.35,17.55,11.7,5.4-7.8,14.55-11.7,23.1-11.7,18,0,20.1,14.7,17.7,29.55l-6.75,42.9h-12l6.45-40.95c1.5-9.15,2.7-20.4-9.6-20.4-13.8,0-17.4,13.35-19.2,24l-5.85,37.35h-12l6.3-40.05c1.35-8.7,2.4-21.3-9.15-21.3-14.1,0-17.85,14.25-19.65,24.9l-5.7,36.45h-12l11.1-70.5h12Z"/><path class="cls-1" d="M187.94,263.75h-12l1.5-9.75h-.3c-7.35,7.79-16.2,11.7-26.1,11.7-20.7,0-31-17.55-27.9-37,3.15-20.1,18.75-37.35,39.9-37.35,9.6,0,17.55,4.5,22.2,12h.3l1.5-10.05h12Zm-52.35-36c-2.25,13.8,3.9,26.85,18.9,26.85,15.45,0,25.5-12.45,27.75-26.7,2.25-14.1-4.8-25.5-19.65-25.5C148.64,202.4,137.69,214.55,135.59,227.75Z"/><path class="cls-1" d="M270.29,214.25H270c-4.35-7.05-10.5-11.85-20-11.85-14.55,0-26.85,12-29.1,26.1-2.25,13.95,5.55,26.1,20.25,26.1,10.05,0,17.7-4.5,24.75-12.15h.3l-2.4,16.05c-7.65,4.65-15.15,7.2-23.55,7.2-21.3,0-34.95-15.9-31.65-37.2,3.3-21,23-37.2,43.65-37.2a32.78,32.78,0,0,1,20.55,7Z"/><path class="cls-1" d="M313.19,140l-9.75,61.5.15.3c6.15-6.75,13.2-10.5,21.9-10.5,19.5,0,21.75,14.1,19.05,30.6l-6.6,41.85h-12l6.3-39.75c1.8-11.4,2.55-21.6-11.4-21.6-16.5,0-19.95,15.3-22,27.9l-5.25,33.45h-12L301.19,140Z"/><path class="cls-1" d="M375,263.75H363l11.1-70.5h12Zm17.85-97.05a10.38,10.38,0,0,1-9.9,8.55,7.12,7.12,0,0,1-7.2-8.55,10.7,10.7,0,0,1,10.05-8.55A7.08,7.08,0,0,1,392.84,166.7Z"/><path class="cls-1" d="M74.09,312.7c-3.3-7.8-8-12.3-17.55-12.3-10,0-19.8,7.2-21.45,17.55-1.65,9.75,7.8,14.25,14.85,17.7l6.9,3.3c13.8,6.45,25,13.8,22.2,31.8-3.15,19.8-21.45,34.95-41.1,34.95-18.15,0-29.85-11.7-30.6-29.25L20.09,373c-.15,11.55,7.2,21,19.35,21S64.19,384.7,66.29,372c2.1-13.2-7.65-17.7-17.4-22.5l-6.3-3c-12.3-6-22.65-12.75-20.1-28.95,2.85-17.55,19.35-28.8,36.15-28.8,12.6,0,22.35,6.45,26.55,17.55Z"/><path class="cls-1" d="M108.29,372.55c-2,11.85-2.1,22.05,12.45,22.05s17.4-10.2,19.35-22.05l6.15-39.3h12l-6.3,40.65c-3,18.75-12.15,31.8-33,31.8s-25.8-13.05-22.8-31.8l6.3-40.65h12Z"/><path class="cls-1" d="M183.29,403.75h-12l11.1-70.5h12Zm17.85-97.05a10.38,10.38,0,0,1-9.9,8.55,7.12,7.12,0,0,1-7.2-8.55,10.7,10.7,0,0,1,10.05-8.55A7.08,7.08,0,0,1,201.14,306.7Z"/><path class="cls-1" d="M245.39,349.6c-1.06-3.75-4-7.2-8.4-7.2s-9.3,3.3-9.9,7.8c-1.05,6.45,6.6,8.85,14.4,12.3,7.64,3.45,15,8.4,13,20.25-2.1,13.35-14.39,22.95-27.44,22.95-11.85,0-20.1-6.75-22.05-17.85l11.4-4.5c1.95,6.6,4.65,11.25,12.6,11.25a12.93,12.93,0,0,0,13-10.8c2.56-15.75-30.14-10.35-26.69-32.55,2-11.85,12.9-19.95,24.3-19.95,8.1,0,14.54,5.7,16.64,13.05Z"/><path class="cls-1" d="M279.43,371.05c-1.95,13.05,5.7,23.55,19.35,23.55,10.2,0,17.7-6.15,23.7-14.55l9.3,5.85c-8.7,12.6-21.3,19.8-35.7,19.8-21,0-31.95-16.05-28.8-36.3,3.3-20.85,18.3-38.1,40.35-38.1,22.65,0,31.65,18.75,27.15,39.75Zm44.25-10.2c0-10.2-7.2-18.45-17.7-18.45s-21.3,8.25-24.45,18.45Z"/><path class="cls-1" d="M360.28,403.75h-12l11.1-70.5h12Zm17.85-97.05a10.38,10.38,0,0,1-9.9,8.55,7.12,7.12,0,0,1-7.2-8.55,10.7,10.7,0,0,1,10.05-8.55A7.08,7.08,0,0,1,378.13,306.7Z"/><path class="cls-1" d="M0,492.62l.72-4.08h15l.5-2.88H7l.49-2.76c-.68.57-1.39,1.11-2.09,1.61l-3.49-2.69A27.06,27.06,0,0,0,10.48,473h-3L10,458.58h27.2L34.68,473H23.54l-.41,2.3H35.58l-.71,4H22.42L22,481.82H32l-.68,3.84h-10l-.51,2.88H36.09l-.72,4.08Zm8.7-10.8h8.18l.43-2.45H11.13C10.37,480.21,9.57,481,8.7,481.82Zm21.9-14.44H13.36L13,469.19H30.29Zm-16.38,7.95H18l.4-2.3H13.9l1.51.34C15,474,14.65,474.68,14.22,475.33Zm17.26-12.94H14.24l-.32,1.8H31.17Z"/><path class="cls-1" d="M50.61,493.54H45.73l2.65-15c-.64.58-1.32,1.15-2,1.73L44.53,476A37.23,37.23,0,0,0,53,466l4.64,1.34a43.51,43.51,0,0,1-3.29,4.73Zm7.91-34.61a51.37,51.37,0,0,1-9.15,9.6l-2.68-3.3a37,37,0,0,0,7.46-7.68Zm0,27.19.78-4.41H55l.74-4.19H60l.59-3.3h4.64l-.58,3.3h4.19l-.74,4.19H63.91l-.66,3.76c2-.31,4-.57,5.56-.84a37.41,37.41,0,0,1-.45,4.11c-4.42.88-11.12,2-15,2.65L53,486.78C54.44,486.62,56.36,486.39,58.49,486.12Zm2.92-16.55.6-3.42H58.17l.74-4.22h3.84l.77-4.38h4.65l-.77,4.38h3.76l-.74,4.22H66.65l-.6,3.42h4.53l-.73,4.19H55.94l.74-4.19Zm14.37,19.74c-.42,2.38-1.35,3.73-3.45,4.11a30.75,30.75,0,0,1-4.62.08l-.08-4.57c.91.08,2.14.08,2.6.08a.73.73,0,0,0,.74-.7l2.68-15.21H70.46l.81-4.61H82.14l-.81,4.61H78.64ZM83,459.54l-.81,4.58h-10l.81-4.58Z"/><path class="cls-1" d="M121.07,462.93c.23-1.54.45-3,.63-4.23h5.61l-.75,4.23h9.68l-.84,4.76h-9.68l-1.43,8.1a8.73,8.73,0,0,1-.13,2.31c-1.33,7.52-4.58,13.09-16.39,15.63l-1.23-4.8c5.49-.85,8.32-2.31,10-4.54a12.21,12.21,0,0,1-3,.35c-4.64,0-6.93-2.92-6.15-7.33a9.1,9.1,0,0,1,9.19-7.69,10.17,10.17,0,0,1,3.33.5l.41-2.53H103.68l.84-4.76ZM116,474a3.91,3.91,0,0,0-3.5,3.3,2.49,2.49,0,0,0,2.51,3.15,3.91,3.91,0,0,0,3.71-3.15l.09-.54C118.84,474.68,117.7,474,116,474Z"/><path class="cls-1" d="M150.6,463.85a67.8,67.8,0,0,0-2,8.14c-1.43,8.06-.11,12.79,2,12.79,1.11,0,2.65-2.23,3.87-5.61l4.1,2c-2.62,6.57-5.61,9.6-8.8,9.6-4.57,0-8.76-5.84-6.5-18.66q.69-4,1.93-8.76Zm18.57-1.46c4.75,6.18,5.42,12.4,4.19,21.32l-5.88.49c1.52-8.87.8-13.67-3.35-18.89Z"/><path class="cls-1" d="M191.22,469.15c.53-3,1-6.07,1.47-8.8h5.38c-.51,2.69-1.06,5.57-1.55,8.34l10.91-.85c.56-3.22,1-6.61,1.33-9.06h5.3c-.39,2.38-.9,5.49-1.41,8.64l6.08-.5-.5,4.76-6.45.43c-1.75,9.29-3,11.21-8,11.21a36.86,36.86,0,0,1-4.29-.31l.79-4.49a24,24,0,0,0,3.2.19c1.61,0,2.06-.38,3.17-6.22-3.55.27-7.33.57-11,.92-.64,3.88-1.15,7.18-1.34,9.14-.34,3.65,1.26,4.8,8.38,4.76a64.26,64.26,0,0,0,7.73-.53l-.9,5.14c-2.14.16-5.27.27-7.66.27-9.87,0-13.4-2-12.77-9,.17-2.08.63-5.34,1.3-9.34-2.54.23-4.81.46-6.73.65l.38-4.72C186,469.61,188.45,469.38,191.22,469.15Z"/><path class="cls-1" d="M235.06,463.85A69.93,69.93,0,0,0,233,472c-1.42,8.06-.1,12.79,2,12.79,1.12,0,2.66-2.23,3.87-5.61l4.11,2c-2.62,6.57-5.61,9.6-8.8,9.6-4.57,0-8.77-5.84-6.5-18.66.46-2.65,1.09-5.57,1.92-8.76Zm18.57-1.46c4.75,6.18,5.42,12.4,4.19,21.32l-5.88.49c1.52-8.87.79-13.67-3.36-18.89Z"/></g></g></svg>