<svg xmlns="http://www.w3.org/2000/svg" viewBox="0 0 690 240.49"><defs><style>.a,.j{fill:#fff;}.b{fill:#e8c385;}.c{fill:#60c0e5;}.d{fill:#60b6d7;}.e{fill:#b169a2;}.f{fill:#cd588d;}.g{fill:#c05484;}.h{fill:#deaf3f;}.i{fill:#e7b53d;}.j{stroke:#fff;stroke-linecap:round;stroke-linejoin:round;stroke-width:0.66px;}</style></defs><path class="a" d="M440.58,44.66c-.61-.75-1.23-1.49-1.84-2.22s-1.26-1.47-1.9-2.18-1.29-1.43-1.94-2.13-1.32-1.39-2-2.09-1.35-1.37-2-2-1.39-1.33-2.1-2-1.42-1.3-2.14-1.94-1.46-1.27-2.2-1.89-1.49-1.24-2.24-1.84-1.52-1.21-2.28-1.79-1.56-1.17-2.34-1.73-1.58-1.13-2.37-1.68-1.61-1.1-2.42-1.63-1.65-1.05-2.47-1.56-1.67-1-2.5-1.51-1.7-1-2.55-1.45-1.72-.94-2.59-1.39-1.75-.9-2.63-1.33-1.78-.86-2.67-1.27-1.8-.82-2.7-1.2-1.83-.77-2.74-1.14-1.86-.73-2.78-1.08l-2.82-1-2.85-.94c-1-.3-1.93-.59-2.88-.87s-1.94-.55-2.92-.8-2-.5-2.95-.73-2-.46-3-.67-2-.4-3-.58-2-.36-3-.52-2.05-.31-3.07-.44-2.06-.25-3.08-.36-2.06-.2-3.08-.28-2-.15-3.06-.21-2-.09-3.05-.12-2,0-3,0-2,0-3,0-2,.06-3,.1-2,.11-3,.18-2,.16-3,.26-2,.2-3,.32-2,.26-2.94.4-2,.3-2.92.47-1.94.35-2.91.54-1.93.4-2.88.61l-2.86.68c-.94.24-1.89.49-2.83.75s-1.88.54-2.81.82-1.86.58-2.78.88-1.84.62-2.76,1L303.9,8c-.9.34-1.8.7-2.69,1.07s-1.79.76-2.67,1.15-1.77.79-2.64,1.2-1.75.84-2.6,1.27-1.73.87-2.58,1.32-1.7.92-2.53,1.39a.49.49,0,1,0,.48.86c.83-.47,1.68-.93,2.52-1.38s1.7-.89,2.55-1.31,1.72-.85,2.58-1.26,1.74-.81,2.62-1.19,1.76-.77,2.64-1.14l2.68-1.07c.89-.34,1.81-.68,2.7-1s1.83-.64,2.74-.94,1.84-.6,2.76-.88,1.85-.55,2.78-.81,1.88-.51,2.81-.74,1.9-.46,2.84-.68,1.9-.41,2.86-.6,1.92-.37,2.88-.54l2.9-.47,2.91-.39c1-.12,2-.23,2.94-.32s2-.18,3-.26,2-.13,3-.17,2-.08,3-.11,2,0,3,0,2,0,3,0,2,.07,3,.13,2,.12,3,.2,2,.17,3,.28,2.05.23,3.06.36,2,.28,3,.43l3,.51c1,.19,2,.38,3,.59s2,.42,2.95.65,2,.48,2.93.73,1.94.52,2.89.8,1.92.56,2.86.86,1.9.62,2.83.94,1.87.65,2.79,1,1.85.7,2.76,1.06l2.72,1.13c.89.39,1.79.79,2.68,1.2s1.77.82,2.65,1.25,1.74.87,2.6,1.32,1.73.92,2.57,1.38,1.7,1,2.53,1.44,1.66,1,2.48,1.49,1.64,1,2.45,1.56,1.61,1.07,2.4,1.61,1.58,1.1,2.36,1.66,1.55,1.14,2.31,1.72,1.52,1.18,2.27,1.78,1.49,1.21,2.22,1.82,1.46,1.25,2.17,1.88,1.44,1.28,2.13,1.92,1.4,1.32,2.08,2,1.37,1.34,2,2,1.34,1.39,2,2.07,1.29,1.4,1.93,2.12,1.26,1.43,1.88,2.16,1.22,1.46,1.82,2.2,1.19,1.5,1.77,2.25a.51.51,0,0,0,.39.19.47.47,0,0,0,.3-.1.49.49,0,0,0,.09-.69C441.78,46.17,441.18,45.41,440.58,44.66Z"/><path class="a" d="M281.07,20.83a.53.53,0,0,0,.27-.08c.79-.53,1.6-1.05,2.41-1.55a.49.49,0,0,0,.15-.68.5.5,0,0,0-.68-.16c-.81.51-1.63,1-2.42,1.57a.49.49,0,0,0,.27.9Z"/><path class="a" d="M445.76,51.12a1.32,1.32,0,0,0-1.48,1.14,1.31,1.31,0,0,0,1.13,1.48,1.32,1.32,0,1,0,.35-2.62Z"/><path class="a" d="M294.55,227.34c-.87-.42-1.74-.87-2.61-1.32s-1.72-.91-2.57-1.38-1.69-.95-2.52-1.44-1.67-1-2.49-1.49-1.64-1-2.44-1.56-1.62-1.07-2.4-1.61-1.59-1.1-2.36-1.66-1.56-1.15-2.31-1.72-1.53-1.18-2.27-1.78-1.49-1.2-2.22-1.82-1.47-1.25-2.18-1.88-1.43-1.27-2.13-1.92-1.39-1.31-2.08-2-1.35-1.33-2-2-1.33-1.38-2-2.07-1.29-1.41-1.92-2.12-1.27-1.43-1.88-2.16-1.24-1.47-1.83-2.2-1.19-1.5-1.77-2.25-1.16-1.52-1.72-2.29-1.11-1.54-1.66-2.32-1.08-1.58-1.61-2.37-1-1.6-1.55-2.41a.48.48,0,0,0-.67-.15.47.47,0,0,0-.16.67q.76,1.23,1.56,2.43c.53.8,1.08,1.6,1.62,2.39s1.12,1.58,1.68,2.35,1.15,1.55,1.73,2.3,1.19,1.52,1.79,2.27,1.21,1.48,1.84,2.22,1.25,1.46,1.89,2.18,1.29,1.43,1.94,2.13,1.33,1.4,2,2.09,1.37,1.38,2.05,2,1.4,1.34,2.09,2,1.43,1.31,2.15,1.94,1.46,1.27,2.19,1.89,1.49,1.24,2.24,1.84,1.52,1.21,2.29,1.79,1.55,1.17,2.33,1.73,1.58,1.13,2.38,1.68,1.6,1.1,2.42,1.63,1.64,1.05,2.46,1.56,1.67,1,2.51,1.51,1.69,1,2.55,1.45,1.72.94,2.58,1.39,1.76.91,2.63,1.33a.44.44,0,0,0,.22.05.49.49,0,0,0,.44-.27A.49.49,0,0,0,294.55,227.34Z"/><path class="a" d="M256.82,41.92a.49.49,0,0,0,.37-.16c.65-.75,1.32-1.49,2-2.21s1.35-1.45,2-2.17a.48.48,0,0,0,0-.69.49.49,0,0,0-.7,0c-.69.72-1.39,1.45-2.06,2.18s-1.34,1.48-2,2.23a.48.48,0,0,0,.05.69A.47.47,0,0,0,256.82,41.92Z"/><path class="a" d="M305.35,232l-2.76-1.07c-.9-.36-1.81-.74-2.72-1.13a.49.49,0,1,0-.38.9c.91.4,1.83.78,2.74,1.14s1.85.73,2.78,1.08a.47.47,0,0,0,.17,0,.48.48,0,0,0,.46-.32A.48.48,0,0,0,305.35,232Z"/><path class="a" d="M434.58,201.26c-.64.7-1.3,1.4-2,2.08s-1.34,1.37-2,2-1.39,1.34-2.07,2-1.41,1.3-2.12,1.93-1.43,1.26-2.16,1.88-1.46,1.23-2.2,1.82-1.5,1.2-2.25,1.78-1.52,1.15-2.29,1.71-1.54,1.12-2.33,1.67-1.57,1.08-2.37,1.6-1.6,1-2.4,1.55-1.63,1-2.45,1.5-1.64,1-2.48,1.43-1.67.93-2.51,1.38-1.69.88-2.55,1.31-1.73.86-2.59,1.26-1.73.81-2.61,1.2-1.77.77-2.65,1.13l-2.67,1.07c-.9.34-1.81.68-2.71,1s-1.82.64-2.73.94-1.84.6-2.76.88l-2.79.81-2.81.74c-.93.24-1.89.46-2.84.68s-1.9.41-2.85.6l-2.88.54c-1,.17-1.94.32-2.9.47s-1.95.27-2.92.39-2,.23-2.94.33-2,.18-2.95.25-2,.13-3,.17-2,.09-3,.11-2,0-3,0-2,0-3,0-2-.07-3-.13-2-.12-3-.2-2-.17-3-.28-2-.22-3.06-.36-2-.27-3.05-.43-2-.33-3-.51-2-.38-3-.59-2-.42-3-.65-2-.48-2.93-.73a.49.49,0,0,0-.6.35.49.49,0,0,0,.36.6c1,.26,2,.51,2.95.74s2,.45,3,.66,2,.4,3,.59,2,.35,3,.51,2.05.31,3.07.44,2.06.26,3.09.36,2.05.2,3.07.28,2,.15,3.06.21l3.05.12c1,0,2,.05,3,.05h.38c.88,0,1.77,0,2.65,0s2-.05,3-.1l3-.18c1-.07,2-.16,3-.25s2-.21,3-.33,2-.26,2.94-.4,2-.3,2.93-.47,1.94-.35,2.9-.54,1.93-.4,2.88-.61l2.86-.68c.95-.24,1.91-.49,2.83-.75s1.88-.53,2.81-.82,1.87-.58,2.79-.88,1.84-.62,2.75-.95l2.73-1c.9-.35,1.81-.71,2.7-1.08l2.67-1.14c.88-.4,1.77-.8,2.63-1.21s1.74-.83,2.61-1.26l2.57-1.33c.85-.45,1.7-.92,2.54-1.39s1.68-1,2.5-1.45,1.65-1,2.46-1.5,1.63-1,2.43-1.57,1.6-1.07,2.39-1.62,1.57-1.11,2.34-1.67,1.55-1.15,2.31-1.73,1.52-1.19,2.26-1.79,1.5-1.22,2.23-1.84,1.46-1.26,2.17-1.89,1.44-1.3,2.14-2,1.39-1.32,2.08-2,1.38-1.36,2-2.05,1.35-1.4,2-2.1a.5.5,0,0,0-.73-.67Z"/><path class="a" d="M312.48,233.39a1.32,1.32,0,1,0-.34,2.62,1.32,1.32,0,0,0,.34-2.62Z"/><path class="a" d="M243.63,178.8a1.33,1.33,0,0,0-1.48,1.14,1.32,1.32,0,1,0,2.62.34A1.33,1.33,0,0,0,243.63,178.8Z"/><path class="a" d="M253,46.76a1.32,1.32,0,0,0,.35-2.62,1.32,1.32,0,0,0-.35,2.62Z"/><path class="a" d="M440.58,44.66c-.61-.75-1.23-1.49-1.84-2.22s-1.26-1.47-1.9-2.18-1.29-1.43-1.94-2.13-1.32-1.39-2-2.09-1.35-1.37-2-2-1.39-1.33-2.1-2-1.42-1.3-2.14-1.94-1.46-1.27-2.2-1.89-1.49-1.24-2.24-1.84-1.52-1.21-2.28-1.79-1.56-1.17-2.34-1.73-1.58-1.13-2.37-1.68-1.61-1.1-2.42-1.63-1.65-1.05-2.47-1.56-1.67-1-2.5-1.51-1.7-1-2.55-1.45-1.72-.94-2.59-1.39-1.75-.9-2.63-1.33-1.78-.86-2.67-1.27-1.8-.82-2.7-1.2-1.83-.77-2.74-1.14-1.86-.73-2.78-1.08l-2.82-1-2.85-.94c-1-.3-1.93-.59-2.88-.87s-1.94-.55-2.92-.8-2-.5-2.95-.73-2-.46-3-.67-2-.4-3-.58-2-.36-3-.52-2.05-.31-3.07-.44-2.06-.25-3.08-.36-2.06-.2-3.08-.28-2-.15-3.06-.21-2-.09-3.05-.12-2,0-3,0-2,0-3,0-2,.06-3,.1-2,.11-3,.18-2,.16-3,.26-2,.2-3,.32-2,.26-2.94.4-2,.3-2.92.47-1.94.35-2.91.54-1.93.4-2.88.61l-2.86.68c-.94.24-1.89.49-2.83.75s-1.88.54-2.81.82-1.86.58-2.78.88-1.84.62-2.76,1L303.9,8c-.9.34-1.8.7-2.69,1.07s-1.79.76-2.67,1.15-1.77.79-2.64,1.2-1.75.84-2.6,1.27-1.73.87-2.58,1.32-1.7.92-2.53,1.39a.49.49,0,1,0,.48.86c.83-.47,1.68-.93,2.52-1.38s1.7-.89,2.55-1.31,1.72-.85,2.58-1.26,1.74-.81,2.62-1.19,1.76-.77,2.64-1.14l2.68-1.07c.89-.34,1.81-.68,2.7-1s1.83-.64,2.74-.94,1.84-.6,2.76-.88,1.85-.55,2.78-.81,1.88-.51,2.81-.74,1.9-.46,2.84-.68,1.9-.41,2.86-.6,1.92-.37,2.88-.54l2.9-.47,2.91-.39c1-.12,2-.23,2.94-.32s2-.18,3-.26,2-.13,3-.17,2-.08,3-.11,2,0,3,0,2,0,3,0,2,.07,3,.13,2,.12,3,.2,2,.17,3,.28,2.05.23,3.06.36,2,.28,3,.43l3,.51c1,.19,2,.38,3,.59s2,.42,2.95.65,2,.48,2.93.73,1.94.52,2.89.8,1.92.56,2.86.86,1.9.62,2.83.94,1.87.65,2.79,1,1.85.7,2.76,1.06l2.72,1.13c.89.39,1.79.79,2.68,1.2s1.77.82,2.65,1.25,1.74.87,2.6,1.32,1.73.92,2.57,1.38,1.7,1,2.53,1.44,1.66,1,2.48,1.49,1.64,1,2.45,1.56,1.61,1.07,2.4,1.61,1.58,1.1,2.36,1.66,1.55,1.14,2.31,1.72,1.52,1.18,2.27,1.78,1.49,1.21,2.22,1.82,1.46,1.25,2.17,1.88,1.44,1.28,2.13,1.92,1.4,1.32,2.08,2,1.37,1.34,2,2,1.34,1.39,2,2.07,1.29,1.4,1.93,2.12,1.26,1.43,1.88,2.16,1.22,1.46,1.82,2.2,1.19,1.5,1.77,2.25a.51.51,0,0,0,.39.19.47.47,0,0,0,.3-.1.49.49,0,0,0,.09-.69C441.78,46.17,441.18,45.41,440.58,44.66Z"/><path class="a" d="M281.07,20.83a.53.53,0,0,0,.27-.08c.79-.53,1.6-1.05,2.41-1.55a.49.49,0,0,0,.15-.68.5.5,0,0,0-.68-.16c-.81.51-1.63,1-2.42,1.57a.49.49,0,0,0,.27.9Z"/><path class="a" d="M445.76,51.12a1.32,1.32,0,0,0-1.48,1.14,1.31,1.31,0,0,0,1.13,1.48,1.32,1.32,0,1,0,.35-2.62Z"/><path class="a" d="M294.55,227.34c-.87-.42-1.74-.87-2.61-1.32s-1.72-.91-2.57-1.38-1.69-.95-2.52-1.44-1.67-1-2.49-1.49-1.64-1-2.44-1.56-1.62-1.07-2.4-1.61-1.59-1.1-2.36-1.66-1.56-1.15-2.31-1.72-1.53-1.18-2.27-1.78-1.49-1.2-2.22-1.82-1.47-1.25-2.18-1.88-1.43-1.27-2.13-1.92-1.39-1.31-2.08-2-1.35-1.33-2-2-1.33-1.38-2-2.07-1.29-1.41-1.92-2.12-1.27-1.43-1.88-2.16-1.24-1.47-1.83-2.2-1.19-1.5-1.77-2.25-1.16-1.52-1.72-2.29-1.11-1.54-1.66-2.32-1.08-1.58-1.61-2.37-1-1.6-1.55-2.41a.48.48,0,0,0-.67-.15.47.47,0,0,0-.16.67q.76,1.23,1.56,2.43c.53.8,1.08,1.6,1.62,2.39s1.12,1.58,1.68,2.35,1.15,1.55,1.73,2.3,1.19,1.52,1.79,2.27,1.21,1.48,1.84,2.22,1.25,1.46,1.89,2.18,1.29,1.43,1.94,2.13,1.33,1.4,2,2.09,1.37,1.38,2.05,2,1.4,1.34,2.09,2,1.43,1.31,2.15,1.94,1.46,1.27,2.19,1.89,1.49,1.24,2.24,1.84,1.52,1.21,2.29,1.79,1.55,1.17,2.33,1.73,1.58,1.13,2.38,1.68,1.6,1.1,2.42,1.63,1.64,1.05,2.46,1.56,1.67,1,2.51,1.51,1.69,1,2.55,1.45,1.72.94,2.58,1.39,1.76.91,2.63,1.33a.44.44,0,0,0,.22.05.49.49,0,0,0,.44-.27A.49.49,0,0,0,294.55,227.34Z"/><path class="a" d="M256.82,41.92a.49.49,0,0,0,.37-.16c.65-.75,1.32-1.49,2-2.21s1.35-1.45,2-2.17a.48.48,0,0,0,0-.69.49.49,0,0,0-.7,0c-.69.72-1.39,1.45-2.06,2.18s-1.34,1.48-2,2.23a.48.48,0,0,0,.05.69A.47.47,0,0,0,256.82,41.92Z"/><path class="a" d="M305.35,232l-2.76-1.07c-.9-.36-1.81-.74-2.72-1.13a.49.49,0,1,0-.38.9c.91.4,1.83.78,2.74,1.14s1.85.73,2.78,1.08a.47.47,0,0,0,.17,0,.48.48,0,0,0,.46-.32A.48.48,0,0,0,305.35,232Z"/><path class="a" d="M434.58,201.26c-.64.7-1.3,1.4-2,2.08s-1.34,1.37-2,2-1.39,1.34-2.07,2-1.41,1.3-2.12,1.93-1.43,1.26-2.16,1.88-1.46,1.23-2.2,1.82-1.5,1.2-2.25,1.78-1.52,1.15-2.29,1.71-1.54,1.12-2.33,1.67-1.57,1.08-2.37,1.6-1.6,1-2.4,1.55-1.63,1-2.45,1.5-1.64,1-2.48,1.43-1.67.93-2.51,1.38-1.69.88-2.55,1.31-1.73.86-2.59,1.26-1.73.81-2.61,1.2-1.77.77-2.65,1.13l-2.67,1.07c-.9.34-1.81.68-2.71,1s-1.82.64-2.73.94-1.84.6-2.76.88l-2.79.81-2.81.74c-.93.24-1.89.46-2.84.68s-1.9.41-2.85.6l-2.88.54c-1,.17-1.94.32-2.9.47s-1.95.27-2.92.39-2,.23-2.94.33-2,.18-2.95.25-2,.13-3,.17-2,.09-3,.11-2,0-3,0-2,0-3,0-2-.07-3-.13-2-.12-3-.2-2-.17-3-.28-2-.22-3.06-.36-2-.27-3.05-.43-2-.33-3-.51-2-.38-3-.59-2-.42-3-.65-2-.48-2.93-.73a.49.49,0,0,0-.6.35.49.49,0,0,0,.36.6c1,.26,2,.51,2.95.74s2,.45,3,.66,2,.4,3,.59,2,.35,3,.51,2.05.31,3.07.44,2.06.26,3.09.36,2.05.2,3.07.28,2,.15,3.06.21l3.05.12c1,0,2,.05,3,.05h.38c.88,0,1.77,0,2.65,0s2-.05,3-.1l3-.18c1-.07,2-.16,3-.25s2-.21,3-.33,2-.26,2.94-.4,2-.3,2.93-.47,1.94-.35,2.9-.54,1.93-.4,2.88-.61l2.86-.68c.95-.24,1.91-.49,2.83-.75s1.88-.53,2.81-.82,1.87-.58,2.79-.88,1.84-.62,2.75-.95l2.73-1c.9-.35,1.81-.71,2.7-1.08l2.67-1.14c.88-.4,1.77-.8,2.63-1.21s1.74-.83,2.61-1.26l2.57-1.33c.85-.45,1.7-.92,2.54-1.39s1.68-1,2.5-1.45,1.65-1,2.46-1.5,1.63-1,2.43-1.57,1.6-1.07,2.39-1.62,1.57-1.11,2.34-1.67,1.55-1.15,2.31-1.73,1.52-1.19,2.26-1.79,1.5-1.22,2.23-1.84,1.46-1.26,2.17-1.89,1.44-1.3,2.14-2,1.39-1.32,2.08-2,1.38-1.36,2-2.05,1.35-1.4,2-2.1a.5.5,0,0,0-.73-.67Z"/><path class="a" d="M312.48,233.39a1.32,1.32,0,1,0-.34,2.62,1.32,1.32,0,0,0,.34-2.62Z"/><path class="a" d="M243.63,178.8a1.33,1.33,0,0,0-1.48,1.14,1.32,1.32,0,1,0,2.62.34A1.33,1.33,0,0,0,243.63,178.8Z"/><path class="a" d="M253,46.76a1.32,1.32,0,0,0,.35-2.62,1.32,1.32,0,0,0-.35,2.62Z"/><path class="b" d="M604.77,85.56a.06.06,0,0,1-.06-.09l.7-1.21a.16.16,0,0,0,0-.2L604.79,83h0a.06.06,0,0,1,.06-.1h1.26a.13.13,0,0,0,.14-.08c.23-.41.47-.81.71-1.23a.07.07,0,0,1,.11,0h0c.23.41.47.81.7,1.21a.14.14,0,0,0,.15.09h1.41a.07.07,0,0,1,.06.1h0l-.69,1.21a.15.15,0,0,0,0,.19c.21.35.41.71.62,1.08a.06.06,0,0,1-.05.1H608a.14.14,0,0,0-.15.08c-.22.41-.46.81-.69,1.21h0a.06.06,0,0,1-.11,0l-.07-.11-.64-1.11a.14.14,0,0,0-.14-.08h-1.42Z"/><path class="b" d="M84.09,60.64a.38.38,0,0,1-.34-.21l-2.92-6.06a.37.37,0,0,1,.09-.44.38.38,0,0,1,.45,0L86.64,57a.38.38,0,0,1,.18.4l-.48,2.36a.38.38,0,0,1-.26.29l-1.88.55Zm-2-5.46,2.23,4.63,1.36-.4L86,57.54Z"/><path class="b" d="M93.59,60.64h-.11l-1.88-.55a.41.41,0,0,1-.27-.29l-.47-2.36A.38.38,0,0,1,91,57l5.27-3.15a.38.38,0,0,1,.45,0,.37.37,0,0,1,.09.44l-2.92,6.06A.38.38,0,0,1,93.59,60.64ZM92,59.41l1.36.4,2.23-4.63-4,2.36Z"/><path class="b" d="M81.17,72a.38.38,0,0,1-.25-.09.39.39,0,0,1-.09-.45l3-6.44a.37.37,0,0,1,.45-.2l1.84.53a.38.38,0,0,1,.26.29l.5,2.47a.38.38,0,0,1-.17.4L81.38,72A.39.39,0,0,1,81.17,72Zm3.18-6.36-2.29,4.95,4-2.58-.39-2Z"/><path class="b" d="M96.51,71.64a.46.46,0,0,1-.2,0L91,68.44a.38.38,0,0,1-.18-.4l.47-2.36a.41.41,0,0,1,.27-.29l1.88-.55a.39.39,0,0,1,.45.2l2.92,6.06a.37.37,0,0,1-.09.44A.35.35,0,0,1,96.51,71.64Zm-4.85-3.71,4,2.36-2.23-4.63-1.36.4Z"/><path class="b" d="M91.23,57.92a.57.57,0,0,1-.55-.46l-1.84-9.15L87,57.46a.57.57,0,1,1-1.11-.22L88.28,45.3a.57.57,0,0,1,.56-.45.58.58,0,0,1,.56.45l2.39,11.94a.57.57,0,0,1-.44.67Z"/><path class="b" d="M93.59,65.78a.57.57,0,0,1-.55-.41.58.58,0,0,1,.39-.71L100,62.74l-6.58-1.93A.58.58,0,0,1,93,60.1a.57.57,0,0,1,.71-.38l8.44,2.47a.57.57,0,0,1,0,1.09l-8.44,2.47A.45.45,0,0,1,93.59,65.78Z"/><path class="b" d="M84.14,65.79l-.16,0-8.49-2.49a.57.57,0,0,1,0-1.09l8.44-2.47a.57.57,0,0,1,.71.38.58.58,0,0,1-.39.71l-6.58,1.93,6.63,1.94a.56.56,0,0,1,.38.7A.56.56,0,0,1,84.14,65.79Z"/><path class="b" d="M88.84,80.62a.57.57,0,0,1-.56-.45L85.91,68.34A.57.57,0,0,1,87,68.12l1.81,9L90.68,68a.57.57,0,1,1,1.11.22L89.4,80.17A.58.58,0,0,1,88.84,80.62Z"/><path class="b" d="M84.09,60.83a.58.58,0,0,1-.55-.41.57.57,0,0,1,.39-.7l1.55-.46.41-2a.57.57,0,1,1,1.11.22l-.47,2.36a.56.56,0,0,1-.4.44l-1.88.55Z"/><path class="b" d="M93.59,60.83l-.16,0-1.88-.55a.56.56,0,0,1-.4-.44l-.47-2.36a.57.57,0,1,1,1.11-.22l.41,2,1.55.46a.57.57,0,0,1,.39.7A.58.58,0,0,1,93.59,60.83Z"/><path class="b" d="M91.23,68.69h-.11a.57.57,0,0,1-.44-.67l.47-2.36a.56.56,0,0,1,.4-.44l1.88-.55a.58.58,0,0,1,.71.39.57.57,0,0,1-.39.7l-1.55.46-.41,2A.57.57,0,0,1,91.23,68.69Z"/><path class="b" d="M86.47,68.8a.57.57,0,0,1-.56-.46l-.43-2.13L84,65.77a.58.58,0,0,1-.39-.71.57.57,0,0,1,.71-.38l1.83.53a.56.56,0,0,1,.4.44l.5,2.47a.58.58,0,0,1-.45.67Z"/><path class="b" d="M88.7,71.41a.08.08,0,0,1-.08-.07V55.13a.08.08,0,0,1,.16,0V71.34A.08.08,0,0,1,88.7,71.41Z"/><path class="b" d="M95.41,62.62H82.18a.08.08,0,0,1,0-.16H95.41a.08.08,0,0,1,0,.16Z"/><polygon class="b" points="88.7 62.9 88.32 62.48 88.7 62.06 89.07 62.48 88.7 62.9"/><path class="b" d="M595.49,69.91a.1.1,0,0,1-.06-.16c.44-.56.87-1.09,1.31-1.62a.26.26,0,0,0,0-.3c-.23-.57-.45-1.15-.67-1.73h0a.09.09,0,0,1,.1-.13l.21,0,1.67.26a.21.21,0,0,0,.22-.09l1.32-1.65a.1.1,0,0,1,.17,0v0l.76,2a.23.23,0,0,0,.2.16l2.05.32h0a.1.1,0,0,1,.06.16h0l-1.3,1.62a.23.23,0,0,0,0,.28l.67,1.74a.09.09,0,0,1-.1.13h0l-1.85-.29a.21.21,0,0,0-.24.1l-1.3,1.62,0,0a.1.1,0,0,1-.17,0,1.34,1.34,0,0,0-.07-.18l-.69-1.79a.2.2,0,0,0-.19-.15l-2.07-.33Z"/><path class="b" d="M7.94,135a.11.11,0,0,1-.12.15l-2.26-.28a.3.3,0,0,0-.3.14L4,136.59H4a.1.1,0,0,1-.18,0,2,2,0,0,1-.1-.21L3,134.66a.22.22,0,0,0-.21-.15l-2.3-.28a.11.11,0,0,1-.07-.17v0l1.37-1.83a.24.24,0,0,0,0-.27L1,129.85l0,0a.11.11,0,0,1,.12-.15h0l2.26.28a.27.27,0,0,0,.29-.13c.39-.54.8-1.07,1.22-1.63a.11.11,0,0,1,.19,0v0c.27.63.54,1.25.8,1.88a.25.25,0,0,0,.23.17l2.26.27h0a.11.11,0,0,1,.07.18l-.13.17c-.42.56-.83,1.12-1.26,1.68a.23.23,0,0,0,0,.26l.9,2.11Z"/><path class="b" d="M343,105.6a.06.06,0,0,1-.07.07l-1.24-.34a.15.15,0,0,0-.18,0l-.81.8h0s-.09,0-.1,0a.56.56,0,0,1,0-.12l-.26-1c0-.06,0-.08-.1-.1l-1.26-.34a.07.07,0,0,1,0-.11h0c.3-.31.61-.61.91-.91a.13.13,0,0,0,.05-.15c-.11-.41-.22-.83-.32-1.24v0a.06.06,0,0,1,.08-.07h0l1.23.34a.14.14,0,0,0,.17,0l.81-.8a.07.07,0,0,1,.11,0h0c.1.37.2.75.29,1.12a.15.15,0,0,0,.11.11l1.24.34h0a.06.06,0,0,1,0,.1l-.09.09c-.28.28-.55.56-.84.83a.14.14,0,0,0,0,.14l.33,1.25Z"/><path class="b" d="M589.12,78.93a.07.07,0,0,1-.08-.08c.13-.46.26-.9.38-1.34a.16.16,0,0,0,0-.19c-.29-.29-.57-.59-.86-.89h0a.07.07,0,0,1,0-.11l.14,0,1.09-.28a.14.14,0,0,0,.11-.11c.13-.45.25-.9.38-1.36a.07.07,0,0,1,.11,0h0c.33.33.65.67,1,1a.16.16,0,0,0,.17,0l1.34-.34h0a.06.06,0,0,1,.08.08h0c-.13.44-.25.89-.38,1.33a.15.15,0,0,0,0,.18l.87.9a.07.07,0,0,1,0,.11h0l-1.22.3a.15.15,0,0,0-.12.12c-.12.45-.25.89-.37,1.34h0a.06.06,0,0,1-.11,0l-.09-.09c-.3-.31-.6-.61-.89-.92a.14.14,0,0,0-.16,0l-1.35.34Z"/><path class="b" d="M382.38,135.41a.1.1,0,0,1-.12-.12l.55-1.93a.25.25,0,0,0-.07-.28c-.42-.42-.83-.85-1.25-1.28h0a.1.1,0,0,1,.05-.16l.19,0,1.58-.39a.2.2,0,0,0,.16-.17c.18-.64.37-1.29.56-1.95a.08.08,0,0,1,.15,0h0l1.4,1.44a.23.23,0,0,0,.24.07l1.93-.49h0a.1.1,0,0,1,.11.12v0c-.19.64-.36,1.28-.55,1.92a.22.22,0,0,0,.07.26l1.25,1.29a.1.1,0,0,1,0,.16h0l-1.75.44a.23.23,0,0,0-.17.18c-.18.64-.36,1.28-.55,1.92v0a.1.1,0,0,1-.16,0l-.14-.14L384.58,135a.22.22,0,0,0-.23-.07l-2,.49Z"/><path class="b" d="M618.78,197.17a.12.12,0,0,1-.13.16l-2.46-.3a.29.29,0,0,0-.32.14l-1.33,1.77h0a.12.12,0,0,1-.2,0,2.29,2.29,0,0,1-.1-.23c-.26-.61-.53-1.22-.79-1.84a.24.24,0,0,0-.23-.17l-2.49-.3a.12.12,0,0,1-.08-.19h0c.49-.67,1-1.33,1.49-2a.27.27,0,0,0,0-.31c-.33-.75-.65-1.51-1-2.27l0,0a.12.12,0,0,1,.13-.16h0l2.45.3a.28.28,0,0,0,.31-.13c.43-.59.87-1.17,1.33-1.78a.12.12,0,0,1,.2,0v0c.29.68.59,1.37.87,2a.26.26,0,0,0,.25.18l2.45.3h0a.13.13,0,0,1,.09.19,1.33,1.33,0,0,0-.14.19c-.46.61-.91,1.22-1.37,1.82a.24.24,0,0,0,0,.29c.33.76.65,1.52,1,2.29Z"/><path class="b" d="M400.6,202.48a.07.07,0,0,1-.08.1l-1.64-.2a.21.21,0,0,0-.22.1l-.89,1.18h0a.07.07,0,0,1-.13,0,1,1,0,0,1-.07-.15l-.52-1.23a.17.17,0,0,0-.16-.12l-1.67-.2a.08.08,0,0,1-.05-.12h0l1-1.33a.17.17,0,0,0,0-.21c-.22-.5-.43-1-.65-1.51v0a.08.08,0,0,1,.09-.11h0l1.64.2a.18.18,0,0,0,.21-.09l.88-1.18a.08.08,0,0,1,.14,0h0c.19.46.39.92.58,1.37a.17.17,0,0,0,.16.12l1.64.2h0a.09.09,0,0,1,.06.13l-.1.12c-.3.41-.6.82-.91,1.22a.17.17,0,0,0,0,.19c.22.51.44,1,.65,1.54Z"/><path class="b" d="M100.5,85a.07.07,0,0,1-.1-.08c.1-.52.19-1,.28-1.52a.19.19,0,0,0-.07-.21l-1-.89h0a.07.07,0,0,1,0-.12l.14-.06,1.18-.41a.15.15,0,0,0,.11-.14c.09-.51.19-1,.29-1.54a.07.07,0,0,1,.12,0h0l1.18,1a.19.19,0,0,0,.19,0c.48-.18,1-.34,1.45-.51h0a.08.08,0,0,1,.1.08h0c-.1.51-.19,1-.29,1.51a.19.19,0,0,0,.07.2l1.06.9a.07.07,0,0,1,0,.12h0l-1.3.46a.16.16,0,0,0-.13.14c-.09.51-.18,1-.28,1.51v0a.08.08,0,0,1-.12,0l-.11-.1-1.08-.92a.14.14,0,0,0-.17,0l-1.46.51Z"/><path class="b" d="M331.1,147.88a.08.08,0,0,1-.09-.11c.19-.56.38-1.1.57-1.64a.21.21,0,0,0-.05-.25l-1-1.17h0a.08.08,0,0,1,.05-.13l.17,0,1.38-.26a.19.19,0,0,0,.15-.14c.19-.55.38-1.1.57-1.67a.09.09,0,0,1,.14,0h0l1.15,1.32a.18.18,0,0,0,.2.07l1.7-.33h0a.09.09,0,0,1,.1.11v0c-.19.54-.37,1.09-.57,1.64a.22.22,0,0,0,.05.23l1,1.17a.09.09,0,0,1-.05.14h0l-1.54.3a.19.19,0,0,0-.16.14c-.18.55-.37,1.1-.56,1.64v0a.08.08,0,0,1-.14,0l-.1-.12c-.36-.4-.71-.8-1.06-1.21a.19.19,0,0,0-.19-.07l-1.71.34Z"/><path class="b" d="M206.1,162.63a.08.08,0,0,1-.1-.09c.1-.52.19-1,.29-1.51a.19.19,0,0,0-.08-.21l-1-.89h0a.08.08,0,0,1,0-.13l.15-.05,1.17-.42a.16.16,0,0,0,.12-.13c.09-.51.18-1,.28-1.54a.07.07,0,0,1,.12,0h0l1.17,1a.17.17,0,0,0,.19,0l1.45-.51h0a.08.08,0,0,1,.1.09h0c-.1.5-.19,1-.29,1.51a.2.2,0,0,0,.08.2l1.05.89a.08.08,0,0,1,0,.13h0l-1.3.46a.16.16,0,0,0-.12.15c-.09.5-.19,1-.28,1.51v0a.07.07,0,0,1-.12,0l-.11-.09-1.08-.92a.15.15,0,0,0-.17,0l-1.46.52Z"/><path class="b" d="M111.48,154.81a.1.1,0,0,1,.15-.08c.6.35,1.19.68,1.77,1a.26.26,0,0,0,.29,0c.52-.31,1-.61,1.58-.91h0a.09.09,0,0,1,.14.08c0,.07,0,.14,0,.21,0,.55,0,1.1,0,1.65a.22.22,0,0,0,.12.21l1.8,1a.1.1,0,0,1,0,.17h0l-1.78,1a.19.19,0,0,0-.12.21c0,.68,0,1.36,0,2v0a.1.1,0,0,1-.14.09h0l-1.76-1a.23.23,0,0,0-.28,0l-1.58.92a.1.1,0,0,1-.15-.09h0v-1.84a.22.22,0,0,0-.12-.22c-.6-.33-1.18-.67-1.77-1l0,0a.09.09,0,0,1,0-.16l.16-.1,1.63-.94a.21.21,0,0,0,.12-.21v-2.08Z"/><path class="b" d="M105.11,66.81a.11.11,0,0,1,.16-.09l2,1.14a.27.27,0,0,0,.32,0l1.75-1h0a.1.1,0,0,1,.16.09,1.77,1.77,0,0,1,0,.23c0,.61,0,1.22,0,1.83a.22.22,0,0,0,.14.23l2,1.15a.11.11,0,0,1,0,.19h0l-2,1.14a.24.24,0,0,0-.14.24c0,.75,0,1.51,0,2.26v0a.1.1,0,0,1-.16.09h0l-2-1.14a.27.27,0,0,0-.31,0l-1.76,1a.11.11,0,0,1-.17-.09v0c0-.68,0-1.36,0-2a.24.24,0,0,0-.15-.24l-2-1.13,0,0a.1.1,0,0,1,0-.18l.19-.11L105,69.35a.21.21,0,0,0,.13-.22c0-.76,0-1.53,0-2.29Z"/><path class="b" d="M269.37,21.19a.12.12,0,0,1,.16-.11c.74.32,1.45.62,2.16.94A.3.3,0,0,0,272,22c.55-.42,1.11-.84,1.68-1.25h0a.1.1,0,0,1,.17.07l0,.24c.08.63.16,1.26.23,1.89a.23.23,0,0,0,.16.22c.73.3,1.45.62,2.2.94a.11.11,0,0,1,0,.19h0l-1.9,1.42a.24.24,0,0,0-.11.26l.27,2.33v0a.11.11,0,0,1-.15.11h0l-2.15-.93a.26.26,0,0,0-.32,0l-1.69,1.26a.11.11,0,0,1-.18-.08h0c-.08-.7-.17-1.4-.25-2.1a.25.25,0,0,0-.17-.24l-2.16-.92h0a.11.11,0,0,1,0-.19l.17-.14,1.74-1.3a.24.24,0,0,0,.11-.25c-.1-.78-.18-1.56-.27-2.34Z"/><path class="b" d="M438.37,191.62a.08.08,0,0,1,.12-.09l1.71.73a.21.21,0,0,0,.26,0l1.33-1h0a.09.09,0,0,1,.14.06,1.11,1.11,0,0,1,0,.19c.06.49.13,1,.18,1.49a.19.19,0,0,0,.13.17l1.73.74a.08.08,0,0,1,0,.15h0l-1.49,1.12a.2.2,0,0,0-.1.21c.08.61.15,1.23.22,1.84v0a.08.08,0,0,1-.12.09h0l-1.7-.74a.24.24,0,0,0-.26,0l-1.33,1a.09.09,0,0,1-.14-.06h0c-.07-.56-.14-1.11-.2-1.66a.19.19,0,0,0-.13-.18L437,195h0a.1.1,0,0,1,0-.16l.14-.1,1.37-1a.18.18,0,0,0,.09-.19c-.08-.62-.15-1.24-.22-1.86Z"/><path class="b" d="M185.23,66.27a.06.06,0,0,1,0,.09h-1.25a.15.15,0,0,0-.15.09l-.56,1h0a.06.06,0,0,1-.1,0l-.07-.11c-.17-.29-.34-.58-.5-.87a.13.13,0,0,0-.13-.08h-1.27a.06.06,0,0,1-.05-.09h0l.63-1.09a.14.14,0,0,0,0-.15l-.62-1.08v0a.06.06,0,0,1,.05-.09h1.26a.15.15,0,0,0,.15-.09l.55-1a.07.07,0,0,1,.11,0h0l.56,1a.14.14,0,0,0,.14.08h1.26a.06.06,0,0,1,0,.09l0,.1c-.2.33-.39.67-.58,1a.12.12,0,0,0,0,.14l.63,1.09Z"/><path class="b" d="M257.35,64.93a.06.06,0,0,1-.05.09h-1.25a.15.15,0,0,0-.16.09c-.18.32-.37.64-.55,1h0a.06.06,0,0,1-.1,0l-.07-.11-.5-.88a.14.14,0,0,0-.13-.07h-1.27a.06.06,0,0,1-.05-.09h0l.63-1.09a.14.14,0,0,0,0-.15c-.21-.36-.42-.72-.62-1.08v0a.06.06,0,0,1,.05-.09h1.26a.14.14,0,0,0,.14-.09l.56-1a.07.07,0,0,1,.11,0h0c.19.33.38.65.56,1a.13.13,0,0,0,.14.07h1.26a.06.06,0,0,1,.05.09l-.05.1-.58,1a.14.14,0,0,0,0,.15l.63,1.09Z"/><path class="b" d="M309.05,66.27a.06.06,0,0,1-.06.09h-1.25a.15.15,0,0,0-.15.09l-.56,1h0a.06.06,0,0,1-.1,0l-.07-.11c-.17-.29-.34-.58-.5-.87a.13.13,0,0,0-.13-.08H305a.06.06,0,0,1,0-.09h0l.63-1.09c0-.06,0-.1,0-.15l-.62-1.08v0a.06.06,0,0,1,0-.09h1.26a.15.15,0,0,0,.15-.09c.18-.32.36-.64.56-1a.06.06,0,0,1,.1,0h0l.56,1a.14.14,0,0,0,.14.08H309a.06.06,0,0,1,.05.09L309,64l-.58,1a.12.12,0,0,0,0,.14l.63,1.09Z"/><path class="b" d="M349.59,64.58a.06.06,0,0,1,0,.09h-1.26a.16.16,0,0,0-.15.09c-.18.33-.37.65-.56,1h0a.06.06,0,0,1-.1,0l-.06-.11-.51-.88a.14.14,0,0,0-.13-.07H345.5a.06.06,0,0,1-.05-.09h0l.62-1.09a.12.12,0,0,0,0-.16c-.2-.36-.41-.72-.62-1.08v0a.05.05,0,0,1,.05-.08h1.26a.16.16,0,0,0,.15-.09l.56-1a.06.06,0,0,1,.1,0h0l.56,1a.13.13,0,0,0,.13.08h1.27a.06.06,0,0,1,0,.08l-.06.11-.58,1a.12.12,0,0,0,0,.14l.63,1.09Z"/><path class="b" d="M548,63.43a0,0,0,0,1,0,.07h-1a.13.13,0,0,0-.13.07c-.14.26-.29.51-.44.77h0a0,0,0,0,1-.08,0,.41.41,0,0,1,0-.09c-.14-.23-.27-.46-.4-.69a.1.1,0,0,0-.1-.06h-1a0,0,0,0,1,0-.07h0l.5-.86c0-.05,0-.08,0-.12-.17-.29-.33-.58-.5-.86v0a0,0,0,0,1,0-.07h1a.1.1,0,0,0,.11-.07c.15-.25.3-.5.45-.77a0,0,0,0,1,.08,0h0l.45.77a.11.11,0,0,0,.11.06h1a0,0,0,0,1,0,.07l0,.08-.46.8a.08.08,0,0,0,0,.11l.5.87Z"/><path class="b" d="M604.77,85.56a.06.06,0,0,1-.06-.09l.7-1.21a.16.16,0,0,0,0-.2L604.79,83h0a.06.06,0,0,1,.06-.1h1.26a.13.13,0,0,0,.14-.08c.23-.41.47-.81.71-1.23a.07.07,0,0,1,.11,0h0c.23.41.47.81.7,1.21a.14.14,0,0,0,.15.09h1.41a.07.07,0,0,1,.06.1h0l-.69,1.21a.15.15,0,0,0,0,.19c.21.35.41.71.62,1.08a.06.06,0,0,1-.05.1H608a.14.14,0,0,0-.15.08c-.22.41-.46.81-.69,1.21h0a.06.06,0,0,1-.11,0l-.07-.11-.64-1.11a.14.14,0,0,0-.14-.08h-1.42Z"/><path class="b" d="M84.09,60.64a.38.38,0,0,1-.34-.21l-2.92-6.06a.37.37,0,0,1,.09-.44.38.38,0,0,1,.45,0L86.64,57a.38.38,0,0,1,.18.4l-.48,2.36a.38.38,0,0,1-.26.29l-1.88.55Zm-2-5.46,2.23,4.63,1.36-.4L86,57.54Z"/><path class="b" d="M93.59,60.64h-.11l-1.88-.55a.41.41,0,0,1-.27-.29l-.47-2.36A.38.38,0,0,1,91,57l5.27-3.15a.38.38,0,0,1,.45,0,.37.37,0,0,1,.09.44l-2.92,6.06A.38.38,0,0,1,93.59,60.64ZM92,59.41l1.36.4,2.23-4.63-4,2.36Z"/><path class="b" d="M81.17,72a.38.38,0,0,1-.25-.09.39.39,0,0,1-.09-.45l3-6.44a.37.37,0,0,1,.45-.2l1.84.53a.38.38,0,0,1,.26.29l.5,2.47a.38.38,0,0,1-.17.4L81.38,72A.39.39,0,0,1,81.17,72Zm3.18-6.36-2.29,4.95,4-2.58-.39-2Z"/><path class="b" d="M96.51,71.64a.46.46,0,0,1-.2,0L91,68.44a.38.38,0,0,1-.18-.4l.47-2.36a.41.41,0,0,1,.27-.29l1.88-.55a.39.39,0,0,1,.45.2l2.92,6.06a.37.37,0,0,1-.09.44A.35.35,0,0,1,96.51,71.64Zm-4.85-3.71,4,2.36-2.23-4.63-1.36.4Z"/><path class="b" d="M91.23,57.92a.57.57,0,0,1-.55-.46l-1.84-9.15L87,57.46a.57.57,0,1,1-1.11-.22L88.28,45.3a.57.57,0,0,1,.56-.45.58.58,0,0,1,.56.45l2.39,11.94a.57.57,0,0,1-.44.67Z"/><path class="b" d="M93.59,65.78a.57.57,0,0,1-.55-.41.58.58,0,0,1,.39-.71L100,62.74l-6.58-1.93A.58.58,0,0,1,93,60.1a.57.57,0,0,1,.71-.38l8.44,2.47a.57.57,0,0,1,0,1.09l-8.44,2.47A.45.45,0,0,1,93.59,65.78Z"/><path class="b" d="M84.14,65.79l-.16,0-8.49-2.49a.57.57,0,0,1,0-1.09l8.44-2.47a.57.57,0,0,1,.71.38.58.58,0,0,1-.39.71l-6.58,1.93,6.63,1.94a.56.56,0,0,1,.38.7A.56.56,0,0,1,84.14,65.79Z"/><path class="b" d="M88.84,80.62a.57.57,0,0,1-.56-.45L85.91,68.34A.57.57,0,0,1,87,68.12l1.81,9L90.68,68a.57.57,0,1,1,1.11.22L89.4,80.17A.58.58,0,0,1,88.84,80.62Z"/><path class="b" d="M84.09,60.83a.58.58,0,0,1-.55-.41.57.57,0,0,1,.39-.7l1.55-.46.41-2a.57.57,0,1,1,1.11.22l-.47,2.36a.56.56,0,0,1-.4.44l-1.88.55Z"/><path class="b" d="M93.59,60.83l-.16,0-1.88-.55a.56.56,0,0,1-.4-.44l-.47-2.36a.57.57,0,1,1,1.11-.22l.41,2,1.55.46a.57.57,0,0,1,.39.7A.58.58,0,0,1,93.59,60.83Z"/><path class="b" d="M91.23,68.69h-.11a.57.57,0,0,1-.44-.67l.47-2.36a.56.56,0,0,1,.4-.44l1.88-.55a.58.58,0,0,1,.71.39.57.57,0,0,1-.39.7l-1.55.46-.41,2A.57.57,0,0,1,91.23,68.69Z"/><path class="b" d="M86.47,68.8a.57.57,0,0,1-.56-.46l-.43-2.13L84,65.77a.58.58,0,0,1-.39-.71.57.57,0,0,1,.71-.38l1.83.53a.56.56,0,0,1,.4.44l.5,2.47a.58.58,0,0,1-.45.67Z"/><path class="b" d="M88.7,71.41a.08.08,0,0,1-.08-.07V55.13a.08.08,0,0,1,.16,0V71.34A.08.08,0,0,1,88.7,71.41Z"/><path class="b" d="M95.41,62.62H82.18a.08.08,0,0,1,0-.16H95.41a.08.08,0,0,1,0,.16Z"/><polygon class="b" points="88.7 62.9 88.32 62.48 88.7 62.06 89.07 62.48 88.7 62.9"/><path class="b" d="M595.49,69.91a.1.1,0,0,1-.06-.16c.44-.56.87-1.09,1.31-1.62a.26.26,0,0,0,0-.3c-.23-.57-.45-1.15-.67-1.73h0a.09.09,0,0,1,.1-.13l.21,0,1.67.26a.21.21,0,0,0,.22-.09l1.32-1.65a.1.1,0,0,1,.17,0v0l.76,2a.23.23,0,0,0,.2.16l2.05.32h0a.1.1,0,0,1,.06.16h0l-1.3,1.62a.23.23,0,0,0,0,.28l.67,1.74a.09.09,0,0,1-.1.13h0l-1.85-.29a.21.21,0,0,0-.24.1l-1.3,1.62,0,0a.1.1,0,0,1-.17,0,1.34,1.34,0,0,0-.07-.18l-.69-1.79a.2.2,0,0,0-.19-.15l-2.07-.33Z"/><path class="b" d="M7.94,135a.11.11,0,0,1-.12.15l-2.26-.28a.3.3,0,0,0-.3.14L4,136.59H4a.1.1,0,0,1-.18,0,2,2,0,0,1-.1-.21L3,134.66a.22.22,0,0,0-.21-.15l-2.3-.28a.11.11,0,0,1-.07-.17v0l1.37-1.83a.24.24,0,0,0,0-.27L1,129.85l0,0a.11.11,0,0,1,.12-.15h0l2.26.28a.27.27,0,0,0,.29-.13c.39-.54.8-1.07,1.22-1.63a.11.11,0,0,1,.19,0v0c.27.63.54,1.25.8,1.88a.25.25,0,0,0,.23.17l2.26.27h0a.11.11,0,0,1,.07.18l-.13.17c-.42.56-.83,1.12-1.26,1.68a.23.23,0,0,0,0,.26l.9,2.11Z"/><path class="b" d="M343,105.6a.06.06,0,0,1-.07.07l-1.24-.34a.15.15,0,0,0-.18,0l-.81.8h0s-.09,0-.1,0a.56.56,0,0,1,0-.12l-.26-1c0-.06,0-.08-.1-.1l-1.26-.34a.07.07,0,0,1,0-.11h0c.3-.31.61-.61.91-.91a.13.13,0,0,0,.05-.15c-.11-.41-.22-.83-.32-1.24v0a.06.06,0,0,1,.08-.07h0l1.23.34a.14.14,0,0,0,.17,0l.81-.8a.07.07,0,0,1,.11,0h0c.1.37.2.75.29,1.12a.15.15,0,0,0,.11.11l1.24.34h0a.06.06,0,0,1,0,.1l-.09.09c-.28.28-.55.56-.84.83a.14.14,0,0,0,0,.14l.33,1.25Z"/><path class="b" d="M589.12,78.93a.07.07,0,0,1-.08-.08c.13-.46.26-.9.38-1.34a.16.16,0,0,0,0-.19c-.29-.29-.57-.59-.86-.89h0a.07.07,0,0,1,0-.11l.14,0,1.09-.28a.14.14,0,0,0,.11-.11c.13-.45.25-.9.38-1.36a.07.07,0,0,1,.11,0h0c.33.33.65.67,1,1a.16.16,0,0,0,.17,0l1.34-.34h0a.06.06,0,0,1,.08.08h0c-.13.44-.25.89-.38,1.33a.15.15,0,0,0,0,.18l.87.9a.07.07,0,0,1,0,.11h0l-1.22.3a.15.15,0,0,0-.12.12c-.12.45-.25.89-.37,1.34h0a.06.06,0,0,1-.11,0l-.09-.09c-.3-.31-.6-.61-.89-.92a.14.14,0,0,0-.16,0l-1.35.34Z"/><path class="b" d="M382.38,135.41a.1.1,0,0,1-.12-.12l.55-1.93a.25.25,0,0,0-.07-.28c-.42-.42-.83-.85-1.25-1.28h0a.1.1,0,0,1,.05-.16l.19,0,1.58-.39a.2.2,0,0,0,.16-.17c.18-.64.37-1.29.56-1.95a.08.08,0,0,1,.15,0h0l1.4,1.44a.23.23,0,0,0,.24.07l1.93-.49h0a.1.1,0,0,1,.11.12v0c-.19.64-.36,1.28-.55,1.92a.22.22,0,0,0,.07.26l1.25,1.29a.1.1,0,0,1,0,.16h0l-1.75.44a.23.23,0,0,0-.17.18c-.18.64-.36,1.28-.55,1.92v0a.1.1,0,0,1-.16,0l-.14-.14L384.58,135a.22.22,0,0,0-.23-.07l-2,.49Z"/><path class="b" d="M618.78,197.17a.12.12,0,0,1-.13.16l-2.46-.3a.29.29,0,0,0-.32.14l-1.33,1.77h0a.12.12,0,0,1-.2,0,2.29,2.29,0,0,1-.1-.23c-.26-.61-.53-1.22-.79-1.84a.24.24,0,0,0-.23-.17l-2.49-.3a.12.12,0,0,1-.08-.19h0c.49-.67,1-1.33,1.49-2a.27.27,0,0,0,0-.31c-.33-.75-.65-1.51-1-2.27l0,0a.12.12,0,0,1,.13-.16h0l2.45.3a.28.28,0,0,0,.31-.13c.43-.59.87-1.17,1.33-1.78a.12.12,0,0,1,.2,0v0c.29.68.59,1.37.87,2a.26.26,0,0,0,.25.18l2.45.3h0a.13.13,0,0,1,.09.19,1.33,1.33,0,0,0-.14.19c-.46.61-.91,1.22-1.37,1.82a.24.24,0,0,0,0,.29c.33.76.65,1.52,1,2.29Z"/><path class="b" d="M400.6,202.48a.07.07,0,0,1-.08.1l-1.64-.2a.21.21,0,0,0-.22.1l-.89,1.18h0a.07.07,0,0,1-.13,0,1,1,0,0,1-.07-.15l-.52-1.23a.17.17,0,0,0-.16-.12l-1.67-.2a.08.08,0,0,1-.05-.12h0l1-1.33a.17.17,0,0,0,0-.21c-.22-.5-.43-1-.65-1.51v0a.08.08,0,0,1,.09-.11h0l1.64.2a.18.18,0,0,0,.21-.09l.88-1.18a.08.08,0,0,1,.14,0h0c.19.46.39.92.58,1.37a.17.17,0,0,0,.16.12l1.64.2h0a.09.09,0,0,1,.06.13l-.1.12c-.3.41-.6.82-.91,1.22a.17.17,0,0,0,0,.19c.22.51.44,1,.65,1.54Z"/><path class="b" d="M100.5,85a.07.07,0,0,1-.1-.08c.1-.52.19-1,.28-1.52a.19.19,0,0,0-.07-.21l-1-.89h0a.07.07,0,0,1,0-.12l.14-.06,1.18-.41a.15.15,0,0,0,.11-.14c.09-.51.19-1,.29-1.54a.07.07,0,0,1,.12,0h0l1.18,1a.19.19,0,0,0,.19,0c.48-.18,1-.34,1.45-.51h0a.08.08,0,0,1,.1.08h0c-.1.51-.19,1-.29,1.51a.19.19,0,0,0,.07.2l1.06.9a.07.07,0,0,1,0,.12h0l-1.3.46a.16.16,0,0,0-.13.14c-.09.51-.18,1-.28,1.51v0a.08.08,0,0,1-.12,0l-.11-.1-1.08-.92a.14.14,0,0,0-.17,0l-1.46.51Z"/><path class="b" d="M331.1,147.88a.08.08,0,0,1-.09-.11c.19-.56.38-1.1.57-1.64a.21.21,0,0,0-.05-.25l-1-1.17h0a.08.08,0,0,1,.05-.13l.17,0,1.38-.26a.19.19,0,0,0,.15-.14c.19-.55.38-1.1.57-1.67a.09.09,0,0,1,.14,0h0l1.15,1.32a.18.18,0,0,0,.2.07l1.7-.33h0a.09.09,0,0,1,.1.11v0c-.19.54-.37,1.09-.57,1.64a.22.22,0,0,0,.05.23l1,1.17a.09.09,0,0,1-.05.14h0l-1.54.3a.19.19,0,0,0-.16.14c-.18.55-.37,1.1-.56,1.64v0a.08.08,0,0,1-.14,0l-.1-.12c-.36-.4-.71-.8-1.06-1.21a.19.19,0,0,0-.19-.07l-1.71.34Z"/><path class="b" d="M206.1,162.63a.08.08,0,0,1-.1-.09c.1-.52.19-1,.29-1.51a.19.19,0,0,0-.08-.21l-1-.89h0a.08.08,0,0,1,0-.13l.15-.05,1.17-.42a.16.16,0,0,0,.12-.13c.09-.51.18-1,.28-1.54a.07.07,0,0,1,.12,0h0l1.17,1a.17.17,0,0,0,.19,0l1.45-.51h0a.08.08,0,0,1,.1.09h0c-.1.5-.19,1-.29,1.51a.2.2,0,0,0,.08.2l1.05.89a.08.08,0,0,1,0,.13h0l-1.3.46a.16.16,0,0,0-.12.15c-.09.5-.19,1-.28,1.51v0a.07.07,0,0,1-.12,0l-.11-.09-1.08-.92a.15.15,0,0,0-.17,0l-1.46.52Z"/><path class="b" d="M111.48,154.81a.1.1,0,0,1,.15-.08c.6.35,1.19.68,1.77,1a.26.26,0,0,0,.29,0c.52-.31,1-.61,1.58-.91h0a.09.09,0,0,1,.14.08c0,.07,0,.14,0,.21,0,.55,0,1.1,0,1.65a.22.22,0,0,0,.12.21l1.8,1a.1.1,0,0,1,0,.17h0l-1.78,1a.19.19,0,0,0-.12.21c0,.68,0,1.36,0,2v0a.1.1,0,0,1-.14.09h0l-1.76-1a.23.23,0,0,0-.28,0l-1.58.92a.1.1,0,0,1-.15-.09h0v-1.84a.22.22,0,0,0-.12-.22c-.6-.33-1.18-.67-1.77-1l0,0a.09.09,0,0,1,0-.16l.16-.1,1.63-.94a.21.21,0,0,0,.12-.21v-2.08Z"/><path class="b" d="M105.11,66.81a.11.11,0,0,1,.16-.09l2,1.14a.27.27,0,0,0,.32,0l1.75-1h0a.1.1,0,0,1,.16.09,1.77,1.77,0,0,1,0,.23c0,.61,0,1.22,0,1.83a.22.22,0,0,0,.14.23l2,1.15a.11.11,0,0,1,0,.19h0l-2,1.14a.24.24,0,0,0-.14.24c0,.75,0,1.51,0,2.26v0a.1.1,0,0,1-.16.09h0l-2-1.14a.27.27,0,0,0-.31,0l-1.76,1a.11.11,0,0,1-.17-.09v0c0-.68,0-1.36,0-2a.24.24,0,0,0-.15-.24l-2-1.13,0,0a.1.1,0,0,1,0-.18l.19-.11L105,69.35a.21.21,0,0,0,.13-.22c0-.76,0-1.53,0-2.29Z"/><path class="b" d="M269.37,21.19a.12.12,0,0,1,.16-.11c.74.32,1.45.62,2.16.94A.3.3,0,0,0,272,22c.55-.42,1.11-.84,1.68-1.25h0a.1.1,0,0,1,.17.07l0,.24c.08.63.16,1.26.23,1.89a.23.23,0,0,0,.16.22c.73.3,1.45.62,2.2.94a.11.11,0,0,1,0,.19h0l-1.9,1.42a.24.24,0,0,0-.11.26l.27,2.33v0a.11.11,0,0,1-.15.11h0l-2.15-.93a.26.26,0,0,0-.32,0l-1.69,1.26a.11.11,0,0,1-.18-.08h0c-.08-.7-.17-1.4-.25-2.1a.25.25,0,0,0-.17-.24l-2.16-.92h0a.11.11,0,0,1,0-.19l.17-.14,1.74-1.3a.24.24,0,0,0,.11-.25c-.1-.78-.18-1.56-.27-2.34Z"/><path class="b" d="M438.37,191.62a.08.08,0,0,1,.12-.09l1.71.73a.21.21,0,0,0,.26,0l1.33-1h0a.09.09,0,0,1,.14.06,1.11,1.11,0,0,1,0,.19c.06.49.13,1,.18,1.49a.19.19,0,0,0,.13.17l1.73.74a.08.08,0,0,1,0,.15h0l-1.49,1.12a.2.2,0,0,0-.1.21c.08.61.15,1.23.22,1.84v0a.08.08,0,0,1-.12.09h0l-1.7-.74a.24.24,0,0,0-.26,0l-1.33,1a.09.09,0,0,1-.14-.06h0c-.07-.56-.14-1.11-.2-1.66a.19.19,0,0,0-.13-.18L437,195h0a.1.1,0,0,1,0-.16l.14-.1,1.37-1a.18.18,0,0,0,.09-.19c-.08-.62-.15-1.24-.22-1.86Z"/><path class="b" d="M185.23,66.27a.06.06,0,0,1,0,.09h-1.25a.15.15,0,0,0-.15.09l-.56,1h0a.06.06,0,0,1-.1,0l-.07-.11c-.17-.29-.34-.58-.5-.87a.13.13,0,0,0-.13-.08h-1.27a.06.06,0,0,1-.05-.09h0l.63-1.09a.14.14,0,0,0,0-.15l-.62-1.08v0a.06.06,0,0,1,.05-.09h1.26a.15.15,0,0,0,.15-.09l.55-1a.07.07,0,0,1,.11,0h0l.56,1a.14.14,0,0,0,.14.08h1.26a.06.06,0,0,1,0,.09l0,.1c-.2.33-.39.67-.58,1a.12.12,0,0,0,0,.14l.63,1.09Z"/><path class="b" d="M257.35,64.93a.06.06,0,0,1-.05.09h-1.25a.15.15,0,0,0-.16.09c-.18.32-.37.64-.55,1h0a.06.06,0,0,1-.1,0l-.07-.11-.5-.88a.14.14,0,0,0-.13-.07h-1.27a.06.06,0,0,1-.05-.09h0l.63-1.09a.14.14,0,0,0,0-.15c-.21-.36-.42-.72-.62-1.08v0a.06.06,0,0,1,.05-.09h1.26a.14.14,0,0,0,.14-.09l.56-1a.07.07,0,0,1,.11,0h0c.19.33.38.65.56,1a.13.13,0,0,0,.14.07h1.26a.06.06,0,0,1,.05.09l-.05.1-.58,1a.14.14,0,0,0,0,.15l.63,1.09Z"/><path class="b" d="M309.05,66.27a.06.06,0,0,1-.06.09h-1.25a.15.15,0,0,0-.15.09l-.56,1h0a.06.06,0,0,1-.1,0l-.07-.11c-.17-.29-.34-.58-.5-.87a.13.13,0,0,0-.13-.08H305a.06.06,0,0,1,0-.09h0l.63-1.09c0-.06,0-.1,0-.15l-.62-1.08v0a.06.06,0,0,1,0-.09h1.26a.15.15,0,0,0,.15-.09c.18-.32.36-.64.56-1a.06.06,0,0,1,.1,0h0l.56,1a.14.14,0,0,0,.14.08H309a.06.06,0,0,1,.05.09L309,64l-.58,1a.12.12,0,0,0,0,.14l.63,1.09Z"/><path class="b" d="M349.59,64.58a.06.06,0,0,1,0,.09h-1.26a.16.16,0,0,0-.15.09c-.18.33-.37.65-.56,1h0a.06.06,0,0,1-.1,0l-.06-.11-.51-.88a.14.14,0,0,0-.13-.07H345.5a.06.06,0,0,1-.05-.09h0l.62-1.09a.12.12,0,0,0,0-.16c-.2-.36-.41-.72-.62-1.08v0a.05.05,0,0,1,.05-.08h1.26a.16.16,0,0,0,.15-.09l.56-1a.06.06,0,0,1,.1,0h0l.56,1a.13.13,0,0,0,.13.08h1.27a.06.06,0,0,1,0,.08l-.06.11-.58,1a.12.12,0,0,0,0,.14l.63,1.09Z"/><path class="b" d="M548,63.43a0,0,0,0,1,0,.07h-1a.13.13,0,0,0-.13.07c-.14.26-.29.51-.44.77h0a0,0,0,0,1-.08,0,.41.41,0,0,1,0-.09c-.14-.23-.27-.46-.4-.69a.1.1,0,0,0-.1-.06h-1a0,0,0,0,1,0-.07h0l.5-.86c0-.05,0-.08,0-.12-.17-.29-.33-.58-.5-.86v0a0,0,0,0,1,0-.07h1a.1.1,0,0,0,.11-.07c.15-.25.3-.5.45-.77a0,0,0,0,1,.08,0h0l.45.77a.11.11,0,0,0,.11.06h1a0,0,0,0,1,0,.07l0,.08-.46.8a.08.08,0,0,0,0,.11l.5.87Z"/><circle class="c" cx="72.77" cy="112.72" r="1.98"/><circle class="c" cx="187.26" cy="99.55" r="1.98"/><circle class="c" cx="458.51" cy="104.66" r="1.98"/><circle class="c" cx="585.87" cy="168.8" r="1.98"/><path class="c" d="M400.82,53.13a.21.21,0,0,0-.27.13L391.28,75.9H390l9.1-21,.05,0,.42-1.29a.86.86,0,0,0-.13-.79.87.87,0,0,0-.71-.37.94.94,0,0,0-.36.08L388.45,57a1.89,1.89,0,0,0-.94,1.1,1.06,1.06,0,0,0,.15,1,1.08,1.08,0,0,0,.87.45,1.09,1.09,0,0,0,.48-.11l5.86-2.6L386.48,75.9h-7.69a1.21,1.21,0,1,0,0,2.41h15.78V75.9h-2.84L401,53.39A.21.21,0,0,0,400.82,53.13Z"/><circle class="c" cx="524.38" cy="129.14" r="1.97"/><path class="c" d="M481.08,143.23c-.46,0,.07-1.16-.27-1.5a1.76,1.76,0,0,1,0-2.51l12.34-11.37c.7-.69,2-1,2.73-.32s1.3,1.32.6,2l-14.15,13.17A1.74,1.74,0,0,1,481.08,143.23Z"/><circle class="d" cx="72.77" cy="112.72" r="1.98"/><circle class="d" cx="187.26" cy="99.55" r="1.98"/><circle class="d" cx="458.51" cy="104.66" r="1.98"/><circle class="d" cx="585.87" cy="168.8" r="1.98"/><path class="d" d="M400.82,53.13a.21.21,0,0,0-.27.13L391.28,75.9H390l9.1-21,.05,0,.42-1.29a.86.86,0,0,0-.13-.79.87.87,0,0,0-.71-.37.94.94,0,0,0-.36.08L388.45,57a1.89,1.89,0,0,0-.94,1.1,1.06,1.06,0,0,0,.15,1,1.08,1.08,0,0,0,.87.45,1.09,1.09,0,0,0,.48-.11l5.86-2.6L386.48,75.9h-7.69a1.21,1.21,0,1,0,0,2.41h15.78V75.9h-2.84L401,53.39A.21.21,0,0,0,400.82,53.13Z"/><circle class="d" cx="524.38" cy="129.14" r="1.97"/><path class="d" d="M481.08,143.23c-.46,0,.07-1.16-.27-1.5a1.76,1.76,0,0,1,0-2.51l12.34-11.37c.7-.69,2-1,2.73-.32s1.3,1.32.6,2l-14.15,13.17A1.74,1.74,0,0,1,481.08,143.23Z"/><circle class="e" cx="224.62" cy="143.15" r="1.98"/><circle class="e" cx="78.28" cy="148.24" r="1.98"/><circle class="e" cx="529.2" cy="159.55" r="1.98"/><circle class="e" cx="596.22" cy="116.02" r="1.98"/><path class="e" d="M487.35,75.38a1,1,0,0,1-.46-.11,1,1,0,0,1-.49-.58,1,1,0,0,1,.06-.77l6-15.44,2.32,0-6.5,16.33A1,1,0,0,1,487.35,75.38Z"/><path class="f" d="M283.94,120.09l-18.25,17.06a2.16,2.16,0,0,0-.12,3l0,0c.81.91.57,2.6,1.45,1.76L288,122.16c1-1,.84-1.88-.33-2.64l-2.94,1.9C283.86,120.87,284.67,119.4,283.94,120.09Z"/><circle class="g" cx="224.62" cy="143.15" r="1.98"/><circle class="g" cx="78.28" cy="148.24" r="1.98"/><circle class="g" cx="529.2" cy="159.55" r="1.98"/><circle class="g" cx="596.22" cy="116.02" r="1.98"/><path class="g" d="M487.35,75.38a1,1,0,0,1-.46-.11,1,1,0,0,1-.49-.58,1,1,0,0,1,.06-.77l6-15.44,2.32,0-6.5,16.33A1,1,0,0,1,487.35,75.38Z"/><path class="g" d="M283.94,120.09l-18.25,17.06a2.16,2.16,0,0,0-.12,3l0,0c.81.91.57,2.6,1.45,1.76L288,122.16c1-1,.84-1.88-.33-2.64l-2.94,1.9C283.86,120.87,284.67,119.4,283.94,120.09Z"/><circle class="h" cx="160.23" cy="116.93" r="1.98"/><circle class="h" cx="688.02" cy="82.26" r="1.98"/><path class="h" d="M535.72,52.83l-2.68,0L522.09,79a1.19,1.19,0,1,0,2,1,.41.41,0,0,0,0-.11Z"/><circle class="i" cx="216.32" cy="120.56" r="1.97"/><circle class="i" cx="437.83" cy="177.07" r="1.97"/><path class="i" d="M573.27,145.22c-.54,0,.22-1.52-.19-1.93a2.12,2.12,0,0,1,0-3l11.66-11.66a2.13,2.13,0,0,1,3,0c.84.83,2.48.54,1.64,1.37L574.78,144.6A2.15,2.15,0,0,1,573.27,145.22Z"/><polygon class="a" points="341.29 151.72 339.82 150.82 351.78 131.43 353.76 131.56 341.29 151.72"/><path class="a" d="M343.11,155.57a5.24,5.24,0,0,1-1.14-.12,3.13,3.13,0,0,1-2.48-2.13,3.75,3.75,0,0,1,.81-3.29l1.38,1a2.14,2.14,0,0,0-.53,1.77,1.48,1.48,0,0,0,1.2.92,4.79,4.79,0,0,0,2.75-.33l.64,1.6A7,7,0,0,1,343.11,155.57Z"/><path class="a" d="M355.75,139.37H341.1a.87.87,0,0,1-.82-1.16h0a.88.88,0,0,1,.82-.57h15.28Z"/><path class="a" d="M357.62,153.32l-1.2-.65,7.46-13.49,1.52.83-7.29,13.17A.36.36,0,0,1,357.62,153.32Z"/><path class="a" d="M354.45,143.24l-2,0L360.68,128h0a.85.85,0,0,1,1.13-.35h0a.8.8,0,0,1,.34.94Z"/><path class="a" d="M365,140.64l-1.37-1.06a2.5,2.5,0,0,0,.48-1,2.24,2.24,0,0,0,0-1,2.53,2.53,0,0,0-.54-1,3.53,3.53,0,0,0-1-.82,4.42,4.42,0,0,0-1.36-.43,4.89,4.89,0,0,0-1.48,0,4.34,4.34,0,0,0-1.39.49l-.85-1.5a5.89,5.89,0,0,1,1.95-.69,6.51,6.51,0,0,1,2,0,5.8,5.8,0,0,1,1.9.61,5.05,5.05,0,0,1,1.57,1.23,4.35,4.35,0,0,1,.9,1.71,4.08,4.08,0,0,1,0,1.84A4.27,4.27,0,0,1,365,140.64Z"/><path class="a" d="M362.52,126.6a1,1,0,1,1,1-1A1,1,0,0,1,362.52,126.6Z"/><path class="a" d="M373.89,150.67a6,6,0,0,1-2.11-.37,4.55,4.55,0,0,1-1.66-1,3.73,3.73,0,0,1-1-1.62,3.93,3.93,0,0,1-.07-2,5.1,5.1,0,0,1,.86-1.87,6.53,6.53,0,0,1,1.51-1.45,7.47,7.47,0,0,1,1.94-1,7.31,7.31,0,0,1,1.23-.28.87.87,0,0,1,1,.86h0a.87.87,0,0,1-.76.85,5.86,5.86,0,0,0-.92.22,5.58,5.58,0,0,0-1.49.73,4.41,4.41,0,0,0-1.09,1.06,2.91,2.91,0,0,0-.56,1.2,2,2,0,0,0,0,1.1,2.12,2.12,0,0,0,.54.89,2.83,2.83,0,0,0,1,.65,4.94,4.94,0,0,0,3.18,0,5.58,5.58,0,0,0,1.49-.73,4.64,4.64,0,0,0,1.1-1.06h0a.93.93,0,0,1,1,1.52,8.89,8.89,0,0,1-1.15,1,7.14,7.14,0,0,1-1.94.95A6.94,6.94,0,0,1,373.89,150.67Z"/><path class="a" d="M377.43,142.37a1,1,0,1,1,1-1A1,1,0,0,1,377.43,142.37Z"/><path class="a" d="M357.32,153.69a.86.86,0,0,1-.68-.34L351.71,147a.86.86,0,0,1,.15-1.21.87.87,0,0,1,1.22.15l4.92,6.34a.86.86,0,0,1-.68,1.4Z"/><path class="a" d="M352.47,147.34l-.16-1.72c.22,0,20.59.39,26.94-2.7a.86.86,0,0,1,1.12.32h0a.86.86,0,0,1-.37,1.23C373.25,147.71,353.34,147.26,352.47,147.34Z"/><path class="a" d="M343.61,121.92l-.77-1.55a5.54,5.54,0,0,0,1.22-1.13l.46-.56.45-.58c.15-.2.3-.39.44-.59l.43-.6c.15-.2.29-.41.42-.61l.41-.61.39-.62.38-.61.37-.61.35-.61c.12-.2.23-.4.34-.6l.32-.58.31-.58c.1-.19.2-.37.29-.56s.19-.36.28-.54.17-.35.26-.51l.24-.5c.08-.16.15-.32.22-.47s.14-.3.21-.44l.19-.42c.06-.13.12-.25.17-.37s.11-.24.15-.35l.51-1.19,1.86.12-.78,1.77c-.05.11-.1.23-.16.35s-.11.26-.18.39-.12.28-.19.42l-.21.46-.23.48-.25.51-.27.53-.28.56-.3.57-.32.59-.33.61-.35.61-.36.63-.38.63-.39.63-.41.64-.42.64-.44.63-.45.63-.46.62-.48.61-.49.6A7,7,0,0,1,343.61,121.92Z"/><path class="a" d="M354.83,104.45a0,0,0,0,1-.05,0l-.87-.16a.09.09,0,0,0-.11,0l-.51.6h0a0,0,0,0,1-.08,0l0-.09c-.08-.22-.16-.44-.23-.67,0,0,0-.06-.08-.06L352,104a0,0,0,0,1,0-.06h0c.2-.22.39-.45.58-.67a.09.09,0,0,0,0-.11c-.1-.28-.2-.55-.29-.83h0a.05.05,0,0,1,.05-.06h0l.87.16a.09.09,0,0,0,.11,0l.52-.6a0,0,0,0,1,.07,0h0l.27.75a.09.09,0,0,0,.08.07l.86.15h0a0,0,0,0,1,0,.06l-.05.07-.53.62a.09.09,0,0,0,0,.1l.3.83Z"/><path class="a" d="M383.38,122.65a4.9,4.9,0,0,1-1-.11,4.23,4.23,0,0,1-.92-.34,4.3,4.3,0,0,1-.81-.52,4.38,4.38,0,0,1-.66-.7,4,4,0,0,1-.49-.83,4.86,4.86,0,0,1-.32-.93,5.69,5.69,0,0,1-.12-1,5.55,5.55,0,0,1,.07-1.07,6.48,6.48,0,0,1,.27-1,5.75,5.75,0,0,1,.44-1l.15-.27a.68.68,0,0,1,1-.17l.29.23a.68.68,0,0,1,.17.88,1.4,1.4,0,0,0-.1.16,5.83,5.83,0,0,0-.32.72,5,5,0,0,0-.19.76,3.78,3.78,0,0,0-.05.75,3.08,3.08,0,0,0,.08.68,2.73,2.73,0,0,0,.2.59,2.14,2.14,0,0,0,.3.51,3,3,0,0,0,.39.41,2.55,2.55,0,0,0,.47.31,2.47,2.47,0,0,0,.54.19,3.11,3.11,0,0,0,1.29,0,3.89,3.89,0,0,0,.66-.21,4.45,4.45,0,0,0,.64-.35,4.26,4.26,0,0,0,.59-.46,5.57,5.57,0,0,0,.52-.57,4.88,4.88,0,0,0,.43-.65,5,5,0,0,0,.32-.71,4.13,4.13,0,0,0,.19-.77,3.78,3.78,0,0,0,.05-.75,3.08,3.08,0,0,0-.08-.68,2.93,2.93,0,0,0-.2-.59,2.36,2.36,0,0,0-.3-.51,3,3,0,0,0-.39-.41h0a.7.7,0,0,1-.2-.84l.17-.34a.68.68,0,0,1,1-.23l.11.08a4.38,4.38,0,0,1,.66.7,4,4,0,0,1,.49.83,4.86,4.86,0,0,1,.32.93,5.69,5.69,0,0,1,.12,1,5.55,5.55,0,0,1-.07,1.07,6.87,6.87,0,0,1-.27,1.06,6,6,0,0,1-.44,1,6.31,6.31,0,0,1-1.29,1.66,6.33,6.33,0,0,1-.81.64,5.57,5.57,0,0,1-.9.48,5.1,5.1,0,0,1-1,.32A5.23,5.23,0,0,1,383.38,122.65Z"/><polygon class="a" points="370.41 120.66 368.87 119.86 375.51 106.67 377.56 106.7 370.41 120.66"/><path class="a" d="M372.2,126.11a4.51,4.51,0,0,1-1.23-.17,3.56,3.56,0,0,1-2.49-2.74,5.85,5.85,0,0,1,.78-4.09l1.5.85a4.24,4.24,0,0,0-.59,2.87,1.83,1.83,0,0,0,1.3,1.45,3.71,3.71,0,0,0,2.71-.45l0,1.78A3.1,3.1,0,0,1,372.2,126.11Z"/><path class="a" d="M381.11,116.26h-18a.87.87,0,0,1-.82-1.16h0a.88.88,0,0,1,.82-.57h17.57a.77.77,0,0,1,.72,1Z"/><polygon class="a" points="355.99 116.72 354.48 115.88 362.81 101.31 364.84 101.38 355.99 116.72"/><path class="a" d="M366.87,116.25l-1.58-.69c.08-.22.33-1.32.43-1.74,0-.2.08-.37.1-.45a5.61,5.61,0,0,0,.14-.9,4.78,4.78,0,0,0,0-.85,4,4,0,0,0-.17-.79,3.62,3.62,0,0,0-.31-.69,3.68,3.68,0,0,0-.44-.58,3.23,3.23,0,0,0-.58-.47,3.14,3.14,0,0,0-.67-.31,3.49,3.49,0,0,0-.73-.14,3.39,3.39,0,0,0-.78,0,4.71,4.71,0,0,0-.81.18,5.66,5.66,0,0,0-.81.35,7.32,7.32,0,0,0-.77.51l-1.07-1.36a8.13,8.13,0,0,1,1-.67,6.52,6.52,0,0,1,1.09-.47,6.37,6.37,0,0,1,1.13-.26,4.84,4.84,0,0,1,1.14,0,4.73,4.73,0,0,1,1.12.22,4.63,4.63,0,0,1,1.06.49,4.82,4.82,0,0,1,.9.72,5.59,5.59,0,0,1,.69.91,5.3,5.3,0,0,1,.46,1,6.05,6.05,0,0,1,.25,1.12,7.59,7.59,0,0,1,0,1.17,7.13,7.13,0,0,1-.19,1.2c0,.08-.05.23-.1.42A14.49,14.49,0,0,1,366.87,116.25Z"/><path class="a" d="M385,113.37a1.07,1.07,0,0,1,0-2.13,1.07,1.07,0,0,1,0,2.13Z"/><path class="a" d="M349.51,122.32l-.32,0a4.07,4.07,0,0,1-3.33-3.21.86.86,0,0,1,.58-1.08.88.88,0,0,1,1.08.58c.34,1.17,1,1.91,1.84,2s2.81-.34,5.69-5.79a.87.87,0,1,1,1.53.81C353.69,121.07,351.19,122.32,349.51,122.32Z"/><path class="a" d="M341.91,122.2a4.48,4.48,0,0,1-.64,0,3.4,3.4,0,0,1-.79-.21,3.26,3.26,0,0,1-.69-.37,2.94,2.94,0,0,1-.57-.54,2.77,2.77,0,0,1-.4-.66,3.29,3.29,0,0,1-.21-.76,3.12,3.12,0,0,1,0-.81,4.22,4.22,0,0,1,.17-.83,4.79,4.79,0,0,1,.34-.81,4.85,4.85,0,0,1,.47-.74,7.32,7.32,0,0,1,.58-.67,7.68,7.68,0,0,1,.68-.58,6.32,6.32,0,0,1,.74-.49,8.34,8.34,0,0,1,.8-.38,5.51,5.51,0,0,1,1.73-.38,4.82,4.82,0,0,1,.86,0,4.56,4.56,0,0,1,.79.21,3.37,3.37,0,0,1,.7.38,2.91,2.91,0,0,1,1.17,2,5,5,0,0,1,0,1c0,.42-.06,1-.06,1.38a.87.87,0,1,1-1.73,0c0-.48,0-1,.06-1.48,0-.24,0-.53,0-.63a1.32,1.32,0,0,0-.09-.3,1,1,0,0,0-.16-.26,1.52,1.52,0,0,0-.22-.22,2.4,2.4,0,0,0-.32-.17,2.58,2.58,0,0,0-.42-.11,2.9,2.9,0,0,0-.52,0,4,4,0,0,0-.58.08,4.56,4.56,0,0,0-.6.18,5.12,5.12,0,0,0-.58.28,5.21,5.21,0,0,0-.55.36,5.15,5.15,0,0,0-.5.43,4.81,4.81,0,0,0-.42.48,3.36,3.36,0,0,0-.32.51,3.74,3.74,0,0,0-.22.51,3.17,3.17,0,0,0-.1.48,1.75,1.75,0,0,0,0,.4,1.5,1.5,0,0,0,.09.32.92.92,0,0,0,.16.27.93.93,0,0,0,.23.21,1.17,1.17,0,0,0,.31.17,1.85,1.85,0,0,0,.42.11,2.91,2.91,0,0,0,.52,0,3.85,3.85,0,0,0,.58-.08l.4-.13.26-.08a.86.86,0,1,1,.51,1.65l-.22.07a3.85,3.85,0,0,1-.57.17,4.43,4.43,0,0,1-.88.12Zm4-5.45Z"/><path class="a" d="M45.84,131.55a20.13,20.13,0,0,1-7.76-1.46,15.39,15.39,0,0,1-6.68-5.22,16.11,16.11,0,0,1-3-8,22.45,22.45,0,0,1,1.05-9A31.74,31.74,0,0,1,34,99a38.24,38.24,0,0,1,7.54-7.83,37.05,37.05,0,0,1,9.35-5.36,29.11,29.11,0,0,1,9.49-2A20.4,20.4,0,0,1,69,85.22a15.43,15.43,0,0,1,6.68,5.21,16.14,16.14,0,0,1,3,8,22.63,22.63,0,0,1-1.05,9,2.06,2.06,0,0,1-3.93-1.24,18.34,18.34,0,0,0,.88-7.33,12,12,0,0,0-2.2-6A11.41,11.41,0,0,0,67.45,89a16.45,16.45,0,0,0-7-1.13,25.08,25.08,0,0,0-8.15,1.77,32.72,32.72,0,0,0-8.3,4.77,34.11,34.11,0,0,0-6.73,7,27.59,27.59,0,0,0-3.91,7.7,18.3,18.3,0,0,0-.88,7.33,12,12,0,0,0,2.2,6,11.26,11.26,0,0,0,4.93,3.83,16.3,16.3,0,0,0,7,1.13,2.06,2.06,0,0,1,.15,4.12Z"/><path class="a" d="M52,151.56a2,2,0,0,1-1.19-.38,2.06,2.06,0,0,1-.48-2.88,33.85,33.85,0,0,0,4.82-9.48,22.73,22.73,0,0,0,1.09-9.1,15.09,15.09,0,0,0-2.76-7.55,14.17,14.17,0,0,0-6.18-4.81A20.51,20.51,0,0,0,38.67,116a2.06,2.06,0,0,1-.15-4.11,24.33,24.33,0,0,1,10.38,1.72,18.35,18.35,0,0,1,7.94,6.19,19.27,19.27,0,0,1,3.52,9.57,26.88,26.88,0,0,1-1.26,10.74,38.18,38.18,0,0,1-5.4,10.64A2.07,2.07,0,0,1,52,151.56Z"/><path class="a" d="M20.85,169.07a24,24,0,0,1-9.27-1.75,18.16,18.16,0,0,1-7.94-6.19,19.19,19.19,0,0,1-3.53-9.57,27,27,0,0,1,1.26-10.73,2.06,2.06,0,1,1,3.93,1.23,23,23,0,0,0-1.09,9.1A15.15,15.15,0,0,0,7,158.71a14.14,14.14,0,0,0,6.19,4.81,20.31,20.31,0,0,0,8.64,1.41,31,31,0,0,0,10.07-2.18,40.4,40.4,0,0,0,10.21-5.87,2.06,2.06,0,0,1,2.54,3.25,45,45,0,0,1-11.26,6.46A35.3,35.3,0,0,1,22,169.05Z"/><path class="a" d="M80.49,145.24a2.21,2.21,0,0,1-1.82-1,2.18,2.18,0,0,1-.13-2.1l23.3-45.54,4.83.12L82.55,144a2.21,2.21,0,0,1-2,1.28Z"/><path class="a" d="M171.83,94.78H139.75a2.2,2.2,0,0,1-2.23-2.07,2.13,2.13,0,0,1,2.14-2.21h33.2C175,92.39,173.7,94.78,171.83,94.78Z"/><path class="a" d="M115.53,144.77a2,2,0,0,1-.93-.22,2.13,2.13,0,0,1-1-2.86l24-50a2.15,2.15,0,0,1,3.87,1.86l-24.68,50.62C116.45,145,116.32,144.77,115.53,144.77Z"/><path class="a" d="M157.62,155.39a1.36,1.36,0,0,1-1.17-.67,1.34,1.34,0,0,1,0-1.34L182.12,104a2.2,2.2,0,0,1,1.92-1.13,2.17,2.17,0,0,1,1.06.27,2.22,2.22,0,0,1,1.05,1.31,2.18,2.18,0,0,1-.19,1.66l-25.53,49.3Z"/><path class="a" d="M162.77,155.44l2.38-4.38H187.9a1.47,1.47,0,0,1,1.27.6,2.6,2.6,0,0,1,.07,2.34,2.19,2.19,0,0,1-2.06,1.44Z"/><path class="a" d="M187.78,145.48a1.34,1.34,0,0,1-1.16-.66,1.36,1.36,0,0,1,0-1.35l25.7-49.39a2.18,2.18,0,0,1,1.92-1.14,2.19,2.19,0,0,1,2.1,1.58,2.17,2.17,0,0,1-.19,1.67l-25.53,49.29Z"/><path class="a" d="M193.65,145.53l2.38-4.38h22.75a1.45,1.45,0,0,1,1.27.61,2.61,2.61,0,0,1,.07,2.33,2.19,2.19,0,0,1-2.06,1.44Z"/><path class="a" d="M133.05,118.93l2-4.38h19.46a1.53,1.53,0,0,1,1.28.68,2.21,2.21,0,0,1,.22,2,2.45,2.45,0,0,1-2.48,1.71Z"/><path class="a" d="M119.12,144.24l2.22-4.38h33.18a1.54,1.54,0,0,1,1.28.68,2.21,2.21,0,0,1,.22,2,2.44,2.44,0,0,1-2.47,1.71Z"/><path class="a" d="M52.24,131.41a2.1,2.1,0,0,1-.36,0,1.93,1.93,0,0,1-.34-.11,1.62,1.62,0,0,1-.32-.17,1.93,1.93,0,0,1-.28-.22,3.11,3.11,0,0,1-.23-.28,3.24,3.24,0,0,1-.17-.32,1.89,1.89,0,0,1,0-1.4,3.24,3.24,0,0,1,.17-.32,2,2,0,0,1,.23-.27,1.49,1.49,0,0,1,.28-.23,1.62,1.62,0,0,1,.32-.17,1.33,1.33,0,0,1,.34-.1,1.7,1.7,0,0,1,.71,0,1.54,1.54,0,0,1,.35.1,1.87,1.87,0,0,1,.31.17,1.23,1.23,0,0,1,.28.23,1.49,1.49,0,0,1,.23.27,2,2,0,0,1,.17.32,2.19,2.19,0,0,1,.1.34,1.64,1.64,0,0,1,0,.72,2.19,2.19,0,0,1-.1.34,3.24,3.24,0,0,1-.17.32,2,2,0,0,1-.23.28A1.83,1.83,0,0,1,52.24,131.41Z"/><polygon class="a" points="126.57 99.21 83.19 99.21 84.81 94.74 128.19 94.74 126.57 99.21"/><path class="a" d="M634.09,103.19a1.85,1.85,0,0,1-1.3-.54,1.56,1.56,0,0,1-.23-.28,1.82,1.82,0,0,1-.16-.31,1.57,1.57,0,0,1-.11-.35,1.34,1.34,0,0,1,0-.35,1.47,1.47,0,0,1,0-.36,1.35,1.35,0,0,1,.11-.34,1.59,1.59,0,0,1,.16-.32,2,2,0,0,1,.23-.28,2.15,2.15,0,0,1,.28-.23,3.07,3.07,0,0,1,.31-.17,2.3,2.3,0,0,1,.35-.1,1.84,1.84,0,0,1,1.65.5,3.11,3.11,0,0,1,.23.28,2.4,2.4,0,0,1,.17.32,1.91,1.91,0,0,1,.1.34,2.2,2.2,0,0,1,0,.36,2,2,0,0,1,0,.35,2.3,2.3,0,0,1-.1.35,3.07,3.07,0,0,1-.17.31,2.15,2.15,0,0,1-.23.28A1.84,1.84,0,0,1,634.09,103.19Z"/><path class="a" d="M401.75,196.31a2,2,0,0,1-1.7-3.15l35.54-54.36A2,2,0,1,1,439,141l-35.54,54.36A2,2,0,0,1,401.75,196.31Z"/><path class="a" d="M590.36,165.1a2.14,2.14,0,0,1-1.74-3.39L628,106.59a2.14,2.14,0,0,1,3.49,2.49L592.1,164.2A2.12,2.12,0,0,1,590.36,165.1Z"/><path class="a" d="M620.07,188.16a1.61,1.61,0,0,1-1.28-2.57l63.72-98.2a1.61,1.61,0,0,1,2.58,1.92l-63.72,98.2A1.63,1.63,0,0,1,620.07,188.16Z"/><path class="a" d="M635.1,84a1.39,1.39,0,0,1-.35,0,2,2,0,0,1-.35-.1,1.87,1.87,0,0,1-.31-.17,1.86,1.86,0,0,1-.51-.51,3.07,3.07,0,0,1-.17-.31,2.19,2.19,0,0,1-.1-.34,1.64,1.64,0,0,1,0-.72,1.91,1.91,0,0,1,.1-.34,2.4,2.4,0,0,1,.17-.32,2,2,0,0,1,.23-.28,1.86,1.86,0,0,1,1.65-.5,1.23,1.23,0,0,1,.34.11,1.59,1.59,0,0,1,.32.16,1.86,1.86,0,0,1,.51.51,2.4,2.4,0,0,1,.17.32,1.91,1.91,0,0,1,.1.34,1.89,1.89,0,0,1-.1,1.06,3.07,3.07,0,0,1-.17.31,2.15,2.15,0,0,1-.23.28,2,2,0,0,1-.28.23,1.62,1.62,0,0,1-.32.17,1.69,1.69,0,0,1-.34.1A1.47,1.47,0,0,1,635.1,84Z"/><path class="a" d="M637.14,87.92a2.62,2.62,0,0,1-.28-2.65,1.45,1.45,0,0,1,1.28-.72,2.7,2.7,0,0,1,2.13,1.31l22.14,24.28-2.56,2.92Z"/><path class="a" d="M598.57,121.46v0a2.1,2.1,0,0,1,1.71-3.33,2.08,2.08,0,0,1,1.7.86l8.85,9-2.72,3.41Z"/><path class="a" d="M624.47,149.16a2.08,2.08,0,0,1-1.7-.86l-8.84-9.39,2.72-3.41,9.52,10.32,0,0a2.12,2.12,0,0,1-.07,2.53A2.07,2.07,0,0,1,624.47,149.16Z"/><path class="a" d="M492.06,163.33a1.34,1.34,0,0,1-1.17-.67,1.31,1.31,0,0,1,0-1.34l30.64-69.16A2.19,2.19,0,0,1,523.43,91a2.17,2.17,0,0,1,1.06.27,2.2,2.2,0,0,1,.86,3l-30.48,69.06Z"/><path class="a" d="M498.17,161.78l1.9-4.38h22.51a2.16,2.16,0,0,1,1.79.93,2.19,2.19,0,0,1-1.79,3.45Z"/><path class="a" d="M437.3,137.88H415.76V142H437.3a2,2,0,1,0,0-4.07Z"/><path class="a" d="M456.4,95.6A19.3,19.3,0,0,0,450,90.54a25.48,25.48,0,0,0-11.43-2.49,38.1,38.1,0,0,0-13.14,2.47A50.25,50.25,0,0,0,413,97.26a52.32,52.32,0,0,0-10.26,10,43.89,43.89,0,0,0-6.8,12.25,30.62,30.62,0,0,0-1.85,12.29,21,21,0,0,0,3.25,10.07,19.07,19.07,0,0,0,7.69,6.8,25.39,25.39,0,0,0,11.31,2.49V147a21.25,21.25,0,0,1-8.49-2.11,16.35,16.35,0,0,1-6.59-5.83,18,18,0,0,1-2.79-8.66,26.71,26.71,0,0,1,1.61-10.66A38.57,38.57,0,0,1,406,109a46,46,0,0,1,9-8.74,43.68,43.68,0,0,1,10.82-5.89,33.21,33.21,0,0,1,11.44-2.16,22,22,0,0,1,9.88,2.15,16.67,16.67,0,0,1,5.47,4.29,2.38,2.38,0,0,0,1.85.88,2.3,2.3,0,0,0,1.38-.45L456,99a2.31,2.31,0,0,0,.93-1.59A2.36,2.36,0,0,0,456.4,95.6Z"/><path class="j" d="M138.34,79.43a4.87,4.87,0,1,1,4.87-4.86A4.87,4.87,0,0,1,138.34,79.43Zm0-8a3.11,3.11,0,1,0,3.11,3.11A3.11,3.11,0,0,0,138.34,71.46Z"/><path class="j" d="M154.41,73.52a4.36,4.36,0,0,1-4.33-4,4.36,4.36,0,0,1,7.16-3.67,4.51,4.51,0,0,1,1.29,1.86.9.9,0,0,1-.76,1.19h0a.89.89,0,0,1-.9-.6,2.51,2.51,0,0,0-.77-1.11,2.59,2.59,0,0,0-4.27,2.19,2.6,2.6,0,0,0,2.8,2.38l.14,1.75Z"/><path class="j" d="M153.79,79.43a5.47,5.47,0,0,1-1.81-.31,5.22,5.22,0,0,1-1.39-.76,5.29,5.29,0,0,1-2-3.51,1,1,0,0,1,1-1.09h0a1,1,0,0,1,.86.85,3.16,3.16,0,0,0,.71,1.66,3.3,3.3,0,1,0,2.92-5.36h0l.21-1.91h0a5.23,5.23,0,0,1-.55,10.43Z"/><path class="j" d="M184.07,79.43h-1.75V70.35a.87.87,0,0,1,.88-.88h0a.87.87,0,0,1,.87.88Z"/><path class="j" d="M214.19,80.41a4.61,4.61,0,1,1,4.61-4.61A4.61,4.61,0,0,1,214.19,80.41Zm0-7.47a2.86,2.86,0,1,0,2.86,2.86A2.86,2.86,0,0,0,214.19,72.94Z"/><path class="j" d="M218.8,76.1l-1.75-.16a7.32,7.32,0,0,0,0-1.48,7.61,7.61,0,0,0-.29-1.42,7.45,7.45,0,0,0-.56-1.34,8.64,8.64,0,0,0-.8-1.2,8.35,8.35,0,0,0-1-1,7.66,7.66,0,0,0-1.22-.82c-.23-.12-.45-.23-.69-.33a.86.86,0,0,1-.48-1h0a.87.87,0,0,1,1.19-.55,7.49,7.49,0,0,1,.81.38,9.47,9.47,0,0,1,2.78,2.29,9.73,9.73,0,0,1,1,1.48,8.65,8.65,0,0,1,.69,1.64,9.85,9.85,0,0,1,.37,1.76A9.33,9.33,0,0,1,218.8,76.1Z"/><path class="j" d="M229.37,79.43a5.44,5.44,0,1,1,3.75-9.38l-1.21,1.28a3.68,3.68,0,1,0,.13,5.2l1.27,1.21a5.42,5.42,0,0,1-3.8,1.69Z"/><rect class="j" x="173.52" y="73.47" width="1.75" height="5.96"/><path class="j" d="M168.34,79.21h-1.75V64.52a.87.87,0,0,1,.88-.87h0a.87.87,0,0,1,.87.87Z"/><path class="j" d="M175.28,73.93h-1.75a2.6,2.6,0,1,0-5.2,0h-1.75a4.35,4.35,0,1,1,8.7,0Z"/><path class="j" d="M193.19,79.25h-1.75V64.39a.87.87,0,0,1,.87-.88h0a.87.87,0,0,1,.88.88Z"/><rect class="j" x="197.12" y="73.13" width="1.75" height="6.3"/><path class="j" d="M198.88,73.52h-1.75a2,2,0,0,0-.16-.8,2.12,2.12,0,0,0-.44-.66,2,2,0,0,0-.66-.44,2.14,2.14,0,0,0-1.61,0,2,2,0,0,0-.65.44,2.15,2.15,0,0,0-.45.66L191.55,72a3.75,3.75,0,0,1,.82-1.22,3.87,3.87,0,0,1,1.21-.82,3.83,3.83,0,0,1,4.19.82,3.72,3.72,0,0,1,.81,1.22A3.77,3.77,0,0,1,198.88,73.52Z"/><rect class="j" x="202.14" y="73.13" width="1.75" height="6.3"/><path class="j" d="M203.9,73.52h-1.75a2.06,2.06,0,0,0-.61-1.46,2.06,2.06,0,0,0-2.91,0l-1.25-1.24a3.81,3.81,0,0,1,5.4,0A3.76,3.76,0,0,1,203.9,73.52Z"/><rect class="j" x="246.74" y="75.04" width="1.75" height="4.39"/><path class="j" d="M241.56,79.21H239.8V64.34a.89.89,0,0,1,.88-.88h0a.89.89,0,0,1,.88.88Z"/><path class="j" d="M248.5,75.5h-1.76a2.6,2.6,0,1,0-5.19,0h-1.76a4.36,4.36,0,0,1,8.71,0Z"/><path class="j" d="M256.19,79.43h-1.75V69a.88.88,0,0,1,.87-.88h0a.88.88,0,0,1,.88.88Z"/><path class="j" d="M117.88,78.77h-1.76V65.48a.88.88,0,0,1,.88-.87h0a.87.87,0,0,1,.88.87Z"/><rect class="j" x="126.34" y="62.12" width="1.75" height="23.47"/><path class="j" d="M127.46,70.22h-5.6a.88.88,0,0,1-.87-.88h0a.87.87,0,0,1,.87-.88h5.6Z"/><path class="a" d="M117,62.25a1.13,1.13,0,1,1,1.13-1.13A1.13,1.13,0,0,1,117,62.25Z"/><path class="j" d="M307.88,79.43h-1.75V70.35a.87.87,0,0,1,.88-.88h0a.87.87,0,0,1,.87.88Z"/><path class="j" d="M321.56,74.45a4.36,4.36,0,0,1-3.31-7.18,4.35,4.35,0,0,1,6.14-.49,4.27,4.27,0,0,1,1.28,1.86.88.88,0,0,1-.75,1.18h0a.87.87,0,0,1-.9-.59,2.69,2.69,0,0,0-.77-1.12,2.59,2.59,0,0,0-3.66.3,2.59,2.59,0,0,0,2.19,4.27l.14,1.75Z"/><path class="j" d="M320.93,79.43a4.59,4.59,0,0,1-.73-.06,4.76,4.76,0,0,1-4-4.17.87.87,0,0,1,1-.94h0a.88.88,0,0,1,.78.78,2.87,2.87,0,0,0,.64,1.51,3,3,0,0,0,2,1.11A3,3,0,0,0,323.92,75a3,3,0,0,0-.65-2.21,3,3,0,0,0-2-1.1l.18-1.75a4.77,4.77,0,0,1,4,6.38,4.37,4.37,0,0,1-.66,1.22A4.78,4.78,0,0,1,320.93,79.43Z"/><path class="j" d="M336.56,79.43a5,5,0,0,1-2-.4A5.15,5.15,0,0,1,333,77.94a4.93,4.93,0,0,1-1.09-1.61,5.08,5.08,0,0,1,0-4A5,5,0,0,1,333,70.77a5.15,5.15,0,0,1,1.61-1.09,4.86,4.86,0,0,1,1.05-.31.8.8,0,0,1,.93.79v.09a.89.89,0,0,1-.71.86,2.46,2.46,0,0,0-.58.19,3.14,3.14,0,0,0-1.06.71,3.29,3.29,0,0,0-1,2.35,3.38,3.38,0,0,0,.26,1.29,3.42,3.42,0,0,0,.71,1,3.14,3.14,0,0,0,1.06.71,3.3,3.3,0,0,0,2.58,0,3.14,3.14,0,0,0,1.06-.71,3.73,3.73,0,0,0,.36-.43.89.89,0,0,1,1.07-.32h0a.88.88,0,0,1,.37,1.32,5.23,5.23,0,0,1-.56.67A5.08,5.08,0,0,1,338.53,79,4.92,4.92,0,0,1,336.56,79.43Z"/><path class="j" d="M336.5,74.79l-.62-1.64s.83-.37,1.22-.61a6.92,6.92,0,0,0,1.06-.81,4.89,4.89,0,0,0,.39-.4.88.88,0,0,1,1.16-.12h0a.88.88,0,0,1,.13,1.31c-.15.17-.31.33-.48.49A8.7,8.7,0,0,1,338,74,9.08,9.08,0,0,1,336.5,74.79Z"/><path class="j" d="M273.52,71.41a5.26,5.26,0,0,1-1.78-4.89,4.88,4.88,0,0,1,.45-1.4,5.28,5.28,0,0,1,4.31-2.94,5.21,5.21,0,0,1,3,.65.87.87,0,0,1,.22,1.32h0a.86.86,0,0,1-1.08.21,3.4,3.4,0,0,0-2-.43,3.5,3.5,0,0,0-2,6.15Z"/><path class="j" d="M276.13,79.43a5.3,5.3,0,0,1-.88-.07,5.67,5.67,0,0,1-3-1.42,5.78,5.78,0,0,1-1.89-3.87.88.88,0,0,1,1-.92h0a.86.86,0,0,1,.78.79,4,4,0,0,0,.88,2.24,4,4,0,0,0,5.65.61,4,4,0,0,0,.6-5.65,4,4,0,0,0-2.69-1.47l.18-1.75a5.82,5.82,0,0,1,4.81,3.71,5.75,5.75,0,0,1,.23.78,5.83,5.83,0,0,1-2,5.74A5.71,5.71,0,0,1,276.13,79.43Z"/><path class="a" d="M281.69,66.66a1.13,1.13,0,1,1,1.13-1.13A1.14,1.14,0,0,1,281.69,66.66Z"/><path class="j" d="M348.43,79.1h-1.76V68.66a.87.87,0,0,1,.88-.87h0a.88.88,0,0,1,.88.87Z"/><path class="j" d="M291,75h-1.75V69.46a.88.88,0,0,1,.88-.88h0a.88.88,0,0,1,.87.88Z"/><path class="j" d="M298.81,79.15a.87.87,0,0,1-1.31,0,7.57,7.57,0,0,1-.49-.63,9.31,9.31,0,0,1-1.5-3.23,9.89,9.89,0,0,1-.26-1.8l1.76-.08a7.24,7.24,0,0,0,.21,1.47,6.75,6.75,0,0,0,.48,1.37,7.75,7.75,0,0,0,.73,1.24,5.43,5.43,0,0,0,.42.53.86.86,0,0,1,0,1.16Z"/><path class="j" d="M293.6,77.13a2.61,2.61,0,0,1-2.59-2.6h-1.76a4.37,4.37,0,0,0,4.35,4.35,4.37,4.37,0,0,0,1.57-.29v-2A2.58,2.58,0,0,1,293.6,77.13Z"/><path class="a" d="M453.75,69.73a5.38,5.38,0,0,1,3.05-9.47l.44,0a5.34,5.34,0,0,1,2.62.69,1.15,1.15,0,0,1,.58.82,1.25,1.25,0,0,1-.27,1,1.22,1.22,0,0,1-.92.43,1.13,1.13,0,0,1-.57-.15,2.91,2.91,0,0,0-1.44-.37H457a3,3,0,0,0-2,1,3,3,0,0,0,.34,4.19l.28.24L454,70Z"/><path class="a" d="M454,69.44a5,5,0,0,1,5.69-8.19.83.83,0,0,1,.2,1.26h0a.81.81,0,0,1-1,.19,3.35,3.35,0,0,0-5,3.2,3.31,3.31,0,0,0,1.17,2.27Z"/><path class="a" d="M456.48,77.47a6.19,6.19,0,0,1-2-.35,5.26,5.26,0,0,1-1.48-.79A5.9,5.9,0,0,1,450.6,72a1.17,1.17,0,0,1,.32-.89,1.24,1.24,0,0,1,.89-.39h.12a1.2,1.2,0,0,1,1.08,1.1,3.4,3.4,0,0,0,.76,1.94A3.45,3.45,0,0,0,456.1,75l.37,0a3.46,3.46,0,0,0,2.69-5.64,3.37,3.37,0,0,0-2.33-1.27l-.37,0,.26-2.4.37,0A5.88,5.88,0,0,1,462,69.52a3.78,3.78,0,0,1,.24.81,5.9,5.9,0,0,1-2.06,5.84A5.82,5.82,0,0,1,456.48,77.47Z"/><path class="a" d="M456.48,77.1a5.86,5.86,0,0,1-1.91-.33A4.79,4.79,0,0,1,453.2,76,5.54,5.54,0,0,1,451,72a.84.84,0,0,1,.93-.88h0a.83.83,0,0,1,.74.76,3.83,3.83,0,1,0,4.23-4.09l.18-1.65a5.53,5.53,0,0,1,4.59,3.54,4.83,4.83,0,0,1,.22.74,5.57,5.57,0,0,1-1.94,5.48A5.5,5.5,0,0,1,456.48,77.1Z"/><path class="a" d="M461.79,64.9a1.07,1.07,0,1,1,1.07-1.07A1.08,1.08,0,0,1,461.79,64.9Z"/><path class="a" d="M475,75.53A5.31,5.31,0,0,1,471.26,74a5.14,5.14,0,0,1-1.14-1.7,5.31,5.31,0,0,1,1.14-5.83A5,5,0,0,1,473,65.3a5.25,5.25,0,0,1,2.07-.42h.37v2.41H475a2.93,2.93,0,0,0-1.13.23,2.85,2.85,0,0,0-1.55,1.55,2.92,2.92,0,0,0,0,2.27,2.82,2.82,0,0,0,.62.92,2.94,2.94,0,0,0,.93.63,2.88,2.88,0,0,0,1.13.22,3,3,0,0,0,1.14-.22,3,3,0,0,0,1.55-1.55,2.93,2.93,0,0,0,.22-1.14,2.59,2.59,0,0,0-.05-.56,1.22,1.22,0,0,1,.71-1.35,1.29,1.29,0,0,1,.48-.1,1.19,1.19,0,0,1,1.17.94,5.47,5.47,0,0,1,.11,1.07,5.3,5.3,0,0,1-.42,2.08A5.36,5.36,0,0,1,478.79,74a5.29,5.29,0,0,1-1.7,1.14A5.21,5.21,0,0,1,475,75.53Z"/><path class="a" d="M475,75.15a5.07,5.07,0,0,1-1.93-.38,5,5,0,0,1-2.63-2.64,5,5,0,0,1,0-3.86,4.79,4.79,0,0,1,1.06-1.57,5,5,0,0,1,1.57-1.06,4.9,4.9,0,0,1,1.93-.39v1.67a3.32,3.32,0,0,0-1.28.25A3.4,3.4,0,0,0,472,68.92a3.32,3.32,0,0,0-.25,1.28,3.25,3.25,0,0,0,.25,1.28,3.54,3.54,0,0,0,.71,1,3.29,3.29,0,0,0,5.35-1,3.3,3.3,0,0,0,.2-1.91.84.84,0,0,1,.49-.94h0a.82.82,0,0,1,1.13.58,4.68,4.68,0,0,1,.1,1,4.9,4.9,0,0,1-.39,1.93,4.64,4.64,0,0,1-1.06,1.57A4.82,4.82,0,0,1,477,74.77,5.07,5.07,0,0,1,475,75.15Z"/><path class="a" d="M477.63,67.67a1,1,0,1,1,1.05-1A1,1,0,0,1,477.63,67.67Z"/><path class="a" d="M502.93,75.53a5.5,5.5,0,0,1-1.13-.12l-.36-.08L502,73l.36.08a3.37,3.37,0,0,0,.62.07,3.29,3.29,0,0,0,.54-.05,2.85,2.85,0,0,0,1-.42,2.67,2.67,0,0,0,.8-.77,3,3,0,0,0,.47-1.06,2.83,2.83,0,0,0,0-1.16,2.72,2.72,0,0,0-.41-1,3,3,0,0,0-.77-.81,2.79,2.79,0,0,0-1.06-.46,2.68,2.68,0,0,0-.62-.07,3.29,3.29,0,0,0-.54,0,3,3,0,0,0-1,.41,3,3,0,0,0-.8.78,2.82,2.82,0,0,0-.47,1.06,2.6,2.6,0,0,0-.06.56,1.23,1.23,0,0,1-1,1.17l-.23,0a1.25,1.25,0,0,1-.87-.37,1.17,1.17,0,0,1-.34-.83,5.59,5.59,0,0,1,.13-1.07,5.07,5.07,0,0,1,.85-1.93,5.23,5.23,0,0,1,1.47-1.42,5.43,5.43,0,0,1,1.89-.75,5.43,5.43,0,0,1,2.12,0,5.32,5.32,0,0,1,3.35,2.32,5.42,5.42,0,0,1,.73,4,5.53,5.53,0,0,1-.85,1.94,5.37,5.37,0,0,1-1.48,1.41,5.45,5.45,0,0,1-1.89.76A5.52,5.52,0,0,1,502.93,75.53Z"/><path class="a" d="M502.93,75.16a4.7,4.7,0,0,1-1.05-.12l.36-1.63a3.24,3.24,0,0,0,2.47-.45,3.25,3.25,0,0,0,1.43-2.06,3.21,3.21,0,0,0,0-1.31,3.39,3.39,0,0,0-.47-1.17,3.28,3.28,0,0,0-.87-.91,3.31,3.31,0,0,0-2.5-.54,3.39,3.39,0,0,0-1.17.47,3.28,3.28,0,0,0-.91.87,3.23,3.23,0,0,0-.52,1.2,2.7,2.7,0,0,0-.07.63A.84.84,0,0,1,499,71h0a.82.82,0,0,1-1-.8,4.79,4.79,0,0,1,.11-1,4.93,4.93,0,0,1,.79-1.8A5,5,0,0,1,500.25,66a4.91,4.91,0,0,1,1.76-.71,5,5,0,0,1,2,0,5,5,0,0,1,3.12,2.16,5.08,5.08,0,0,1,.7,1.76,5,5,0,0,1,0,2,5,5,0,0,1-2.16,3.12,5.08,5.08,0,0,1-1.76.7A4.7,4.7,0,0,1,502.93,75.16Z"/><path class="a" d="M499.62,74.18l-.22,0a1.05,1.05,0,0,1-.8-1.24h0a1,1,0,1,1,2,.44,1,1,0,0,1-.45.65A1.06,1.06,0,0,1,499.62,74.18Z"/><path class="a" d="M485.75,78.73a1.09,1.09,0,1,1,1.09-1.09A1.09,1.09,0,0,1,485.75,78.73Z"/><path class="a" d="M415.13,62.38a4.8,4.8,0,0,0-3.1-1.14l-.39,0a4.8,4.8,0,0,0,.38,9.58l.39,0,.37,0-.19-2.4-.37,0H412a2.42,2.42,0,0,1-1.54-.57,2.34,2.34,0,0,1-.83-1.63,2.38,2.38,0,0,1,2.18-2.57h.2a2.39,2.39,0,0,1,2.26,1.64,1.22,1.22,0,0,0,1.15.84h.1a1.2,1.2,0,0,0,1-1.57A4.74,4.74,0,0,0,415.13,62.38Z"/><path class="a" d="M416.12,68.59a5.22,5.22,0,0,0-4.2-3l-.37,0-.26,2.4.37,0a2.81,2.81,0,0,1-.29,5.61l-.31,0a2.83,2.83,0,0,1-1.48-.62,1.21,1.21,0,0,0-2,.94,1.23,1.23,0,0,0,.46,1A5.25,5.25,0,0,0,411.37,76a5.15,5.15,0,0,0,3.27-1.16A5.26,5.26,0,0,0,416.55,70,4.94,4.94,0,0,0,416.12,68.59Z"/><path class="a" d="M406.8,70.8a1.09,1.09,0,1,0,1.1,1.09A1.09,1.09,0,0,0,406.8,70.8Z"/><path class="a" d="M431.45,73.39a1.09,1.09,0,0,0-.36.06,2.51,2.51,0,0,1-.76.12,2.41,2.41,0,0,1-.6-.08,2.43,2.43,0,0,1-1.52-1.12,2.48,2.48,0,0,1-.34-1.5l.93-3.49h4.54V65h-3.9l1.18-4.46-2.39,0L427,65h-3.93v2.41h3.26l-.61,2.2-.05,0-.09.36c0,.18-.07.35-.1.53l-.09.35h.06a4.86,4.86,0,0,0,3.68,5,4.79,4.79,0,0,0,1.19.15,4.88,4.88,0,0,0,1.52-.24,1.21,1.21,0,0,0,.63-1.77A1.21,1.21,0,0,0,431.45,73.39Z"/><path class="a" d="M434.4,72.6a1.09,1.09,0,1,0,1.09,1.09A1.09,1.09,0,0,0,434.4,72.6Z"/><path class="a" d="M375.29,76.22a1,1,0,1,0,1,1A1,1,0,0,0,375.29,76.22Z"/><path class="a" d="M545.25,76.58v-10a1.21,1.21,0,0,1,2.41,0v10Z"/><path class="a" d="M547.29,76.2h-1.67V66.55a.84.84,0,0,1,.84-.83h0a.83.83,0,0,1,.83.83Z"/><polygon class="a" points="527.27 75.87 528.12 73.83 537.34 73.83 537.34 75.87 527.27 75.87"/><path class="a" d="M521.58,84.17a1.09,1.09,0,1,1,1.09-1.09A1.09,1.09,0,0,1,521.58,84.17Z"/><path class="a" d="M556.17,69.51a1.2,1.2,0,1,1,1.71-1.68l3.75,3.83-1.32,2.09Z"/><path class="a" d="M560.25,73.15l-3.82-3.9a.83.83,0,0,1-.11-1h0a.84.84,0,0,1,1.3-.14l3.54,3.62Z"/><path class="a" d="M561.48,77.27a1,1,0,0,1-.5-.13,1,1,0,0,1-.37-1.36l8.27-13.41,2.31,0-8.85,14.37A1,1,0,0,1,561.48,77.27Z"/><path class="a" d="M561.17,76.82h0a.61.61,0,0,1-.23-.85l8.16-13.22h1.45L562,76.58A.62.62,0,0,1,561.17,76.82Z"/><path class="a" d="M579.55,76.11a5.55,5.55,0,0,1-2.16-10.66,6.29,6.29,0,0,1,1.12-.34l.22,0a1.21,1.21,0,0,1,.22,2.4,3.38,3.38,0,0,0-.62.18,3.18,3.18,0,0,0-1,.68,2.89,2.89,0,0,0-.67,1,3.15,3.15,0,0,0,.67,3.44,3.33,3.33,0,0,0,1,.67,3.22,3.22,0,0,0,2.44,0,3.38,3.38,0,0,0,1-.67,3.19,3.19,0,0,0,.67-1l.14-.34,2.23.94-.15.34a5.56,5.56,0,0,1-5.11,3.39Z"/><path class="a" d="M579.55,75.73a5.09,5.09,0,0,1-3.65-1.51,5.16,5.16,0,0,1-1.11-5.67,5.14,5.14,0,0,1,2.75-2.75,4.81,4.81,0,0,1,1-.32.83.83,0,0,1,1,.83h0a.82.82,0,0,1-.67.81,3.94,3.94,0,0,0-.69.21,3.47,3.47,0,0,0-1.87,1.87,3.51,3.51,0,0,0-.27,1.36,3.45,3.45,0,0,0,1,2.48,3.67,3.67,0,0,0,1.12.75,3.5,3.5,0,0,0,2.73,0A3.63,3.63,0,0,0,582,73a3.46,3.46,0,0,0,.75-1.11l1.54.65a5.23,5.23,0,0,1-2.75,2.75A5.16,5.16,0,0,1,579.55,75.73Z"/><path class="a" d="M578.77,69.26l.37-.08a3.39,3.39,0,0,0,3-2.6,1.21,1.21,0,0,1,1.13-.79,1.27,1.27,0,0,1,.34,0,1.2,1.2,0,0,1,.79,1.59,5.71,5.71,0,0,1-4.8,4.13l-.37.07Z"/><path class="a" d="M579.54,71.18l-.33-1.63a3.75,3.75,0,0,0,3.29-2.84.83.83,0,0,1,1-.52h0a.84.84,0,0,1,.55,1.1A5.34,5.34,0,0,1,579.54,71.18Z"/><path class="a" d="M584.52,65a1.09,1.09,0,1,1,1.09-1.09A1.09,1.09,0,0,1,584.52,65Z"/><path class="a" d="M559.88,80.07A1.1,1.1,0,1,1,561,79,1.09,1.09,0,0,1,559.88,80.07Z"/><path class="a" d="M255.73,119.1l8.77-12v8.2h2.84V102.83a2.22,2.22,0,0,0,0-.68,1.32,1.32,0,0,0-.16-.51,2.19,2.19,0,0,0-.67-.82,2.13,2.13,0,0,0-3,.46L250.45,119.1H222.58a1.47,1.47,0,0,0-1.48,1.28,1.43,1.43,0,0,0,1.42,1.56h25.85L222.66,157a2.13,2.13,0,0,0,1.72,3.39h0a2.12,2.12,0,0,0,1.72-.87l27.55-37.58h33.88a1.43,1.43,0,0,0,1.42-1.42h0a1.42,1.42,0,0,0-1.42-1.42Z"/><path class="a" d="M265.82,125.18a1.46,1.46,0,0,0-1.29,1.47v14.48a1.42,1.42,0,0,0,1.43,1.42h0a1.43,1.43,0,0,0,1.42-1.42V126.59A1.42,1.42,0,0,0,265.82,125.18Z"/><path class="a" d="M535.21,173l27.17-42.51h26.13a1.42,1.42,0,0,0,0-2.84H564.19l8-12.48v10h2.49V110.88a2.13,2.13,0,0,0-3.92-1.35l-11.61,18.16h-29.8a1.42,1.42,0,1,0,0,2.84h28l-25.7,40.21a2.13,2.13,0,0,0,1.79,3.28A2.15,2.15,0,0,0,535.21,173Z"/><path class="a" d="M572.17,144.26a1.24,1.24,0,0,0,1.24,1.23h0a1.26,1.26,0,0,0,1.23-1.26l-.12-10.95-2.49,0Z"/><path class="a" d="M480,142a1.24,1.24,0,0,0,1.24,1.24h0a1.24,1.24,0,0,0,1.24-1.24l.07-10h-2.49Z"/><path class="a" d="M496,129.55a1.42,1.42,0,1,0,0-2.84H472.11l8.19-12.77-.09,9.67h2.49l.13-14.39a1.16,1.16,0,0,0-.16-.59,2.05,2.05,0,0,0-.83-1,2.13,2.13,0,0,0-2.95.64l-11.84,18.48H449.24a1.42,1.42,0,0,0,0,2.84h16l-25.78,40.21a2.13,2.13,0,0,0,.65,2.94,2.08,2.08,0,0,0,1.14.34,2.14,2.14,0,0,0,1.8-1l27.25-42.51Z"/><path class="a" d="M445.42,127.22a1.93,1.93,0,0,0-.22-.28,1.51,1.51,0,0,0-.28-.22,1.34,1.34,0,0,0-.31-.17,2.24,2.24,0,0,0-.34-.11,1.89,1.89,0,0,0-1.65.5,1.93,1.93,0,0,0-.22.28,1.23,1.23,0,0,0-.17.32,1.83,1.83,0,0,0-.11.33,2.19,2.19,0,0,0,0,.36,1.83,1.83,0,0,0,.53,1.29,1.93,1.93,0,0,0,.28.22,1.23,1.23,0,0,0,.32.17,1.69,1.69,0,0,0,.34.11,2,2,0,0,0,.35,0l.36,0a2.24,2.24,0,0,0,.34-.11,1.34,1.34,0,0,0,.31-.17,1.51,1.51,0,0,0,.28-.22,1.83,1.83,0,0,0,.53-1.29,2.19,2.19,0,0,0,0-.36,1.28,1.28,0,0,0-.11-.33A1.23,1.23,0,0,0,445.42,127.22Z"/><path class="a" d="M531.89,177.59a1.91,1.91,0,0,0-.16-.32,1.49,1.49,0,0,0-.23-.27,1.56,1.56,0,0,0-.28-.23,1.54,1.54,0,0,0-.31-.17,2.19,2.19,0,0,0-.34-.1,1.83,1.83,0,0,0-1.65.5,1.44,1.44,0,0,0-.22.27,1.41,1.41,0,0,0-.17.32,1.91,1.91,0,0,0-.1.34,1.45,1.45,0,0,0,0,.35,1.81,1.81,0,0,0,1.82,1.82,1.77,1.77,0,0,0,.7-.13,2.27,2.27,0,0,0,.31-.17,2.15,2.15,0,0,0,.28-.23,1.83,1.83,0,0,0,.53-1.29,2.16,2.16,0,0,0,0-.35A1.35,1.35,0,0,0,531.89,177.59Z"/><polygon class="a" points="341.29 151.72 339.82 150.82 351.78 131.43 353.76 131.56 341.29 151.72"/><path class="a" d="M343.11,155.57a5.24,5.24,0,0,1-1.14-.12,3.13,3.13,0,0,1-2.48-2.13,3.75,3.75,0,0,1,.81-3.29l1.38,1a2.14,2.14,0,0,0-.53,1.77,1.48,1.48,0,0,0,1.2.92,4.79,4.79,0,0,0,2.75-.33l.64,1.6A7,7,0,0,1,343.11,155.57Z"/><path class="a" d="M355.75,139.37H341.1a.87.87,0,0,1-.82-1.16h0a.88.88,0,0,1,.82-.57h15.28Z"/><path class="a" d="M357.62,153.32l-1.2-.65,7.46-13.49,1.52.83-7.29,13.17A.36.36,0,0,1,357.62,153.32Z"/><path class="a" d="M354.45,143.24l-2,0L360.68,128h0a.85.85,0,0,1,1.13-.35h0a.8.8,0,0,1,.34.94Z"/><path class="a" d="M365,140.64l-1.37-1.06a2.5,2.5,0,0,0,.48-1,2.24,2.24,0,0,0,0-1,2.53,2.53,0,0,0-.54-1,3.53,3.53,0,0,0-1-.82,4.42,4.42,0,0,0-1.36-.43,4.89,4.89,0,0,0-1.48,0,4.34,4.34,0,0,0-1.39.49l-.85-1.5a5.89,5.89,0,0,1,1.95-.69,6.51,6.51,0,0,1,2,0,5.8,5.8,0,0,1,1.9.61,5.05,5.05,0,0,1,1.57,1.23,4.35,4.35,0,0,1,.9,1.71,4.08,4.08,0,0,1,0,1.84A4.27,4.27,0,0,1,365,140.64Z"/><path class="a" d="M362.52,126.6a1,1,0,1,1,1-1A1,1,0,0,1,362.52,126.6Z"/><path class="a" d="M373.89,150.67a6,6,0,0,1-2.11-.37,4.55,4.55,0,0,1-1.66-1,3.73,3.73,0,0,1-1-1.62,3.93,3.93,0,0,1-.07-2,5.1,5.1,0,0,1,.86-1.87,6.53,6.53,0,0,1,1.51-1.45,7.47,7.47,0,0,1,1.94-1,7.31,7.31,0,0,1,1.23-.28.87.87,0,0,1,1,.86h0a.87.87,0,0,1-.76.85,5.86,5.86,0,0,0-.92.22,5.58,5.58,0,0,0-1.49.73,4.41,4.41,0,0,0-1.09,1.06,2.91,2.91,0,0,0-.56,1.2,2,2,0,0,0,0,1.1,2.12,2.12,0,0,0,.54.89,2.83,2.83,0,0,0,1,.65,4.94,4.94,0,0,0,3.18,0,5.58,5.58,0,0,0,1.49-.73,4.64,4.64,0,0,0,1.1-1.06h0a.93.93,0,0,1,1,1.52,8.89,8.89,0,0,1-1.15,1,7.14,7.14,0,0,1-1.94.95A6.94,6.94,0,0,1,373.89,150.67Z"/><path class="a" d="M377.43,142.37a1,1,0,1,1,1-1A1,1,0,0,1,377.43,142.37Z"/><path class="a" d="M357.32,153.69a.86.86,0,0,1-.68-.34L351.71,147a.86.86,0,0,1,.15-1.21.87.87,0,0,1,1.22.15l4.92,6.34a.86.86,0,0,1-.68,1.4Z"/><path class="a" d="M352.47,147.34l-.16-1.72c.22,0,20.59.39,26.94-2.7a.86.86,0,0,1,1.12.32h0a.86.86,0,0,1-.37,1.23C373.25,147.71,353.34,147.26,352.47,147.34Z"/><path class="a" d="M343.61,121.92l-.77-1.55a5.54,5.54,0,0,0,1.22-1.13l.46-.56.45-.58c.15-.2.3-.39.44-.59l.43-.6c.15-.2.29-.41.42-.61l.41-.61.39-.62.38-.61.37-.61.35-.61c.12-.2.23-.4.34-.6l.32-.58.31-.58c.1-.19.2-.37.29-.56s.19-.36.28-.54.17-.35.26-.51l.24-.5c.08-.16.15-.32.22-.47s.14-.3.21-.44l.19-.42c.06-.13.12-.25.17-.37s.11-.24.15-.35l.51-1.19,1.86.12-.78,1.77c-.05.11-.1.23-.16.35s-.11.26-.18.39-.12.28-.19.42l-.21.46-.23.48-.25.51-.27.53-.28.56-.3.57-.32.59-.33.61-.35.61-.36.63-.38.63-.39.63-.41.64-.42.64-.44.63-.45.63-.46.62-.48.61-.49.6A7,7,0,0,1,343.61,121.92Z"/><path class="a" d="M354.83,104.45a0,0,0,0,1-.05,0l-.87-.16a.09.09,0,0,0-.11,0l-.51.6h0a0,0,0,0,1-.08,0l0-.09c-.08-.22-.16-.44-.23-.67,0,0,0-.06-.08-.06L352,104a0,0,0,0,1,0-.06h0c.2-.22.39-.45.58-.67a.09.09,0,0,0,0-.11c-.1-.28-.2-.55-.29-.83h0a.05.05,0,0,1,.05-.06h0l.87.16a.09.09,0,0,0,.11,0l.52-.6a0,0,0,0,1,.07,0h0l.27.75a.09.09,0,0,0,.08.07l.86.15h0a0,0,0,0,1,0,.06l-.05.07-.53.62a.09.09,0,0,0,0,.1l.3.83Z"/><path class="a" d="M383.38,122.65a4.9,4.9,0,0,1-1-.11,4.23,4.23,0,0,1-.92-.34,4.3,4.3,0,0,1-.81-.52,4.38,4.38,0,0,1-.66-.7,4,4,0,0,1-.49-.83,4.86,4.86,0,0,1-.32-.93,5.69,5.69,0,0,1-.12-1,5.55,5.55,0,0,1,.07-1.07,6.48,6.48,0,0,1,.27-1,5.75,5.75,0,0,1,.44-1l.15-.27a.68.68,0,0,1,1-.17l.29.23a.68.68,0,0,1,.17.88,1.4,1.4,0,0,0-.1.16,5.83,5.83,0,0,0-.32.72,5,5,0,0,0-.19.76,3.78,3.78,0,0,0-.05.75,3.08,3.08,0,0,0,.08.68,2.73,2.73,0,0,0,.2.59,2.14,2.14,0,0,0,.3.51,3,3,0,0,0,.39.41,2.55,2.55,0,0,0,.47.31,2.47,2.47,0,0,0,.54.19,3.11,3.11,0,0,0,1.29,0,3.89,3.89,0,0,0,.66-.21,4.45,4.45,0,0,0,.64-.35,4.26,4.26,0,0,0,.59-.46,5.57,5.57,0,0,0,.52-.57,4.88,4.88,0,0,0,.43-.65,5,5,0,0,0,.32-.71,4.13,4.13,0,0,0,.19-.77,3.78,3.78,0,0,0,.05-.75,3.08,3.08,0,0,0-.08-.68,2.93,2.93,0,0,0-.2-.59,2.36,2.36,0,0,0-.3-.51,3,3,0,0,0-.39-.41h0a.7.7,0,0,1-.2-.84l.17-.34a.68.68,0,0,1,1-.23l.11.08a4.38,4.38,0,0,1,.66.7,4,4,0,0,1,.49.83,4.86,4.86,0,0,1,.32.93,5.69,5.69,0,0,1,.12,1,5.55,5.55,0,0,1-.07,1.07,6.87,6.87,0,0,1-.27,1.06,6,6,0,0,1-.44,1,6.31,6.31,0,0,1-1.29,1.66,6.33,6.33,0,0,1-.81.64,5.57,5.57,0,0,1-.9.48,5.1,5.1,0,0,1-1,.32A5.23,5.23,0,0,1,383.38,122.65Z"/><polygon class="a" points="370.41 120.66 368.87 119.86 375.51 106.67 377.56 106.7 370.41 120.66"/><path class="a" d="M372.2,126.11a4.51,4.51,0,0,1-1.23-.17,3.56,3.56,0,0,1-2.49-2.74,5.85,5.85,0,0,1,.78-4.09l1.5.85a4.24,4.24,0,0,0-.59,2.87,1.83,1.83,0,0,0,1.3,1.45,3.71,3.71,0,0,0,2.71-.45l0,1.78A3.1,3.1,0,0,1,372.2,126.11Z"/><path class="a" d="M381.11,116.26h-18a.87.87,0,0,1-.82-1.16h0a.88.88,0,0,1,.82-.57h17.57a.77.77,0,0,1,.72,1Z"/><polygon class="a" points="355.99 116.72 354.48 115.88 362.81 101.31 364.84 101.38 355.99 116.72"/><path class="a" d="M366.87,116.25l-1.58-.69c.08-.22.33-1.32.43-1.74,0-.2.08-.37.1-.45a5.61,5.61,0,0,0,.14-.9,4.78,4.78,0,0,0,0-.85,4,4,0,0,0-.17-.79,3.62,3.62,0,0,0-.31-.69,3.68,3.68,0,0,0-.44-.58,3.23,3.23,0,0,0-.58-.47,3.14,3.14,0,0,0-.67-.31,3.49,3.49,0,0,0-.73-.14,3.39,3.39,0,0,0-.78,0,4.71,4.71,0,0,0-.81.18,5.66,5.66,0,0,0-.81.35,7.32,7.32,0,0,0-.77.51l-1.07-1.36a8.13,8.13,0,0,1,1-.67,6.52,6.52,0,0,1,1.09-.47,6.37,6.37,0,0,1,1.13-.26,4.84,4.84,0,0,1,1.14,0,4.73,4.73,0,0,1,1.12.22,4.63,4.63,0,0,1,1.06.49,4.82,4.82,0,0,1,.9.72,5.59,5.59,0,0,1,.69.91,5.3,5.3,0,0,1,.46,1,6.05,6.05,0,0,1,.25,1.12,7.59,7.59,0,0,1,0,1.17,7.13,7.13,0,0,1-.19,1.2c0,.08-.05.23-.1.42A14.49,14.49,0,0,1,366.87,116.25Z"/><path class="a" d="M385,113.37a1.07,1.07,0,0,1,0-2.13,1.07,1.07,0,0,1,0,2.13Z"/><path class="a" d="M349.51,122.32l-.32,0a4.07,4.07,0,0,1-3.33-3.21.86.86,0,0,1,.58-1.08.88.88,0,0,1,1.08.58c.34,1.17,1,1.91,1.84,2s2.81-.34,5.69-5.79a.87.87,0,1,1,1.53.81C353.69,121.07,351.19,122.32,349.51,122.32Z"/><path class="a" d="M341.91,122.2a4.48,4.48,0,0,1-.64,0,3.4,3.4,0,0,1-.79-.21,3.26,3.26,0,0,1-.69-.37,2.94,2.94,0,0,1-.57-.54,2.77,2.77,0,0,1-.4-.66,3.29,3.29,0,0,1-.21-.76,3.12,3.12,0,0,1,0-.81,4.22,4.22,0,0,1,.17-.83,4.79,4.79,0,0,1,.34-.81,4.85,4.85,0,0,1,.47-.74,7.32,7.32,0,0,1,.58-.67,7.68,7.68,0,0,1,.68-.58,6.32,6.32,0,0,1,.74-.49,8.34,8.34,0,0,1,.8-.38,5.51,5.51,0,0,1,1.73-.38,4.82,4.82,0,0,1,.86,0,4.56,4.56,0,0,1,.79.21,3.37,3.37,0,0,1,.7.38,2.91,2.91,0,0,1,1.17,2,5,5,0,0,1,0,1c0,.42-.06,1-.06,1.38a.87.87,0,1,1-1.73,0c0-.48,0-1,.06-1.48,0-.24,0-.53,0-.63a1.32,1.32,0,0,0-.09-.3,1,1,0,0,0-.16-.26,1.52,1.52,0,0,0-.22-.22,2.4,2.4,0,0,0-.32-.17,2.58,2.58,0,0,0-.42-.11,2.9,2.9,0,0,0-.52,0,4,4,0,0,0-.58.08,4.56,4.56,0,0,0-.6.18,5.12,5.12,0,0,0-.58.28,5.21,5.21,0,0,0-.55.36,5.15,5.15,0,0,0-.5.43,4.81,4.81,0,0,0-.42.48,3.36,3.36,0,0,0-.32.51,3.74,3.74,0,0,0-.22.51,3.17,3.17,0,0,0-.1.48,1.75,1.75,0,0,0,0,.4,1.5,1.5,0,0,0,.09.32.92.92,0,0,0,.16.27.93.93,0,0,0,.23.21,1.17,1.17,0,0,0,.31.17,1.85,1.85,0,0,0,.42.11,2.91,2.91,0,0,0,.52,0,3.85,3.85,0,0,0,.58-.08l.4-.13.26-.08a.86.86,0,1,1,.51,1.65l-.22.07a3.85,3.85,0,0,1-.57.17,4.43,4.43,0,0,1-.88.12Zm4-5.45Z"/><path class="a" d="M45.84,131.55a20.13,20.13,0,0,1-7.76-1.46,15.39,15.39,0,0,1-6.68-5.22,16.11,16.11,0,0,1-3-8,22.45,22.45,0,0,1,1.05-9A31.74,31.74,0,0,1,34,99a38.24,38.24,0,0,1,7.54-7.83,37.05,37.05,0,0,1,9.35-5.36,29.11,29.11,0,0,1,9.49-2A20.4,20.4,0,0,1,69,85.22a15.43,15.43,0,0,1,6.68,5.21,16.14,16.14,0,0,1,3,8,22.63,22.63,0,0,1-1.05,9,2.06,2.06,0,0,1-3.93-1.24,18.34,18.34,0,0,0,.88-7.33,12,12,0,0,0-2.2-6A11.41,11.41,0,0,0,67.45,89a16.45,16.45,0,0,0-7-1.13,25.08,25.08,0,0,0-8.15,1.77,32.72,32.72,0,0,0-8.3,4.77,34.11,34.11,0,0,0-6.73,7,27.59,27.59,0,0,0-3.91,7.7,18.3,18.3,0,0,0-.88,7.33,12,12,0,0,0,2.2,6,11.26,11.26,0,0,0,4.93,3.83,16.3,16.3,0,0,0,7,1.13,2.06,2.06,0,0,1,.15,4.12Z"/><path class="a" d="M52,151.56a2,2,0,0,1-1.19-.38,2.06,2.06,0,0,1-.48-2.88,33.85,33.85,0,0,0,4.82-9.48,22.73,22.73,0,0,0,1.09-9.1,15.09,15.09,0,0,0-2.76-7.55,14.17,14.17,0,0,0-6.18-4.81A20.51,20.51,0,0,0,38.67,116a2.06,2.06,0,0,1-.15-4.11,24.33,24.33,0,0,1,10.38,1.72,18.35,18.35,0,0,1,7.94,6.19,19.27,19.27,0,0,1,3.52,9.57,26.88,26.88,0,0,1-1.26,10.74,38.18,38.18,0,0,1-5.4,10.64A2.07,2.07,0,0,1,52,151.56Z"/><path class="a" d="M20.85,169.07a24,24,0,0,1-9.27-1.75,18.16,18.16,0,0,1-7.94-6.19,19.19,19.19,0,0,1-3.53-9.57,27,27,0,0,1,1.26-10.73,2.06,2.06,0,1,1,3.93,1.23,23,23,0,0,0-1.09,9.1A15.15,15.15,0,0,0,7,158.71a14.14,14.14,0,0,0,6.19,4.81,20.31,20.31,0,0,0,8.64,1.41,31,31,0,0,0,10.07-2.18,40.4,40.4,0,0,0,10.21-5.87,2.06,2.06,0,0,1,2.54,3.25,45,45,0,0,1-11.26,6.46A35.3,35.3,0,0,1,22,169.05Z"/><path class="a" d="M80.49,145.24a2.21,2.21,0,0,1-1.82-1,2.18,2.18,0,0,1-.13-2.1l23.3-45.54,4.83.12L82.55,144a2.21,2.21,0,0,1-2,1.28Z"/><path class="a" d="M171.83,94.78H139.75a2.2,2.2,0,0,1-2.23-2.07,2.13,2.13,0,0,1,2.14-2.21h33.2C175,92.39,173.7,94.78,171.83,94.78Z"/><path class="a" d="M115.53,144.77a2,2,0,0,1-.93-.22,2.13,2.13,0,0,1-1-2.86l24-50a2.15,2.15,0,0,1,3.87,1.86l-24.68,50.62C116.45,145,116.32,144.77,115.53,144.77Z"/><path class="a" d="M157.62,155.39a1.36,1.36,0,0,1-1.17-.67,1.34,1.34,0,0,1,0-1.34L182.12,104a2.2,2.2,0,0,1,1.92-1.13,2.17,2.17,0,0,1,1.06.27,2.22,2.22,0,0,1,1.05,1.31,2.18,2.18,0,0,1-.19,1.66l-25.53,49.3Z"/><path class="a" d="M162.77,155.44l2.38-4.38H187.9a1.47,1.47,0,0,1,1.27.6,2.6,2.6,0,0,1,.07,2.34,2.19,2.19,0,0,1-2.06,1.44Z"/><path class="a" d="M187.78,145.48a1.34,1.34,0,0,1-1.16-.66,1.36,1.36,0,0,1,0-1.35l25.7-49.39a2.18,2.18,0,0,1,1.92-1.14,2.19,2.19,0,0,1,2.1,1.58,2.17,2.17,0,0,1-.19,1.67l-25.53,49.29Z"/><path class="a" d="M193.65,145.53l2.38-4.38h22.75a1.45,1.45,0,0,1,1.27.61,2.61,2.61,0,0,1,.07,2.33,2.19,2.19,0,0,1-2.06,1.44Z"/><path class="a" d="M133.05,118.93l2-4.38h19.46a1.53,1.53,0,0,1,1.28.68,2.21,2.21,0,0,1,.22,2,2.45,2.45,0,0,1-2.48,1.71Z"/><path class="a" d="M119.12,144.24l2.22-4.38h33.18a1.54,1.54,0,0,1,1.28.68,2.21,2.21,0,0,1,.22,2,2.44,2.44,0,0,1-2.47,1.71Z"/><path class="a" d="M52.24,131.41a2.1,2.1,0,0,1-.36,0,1.93,1.93,0,0,1-.34-.11,1.62,1.62,0,0,1-.32-.17,1.93,1.93,0,0,1-.28-.22,3.11,3.11,0,0,1-.23-.28,3.24,3.24,0,0,1-.17-.32,1.89,1.89,0,0,1,0-1.4,3.24,3.24,0,0,1,.17-.32,2,2,0,0,1,.23-.27,1.49,1.49,0,0,1,.28-.23,1.62,1.62,0,0,1,.32-.17,1.33,1.33,0,0,1,.34-.1,1.7,1.7,0,0,1,.71,0,1.54,1.54,0,0,1,.35.1,1.87,1.87,0,0,1,.31.17,1.23,1.23,0,0,1,.28.23,1.49,1.49,0,0,1,.23.27,2,2,0,0,1,.17.32,2.19,2.19,0,0,1,.1.34,1.64,1.64,0,0,1,0,.72,2.19,2.19,0,0,1-.1.34,3.24,3.24,0,0,1-.17.32,2,2,0,0,1-.23.28A1.83,1.83,0,0,1,52.24,131.41Z"/><polygon class="a" points="126.57 99.21 83.19 99.21 84.81 94.74 128.19 94.74 126.57 99.21"/><path class="a" d="M634.09,103.19a1.85,1.85,0,0,1-1.3-.54,1.56,1.56,0,0,1-.23-.28,1.82,1.82,0,0,1-.16-.31,1.57,1.57,0,0,1-.11-.35,1.34,1.34,0,0,1,0-.35,1.47,1.47,0,0,1,0-.36,1.35,1.35,0,0,1,.11-.34,1.59,1.59,0,0,1,.16-.32,2,2,0,0,1,.23-.28,2.15,2.15,0,0,1,.28-.23,3.07,3.07,0,0,1,.31-.17,2.3,2.3,0,0,1,.35-.1,1.84,1.84,0,0,1,1.65.5,3.11,3.11,0,0,1,.23.28,2.4,2.4,0,0,1,.17.32,1.91,1.91,0,0,1,.1.34,2.2,2.2,0,0,1,0,.36,2,2,0,0,1,0,.35,2.3,2.3,0,0,1-.1.35,3.07,3.07,0,0,1-.17.31,2.15,2.15,0,0,1-.23.28A1.84,1.84,0,0,1,634.09,103.19Z"/><path class="a" d="M401.75,196.31a2,2,0,0,1-1.7-3.15l35.54-54.36A2,2,0,1,1,439,141l-35.54,54.36A2,2,0,0,1,401.75,196.31Z"/><path class="a" d="M590.36,165.1a2.14,2.14,0,0,1-1.74-3.39L628,106.59a2.14,2.14,0,0,1,3.49,2.49L592.1,164.2A2.12,2.12,0,0,1,590.36,165.1Z"/><path class="a" d="M620.07,188.16a1.61,1.61,0,0,1-1.28-2.57l63.72-98.2a1.61,1.61,0,0,1,2.58,1.92l-63.72,98.2A1.63,1.63,0,0,1,620.07,188.16Z"/><path class="a" d="M635.1,84a1.39,1.39,0,0,1-.35,0,2,2,0,0,1-.35-.1,1.87,1.87,0,0,1-.31-.17,1.86,1.86,0,0,1-.51-.51,3.07,3.07,0,0,1-.17-.31,2.19,2.19,0,0,1-.1-.34,1.64,1.64,0,0,1,0-.72,1.91,1.91,0,0,1,.1-.34,2.4,2.4,0,0,1,.17-.32,2,2,0,0,1,.23-.28,1.86,1.86,0,0,1,1.65-.5,1.23,1.23,0,0,1,.34.11,1.59,1.59,0,0,1,.32.16,1.86,1.86,0,0,1,.51.51,2.4,2.4,0,0,1,.17.32,1.91,1.91,0,0,1,.1.34,1.89,1.89,0,0,1-.1,1.06,3.07,3.07,0,0,1-.17.31,2.15,2.15,0,0,1-.23.28,2,2,0,0,1-.28.23,1.62,1.62,0,0,1-.32.17,1.69,1.69,0,0,1-.34.1A1.47,1.47,0,0,1,635.1,84Z"/><path class="a" d="M637.14,87.92a2.62,2.62,0,0,1-.28-2.65,1.45,1.45,0,0,1,1.28-.72,2.7,2.7,0,0,1,2.13,1.31l22.14,24.28-2.56,2.92Z"/><path class="a" d="M598.57,121.46v0a2.1,2.1,0,0,1,1.71-3.33,2.08,2.08,0,0,1,1.7.86l8.85,9-2.72,3.41Z"/><path class="a" d="M624.47,149.16a2.08,2.08,0,0,1-1.7-.86l-8.84-9.39,2.72-3.41,9.52,10.32,0,0a2.12,2.12,0,0,1-.07,2.53A2.07,2.07,0,0,1,624.47,149.16Z"/><path class="a" d="M492.06,163.33a1.34,1.34,0,0,1-1.17-.67,1.31,1.31,0,0,1,0-1.34l30.64-69.16A2.19,2.19,0,0,1,523.43,91a2.17,2.17,0,0,1,1.06.27,2.2,2.2,0,0,1,.86,3l-30.48,69.06Z"/><path class="a" d="M498.17,161.78l1.9-4.38h22.51a2.16,2.16,0,0,1,1.79.93,2.19,2.19,0,0,1-1.79,3.45Z"/><path class="a" d="M437.3,137.88H415.76V142H437.3a2,2,0,1,0,0-4.07Z"/><path class="a" d="M456.4,95.6A19.3,19.3,0,0,0,450,90.54a25.48,25.48,0,0,0-11.43-2.49,38.1,38.1,0,0,0-13.14,2.47A50.25,50.25,0,0,0,413,97.26a52.32,52.32,0,0,0-10.26,10,43.89,43.89,0,0,0-6.8,12.25,30.62,30.62,0,0,0-1.85,12.29,21,21,0,0,0,3.25,10.07,19.07,19.07,0,0,0,7.69,6.8,25.39,25.39,0,0,0,11.31,2.49V147a21.25,21.25,0,0,1-8.49-2.11,16.35,16.35,0,0,1-6.59-5.83,18,18,0,0,1-2.79-8.66,26.71,26.71,0,0,1,1.61-10.66A38.57,38.57,0,0,1,406,109a46,46,0,0,1,9-8.74,43.68,43.68,0,0,1,10.82-5.89,33.21,33.21,0,0,1,11.44-2.16,22,22,0,0,1,9.88,2.15,16.67,16.67,0,0,1,5.47,4.29,2.38,2.38,0,0,0,1.85.88,2.3,2.3,0,0,0,1.38-.45L456,99a2.31,2.31,0,0,0,.93-1.59A2.36,2.36,0,0,0,456.4,95.6Z"/><path class="a" d="M138.34,79.43a4.87,4.87,0,1,1,4.87-4.86A4.87,4.87,0,0,1,138.34,79.43Zm0-8a3.11,3.11,0,1,0,3.11,3.11A3.11,3.11,0,0,0,138.34,71.46Z"/><path class="a" d="M154.41,73.52a4.36,4.36,0,0,1-4.33-4,4.36,4.36,0,0,1,7.16-3.67,4.51,4.51,0,0,1,1.29,1.86.9.9,0,0,1-.76,1.19h0a.89.89,0,0,1-.9-.6,2.51,2.51,0,0,0-.77-1.11,2.59,2.59,0,0,0-4.27,2.19,2.6,2.6,0,0,0,2.8,2.38l.14,1.75Z"/><path class="a" d="M153.79,79.43a5.47,5.47,0,0,1-1.81-.31,5.22,5.22,0,0,1-1.39-.76,5.29,5.29,0,0,1-2-3.51,1,1,0,0,1,1-1.09h0a1,1,0,0,1,.86.85,3.16,3.16,0,0,0,.71,1.66,3.3,3.3,0,1,0,2.92-5.36h0l.21-1.91h0a5.23,5.23,0,0,1-.55,10.43Z"/><path class="a" d="M184.07,79.43h-1.75V70.35a.87.87,0,0,1,.88-.88h0a.87.87,0,0,1,.87.88Z"/><path class="a" d="M214.19,80.41a4.61,4.61,0,1,1,4.61-4.61A4.61,4.61,0,0,1,214.19,80.41Zm0-7.47a2.86,2.86,0,1,0,2.86,2.86A2.86,2.86,0,0,0,214.19,72.94Z"/><path class="a" d="M218.8,76.1l-1.75-.16a7.32,7.32,0,0,0,0-1.48,7.61,7.61,0,0,0-.29-1.42,7.45,7.45,0,0,0-.56-1.34,8.64,8.64,0,0,0-.8-1.2,8.35,8.35,0,0,0-1-1,7.66,7.66,0,0,0-1.22-.82c-.23-.12-.45-.23-.69-.33a.86.86,0,0,1-.48-1h0a.87.87,0,0,1,1.19-.55,7.49,7.49,0,0,1,.81.38,9.47,9.47,0,0,1,2.78,2.29,9.73,9.73,0,0,1,1,1.48,8.65,8.65,0,0,1,.69,1.64,9.85,9.85,0,0,1,.37,1.76A9.33,9.33,0,0,1,218.8,76.1Z"/><path class="a" d="M229.37,79.43a5.44,5.44,0,1,1,3.75-9.38l-1.21,1.28a3.68,3.68,0,1,0,.13,5.2l1.27,1.21a5.42,5.42,0,0,1-3.8,1.69Z"/><rect class="a" x="173.52" y="73.47" width="1.75" height="5.96"/><path class="a" d="M168.34,79.21h-1.75V64.52a.87.87,0,0,1,.88-.87h0a.87.87,0,0,1,.87.87Z"/><path class="a" d="M175.28,73.93h-1.75a2.6,2.6,0,1,0-5.2,0h-1.75a4.35,4.35,0,1,1,8.7,0Z"/><path class="a" d="M193.19,79.25h-1.75V64.39a.87.87,0,0,1,.87-.88h0a.87.87,0,0,1,.88.88Z"/><rect class="a" x="197.12" y="73.13" width="1.75" height="6.3"/><path class="a" d="M198.88,73.52h-1.75a2,2,0,0,0-.16-.8,2.12,2.12,0,0,0-.44-.66,2,2,0,0,0-.66-.44,2.14,2.14,0,0,0-1.61,0,2,2,0,0,0-.65.44,2.15,2.15,0,0,0-.45.66L191.55,72a3.75,3.75,0,0,1,.82-1.22,3.87,3.87,0,0,1,1.21-.82,3.83,3.83,0,0,1,4.19.82,3.72,3.72,0,0,1,.81,1.22A3.77,3.77,0,0,1,198.88,73.52Z"/><rect class="a" x="202.14" y="73.13" width="1.75" height="6.3"/><path class="a" d="M203.9,73.52h-1.75a2.06,2.06,0,0,0-.61-1.46,2.06,2.06,0,0,0-2.91,0l-1.25-1.24a3.81,3.81,0,0,1,5.4,0A3.76,3.76,0,0,1,203.9,73.52Z"/><rect class="a" x="246.74" y="75.04" width="1.75" height="4.39"/><path class="a" d="M241.56,79.21H239.8V64.34a.89.89,0,0,1,.88-.88h0a.89.89,0,0,1,.88.88Z"/><path class="a" d="M248.5,75.5h-1.76a2.6,2.6,0,1,0-5.19,0h-1.76a4.36,4.36,0,0,1,8.71,0Z"/><path class="a" d="M256.19,79.43h-1.75V69a.88.88,0,0,1,.87-.88h0a.88.88,0,0,1,.88.88Z"/><path class="a" d="M117.88,78.77h-1.76V65.48a.88.88,0,0,1,.88-.87h0a.87.87,0,0,1,.88.87Z"/><rect class="a" x="126.34" y="62.12" width="1.75" height="23.47"/><path class="a" d="M127.46,70.22h-5.6a.88.88,0,0,1-.87-.88h0a.87.87,0,0,1,.87-.88h5.6Z"/><path class="a" d="M117,62.25a1.13,1.13,0,1,1,1.13-1.13A1.13,1.13,0,0,1,117,62.25Z"/><path class="a" d="M307.88,79.43h-1.75V70.35a.87.87,0,0,1,.88-.88h0a.87.87,0,0,1,.87.88Z"/><path class="a" d="M321.56,74.45a4.36,4.36,0,0,1-3.31-7.18,4.35,4.35,0,0,1,6.14-.49,4.27,4.27,0,0,1,1.28,1.86.88.88,0,0,1-.75,1.18h0a.87.87,0,0,1-.9-.59,2.69,2.69,0,0,0-.77-1.12,2.59,2.59,0,0,0-3.66.3,2.59,2.59,0,0,0,2.19,4.27l.14,1.75Z"/><path class="a" d="M320.93,79.43a4.59,4.59,0,0,1-.73-.06,4.76,4.76,0,0,1-4-4.17.87.87,0,0,1,1-.94h0a.88.88,0,0,1,.78.78,2.87,2.87,0,0,0,.64,1.51,3,3,0,0,0,2,1.11A3,3,0,0,0,323.92,75a3,3,0,0,0-.65-2.21,3,3,0,0,0-2-1.1l.18-1.75a4.77,4.77,0,0,1,4,6.38,4.37,4.37,0,0,1-.66,1.22A4.78,4.78,0,0,1,320.93,79.43Z"/><path class="a" d="M336.56,79.43a5,5,0,0,1-2-.4A5.15,5.15,0,0,1,333,77.94a4.93,4.93,0,0,1-1.09-1.61,5.08,5.08,0,0,1,0-4A5,5,0,0,1,333,70.77a5.15,5.15,0,0,1,1.61-1.09,4.86,4.86,0,0,1,1.05-.31.8.8,0,0,1,.93.79v.09a.89.89,0,0,1-.71.86,2.46,2.46,0,0,0-.58.19,3.14,3.14,0,0,0-1.06.71,3.29,3.29,0,0,0-1,2.35,3.38,3.38,0,0,0,.26,1.29,3.42,3.42,0,0,0,.71,1,3.14,3.14,0,0,0,1.06.71,3.3,3.3,0,0,0,2.58,0,3.14,3.14,0,0,0,1.06-.71,3.73,3.73,0,0,0,.36-.43.89.89,0,0,1,1.07-.32h0a.88.88,0,0,1,.37,1.32,5.23,5.23,0,0,1-.56.67A5.08,5.08,0,0,1,338.53,79,4.92,4.92,0,0,1,336.56,79.43Z"/><path class="a" d="M336.5,74.79l-.62-1.64s.83-.37,1.22-.61a6.92,6.92,0,0,0,1.06-.81,4.89,4.89,0,0,0,.39-.4.88.88,0,0,1,1.16-.12h0a.88.88,0,0,1,.13,1.31c-.15.17-.31.33-.48.49A8.7,8.7,0,0,1,338,74,9.08,9.08,0,0,1,336.5,74.79Z"/><path class="a" d="M273.52,71.41a5.26,5.26,0,0,1-1.78-4.89,4.88,4.88,0,0,1,.45-1.4,5.28,5.28,0,0,1,4.31-2.94,5.21,5.21,0,0,1,3,.65.87.87,0,0,1,.22,1.32h0a.86.86,0,0,1-1.08.21,3.4,3.4,0,0,0-2-.43,3.5,3.5,0,0,0-2,6.15Z"/><path class="a" d="M276.13,79.43a5.3,5.3,0,0,1-.88-.07,5.67,5.67,0,0,1-3-1.42,5.78,5.78,0,0,1-1.89-3.87.88.88,0,0,1,1-.92h0a.86.86,0,0,1,.78.79,4,4,0,0,0,.88,2.24,4,4,0,0,0,5.65.61,4,4,0,0,0,.6-5.65,4,4,0,0,0-2.69-1.47l.18-1.75a5.82,5.82,0,0,1,4.81,3.71,5.75,5.75,0,0,1,.23.78,5.83,5.83,0,0,1-2,5.74A5.71,5.71,0,0,1,276.13,79.43Z"/><path class="a" d="M281.69,66.66a1.13,1.13,0,1,1,1.13-1.13A1.14,1.14,0,0,1,281.69,66.66Z"/><path class="a" d="M348.43,79.1h-1.76V68.66a.87.87,0,0,1,.88-.87h0a.88.88,0,0,1,.88.87Z"/><path class="a" d="M291,75h-1.75V69.46a.88.88,0,0,1,.88-.88h0a.88.88,0,0,1,.87.88Z"/><path class="a" d="M298.81,79.15a.87.87,0,0,1-1.31,0,7.57,7.57,0,0,1-.49-.63,9.31,9.31,0,0,1-1.5-3.23,9.89,9.89,0,0,1-.26-1.8l1.76-.08a7.24,7.24,0,0,0,.21,1.47,6.75,6.75,0,0,0,.48,1.37,7.75,7.75,0,0,0,.73,1.24,5.43,5.43,0,0,0,.42.53.86.86,0,0,1,0,1.16Z"/><path class="a" d="M293.6,77.13a2.61,2.61,0,0,1-2.59-2.6h-1.76a4.37,4.37,0,0,0,4.35,4.35,4.37,4.37,0,0,0,1.57-.29v-2A2.58,2.58,0,0,1,293.6,77.13Z"/><path class="a" d="M453.75,69.73a5.38,5.38,0,0,1,3.05-9.47l.44,0a5.34,5.34,0,0,1,2.62.69,1.15,1.15,0,0,1,.58.82,1.25,1.25,0,0,1-.27,1,1.22,1.22,0,0,1-.92.43,1.13,1.13,0,0,1-.57-.15,2.91,2.91,0,0,0-1.44-.37H457a3,3,0,0,0-2,1,3,3,0,0,0,.34,4.19l.28.24L454,70Z"/><path class="a" d="M454,69.44a5,5,0,0,1,5.69-8.19.83.83,0,0,1,.2,1.26h0a.81.81,0,0,1-1,.19,3.35,3.35,0,0,0-5,3.2,3.31,3.31,0,0,0,1.17,2.27Z"/><path class="a" d="M456.48,77.47a6.19,6.19,0,0,1-2-.35,5.26,5.26,0,0,1-1.48-.79A5.9,5.9,0,0,1,450.6,72a1.17,1.17,0,0,1,.32-.89,1.24,1.24,0,0,1,.89-.39h.12a1.2,1.2,0,0,1,1.08,1.1,3.4,3.4,0,0,0,.76,1.94A3.45,3.45,0,0,0,456.1,75l.37,0a3.46,3.46,0,0,0,2.69-5.64,3.37,3.37,0,0,0-2.33-1.27l-.37,0,.26-2.4.37,0A5.88,5.88,0,0,1,462,69.52a3.78,3.78,0,0,1,.24.81,5.9,5.9,0,0,1-2.06,5.84A5.82,5.82,0,0,1,456.48,77.47Z"/><path class="a" d="M456.48,77.1a5.86,5.86,0,0,1-1.91-.33A4.79,4.79,0,0,1,453.2,76,5.54,5.54,0,0,1,451,72a.84.84,0,0,1,.93-.88h0a.83.83,0,0,1,.74.76,3.83,3.83,0,1,0,4.23-4.09l.18-1.65a5.53,5.53,0,0,1,4.59,3.54,4.83,4.83,0,0,1,.22.74,5.57,5.57,0,0,1-1.94,5.48A5.5,5.5,0,0,1,456.48,77.1Z"/><path class="a" d="M461.79,64.9a1.07,1.07,0,1,1,1.07-1.07A1.08,1.08,0,0,1,461.79,64.9Z"/><path class="a" d="M475,75.53A5.31,5.31,0,0,1,471.26,74a5.14,5.14,0,0,1-1.14-1.7,5.31,5.31,0,0,1,1.14-5.83A5,5,0,0,1,473,65.3a5.25,5.25,0,0,1,2.07-.42h.37v2.41H475a2.93,2.93,0,0,0-1.13.23,2.85,2.85,0,0,0-1.55,1.55,2.92,2.92,0,0,0,0,2.27,2.82,2.82,0,0,0,.62.92,2.94,2.94,0,0,0,.93.63,2.88,2.88,0,0,0,1.13.22,3,3,0,0,0,1.14-.22,3,3,0,0,0,1.55-1.55,2.93,2.93,0,0,0,.22-1.14,2.59,2.59,0,0,0-.05-.56,1.22,1.22,0,0,1,.71-1.35,1.29,1.29,0,0,1,.48-.1,1.19,1.19,0,0,1,1.17.94,5.47,5.47,0,0,1,.11,1.07,5.3,5.3,0,0,1-.42,2.08A5.36,5.36,0,0,1,478.79,74a5.29,5.29,0,0,1-1.7,1.14A5.21,5.21,0,0,1,475,75.53Z"/><path class="a" d="M475,75.15a5.07,5.07,0,0,1-1.93-.38,5,5,0,0,1-2.63-2.64,5,5,0,0,1,0-3.86,4.79,4.79,0,0,1,1.06-1.57,5,5,0,0,1,1.57-1.06,4.9,4.9,0,0,1,1.93-.39v1.67a3.32,3.32,0,0,0-1.28.25A3.4,3.4,0,0,0,472,68.92a3.32,3.32,0,0,0-.25,1.28,3.25,3.25,0,0,0,.25,1.28,3.54,3.54,0,0,0,.71,1,3.29,3.29,0,0,0,5.35-1,3.3,3.3,0,0,0,.2-1.91.84.84,0,0,1,.49-.94h0a.82.82,0,0,1,1.13.58,4.68,4.68,0,0,1,.1,1,4.9,4.9,0,0,1-.39,1.93,4.64,4.64,0,0,1-1.06,1.57A4.82,4.82,0,0,1,477,74.77,5.07,5.07,0,0,1,475,75.15Z"/><path class="a" d="M477.63,67.67a1,1,0,1,1,1.05-1A1,1,0,0,1,477.63,67.67Z"/><path class="a" d="M502.93,75.53a5.5,5.5,0,0,1-1.13-.12l-.36-.08L502,73l.36.08a3.37,3.37,0,0,0,.62.07,3.29,3.29,0,0,0,.54-.05,2.85,2.85,0,0,0,1-.42,2.67,2.67,0,0,0,.8-.77,3,3,0,0,0,.47-1.06,2.83,2.83,0,0,0,0-1.16,2.72,2.72,0,0,0-.41-1,3,3,0,0,0-.77-.81,2.79,2.79,0,0,0-1.06-.46,2.68,2.68,0,0,0-.62-.07,3.29,3.29,0,0,0-.54,0,3,3,0,0,0-1,.41,3,3,0,0,0-.8.78,2.82,2.82,0,0,0-.47,1.06,2.6,2.6,0,0,0-.06.56,1.23,1.23,0,0,1-1,1.17l-.23,0a1.25,1.25,0,0,1-.87-.37,1.17,1.17,0,0,1-.34-.83,5.59,5.59,0,0,1,.13-1.07,5.07,5.07,0,0,1,.85-1.93,5.23,5.23,0,0,1,1.47-1.42,5.43,5.43,0,0,1,1.89-.75,5.43,5.43,0,0,1,2.12,0,5.32,5.32,0,0,1,3.35,2.32,5.42,5.42,0,0,1,.73,4,5.53,5.53,0,0,1-.85,1.94,5.37,5.37,0,0,1-1.48,1.41,5.45,5.45,0,0,1-1.89.76A5.52,5.52,0,0,1,502.93,75.53Z"/><path class="a" d="M502.93,75.16a4.7,4.7,0,0,1-1.05-.12l.36-1.63a3.24,3.24,0,0,0,2.47-.45,3.25,3.25,0,0,0,1.43-2.06,3.21,3.21,0,0,0,0-1.31,3.39,3.39,0,0,0-.47-1.17,3.28,3.28,0,0,0-.87-.91,3.31,3.31,0,0,0-2.5-.54,3.39,3.39,0,0,0-1.17.47,3.28,3.28,0,0,0-.91.87,3.23,3.23,0,0,0-.52,1.2,2.7,2.7,0,0,0-.07.63A.84.84,0,0,1,499,71h0a.82.82,0,0,1-1-.8,4.79,4.79,0,0,1,.11-1,4.93,4.93,0,0,1,.79-1.8A5,5,0,0,1,500.25,66a4.91,4.91,0,0,1,1.76-.71,5,5,0,0,1,2,0,5,5,0,0,1,3.12,2.16,5.08,5.08,0,0,1,.7,1.76,5,5,0,0,1,0,2,5,5,0,0,1-2.16,3.12,5.08,5.08,0,0,1-1.76.7A4.7,4.7,0,0,1,502.93,75.16Z"/><path class="a" d="M499.62,74.18l-.22,0a1.05,1.05,0,0,1-.8-1.24h0a1,1,0,1,1,2,.44,1,1,0,0,1-.45.65A1.06,1.06,0,0,1,499.62,74.18Z"/><path class="a" d="M485.75,78.73a1.09,1.09,0,1,1,1.09-1.09A1.09,1.09,0,0,1,485.75,78.73Z"/><path class="a" d="M415.13,62.38a4.8,4.8,0,0,0-3.1-1.14l-.39,0a4.8,4.8,0,0,0,.38,9.58l.39,0,.37,0-.19-2.4-.37,0H412a2.42,2.42,0,0,1-1.54-.57,2.34,2.34,0,0,1-.83-1.63,2.38,2.38,0,0,1,2.18-2.57h.2a2.39,2.39,0,0,1,2.26,1.64,1.22,1.22,0,0,0,1.15.84h.1a1.2,1.2,0,0,0,1-1.57A4.74,4.74,0,0,0,415.13,62.38Z"/><path class="a" d="M416.12,68.59a5.22,5.22,0,0,0-4.2-3l-.37,0-.26,2.4.37,0a2.81,2.81,0,0,1-.29,5.61l-.31,0a2.83,2.83,0,0,1-1.48-.62,1.21,1.21,0,0,0-2,.94,1.23,1.23,0,0,0,.46,1A5.25,5.25,0,0,0,411.37,76a5.15,5.15,0,0,0,3.27-1.16A5.26,5.26,0,0,0,416.55,70,4.94,4.94,0,0,0,416.12,68.59Z"/><path class="a" d="M406.8,70.8a1.09,1.09,0,1,0,1.1,1.09A1.09,1.09,0,0,0,406.8,70.8Z"/><path class="a" d="M431.45,73.39a1.09,1.09,0,0,0-.36.06,2.51,2.51,0,0,1-.76.12,2.41,2.41,0,0,1-.6-.08,2.43,2.43,0,0,1-1.52-1.12,2.48,2.48,0,0,1-.34-1.5l.93-3.49h4.54V65h-3.9l1.18-4.46-2.39,0L427,65h-3.93v2.41h3.26l-.61,2.2-.05,0-.09.36c0,.18-.07.35-.1.53l-.09.35h.06a4.86,4.86,0,0,0,3.68,5,4.79,4.79,0,0,0,1.19.15,4.88,4.88,0,0,0,1.52-.24,1.21,1.21,0,0,0,.63-1.77A1.21,1.21,0,0,0,431.45,73.39Z"/><path class="a" d="M434.4,72.6a1.09,1.09,0,1,0,1.09,1.09A1.09,1.09,0,0,0,434.4,72.6Z"/><path class="a" d="M375.29,76.22a1,1,0,1,0,1,1A1,1,0,0,0,375.29,76.22Z"/><path class="a" d="M545.25,76.58v-10a1.21,1.21,0,0,1,2.41,0v10Z"/><path class="a" d="M547.29,76.2h-1.67V66.55a.84.84,0,0,1,.84-.83h0a.83.83,0,0,1,.83.83Z"/><polygon class="a" points="527.27 75.87 528.12 73.83 537.34 73.83 537.34 75.87 527.27 75.87"/><path class="a" d="M521.58,84.17a1.09,1.09,0,1,1,1.09-1.09A1.09,1.09,0,0,1,521.58,84.17Z"/><path class="a" d="M556.17,69.51a1.2,1.2,0,1,1,1.71-1.68l3.75,3.83-1.32,2.09Z"/><path class="a" d="M560.25,73.15l-3.82-3.9a.83.83,0,0,1-.11-1h0a.84.84,0,0,1,1.3-.14l3.54,3.62Z"/><path class="a" d="M561.48,77.27a1,1,0,0,1-.5-.13,1,1,0,0,1-.37-1.36l8.27-13.41,2.31,0-8.85,14.37A1,1,0,0,1,561.48,77.27Z"/><path class="a" d="M561.17,76.82h0a.61.61,0,0,1-.23-.85l8.16-13.22h1.45L562,76.58A.62.62,0,0,1,561.17,76.82Z"/><path class="a" d="M579.55,76.11a5.55,5.55,0,0,1-2.16-10.66,6.29,6.29,0,0,1,1.12-.34l.22,0a1.21,1.21,0,0,1,.22,2.4,3.38,3.38,0,0,0-.62.18,3.18,3.18,0,0,0-1,.68,2.89,2.89,0,0,0-.67,1,3.15,3.15,0,0,0,.67,3.44,3.33,3.33,0,0,0,1,.67,3.22,3.22,0,0,0,2.44,0,3.38,3.38,0,0,0,1-.67,3.19,3.19,0,0,0,.67-1l.14-.34,2.23.94-.15.34a5.56,5.56,0,0,1-5.11,3.39Z"/><path class="a" d="M579.55,75.73a5.09,5.09,0,0,1-3.65-1.51,5.16,5.16,0,0,1-1.11-5.67,5.14,5.14,0,0,1,2.75-2.75,4.81,4.81,0,0,1,1-.32.83.83,0,0,1,1,.83h0a.82.82,0,0,1-.67.81,3.94,3.94,0,0,0-.69.21,3.47,3.47,0,0,0-1.87,1.87,3.51,3.51,0,0,0-.27,1.36,3.45,3.45,0,0,0,1,2.48,3.67,3.67,0,0,0,1.12.75,3.5,3.5,0,0,0,2.73,0A3.63,3.63,0,0,0,582,73a3.46,3.46,0,0,0,.75-1.11l1.54.65a5.23,5.23,0,0,1-2.75,2.75A5.16,5.16,0,0,1,579.55,75.73Z"/><path class="a" d="M578.77,69.26l.37-.08a3.39,3.39,0,0,0,3-2.6,1.21,1.21,0,0,1,1.13-.79,1.27,1.27,0,0,1,.34,0,1.2,1.2,0,0,1,.79,1.59,5.71,5.71,0,0,1-4.8,4.13l-.37.07Z"/><path class="a" d="M579.54,71.18l-.33-1.63a3.75,3.75,0,0,0,3.29-2.84.83.83,0,0,1,1-.52h0a.84.84,0,0,1,.55,1.1A5.34,5.34,0,0,1,579.54,71.18Z"/><path class="a" d="M584.52,65a1.09,1.09,0,1,1,1.09-1.09A1.09,1.09,0,0,1,584.52,65Z"/><path class="a" d="M559.88,80.07A1.1,1.1,0,1,1,561,79,1.09,1.09,0,0,1,559.88,80.07Z"/><path class="a" d="M255.73,119.1l8.77-12v8.2h2.84V102.83a2.22,2.22,0,0,0,0-.68,1.32,1.32,0,0,0-.16-.51,2.19,2.19,0,0,0-.67-.82,2.13,2.13,0,0,0-3,.46L250.45,119.1H222.58a1.47,1.47,0,0,0-1.48,1.28,1.43,1.43,0,0,0,1.42,1.56h25.85L222.66,157a2.13,2.13,0,0,0,1.72,3.39h0a2.12,2.12,0,0,0,1.72-.87l27.55-37.58h33.88a1.43,1.43,0,0,0,1.42-1.42h0a1.42,1.42,0,0,0-1.42-1.42Z"/><path class="a" d="M265.82,125.18a1.46,1.46,0,0,0-1.29,1.47v14.48a1.42,1.42,0,0,0,1.43,1.42h0a1.43,1.43,0,0,0,1.42-1.42V126.59A1.42,1.42,0,0,0,265.82,125.18Z"/><path class="a" d="M535.21,173l27.17-42.51h26.13a1.42,1.42,0,0,0,0-2.84H564.19l8-12.48v10h2.49V110.88a2.13,2.13,0,0,0-3.92-1.35l-11.61,18.16h-29.8a1.42,1.42,0,1,0,0,2.84h28l-25.7,40.21a2.13,2.13,0,0,0,1.79,3.28A2.15,2.15,0,0,0,535.21,173Z"/><path class="a" d="M572.17,144.26a1.24,1.24,0,0,0,1.24,1.23h0a1.26,1.26,0,0,0,1.23-1.26l-.12-10.95-2.49,0Z"/><path class="a" d="M480,142a1.24,1.24,0,0,0,1.24,1.24h0a1.24,1.24,0,0,0,1.24-1.24l.07-10h-2.49Z"/><path class="a" d="M496,129.55a1.42,1.42,0,1,0,0-2.84H472.11l8.19-12.77-.09,9.67h2.49l.13-14.39a1.16,1.16,0,0,0-.16-.59,2.05,2.05,0,0,0-.83-1,2.13,2.13,0,0,0-2.95.64l-11.84,18.48H449.24a1.42,1.42,0,0,0,0,2.84h16l-25.78,40.21a2.13,2.13,0,0,0,.65,2.94,2.08,2.08,0,0,0,1.14.34,2.14,2.14,0,0,0,1.8-1l27.25-42.51Z"/><path class="a" d="M445.42,127.22a1.93,1.93,0,0,0-.22-.28,1.51,1.51,0,0,0-.28-.22,1.34,1.34,0,0,0-.31-.17,2.24,2.24,0,0,0-.34-.11,1.89,1.89,0,0,0-1.65.5,1.93,1.93,0,0,0-.22.28,1.23,1.23,0,0,0-.17.32,1.83,1.83,0,0,0-.11.33,2.19,2.19,0,0,0,0,.36,1.83,1.83,0,0,0,.53,1.29,1.93,1.93,0,0,0,.28.22,1.23,1.23,0,0,0,.32.17,1.69,1.69,0,0,0,.34.11,2,2,0,0,0,.35,0l.36,0a2.24,2.24,0,0,0,.34-.11,1.34,1.34,0,0,0,.31-.17,1.51,1.51,0,0,0,.28-.22,1.83,1.83,0,0,0,.53-1.29,2.19,2.19,0,0,0,0-.36,1.28,1.28,0,0,0-.11-.33A1.23,1.23,0,0,0,445.42,127.22Z"/><path class="a" d="M531.89,177.59a1.91,1.91,0,0,0-.16-.32,1.49,1.49,0,0,0-.23-.27,1.56,1.56,0,0,0-.28-.23,1.54,1.54,0,0,0-.31-.17,2.19,2.19,0,0,0-.34-.1,1.83,1.83,0,0,0-1.65.5,1.44,1.44,0,0,0-.22.27,1.41,1.41,0,0,0-.17.32,1.91,1.91,0,0,0-.1.34,1.45,1.45,0,0,0,0,.35,1.81,1.81,0,0,0,1.82,1.82,1.77,1.77,0,0,0,.7-.13,2.27,2.27,0,0,0,.31-.17,2.15,2.15,0,0,0,.28-.23,1.83,1.83,0,0,0,.53-1.29,2.16,2.16,0,0,0,0-.35A1.35,1.35,0,0,0,531.89,177.59Z"/><circle class="c" cx="319.77" cy="158.36" r="1.97"/><path class="a" d="M265.76,167.28a1.81,1.81,0,0,1-1.49-2.95l44.92-54.92A1.8,1.8,0,1,1,312,111.7l-44.91,54.92A1.88,1.88,0,0,1,265.76,167.28Z"/><circle class="a" cx="296.59" cy="99.69" r="1.97"/><path class="a" d="M330.55,110.56a20.54,20.54,0,0,0-15.13-17.22,20.58,20.58,0,0,0-15.31,2l1.78,3.15a16.92,16.92,0,1,1-2,28.11,1.81,1.81,0,0,0-2.21,2.86,20.43,20.43,0,0,0,12.51,4.27,21.43,21.43,0,0,0,2.65-.17,20.5,20.5,0,0,0,17.72-23Z"/><path class="a" d="M314.28,158.47a1.47,1.47,0,0,1-.36,0,18.05,18.05,0,0,1-14.08-21.3,1.81,1.81,0,0,1,3.54.73,14.44,14.44,0,0,0,11.26,17,1.8,1.8,0,0,1-.36,3.57Z"/></svg>