<svg xmlns="http://www.w3.org/2000/svg" viewBox="0 0 650 498.93"><defs><style>.a{fill:#ebb93d;}.b{fill:#60c4e9;}.c{fill:#ecc789;}.d{fill:#d15891;}.e{fill:#fff;}</style></defs><circle class="a" cx="292.68" cy="137.29" r="3.47"/><circle class="a" cx="168.48" cy="385.94" r="3.47"/><circle class="a" cx="412.37" cy="136.78" r="3.47"/><circle class="a" cx="617.31" cy="254.04" r="3.47"/><path class="a" d="M420.46,339.77c-1,0,.39-2.68-.34-3.41a3.74,3.74,0,0,1,0-5.3l20.5-20.5a3.75,3.75,0,0,1,5.3,0c1.46,1.46,4.35.95,2.89,2.41l-25.7,25.7A3.74,3.74,0,0,1,420.46,339.77Z"/><circle class="b" cx="132.84" cy="127.63" r="3.47"/><circle class="b" cx="189.66" cy="260.69" r="3.47"/><circle class="b" cx="441.01" cy="382.88" r="3.47"/><circle class="b" cx="333.34" cy="311.49" r="3.47"/><circle class="b" cx="341.11" cy="105.17" r="3.47"/><path class="b" d="M244.52,326.46c-.8,0,.13-2-.48-2.65a3.13,3.13,0,0,1,0-4.41l21.71-20c1.22-1.22,3.59-1.79,4.8-.57s2.28,2.32,1.06,3.54l-24.88,23.15A3.12,3.12,0,0,1,244.52,326.46Z"/><path class="c" d="M108.49,231c.32.77.65,1.53,1,2.3,0,.09.09.19.13.29a.15.15,0,0,0,.25,0h0c.55-.73,1.11-1.46,1.65-2.2a.38.38,0,0,1,.4-.17l3.07.37a.15.15,0,0,0,.16-.2l0,0c-.4-1-.8-1.9-1.21-2.85a.3.3,0,0,1,0-.35c.58-.76,1.14-1.52,1.71-2.28l.17-.23a.14.14,0,0,0-.1-.23h0c-1-.12-2-.25-3.06-.36a.33.33,0,0,1-.3-.23c-.36-.85-.72-1.7-1.09-2.55v0a.14.14,0,0,0-.25,0c-.57.75-1.12,1.48-1.66,2.21a.36.36,0,0,1-.38.17l-3.06-.38h0a.15.15,0,0,0-.15.2l0,0c.4,1,.79,1.89,1.2,2.83a.32.32,0,0,1,0,.38c-.62.82-1.24,1.65-1.85,2.48l0,0a.15.15,0,0,0,.1.23l3.11.37A.31.31,0,0,1,108.49,231Z"/><path class="c" d="M18.5,161.1h-.05l-3.95-.47a.42.42,0,0,1-.39-.29c-.46-1.1-.93-2.2-1.4-3.3v0a.19.19,0,0,0-.33,0l-2.14,2.85a.46.46,0,0,1-.5.22c-1.31-.17-2.63-.32-3.95-.48h0a.18.18,0,0,0-.19.25l0,.07c.52,1.22,1,2.44,1.56,3.65a.42.42,0,0,1-.07.49l-2.4,3.2v0a.19.19,0,0,0,.13.3l4,.48a.38.38,0,0,1,.37.27l1.26,3c.06.12.11.24.17.37a.19.19,0,0,0,.32,0h0c.71-1,1.43-1.89,2.13-2.85a.49.49,0,0,1,.52-.23l4,.49a.18.18,0,0,0,.19-.26l0-.05c-.52-1.23-1-2.46-1.56-3.68a.39.39,0,0,1,.06-.46c.74-1,1.47-2,2.2-2.94.07-.1.15-.19.22-.3A.19.19,0,0,0,18.5,161.1Z"/><path class="c" d="M448.84,487.35h-.06l-4.29-.51a.47.47,0,0,1-.43-.32c-.5-1.2-1-2.39-1.53-3.58v0a.2.2,0,0,0-.35,0l-2.33,3.1a.51.51,0,0,1-.54.24c-1.43-.19-2.86-.35-4.29-.53h0a.2.2,0,0,0-.21.28l0,.07c.56,1.33,1.12,2.66,1.69,4a.45.45,0,0,1-.07.52c-.88,1.16-1.74,2.32-2.61,3.49l0,0a.21.21,0,0,0,.14.33c1.48.18,2.93.36,4.37.52a.43.43,0,0,1,.4.3c.45,1.08.91,2.15,1.37,3.23l.18.4a.2.2,0,0,0,.35,0h0c.78-1,1.56-2.05,2.32-3.09a.53.53,0,0,1,.57-.25c1.41.19,2.83.35,4.3.53a.21.21,0,0,0,.22-.28l0-.06c-.57-1.33-1.13-2.67-1.7-4a.42.42,0,0,1,.06-.5c.81-1.06,1.6-2.13,2.39-3.19l.25-.33A.21.21,0,0,0,448.84,487.35Z"/><path class="c" d="M85.51,431.26h0l-2.86-.35a.3.3,0,0,1-.29-.21c-.33-.8-.68-1.6-1-2.39v0a.13.13,0,0,0-.23,0l-1.56,2.08a.32.32,0,0,1-.36.15l-2.87-.35h0a.14.14,0,0,0-.14.19v0c.38.89.75,1.78,1.13,2.66a.3.3,0,0,1,0,.35c-.59.77-1.17,1.55-1.75,2.33v0a.14.14,0,0,0,.1.22l2.91.35a.27.27,0,0,1,.27.2c.3.72.61,1.43.92,2.15l.12.27a.14.14,0,0,0,.23,0h0c.52-.68,1-1.37,1.55-2.06a.36.36,0,0,1,.38-.17c.95.13,1.9.24,2.88.36a.14.14,0,0,0,.14-.19v0c-.38-.89-.75-1.78-1.14-2.67a.3.3,0,0,1,0-.34c.54-.7,1.07-1.42,1.6-2.13l.17-.22A.14.14,0,0,0,85.51,431.26Z"/><path class="c" d="M461.87,233.46a.21.21,0,0,1,0-.24c.23-.53.45-1.06.67-1.59h0a.08.08,0,0,0-.08-.12h0l-1.72.22a.18.18,0,0,1-.19-.09l-1.06-1.38h0a.08.08,0,0,0-.14,0c-.23.55-.46,1.08-.68,1.62a.17.17,0,0,1-.16.13l-1.39.17-.17,0a.09.09,0,0,0-.06.13h0l.94,1.23a.2.2,0,0,1,0,.24c-.23.53-.45,1.06-.67,1.61a.08.08,0,0,0,.08.11h0l1.73-.22a.18.18,0,0,1,.19.08l1,1.27.1.12a.08.08,0,0,0,.14,0v0c.22-.54.45-1.07.66-1.6a.18.18,0,0,1,.17-.13l1.55-.2h0a.1.1,0,0,0,.06-.14C462.49,234.27,462.19,233.86,461.87,233.46Z"/><path class="c" d="M454.79,225.58a.26.26,0,0,1,0-.31c.3-.69.58-1.39.87-2.09v0a.11.11,0,0,0-.11-.15h0c-.75.09-1.5.18-2.25.29a.24.24,0,0,1-.25-.11l-1.39-1.82h0a.11.11,0,0,0-.19,0c-.3.73-.6,1.43-.88,2.13a.25.25,0,0,1-.21.17l-1.83.23-.23,0a.11.11,0,0,0-.07.17h0c.41.53.82,1.07,1.24,1.6a.29.29,0,0,1,0,.33l-.88,2.1a.11.11,0,0,0,.11.15h0c.76-.09,1.51-.18,2.27-.29a.24.24,0,0,1,.24.11l1.27,1.66.13.17a.11.11,0,0,0,.19,0v0c.29-.7.59-1.4.87-2.1a.26.26,0,0,1,.22-.17l2-.26h0a.11.11,0,0,0,.07-.17C455.61,226.64,455.2,226.11,454.79,225.58Z"/><circle class="d" cx="420.79" cy="182.59" r="3.47"/><circle class="d" cx="329.84" cy="366.7" r="3.47"/><circle class="d" cx="459.09" cy="290" r="3.47"/><circle class="d" cx="143.02" cy="209.31" r="3.47"/><path class="d" d="M531.25,135.94l-32.09,30a3.8,3.8,0,0,0-.2,5.28l.06.06c1.43,1.6,1,4.57,2.55,3.1l36.76-34.79c1.77-1.69,1.48-3.31-.57-4.64l-5.17,3.33C531.11,137.32,532.52,134.73,531.25,135.94Z"/><path class="e" d="M57.13,151.07a28,28,0,0,0,12.16,9.49,36.5,36.5,0,0,0,14.12,2.66l1.68,0a3.75,3.75,0,0,0-.28-7.49,30,30,0,0,1-12.65-2.06,20.7,20.7,0,0,1-9-7,22,22,0,0,1-4-11,33.63,33.63,0,0,1,1.6-13.35,49.93,49.93,0,0,1,7.13-14A61.4,61.4,0,0,1,80.15,95.68,59.67,59.67,0,0,1,95.25,87a45.74,45.74,0,0,1,14.84-3.22,29.82,29.82,0,0,1,12.65,2.06,20.68,20.68,0,0,1,9,7,22,22,0,0,1,4,11,33.56,33.56,0,0,1-1.6,13.34,3.75,3.75,0,1,0,7.15,2.25A41.05,41.05,0,0,0,143.17,103a29.48,29.48,0,0,0-5.4-14.64,28.06,28.06,0,0,0-12.16-9.48,37.34,37.34,0,0,0-15.8-2.63A53.25,53.25,0,0,0,92.54,80a67.48,67.48,0,0,0-17,9.76A69.41,69.41,0,0,0,61.82,104a57.76,57.76,0,0,0-8.18,16.1,41.05,41.05,0,0,0-1.91,16.32A29.41,29.41,0,0,0,57.13,151.07Z"/><path class="e" d="M92.48,198.94a3.75,3.75,0,0,0,5.23-.87,69.06,69.06,0,0,0,9.83-19.37,49.16,49.16,0,0,0,2.3-19.53,35,35,0,0,0-6.42-17.42A33.27,33.27,0,0,0,89,130.49a44.51,44.51,0,0,0-18.88-3.14,3.75,3.75,0,0,0,.28,7.49A37.29,37.29,0,0,1,86.1,137.4a26,26,0,0,1,11.26,8.75,27.64,27.64,0,0,1,5,13.75,41.66,41.66,0,0,1-2,16.55,61.41,61.41,0,0,1-8.79,17.26A3.76,3.76,0,0,0,92.48,198.94Z"/><path class="e" d="M81.18,215.22a3.74,3.74,0,1,0-4.61-5.9A73.32,73.32,0,0,1,58,220a56.65,56.65,0,0,1-18.32,4,37.26,37.26,0,0,1-15.73-2.57,26,26,0,0,1-11.26-8.75,27.6,27.6,0,0,1-5-13.74,41.69,41.69,0,0,1,2-16.56,3.75,3.75,0,1,0-7.15-2.25A49.18,49.18,0,0,0,.2,199.64a34.92,34.92,0,0,0,6.42,17.41,33.22,33.22,0,0,0,14.45,11.27,43.65,43.65,0,0,0,16.86,3.17c.67,0,1.34,0,2,0A63.82,63.82,0,0,0,60.7,227,81,81,0,0,0,81.18,215.22Z"/><path class="e" d="M146.89,204.07h.1a3.84,3.84,0,0,0,3.5-2.23l39.92-78.27h37.06l2.84-7.81H154.44l-2.84,7.81h30.24l-38.37,75a3.87,3.87,0,0,0,3.42,5.49Z"/><path class="e" d="M212.88,185.6a3.79,3.79,0,0,0,1.62.37c1.4,0,1.62.34,2.27-1l42.11-86.4H313c3.27,0,5.56-4.19,1.8-7.49H256.64a3.75,3.75,0,0,0-3.47,2.12l-42,87.41A3.75,3.75,0,0,0,212.88,185.6Z"/><path class="e" d="M289.27,202.83h4.91l44.65-86.22a3.78,3.78,0,0,0,.32-2.91,3.82,3.82,0,0,0-1.82-2.29,3.88,3.88,0,0,0-1.85-.47,3.83,3.83,0,0,0-3.36,2l-44.94,86.38a2.38,2.38,0,0,0,2.09,3.52Z"/><path class="e" d="M348.61,194.62a4.59,4.59,0,0,0-.12-4.08,2.57,2.57,0,0,0-2.23-1H306.48l-4.16,7.65H345A3.84,3.84,0,0,0,348.61,194.62Z"/><path class="e" d="M481.66,134.2l15.41-21v14.42h5v-22a3.65,3.65,0,0,0,0-1.19,2.55,2.55,0,0,0-.28-.9,3.76,3.76,0,0,0-6.42-.64l-23,31.33h-49a2.56,2.56,0,0,0-2.59,2.25,2.49,2.49,0,0,0,2.48,2.74H468.7l-45.19,61.65a3.75,3.75,0,0,0,3,6h0a3.75,3.75,0,0,0,3-1.54L478,139.19h59.56a2.5,2.5,0,0,0,2.5-2.49h0a2.5,2.5,0,0,0-2.5-2.5Z"/><path class="e" d="M156.93,322.58a2.14,2.14,0,0,0,.1-.22l.06-.15.06-.19c0-.06,0-.12,0-.18s0-.12,0-.17l0-.22a.77.77,0,0,0,0-.15,1.93,1.93,0,0,0,0-.24s0-.07,0-.11v0c0-.08,0-.15,0-.23a.76.76,0,0,1,0-.15l0-.15a3.81,3.81,0,0,0-.37-1.17l0-.06-.07-.12a3.8,3.8,0,0,0-.73-.88l-.13-.12-.11-.08a1.33,1.33,0,0,0-.19-.14h0l-.09-.06-.21-.12-.14-.07-.19-.09-.17-.06-.18-.06-.2-.05-.15,0-.23,0-.13,0H114v7.48h32.67L85.09,418.82a3.75,3.75,0,1,0,6.28,4.1l65.3-99.87h0l0,0,0-.07.14-.24A1.17,1.17,0,0,0,156.93,322.58Z"/><path class="e" d="M519.92,272.64a3.73,3.73,0,0,0-5.22.87l-68.9,96.41a3.75,3.75,0,0,0,6.1,4.35l68.89-96.41A3.73,3.73,0,0,0,519.92,272.64Z"/><path class="e" d="M611.61,262.44a2.8,2.8,0,0,0-3.93.58L451.46,473.22a2.81,2.81,0,0,0,4.51,3.35l156.22-210.2A2.82,2.82,0,0,0,611.61,262.44Z"/><path class="e" d="M354.31,185.5a2.36,2.36,0,0,0,2.05,1.17h4.91l44.65-86.22a3.84,3.84,0,0,0-1.5-5.2,3.89,3.89,0,0,0-1.85-.48,3.82,3.82,0,0,0-3.36,2l-44.94,86.38A2.37,2.37,0,0,0,354.31,185.5Z"/><path class="e" d="M412.9,184.23a4.56,4.56,0,0,0-.11-4.08,2.57,2.57,0,0,0-2.23-1.06H370.78l-4.16,7.66h42.69A3.84,3.84,0,0,0,412.9,184.23Z"/><path class="e" d="M285,134.32a2.67,2.67,0,0,0-2.24-1.19h-34l-3.54,7.65H281a4.28,4.28,0,0,0,4.33-3A3.84,3.84,0,0,0,285,134.32Z"/><path class="e" d="M285.32,182.07a3.83,3.83,0,0,0-.38-3.48,2.67,2.67,0,0,0-2.24-1.19h-58l-3.9,7.65H281A4.28,4.28,0,0,0,285.32,182.07Z"/><path class="e" d="M353.54,388.67l47.77-74.73h45.95a2.5,2.5,0,0,0,0-5H404.5l14-21.94v17.51h4.37V279.39A3.74,3.74,0,0,0,416,277l-20.4,31.92H343.2a2.5,2.5,0,0,0,0,5h49.21l-45.18,70.68a3.75,3.75,0,0,0,6.31,4.05Z"/><path class="e" d="M418.52,338.08a2.19,2.19,0,0,0,2.19,2.16h0a2.19,2.19,0,0,0,2.16-2.21l-.21-19.26-4.37.05Z"/><path class="e" d="M242.67,324.21a2.17,2.17,0,0,0,2.17,2.19h0a2.18,2.18,0,0,0,2.18-2.17l.12-17.59h-4.37Z"/><path class="e" d="M270.79,302.4a2.5,2.5,0,1,0,0-5h-42L243.15,275,243,292h4.37l.23-25.31a2.15,2.15,0,0,0-.27-1,3.69,3.69,0,0,0-1.48-1.82,3.74,3.74,0,0,0-5.17,1.13l-20.82,32.48H188.55a2.5,2.5,0,1,0,0,5h28.1l-45.31,70.69a3.75,3.75,0,1,0,6.31,4l47.91-74.73Z"/><path class="e" d="M181.84,298.3a2.55,2.55,0,0,0-.4-.48,3.09,3.09,0,0,0-.48-.4,2.42,2.42,0,0,0-.55-.29,4.31,4.31,0,0,0-.61-.19,3.29,3.29,0,0,0-2.89.88,4.54,4.54,0,0,0-.39.48,3.37,3.37,0,0,0-.3.56,3,3,0,0,0-.18.6,3.23,3.23,0,0,0,.87,2.89,4.41,4.41,0,0,0,.49.39,3,3,0,0,0,.56.3,3.09,3.09,0,0,0,.59.18,2.69,2.69,0,0,0,.63.06,2.56,2.56,0,0,0,.62-.06,3.28,3.28,0,0,0,.61-.18,2.94,2.94,0,0,0,.55-.3,3,3,0,0,0,.48-.39,3.22,3.22,0,0,0,.88-2.89,3,3,0,0,0-.18-.6A3.37,3.37,0,0,0,181.84,298.3Z"/><path class="e" d="M347.71,396.67a4.25,4.25,0,0,0-.29-.56,3,3,0,0,0-.4-.48,3.09,3.09,0,0,0-.48-.4,2.71,2.71,0,0,0-.56-.29,3.82,3.82,0,0,0-.6-.19,3.24,3.24,0,0,0-2.89.88,3.56,3.56,0,0,0-.39.48,3.37,3.37,0,0,0-.3.56,3,3,0,0,0-.18.6,3.27,3.27,0,0,0-.07.62,3.22,3.22,0,0,0,.94,2.27,3.25,3.25,0,0,0,2.27.93,3.34,3.34,0,0,0,.62-.06,3,3,0,0,0,.6-.18,3.37,3.37,0,0,0,.56-.3,3,3,0,0,0,.48-.39,3.22,3.22,0,0,0,.94-2.27,3.26,3.26,0,0,0-.06-.62A2.47,2.47,0,0,0,347.71,396.67Z"/><path class="e" d="M521.54,239.51a3.17,3.17,0,0,0,.4.49,2.76,2.76,0,0,0,.49.4,3.6,3.6,0,0,0,.55.29,3,3,0,0,0,.6.18,2.62,2.62,0,0,0,.62.07,2.7,2.7,0,0,0,.63-.07,3.18,3.18,0,0,0,.6-.18,3.6,3.6,0,0,0,.55-.29,3.17,3.17,0,0,0,.49-.4,3.88,3.88,0,0,0,.4-.49,3.6,3.6,0,0,0,.29-.55,3.18,3.18,0,0,0,.18-.6,3.37,3.37,0,0,0,.07-.62,3.2,3.2,0,0,0-.07-.63,3,3,0,0,0-.18-.6,3.19,3.19,0,0,0-.29-.55,3.88,3.88,0,0,0-.4-.49,3.17,3.17,0,0,0-.49-.4,3.6,3.6,0,0,0-.55-.29,3,3,0,0,0-.6-.19,3.21,3.21,0,0,0-2.89.88,3.17,3.17,0,0,0-.4.49,4.1,4.1,0,0,0-.3.55,3,3,0,0,0-.18.6,3.21,3.21,0,0,0-.06.63,3.34,3.34,0,0,0,.06.62,2.61,2.61,0,0,0,.19.6A3.6,3.6,0,0,0,521.54,239.51Z"/><path class="e" d="M526.61,265.93a3,3,0,0,0-.3-.56,3.09,3.09,0,0,0-.4-.48A3.21,3.21,0,0,0,523,264a3.42,3.42,0,0,0-.6.18,3.65,3.65,0,0,0-.55.3,3.29,3.29,0,0,0-.89.88,3.71,3.71,0,0,0-.29.56,3.09,3.09,0,0,0-.18.59,3.34,3.34,0,0,0,0,1.26,3.09,3.09,0,0,0,.18.59,3.71,3.71,0,0,0,.29.56,3.17,3.17,0,0,0,.4.49,3.28,3.28,0,0,0,2.27.94,3.24,3.24,0,0,0,2.26-.94,3.17,3.17,0,0,0,.4-.49,3,3,0,0,0,.3-.56,4,4,0,0,0,.18-.59,3.34,3.34,0,0,0,0-1.26A4,4,0,0,0,526.61,265.93Z"/><path class="e" d="M92.54,161.19a3.14,3.14,0,0,0,.89.89,3.6,3.6,0,0,0,.55.29,4.62,4.62,0,0,0,.6.19,3.36,3.36,0,0,0,.63.06,3.21,3.21,0,0,0,2.26-.94,3.17,3.17,0,0,0,.4-.49,4.83,4.83,0,0,0,.3-.55,3.15,3.15,0,0,0,.17-.6,2.68,2.68,0,0,0,.07-.62,2.65,2.65,0,0,0-.07-.63,3.15,3.15,0,0,0-.17-.6,3.22,3.22,0,0,0-.3-.55,3.15,3.15,0,0,0-1.44-1.18,2.59,2.59,0,0,0-.6-.18,2.93,2.93,0,0,0-1.25,0,2.74,2.74,0,0,0-.6.18,3.6,3.6,0,0,0-.55.29,3.19,3.19,0,0,0-1.36,2,2.65,2.65,0,0,0-.07.63,2.68,2.68,0,0,0,.07.62,3.18,3.18,0,0,0,.18.6A3.6,3.6,0,0,0,92.54,161.19Z"/><path class="e" d="M568.05,307.91l4.48-5.1-39.3-58.54a4.71,4.71,0,0,0-3.72-2.3,2.52,2.52,0,0,0-2.23,1.26,4.55,4.55,0,0,0,.49,4.64Z"/><path class="e" d="M466.19,293.66a3.68,3.68,0,0,0-3,5.82l0,0,16.67,17.41,4.75-6-15.47-15.8A3.64,3.64,0,0,0,466.19,293.66Z"/><path class="e" d="M494.82,324.08l-4.75,6,15.47,16.42a3.68,3.68,0,0,0,5.85.12,3.69,3.69,0,0,0,.12-4.43l0,0Z"/><path class="e" d="M349.16,216.34a3.78,3.78,0,0,0-1.85-.48,3.83,3.83,0,0,0-3.36,2l-81.15,152a2.37,2.37,0,0,0,2.08,3.51h4.91l80.87-151.77A3.84,3.84,0,0,0,349.16,216.34Z"/><path class="e" d="M318.26,363h-38.8l-3.89,7.65h42.69a3.82,3.82,0,0,0,3.13-6A3.79,3.79,0,0,0,318.26,363Z"/><path class="e" d="M405.62,201.51a2.26,2.26,0,1,0,2.25-2.18A2.22,2.22,0,0,0,405.62,201.51Z"/><path class="e" d="M432.22,234.28a2.26,2.26,0,1,0,2.26-2.19A2.22,2.22,0,0,0,432.22,234.28Z"/><path class="e" d="M447.25,237.62a1.88,1.88,0,0,0-2.43-.69c-5,2.45-14.23,4.17-23.89,5.37q.15-.26.33-.51a9.79,9.79,0,0,1,2.38-2.28,12.39,12.39,0,0,1,3.22-1.59,11.8,11.8,0,0,1,2-.46,1.87,1.87,0,1,0-.49-3.71,15.29,15.29,0,0,0-2.66.61,15.72,15.72,0,0,0-4.21,2.07,13.78,13.78,0,0,0-3.26,3.15,10.64,10.64,0,0,0-1.63,3.22c-2.88.31-5.74.58-8.51.81l5.66-10.24a8.93,8.93,0,0,0,1.21-2.89,8.59,8.59,0,0,0-.06-4,9.23,9.23,0,0,0-1.94-3.7,11.1,11.1,0,0,0-3.4-2.68,13.09,13.09,0,0,0-4.12-1.32,13.88,13.88,0,0,0-4.07,0l5.7-10.87a1.71,1.71,0,0,0-.73-2.05,1.85,1.85,0,0,0-2.45.76l0,0-11.37,21H380.75l8.15-13.18-4.3-.3-8.31,13.48H361.46a1.87,1.87,0,1,0,0,3.74H374l-14.24,23.1h0c-1.77,2.36-2.39,4.89-1.74,7.13a6.77,6.77,0,0,0,5.36,4.6,11,11,0,0,0,2.47.27,15.32,15.32,0,0,0,5.71-1.18l-1.4-3.47a10.5,10.5,0,0,1-6,.73,3.2,3.2,0,0,1-2.58-2,3.63,3.63,0,0,1,.3-2.45l16.54-26.74h12.05l-4.51,8.3,4.42.09,8.55-16.29a9.12,9.12,0,0,1,2.75-.93,10.16,10.16,0,0,1,3.21,0,9.47,9.47,0,0,1,2.94.94,7.48,7.48,0,0,1,2.27,1.78,5.61,5.61,0,0,1,1.17,2.2,4.71,4.71,0,0,1,0,2.24,5.23,5.23,0,0,1-.48,1.3h0l-.26.48a3.28,3.28,0,0,1-.27.38l0,0L403.63,244c-9.57.7-17.07.93-17.81,1h-.06a2,2,0,0,0-1,.38,1.89,1.89,0,0,0-.33,2.63l10.68,13.74a1.88,1.88,0,0,0,1.48.72,1.9,1.9,0,0,0,1.15-.39,1.79,1.79,0,0,0,.53-.67l0,0L406,247.51c3.28-.26,6.77-.57,10.3-.94a9.82,9.82,0,0,0,.27,1.31,8.33,8.33,0,0,0,2.13,3.5,10.13,10.13,0,0,0,3.58,2.26,13.11,13.11,0,0,0,4.58.79,15.47,15.47,0,0,0,4.78-.77,15.66,15.66,0,0,0,4.2-2.07,19.43,19.43,0,0,0,2.48-2.08,2,2,0,0,0-2.24-3.28h0a9.79,9.79,0,0,1-2.38,2.28,12.18,12.18,0,0,1-3.21,1.59,10.82,10.82,0,0,1-6.89,0,6.3,6.3,0,0,1-2.26-1.41,4.56,4.56,0,0,1-1.18-1.92c-.06-.21-.1-.43-.14-.65,10.46-1.24,20.73-3.1,26.48-5.86A1.88,1.88,0,0,0,447.25,237.62Zm-50.91,19.51-6.71-8.65c2.77-.12,6.95-.32,11.86-.65Z"/><path class="e" d="M499.38,144.9a2.56,2.56,0,0,0-2.25,2.59v25.45a2.5,2.5,0,0,0,2.51,2.5h0a2.51,2.51,0,0,0,2.49-2.5V147.38A2.5,2.5,0,0,0,499.38,144.9Z"/><path class="a" d="M453.86,38.09l-21.57,40a1.63,1.63,0,0,0,.67,2.22,1.58,1.58,0,0,0,.77.2,1.66,1.66,0,0,0,1.45-.86l22.47-41.45Z"/><path class="b" d="M257.72,40.44a.36.36,0,0,0-.44.22L244.87,77.85H242.8L255,43.34h0l.69-2.13a1.42,1.42,0,0,0-.2-1.29,1.44,1.44,0,0,0-1.17-.6,1.41,1.41,0,0,0-.6.13L237.4,46.79a3.08,3.08,0,0,0-1.54,1.8,1.74,1.74,0,0,0,.24,1.58,1.78,1.78,0,0,0,1.44.74,1.69,1.69,0,0,0,.78-.18l10-4.43L237.15,77.85H224.52a2,2,0,0,0,0,4h25.92v-4h-4.85l12.34-37A.35.35,0,0,0,257.72,40.44Z"/><path class="c" d="M296,8.21A.2.2,0,0,1,296,8c.29-.49.58-1,.86-1.49l.09-.15a.1.1,0,0,0-.08-.14h-1.89a.2.2,0,0,1-.2-.12c-.27-.49-.56-1-.84-1.45v0a.1.1,0,0,0-.16,0l-.83,1.46a.23.23,0,0,1-.22.13H290.8a.1.1,0,0,0-.08.14v0c.31.54.62,1.08.94,1.62a.21.21,0,0,1,0,.23l-.93,1.63h0a.09.09,0,0,0,.08.13h1.89c.1,0,.15,0,.19.11l.76,1.31.09.16a.09.09,0,0,0,.16,0h0c.28-.48.56-1,.83-1.45A.24.24,0,0,1,295,10h1.87a.09.09,0,0,0,.08-.13v0C296.58,9.29,296.27,8.75,296,8.21Z"/><path class="c" d="M393.17,3.62a.2.2,0,0,1,0-.22c.29-.49.58-1,.86-1.49l.09-.15a.1.1,0,0,0-.08-.14h-1.89a.2.2,0,0,1-.2-.12c-.27-.49-.56-1-.84-1.45V0A.09.09,0,0,0,391,0c-.29.5-.56,1-.83,1.46a.23.23,0,0,1-.22.13H388a.09.09,0,0,0-.08.14v0l.93,1.62a.2.2,0,0,1,0,.23l-.94,1.63h0a.09.09,0,0,0,.08.13h1.89a.19.19,0,0,1,.19.11l.76,1.31L391,7a.09.09,0,0,0,.16,0h0c.28-.48.56-1,.83-1.45a.23.23,0,0,1,.23-.13H394a.09.09,0,0,0,.08-.13v0C393.8,4.7,393.49,4.16,393.17,3.62Z"/><path class="c" d="M461.08,10.1l.76,1.31.1.16h.15c.28-.48.56-1,.83-1.45a.25.25,0,0,1,.23-.13H465a.09.09,0,0,0,.08-.13v0c-.31-.55-.62-1.09-.94-1.63a.22.22,0,0,1,0-.22c.29-.49.58-1,.86-1.49l.09-.15a.1.1,0,0,0-.08-.14h-1.89a.2.2,0,0,1-.2-.12c-.27-.49-.56-1-.84-1.45v0a.1.1,0,0,0-.16,0l-.83,1.46a.23.23,0,0,1-.22.13H459a.1.1,0,0,0-.08.14v0c.31.54.62,1.08.94,1.62a.2.2,0,0,1,0,.23l-.93,1.63h0A.09.09,0,0,0,459,10h1.89C461,10,461,10,461.08,10.1Z"/><path class="c" d="M518.34,6.9a.2.2,0,0,1,0-.22l.86-1.49c0-.05,0-.1.08-.16a.09.09,0,0,0-.07-.13h-1.89c-.1,0-.16,0-.2-.11l-.84-1.46h0a.09.09,0,0,0-.16,0c-.28.5-.56,1-.83,1.45a.2.2,0,0,1-.22.13h-1.88a.09.09,0,0,0-.08.13l0,0c.31.54.61,1.08.93,1.62a.21.21,0,0,1,0,.23c-.32.54-.63,1.08-.94,1.62v0a.09.09,0,0,0,.08.13h1.9a.19.19,0,0,1,.19.1c.24.44.5.88.75,1.31l.1.17a.09.09,0,0,0,.15,0h0c.28-.48.56-1,.83-1.45a.23.23,0,0,1,.23-.13h1.88a.08.08,0,0,0,.07-.13v0C519,8,518.66,7.44,518.34,6.9Z"/><path class="c" d="M472,47.62a.17.17,0,0,1,0-.19l.75-1.3.08-.14a.08.08,0,0,0-.07-.11h-1.65a.17.17,0,0,1-.18-.1l-.73-1.27h0a.08.08,0,0,0-.13,0l-.73,1.27a.2.2,0,0,1-.19.11h-1.65a.07.07,0,0,0-.06.11v0l.81,1.41a.17.17,0,0,1,0,.2l-.82,1.42h0a.08.08,0,0,0,.06.12h1.66a.17.17,0,0,1,.17.09c.21.38.44.76.66,1.14a1.09,1.09,0,0,0,.08.15.08.08,0,0,0,.13,0h0c.25-.42.49-.84.73-1.27a.21.21,0,0,1,.2-.12h1.64a.09.09,0,0,0,.07-.12l0,0Z"/><path class="c" d="M203.27,49.25l-17-5,5.62-11.67a.81.81,0,0,0-.18-1,.8.8,0,0,0-1-.09l-9.88,5.89L176,13.29a1.23,1.23,0,0,0-1.19-1,1.21,1.21,0,0,0-1.19,1L168.8,37.45l-9.88-5.89a.8.8,0,0,0-1,.09.81.81,0,0,0-.18,1l5.62,11.67-17,5a1.21,1.21,0,0,0,0,2.32l17.13,5-5.76,12.5a.82.82,0,0,0,.21,1,.82.82,0,0,0,1,.06l9.91-6.43,4.79,23.86a1.21,1.21,0,0,0,1.19,1,1.23,1.23,0,0,0,1.19-1l4.84-24.16,9.88,5.9a.88.88,0,0,0,.42.11.8.8,0,0,0,.54-.21.81.81,0,0,0,.18-1l-5.62-11.67,17-5a1.2,1.2,0,0,0,0-2.32ZM184.7,43.81,182,43l-.78-3.88,8.06-4.81Zm-16.24-4.68L167.69,43l-2.71.8-4.58-9.49ZM165.1,57.05l2.59.76.83,4.16-8.11,5.26Zm16.11,4.64.78-3.88,2.71-.8,4.57,9.49Zm3.4-7.18-4,1.18a1.21,1.21,0,0,0-.85.92l-1,5-3.91,19.49L171,61.87h0l-1.05-5.26a1.21,1.21,0,0,0-.85-.92l-3.9-1.15-14.12-4.13,14-4.1,4-1.18a1.21,1.21,0,0,0,.85-.92l1-5,3.91-19.49,3.91,19.49,1,5a1.21,1.21,0,0,0,.85.92l4,1.18,14,4.1Z"/><path class="c" d="M174.7,49.17v-15a.16.16,0,0,0-.32,0V49.16l-.61.67H160.65a.16.16,0,0,0-.16.16.17.17,0,0,0,.16.17H174l.38.42V68.73a.16.16,0,0,0,.32,0V50.57l.37-.41h13.76a.17.17,0,1,0,0-.33H175.3Z"/><path class="d" d="M394,41.27,380.74,67.13a1.65,1.65,0,0,0-.1,1.25,1.68,1.68,0,0,0,.81,1,1.66,1.66,0,0,0,.75.18,1.63,1.63,0,0,0,1.46-.89l14.16-27.32Z"/><path class="e" d="M236.35,30.08a7.27,7.27,0,1,0-7.27-7.26A7.27,7.27,0,0,0,236.35,30.08Zm0-11.91a4.65,4.65,0,1,1-4.64,4.65A4.65,4.65,0,0,1,236.35,18.17Z"/><path class="e" d="M253.55,21.15a6.48,6.48,0,0,0,4.21,1.55,4.78,4.78,0,0,0,.53,0l-.21-2.61a3.87,3.87,0,0,1-4.18-3.56,3.83,3.83,0,0,1,.91-2.83,3.88,3.88,0,0,1,2.64-1.36,3.92,3.92,0,0,1,4,2.58A1.31,1.31,0,1,0,263.9,14,6.35,6.35,0,0,0,262,11.24a6.51,6.51,0,1,0-8.43,9.91Z"/><path class="e" d="M252.05,29.93a7.1,7.1,0,0,0,2.07,1.14,8,8,0,0,0,2.7.47,7.82,7.82,0,0,0,.82-15.6h0l-.31,2.86h0a4.94,4.94,0,1,1-4.38,8,5,5,0,0,1-1.06-2.49,1.44,1.44,0,1,0-2.85.37A7.89,7.89,0,0,0,252.05,29.93Z"/><path class="e" d="M295.17,16a1.32,1.32,0,0,0-2.63,0V29.53h2.63Z"/><path class="e" d="M336.57,30.76a6.9,6.9,0,0,0,6.88-6.46h0a13.84,13.84,0,0,0,0-2.73,13.7,13.7,0,0,0-.54-2.62,14,14,0,0,0-1-2.46,13.64,13.64,0,0,0-3.36-4.11,13.75,13.75,0,0,0-2.26-1.52,11.18,11.18,0,0,0-1.21-.58,1.32,1.32,0,0,0-1.79.82,1.31,1.31,0,0,0,.73,1.58c.35.14.69.31,1,.48a10.9,10.9,0,0,1,1.83,1.24,11.21,11.21,0,0,1,1.54,1.54,11.87,11.87,0,0,1,1.12,1.67,6.89,6.89,0,1,0-2.9,13.15Zm0-11.17a4.27,4.27,0,1,1-4.27,4.27A4.28,4.28,0,0,1,336.57,19.59Z"/><path class="e" d="M357.32,29.34h.21a8,8,0,0,0,5.68-2.52L361.31,25a5.51,5.51,0,0,1-7.78.2,5.51,5.51,0,0,1,7.59-8l1.8-1.9a8.13,8.13,0,1,0-5.6,14Z"/><path class="e" d="M271.42,22v7.9H274V21.63a3.88,3.88,0,0,1,7.74.06v8.5h2.63V22h0c0-.09,0-.18,0-.27v-.41h0A6.5,6.5,0,0,0,274,16.74V7.91a1.31,1.31,0,1,0-2.62,0V21.63c0,.11,0,.22,0,.33Z"/><path class="e" d="M307.12,20.09a3,3,0,0,1,.63-.91,2.83,2.83,0,0,1,1-.66,3.12,3.12,0,0,1,2.4,0,2.83,2.83,0,0,1,1,.66,3,3,0,0,1,.66,1,2.88,2.88,0,0,1,.23,1.09v8.94h2.62V21.36h0a1.64,1.64,0,0,0,0-.22v-.36h0a5.74,5.74,0,0,0-.42-1.64l0,0,.08.08a3.07,3.07,0,0,1,4.36,0,3,3,0,0,1,.89,2.07v8.94h2.63V21.36h0c0-.08,0-.15,0-.23v-.35h0a5.7,5.7,0,0,0-9.43-3.72,5.8,5.8,0,0,0-1.53-1,5.7,5.7,0,0,0-4.44,0,6.45,6.45,0,0,0-.59.29V11.14a1.31,1.31,0,0,0-2.62,0V29.93h2.62Z"/><path class="e" d="M369.65,21.87v6.59h2.62V21.53a3.88,3.88,0,0,1,7.74.07v7.19h2.62V21.87h0c0-.09,0-.18,0-.27v-.41h0a6.54,6.54,0,0,0-1.87-3.92,6.51,6.51,0,0,0-8.47-.62V5.2a1.31,1.31,0,0,0-2.62,0V21.53c0,.12,0,.23,0,.34Z"/><path class="e" d="M392.38,11.37a1.31,1.31,0,0,0-2.62,0V29.53h2.62Z"/><path class="e" d="M449.18,27a13.85,13.85,0,0,0,1.34,2.29c.24.33.48.64.74.94a1.32,1.32,0,0,0,2,0,1.29,1.29,0,0,0,0-1.73c-.22-.26-.42-.52-.62-.79a11.6,11.6,0,0,1-1.09-1.86,11.26,11.26,0,0,1-1-4.24l-2.62.11a12.92,12.92,0,0,0,.38,2.7A13.33,13.33,0,0,0,449.18,27Z"/><path class="e" d="M463.37,16a1.32,1.32,0,0,0-2.63,0V29.53h2.63Z"/><path class="e" d="M462.09,11.57h-.15A.08.08,0,0,0,462.09,11.57Z"/><path class="e" d="M475.06,22.5a6.48,6.48,0,0,0,4.21,1.55,4.61,4.61,0,0,0,.53,0l-.21-2.61a3.89,3.89,0,1,1,2.21-6.83,3.79,3.79,0,0,1,1.14,1.66,1.32,1.32,0,1,0,2.48-.88,6.51,6.51,0,1,0-10.36,7.13Z"/><path class="e" d="M477.24,31.42a8.14,8.14,0,0,0,1.1.08,7.16,7.16,0,0,0,5.7-2.85,6.91,6.91,0,0,0,1-1.83,7.14,7.14,0,0,0-5.95-9.53l-.28,2.61a4.49,4.49,0,1,1-4.95,5,1.31,1.31,0,0,0-2.61.25,7.11,7.11,0,0,0,6,6.24Z"/><path class="e" d="M494.63,27.13A7.57,7.57,0,0,0,503,28.76a7.44,7.44,0,0,0,2.41-1.63,7.29,7.29,0,0,0,.84-1,1.31,1.31,0,1,0-2.15-1.5,4.78,4.78,0,0,1-.54.65,5,5,0,0,1-8.09-1.58,5.09,5.09,0,0,1,0-3.86,5,5,0,0,1,1.07-1.58,5.1,5.1,0,0,1,1.58-1.06,4.41,4.41,0,0,1,.87-.28A1.31,1.31,0,0,0,500,15.64V15.5a1.2,1.2,0,0,0-1.4-1.19,8,8,0,0,0-1.56.47,7.55,7.55,0,0,0-2.41,1.63,7.59,7.59,0,0,0,0,10.72Z"/><path class="e" d="M499.9,22.42a12.82,12.82,0,0,0,2.29-1.13,13.49,13.49,0,0,0,2-1.53c.25-.24.49-.48.72-.73a1.33,1.33,0,0,0-.19-2,1.3,1.3,0,0,0-1.73.18c-.19.2-.39.4-.59.59a9.87,9.87,0,0,1-1.59,1.22A19.33,19.33,0,0,1,499,20Z"/><path class="e" d="M419,20.24l1.7-2a5.23,5.23,0,0,1,5.92-8.55,1.29,1.29,0,0,0,1.61-.31,1.31,1.31,0,0,0-.32-2A7.89,7.89,0,0,0,417,10.84a7,7,0,0,0-.67,2.09A7.84,7.84,0,0,0,419,20.24Z"/><path class="e" d="M421.61,32.13a9.63,9.63,0,0,0,1.31.1,8.57,8.57,0,0,0,5.39-1.91,8.68,8.68,0,0,0,3-8.58,6,6,0,0,0-.34-1.17A8.68,8.68,0,0,0,423.82,15l-.28,2.61a6,6,0,1,1-5.31,9.73A6,6,0,0,1,416.91,24a1.28,1.28,0,0,0-1.16-1.18,1.3,1.3,0,0,0-1.45,1.38,8.6,8.6,0,0,0,7.31,7.91Z"/><path class="e" d="M431.23,13.14a1.69,1.69,0,1,0-1.69-1.69A1.69,1.69,0,0,0,431.23,13.14Z"/><path class="e" d="M517.56,14.65a1.32,1.32,0,1,0-2.63,0V32.81h2.63Z"/><path class="e" d="M206.91,12a1.31,1.31,0,0,0-1.31,1.31V29.83h2.62V13.27A1.3,1.3,0,0,0,206.91,12Z"/><path class="e" d="M214.18,20.34h6.69V39h2.62V8.23h-2.62v9.49h-6.69a1.31,1.31,0,0,0,0,2.62Z"/><path class="e" d="M206.91,8.43a1.69,1.69,0,1,0-1.68-1.69A1.69,1.69,0,0,0,206.91,8.43Z"/><path class="e" d="M340.42,58.79l.46.39,2.57-3-.47-.39a4.9,4.9,0,0,1-1.7-3.33,4.88,4.88,0,0,1,4.47-5.25l.41,0a4.81,4.81,0,0,1,2.35.61,1.94,1.94,0,0,0,.94.25,2,2,0,0,0,2-2.35,1.91,1.91,0,0,0-1-1.35,8.88,8.88,0,0,0-4.31-1.12q-.36,0-.72,0a8.84,8.84,0,0,0-5,15.55Z"/><path class="e" d="M339.14,69.63a8.75,8.75,0,0,0,2.43,1.3,10.11,10.11,0,0,0,3.33.58,9.51,9.51,0,0,0,6-2.14,9.69,9.69,0,0,0,3.4-9.59,7.53,7.53,0,0,0-.39-1.33,9.7,9.7,0,0,0-8-6.2l-.61-.07-.42,3.94.61.07a5.69,5.69,0,0,1-.6,11.35c-.2,0-.41,0-.61,0a5.7,5.7,0,0,1-5.08-5.26,2,2,0,0,0-1.76-1.81h-.21a2,2,0,0,0-1.46.63,1.93,1.93,0,0,0-.52,1.46A9.65,9.65,0,0,0,339.14,69.63Z"/><path class="e" d="M353.62,50.86a1.76,1.76,0,1,0-1.76-1.76A1.76,1.76,0,0,0,353.62,50.86Z"/><path class="e" d="M217.13,80a1.65,1.65,0,1,0,1.64-1.65A1.65,1.65,0,0,0,217.13,80Z"/><path class="e" d="M468.32,54.2V69.67h4V54.2a2,2,0,1,0-4,0Z"/><polygon class="e" points="458.3 68.82 442.27 68.82 440.35 72.17 458.3 72.17 458.3 68.82"/><path class="e" d="M431.93,84.81A1.79,1.79,0,1,0,430.14,83,1.79,1.79,0,0,0,431.93,84.81Z"/><path class="e" d="M488.54,66l2.16-3.43-6.16-6.29a2,2,0,0,0-2.82,2.76Z"/><path class="e" d="M489,69.35a1.62,1.62,0,0,0,.61,2.23,1.52,1.52,0,0,0,.81.22,1.63,1.63,0,0,0,1.42-.83l13.54-23.6-3.8,0Z"/><path class="e" d="M510.72,67.65a9.09,9.09,0,0,0,6.44,2.67,8.93,8.93,0,0,0,3.54-.72,9.12,9.12,0,0,0,4.85-4.84l.24-.56-3.65-1.55-.24.57A5.13,5.13,0,0,1,519.16,66a5.08,5.08,0,0,1-4,0,4.93,4.93,0,0,1-1.64-1.1A5.15,5.15,0,0,1,512,61.21a5.08,5.08,0,0,1,.41-2,5.31,5.31,0,0,1,1.1-1.64,5.2,5.2,0,0,1,2.65-1.41,2,2,0,0,0-.36-3.93,1.47,1.47,0,0,0-.36,0,8.47,8.47,0,0,0-1.84.55,9.27,9.27,0,0,0-2.89,2,9.1,9.1,0,0,0,0,12.88Z"/><path class="e" d="M521.43,54.68c-1.09,3-2.47,3.77-5,4.27l-.6.12.78,3.89.6-.12c3.5-.7,6.18-2.13,7.89-6.79a2,2,0,0,0-.09-1.6,1.93,1.93,0,0,0-1.22-1,1.64,1.64,0,0,0-.54-.08A2,2,0,0,0,521.43,54.68Z"/><path class="e" d="M373.6,58.64a4.81,4.81,0,0,1,.09.93A4.81,4.81,0,0,1,370.77,64a4.9,4.9,0,0,1-1.86.37A5,5,0,0,1,367,64a4.87,4.87,0,0,1-1.52-1,4.79,4.79,0,0,1,3.39-8.17h.61v-4h-.61a8.76,8.76,0,0,0-6.19,2.56,8.84,8.84,0,0,0-1.87,2.78,8.77,8.77,0,0,0,4.65,11.47,8.75,8.75,0,0,0,6.81,0,8.6,8.6,0,0,0,2.78-1.88,8.65,8.65,0,0,0,2.56-6.18,9.46,9.46,0,0,0-.17-1.76,2,2,0,0,0-1.93-1.54,1.91,1.91,0,0,0-.78.16A2,2,0,0,0,373.6,58.64Z"/><path class="e" d="M373.2,55.42a1.72,1.72,0,1,0-1.72-1.72A1.72,1.72,0,0,0,373.2,55.42Z"/><path class="e" d="M397.06,61.43l.37,0A2,2,0,0,0,399,59.48a4.22,4.22,0,0,1,.11-.93,4.67,4.67,0,0,1,.76-1.74,5,5,0,0,1,1.32-1.27,5.07,5.07,0,0,1,1.71-.68,5.14,5.14,0,0,1,.88-.08,5.05,5.05,0,0,1,1,.11,4.76,4.76,0,0,1,1.74.76A4.88,4.88,0,0,1,407.85,57a4.75,4.75,0,0,1,.68,1.7,4.68,4.68,0,0,1,0,1.9,4.74,4.74,0,0,1-2.09,3,4.57,4.57,0,0,1-1.7.68,4.37,4.37,0,0,1-.88.08,4.43,4.43,0,0,1-1-.11l-.6-.12L401.37,68l.6.13a9,9,0,0,0,1.86.2,8.88,8.88,0,0,0,1.62-.15,8.76,8.76,0,0,0,7-10.22,8.8,8.8,0,0,0-1.24-3.12,8.91,8.91,0,0,0-2.32-2.42A8.8,8.8,0,0,0,405.68,51a9,9,0,0,0-1.86-.2,8.88,8.88,0,0,0-1.62.15,8.72,8.72,0,0,0-6.92,6.75,7.89,7.89,0,0,0-.2,1.75,1.91,1.91,0,0,0,.55,1.37A2.05,2.05,0,0,0,397.06,61.43Z"/><path class="e" d="M398.39,66.1a1.71,1.71,0,0,0,.93-.27,1.71,1.71,0,1,0-2.6-1.8h0a1.71,1.71,0,0,0,1.31,2A1.47,1.47,0,0,0,398.39,66.1Z"/><path class="e" d="M525.32,53.1a1.79,1.79,0,1,0-1.79-1.79A1.8,1.8,0,0,0,525.32,53.1Z"/><path class="e" d="M268.05,65.12a7.86,7.86,0,0,0,5.1,1.88l.65,0,.61,0-.32-4-.61.05h-.33a3.92,3.92,0,0,1-.31-7.83h.33a3.86,3.86,0,0,1,2.53.93,3.92,3.92,0,0,1,1.18,1.75,2,2,0,0,0,1.89,1.39h.16a2,2,0,0,0,1.73-2.59,7.86,7.86,0,0,0-7.49-5.44c-.21,0-.43,0-.65,0a7.88,7.88,0,0,0-4.47,13.86Z"/><path class="e" d="M275,70.48a4.55,4.55,0,0,1-2.89,1,4.19,4.19,0,0,1-.5,0,4.5,4.5,0,0,1-2.43-1,1.94,1.94,0,0,0-1.24-.44,2,2,0,0,0-2,2,2,2,0,0,0,.75,1.57,8.47,8.47,0,0,0,4.48,1.85,7.25,7.25,0,0,0,.93,0,8.43,8.43,0,0,0,5.37-1.9,8.65,8.65,0,0,0,3.13-7.87,7.87,7.87,0,0,0-.7-2.38,8.65,8.65,0,0,0-6.9-5l-.61-.06L272,62.22l.61.06a4.62,4.62,0,0,1,2.4,8.2Z"/><path class="e" d="M264.58,66.94a1.8,1.8,0,1,0,1.8,1.79A1.79,1.79,0,0,0,264.58,66.94Z"/><path class="e" d="M289.66,64.27l.1,0a8,8,0,0,0,6.05,8.25,8.07,8.07,0,0,0,1.95.24,7.88,7.88,0,0,0,2.5-.4,2,2,0,0,0,1-2.89,2,2,0,0,0-1.69-1,1.8,1.8,0,0,0-.6.1,4,4,0,0,1-1.24.2,4.19,4.19,0,0,1-1-.12,4,4,0,0,1-2.94-4.91l.15-.59h0l.95-4.54h7.83v-4h-7l1.53-7.32-3.93.05-1.57,7.27h-5.88v4h5Z"/><path class="e" d="M304.45,70.81A1.79,1.79,0,1,0,302.66,69,1.79,1.79,0,0,0,304.45,70.81Z"/><circle class="e" cx="487.82" cy="74.6" r="1.79"/><path class="e" d="M379.58,75.06a1.79,1.79,0,1,0-1.79-1.79A1.79,1.79,0,0,0,379.58,75.06Z"/><path class="e" d="M438.94,23.6V24h0a6.5,6.5,0,0,0,6.47,5.82,6.51,6.51,0,0,0,2.33-.43v-3a3.88,3.88,0,0,1-5.08-.36,3.82,3.82,0,0,1-1.12-2.47V15.76a1.32,1.32,0,0,0-2.63,0v7.57h0C438.93,23.42,438.94,23.51,438.94,23.6Z"/><path class="e" d="M179.43,254.92a4.39,4.39,0,0,0,3.4,1.61,4.29,4.29,0,0,0,2.54-.83l.24-.18a4.31,4.31,0,0,0,1.71-2.93,4.26,4.26,0,0,0-1-3.29,35.55,35.55,0,0,0-11.79-9.3,46.77,46.77,0,0,0-21-4.58A70,70,0,0,0,129.4,240a92,92,0,0,0-22.75,12.39,96.2,96.2,0,0,0-18.87,18.38,80.8,80.8,0,0,0-12.49,22.52,56.12,56.12,0,0,0-3.4,22.58,38.74,38.74,0,0,0,6,18.52A35.26,35.26,0,0,0,92,346.86a46.67,46.67,0,0,0,20.79,4.57v-7.71a39.42,39.42,0,0,1-15.6-3.88,30.14,30.14,0,0,1-12.12-10.72,33.12,33.12,0,0,1-5.12-15.92,48.79,48.79,0,0,1,3-19.6,70.78,70.78,0,0,1,10.9-19.66,84.46,84.46,0,0,1,16.51-16.07A80,80,0,0,1,130.19,247a61,61,0,0,1,21-4A40.38,40.38,0,0,1,169.38,247,30.48,30.48,0,0,1,179.43,254.92Z"/><path class="e" d="M295.24,242.67a11.41,11.41,0,0,0,.27,2.2,9.82,9.82,0,0,0,.69,2,9.3,9.3,0,0,0,1.07,1.8,9.2,9.2,0,0,0,1.42,1.5,9.06,9.06,0,0,0,1.75,1.14,8.85,8.85,0,0,0,2,.72,9.45,9.45,0,0,0,2.2.25,10.57,10.57,0,0,0,2.23-.24,10.9,10.9,0,0,0,2.12-.68,12.1,12.1,0,0,0,2-1.06,14.43,14.43,0,0,0,1.76-1.38,15.07,15.07,0,0,0,1.53-1.67,14,14,0,0,0,1.26-1.91,13.77,13.77,0,0,0,.95-2.12A13.25,13.25,0,0,0,317,241a12.18,12.18,0,0,0,.16-2.32,11.41,11.41,0,0,0-.27-2.2,10.53,10.53,0,0,0-.68-2,10.82,10.82,0,0,0-1.07-1.8,9.23,9.23,0,0,0-1.43-1.5,2.11,2.11,0,0,1-.23-.19,1.49,1.49,0,0,0-2.24.51l-.36.72a1.5,1.5,0,0,0,.42,1.83h0a5.39,5.39,0,0,1,.84.88,6.37,6.37,0,0,1,.65,1.1,6.86,6.86,0,0,1,.44,1.3,8.69,8.69,0,0,1,.18,1.47,9,9,0,0,1-.12,1.62,9.74,9.74,0,0,1-.42,1.65,10.44,10.44,0,0,1-2.75,4.19,10,10,0,0,1-1.27,1,9.29,9.29,0,0,1-1.38.75,8.79,8.79,0,0,1-1.43.46,6.6,6.6,0,0,1-2.8,0,4.88,4.88,0,0,1-1.18-.42,5.16,5.16,0,0,1-1-.66,5.06,5.06,0,0,1-.84-.89,5.46,5.46,0,0,1-.66-1.09,7.22,7.22,0,0,1-.61-2.77,8.13,8.13,0,0,1,.11-1.62,9.51,9.51,0,0,1,.42-1.65,11.39,11.39,0,0,1,.69-1.56l.21-.35a1.47,1.47,0,0,0-.25-1.8,1.68,1.68,0,0,0-1.23-.85,1.51,1.51,0,0,0-.76,0H283.35l8.69-17-4.44-.07-8.56,17h-9.16c.05-.24.1-.47.16-.73.09-.41.17-.74.21-.91a15.47,15.47,0,0,0,.4-2.59,13.32,13.32,0,0,0-.06-2.53,13,13,0,0,0-.53-2.43,11.62,11.62,0,0,0-1-2.24,10.56,10.56,0,0,0-1.49-2,10.36,10.36,0,0,0-2-1.58,10,10,0,0,0-2.28-1.05,10.48,10.48,0,0,0-2.43-.49,12.89,12.89,0,0,0-2.48.06c-.33,0-.65.11-1,.18l7.05-12.22-4.38-.16-16.42,28.68a2.09,2.09,0,0,0-.41.52c-6.23,11.81-10.7,12.72-12.33,12.55s-3.13-1.67-3.9-4c0-.88.06-1.89.11-2.71v-.15l.19-.27c.31-.46.61-.92.91-1.38s.59-.92.88-1.38.58-.92.85-1.38.56-.91.82-1.37.53-.9.79-1.35l.76-1.33.72-1.31.68-1.28.65-1.24c.21-.41.42-.81.61-1.2l.58-1.16c.19-.37.37-.74.54-1.1l.5-1c.16-.33.31-.66.46-1s.29-.62.42-.92.26-.57.38-.84.24-.52.34-.76l1.71-3.84-4-.25-1.09,2.58-.33.74c-.11.26-.24.54-.37.82s-.26.58-.41.89-.29.63-.45,1-.32.67-.48,1l-.53,1.08-.56,1.12-.6,1.17c-.2.4-.41.8-.63,1.21l-.67,1.24c-.22.42-.46.85-.7,1.27s-.48.86-.73,1.3l-.76,1.31c-.26.44-.53.88-.8,1.32s-.54.89-.82,1.33l-.06.1,0-.07a6.1,6.1,0,0,0-1.22-1.16,6.63,6.63,0,0,0-1.51-.81,7.82,7.82,0,0,0-1.71-.46,9.47,9.47,0,0,0-1.86-.09,11.53,11.53,0,0,0-1.91.26,13,13,0,0,0-1.84.57,14.5,14.5,0,0,0-3.35,1.88,14.55,14.55,0,0,0-1.45,1.26,13.12,13.12,0,0,0-1.26,1.44,11.61,11.61,0,0,0-1,1.6,10.19,10.19,0,0,0-.74,1.75,9.24,9.24,0,0,0-.37,1.81,7.37,7.37,0,0,0,0,1.76,6.55,6.55,0,0,0,.46,1.64,5.88,5.88,0,0,0,.87,1.44,6.35,6.35,0,0,0,1.22,1.15,7,7,0,0,0,1.5.82,8,8,0,0,0,1.71.45,9,9,0,0,0,1.39.1h.48a11.53,11.53,0,0,0,1.91-.26c.44-.1.86-.24,1.23-.36l0,0,0,.05a1.82,1.82,0,0,0,.27-.15l.13,0a1.86,1.86,0,0,0,1-.75,21.56,21.56,0,0,0,2.44-2.45c.35-.43.71-.86,1-1.29l.33-.42c1.33,3.44,3.84,5.63,6.86,5.93.22,0,.46,0,.7,0,3.37,0,8.28-2.33,14-12.15l.06,0,9-15.66c.35-.23.7-.46,1-.65a11.17,11.17,0,0,1,1.75-.76,9.2,9.2,0,0,1,1.75-.4,8,8,0,0,1,1.69,0,7,7,0,0,1,1.59.31,6.68,6.68,0,0,1,1.46.68,6.25,6.25,0,0,1,1.24,1,6.61,6.61,0,0,1,.95,1.26,7.88,7.88,0,0,1,.68,1.5,9.33,9.33,0,0,1,.37,1.7,10.34,10.34,0,0,1,0,1.85,11,11,0,0,1-.3,1.94c-.05.19-.13.54-.23,1s-.21.94-.35,1.55h-5.39a1.87,1.87,0,1,0,0,3.74h16.51l-3.32,6.59-.4.8-.2.41,0,0a12.06,12.06,0,0,0-.88,7.21,7.67,7.67,0,0,0,5.4,5.93,9,9,0,0,0,2.66.38,6.71,6.71,0,0,0,4.38-1.09l-.1-3.86a8,8,0,0,1-5.87,1,4,4,0,0,1-2.81-3.15,8.62,8.62,0,0,1,.79-5.22l4.61-9h14.43a15.31,15.31,0,0,0-.46,1.89A13.06,13.06,0,0,0,295.24,242.67Zm-73.79-.23-1,1.26-1,1.22a15,15,0,0,1-2.31,2.24c-.28.09-.55.18-.78.24a8.21,8.21,0,0,1-1.27.17,6,6,0,0,1-1.13,0,4,4,0,0,1-.89-.24,2.83,2.83,0,0,1-.69-.37,2.23,2.23,0,0,1-.5-.47,2.46,2.46,0,0,1-.34-.56,2.79,2.79,0,0,1-.19-.7,3.6,3.6,0,0,1,0-.87,5,5,0,0,1,.21-1,6.83,6.83,0,0,1,.48-1.13,7.79,7.79,0,0,1,.7-1.1,9.59,9.59,0,0,1,.91-1,10.65,10.65,0,0,1,1.07-.93,10.14,10.14,0,0,1,1.19-.78,9.17,9.17,0,0,1,1.27-.6,8,8,0,0,1,1.29-.4,7.06,7.06,0,0,1,1.27-.18,5.83,5.83,0,0,1,1.12.06,4.55,4.55,0,0,1,.9.23,3.22,3.22,0,0,1,.69.37,2.74,2.74,0,0,1,.49.47,2.36,2.36,0,0,1,.35.57,3.17,3.17,0,0,1,.18.64v.2l-.14.19c-.3.44-.61.87-.93,1.3S221.77,242,221.45,242.44Z"/><path class="e" d="M305.92,229.89a2.27,2.27,0,1,0,2.27-2.3A2.3,2.3,0,0,0,305.92,229.89Z"/><path class="e" d="M242.8,212.86a.09.09,0,0,1-.1.12l-1.88-.35a.24.24,0,0,0-.26.1L239.45,214h0a.09.09,0,0,1-.15,0c0-.07-.05-.13-.07-.19l-.51-1.45a.2.2,0,0,0-.17-.15l-1.91-.34a.1.1,0,0,1-.06-.15h0l1.25-1.47a.19.19,0,0,0,0-.23c-.21-.59-.42-1.19-.64-1.79v0a.09.09,0,0,1,.11-.11h0l1.88.35a.22.22,0,0,0,.24-.09c.36-.44.73-.86,1.11-1.31a.1.1,0,0,1,.16,0h0l.58,1.62a.18.18,0,0,0,.18.15l1.87.35h0a.09.09,0,0,1,0,.15,1.34,1.34,0,0,0-.11.14c-.38.45-.76.9-1.15,1.34a.2.2,0,0,0,0,.22c.22.6.43,1.2.64,1.81Z"/><circle class="e" cx="545.87" cy="55.04" r="1.72"/><path class="e" d="M348.34,434.52c-1.69-.73-3.38-1.49-5-2.26A1.56,1.56,0,1,0,342,435.1c1.68.78,3.4,1.55,5.11,2.28a1.5,1.5,0,0,0,.62.13,1.56,1.56,0,0,0,.62-3Z"/><path class="e" d="M368.73,442.14c-1.7-.54-3.43-1.12-5.13-1.7s-3.42-1.21-5.11-1.84a1.56,1.56,0,0,0-1.09,2.93c1.71.64,3.46,1.26,5.18,1.86s3.48,1.17,5.21,1.72a1.6,1.6,0,0,0,.47.08,1.57,1.57,0,0,0,1.49-1.09A1.55,1.55,0,0,0,368.73,442.14Z"/><path class="e" d="M456.9,450.71c-1.68.19-3.41.36-5.13.52s-3.45.28-5.15.39-3.46.2-5.17.27-3.47.12-5.18.15-3.47,0-5.19,0-3.47-.06-5.2-.11-3.49-.14-5.21-.24-3.5-.22-5.21-.36-3.5-.31-5.21-.5-3.49-.39-5.22-.62-3.5-.49-5.21-.76-3.46-.57-5.2-.89-3.48-.66-5.2-1-3.46-.74-5.19-1.15-3.47-.84-5.18-1.29a1.56,1.56,0,1,0-.79,3c1.73.45,3.5.89,5.25,1.31s3.53.81,5.27,1.17,3.52.71,5.27,1,3.55.63,5.29.91,3.51.53,5.28.76,3.54.45,5.29.64,3.52.35,5.29.5,3.51.27,5.29.37,3.53.18,5.28.24,3.54.09,5.28.11h1.85l3.42,0c1.73,0,3.5-.08,5.26-.15s3.49-.16,5.24-.27,3.49-.25,5.23-.4,3.5-.34,5.21-.53a1.56,1.56,0,0,0-.36-3.1Z"/><path class="e" d="M650,234.94c0-1.76-.07-3.53-.14-5.25s-.17-3.5-.28-5.25-.25-3.49-.4-5.22-.33-3.48-.53-5.21-.41-3.47-.65-5.19-.49-3.44-.77-5.17-.58-3.43-.9-5.14-.66-3.43-1-5.12-.74-3.4-1.14-5.08-.83-3.39-1.27-5.06-.9-3.35-1.38-5-1-3.32-1.5-5-1.06-3.31-1.62-4.95-1.14-3.29-1.74-4.9-1.21-3.26-1.85-4.87-1.29-3.21-2-4.81-1.37-3.19-2.08-4.77c-.5-1.11-1-2.22-1.53-3.31a1.56,1.56,0,0,0-2.08-.74h0a1.57,1.57,0,0,0-.74,2.08c.51,1.07,1,2.16,1.5,3.25.7,1.56,1.39,3.14,2.06,4.7s1.32,3.18,1.94,4.75,1.24,3.2,1.82,4.79,1.16,3.22,1.72,4.84,1.08,3.25,1.59,4.87,1,3.3,1.48,4.92.93,3.3,1.36,5,.86,3.32,1.25,5,.77,3.34,1.12,5,.7,3.36,1,5,.61,3.39.89,5.07.53,3.42.76,5.09.45,3.42.64,5.12.37,3.43.52,5.13.29,3.45.4,5.15.2,3.46.27,5.17.11,3.45.14,5.18,0,3.48,0,5.19,0,3.48-.11,5.2-.13,3.49-.23,5.21-.23,3.48-.37,5.21-.31,3.48-.49,5.22-.4,3.48-.63,5.21-.48,3.48-.75,5.21-.58,3.48-.89,5.2-.66,3.49-1,5.2-.75,3.49-1.16,5.19-.84,3.47-1.29,5.18-.92,3.45-1.42,5.17-1,3.46-1.56,5.15-1.11,3.43-1.7,5.13-1.2,3.42-1.83,5.11-1.3,3.42-2,5.09-1.39,3.39-2.12,5.07-1.49,3.38-2.25,5-1.57,3.33-2.38,5-1.64,3.26-2.49,4.89-1.72,3.21-2.6,4.79-1.8,3.17-2.71,4.71-1.86,3.1-2.81,4.62-1.94,3.05-2.91,4.52-2,3-3,4.43-2.06,2.92-3.11,4.34-2.13,2.85-3.21,4.24-2.18,2.77-3.3,4.15-2.25,2.72-3.39,4-2.3,2.65-3.48,3.95-2.38,2.6-3.57,3.86-2.43,2.52-3.65,3.75-2.48,2.45-3.74,3.65-2.52,2.38-3.81,3.55-2.6,2.33-3.89,3.45-2.62,2.24-4,3.35-2.69,2.19-4,3.24-2.75,2.13-4.12,3.15-2.76,2-4.18,3-2.83,2-4.25,2.93-2.86,1.9-4.31,2.82-2.91,1.83-4.37,2.72-3,1.76-4.44,2.61-3,1.68-4.49,2.49-3,1.62-4.55,2.39-3.07,1.55-4.6,2.28-3.1,1.46-4.66,2.17-3.13,1.39-4.7,2.05-3.16,1.32-4.75,1.94-3.19,1.24-4.79,1.83-3.22,1.16-4.84,1.71-3.25,1.09-4.87,1.6-3.22,1-4.83,1.45a1.63,1.63,0,0,0-1.18,1.86,1.58,1.58,0,0,0,1.53,1.23,1.59,1.59,0,0,0,.43-.06c1.66-.48,3.34-1,5-1.5s3.32-1.07,4.95-1.62,3.29-1.15,4.91-1.74,3.26-1.22,4.86-1.85,3.23-1.3,4.82-2,3.19-1.38,4.77-2.09,3.17-1.45,4.72-2.2,3.12-1.52,4.67-2.31,3.09-1.6,4.61-2.42,3.06-1.68,4.56-2.53,3-1.76,4.5-2.65,3-1.82,4.44-2.75,2.94-1.9,4.37-2.87,2.89-2,4.32-3,2.86-2.06,4.24-3.08,2.79-2.11,4.17-3.19,2.75-2.18,4.1-3.29,2.73-2.27,4-3.4,2.64-2.31,4-3.5,2.61-2.4,3.87-3.6,2.55-2.47,3.79-3.71,2.49-2.52,3.71-3.81,2.42-2.58,3.62-3.9,2.38-2.67,3.53-4,2.31-2.73,3.44-4.11,2.27-2.81,3.35-4.21,2.19-2.85,3.25-4.3,2.13-2.92,3.16-4.4,2.07-3,3.06-4.49,2-3,3-4.59,1.92-3.12,2.85-4.69,1.85-3.17,2.74-4.77,1.79-3.25,2.64-4.87,1.72-3.32,2.53-5,1.63-3.37,2.41-5.05,1.55-3.4,2.29-5.11,1.45-3.44,2.14-5.14,1.36-3.44,2-5.17,1.27-3.46,1.86-5.18,1.18-3.48,1.73-5.21,1.07-3.47,1.58-5.22,1-3.51,1.44-5.24.9-3.51,1.31-5.26.8-3.5,1.17-5.27.72-3.51,1-5.27.62-3.53.9-5.28.54-3.54.77-5.29.44-3.54.63-5.29.36-3.54.5-5.29.27-3.53.37-5.29.18-3.52.24-5.28.1-3.53.11-5.28S650,236.7,650,234.94Z"/><path class="e" d="M570.42,70.3c-1.38-1.13-2.8-2.26-4.2-3.35s-2.86-2.19-4.3-3.25-2.92-2.12-4.4-3.16-2.94-2-4.42-3a1.62,1.62,0,0,0-2.2.33,1.56,1.56,0,0,0,.4,2.22c1.48,1,3,2,4.43,3s2.92,2.07,4.33,3.11,2.85,2.13,4.24,3.21,2.78,2.18,4.15,3.3c1,.78,1.91,1.58,2.86,2.38a1.56,1.56,0,0,0,2.2-.17h0a1.56,1.56,0,0,0-.17-2.2C572.37,71.91,571.4,71.1,570.42,70.3Z"/><path class="e" d="M352.83,436.86A1.15,1.15,0,1,0,354,438,1.14,1.14,0,0,0,352.83,436.86Z"/><path class="e" d="M374.54,444.3a1.15,1.15,0,1,0,1.15,1.15A1.15,1.15,0,0,0,374.54,444.3Z"/><path class="c" d="M334.67,429.09c-1.08-1.87-2.14-3.75-3.24-5.62a.65.65,0,0,1,0-.75c1-1.71,2-3.43,3-5.15l.3-.53a.31.31,0,0,0-.27-.46h-.08c-2.15,0-4.3,0-6.44,0a.69.69,0,0,1-.7-.4c-1-1.68-1.92-3.35-2.89-5l0,0a.31.31,0,0,0-.53,0c-1,1.71-1.95,3.35-2.89,5a.75.75,0,0,1-.76.45c-2.14,0-4.29,0-6.44,0h-.05a.31.31,0,0,0-.27.46l.06.09c1.06,1.86,2.13,3.73,3.21,5.58a.68.68,0,0,1,0,.79l-3.23,5.62,0,.05a.31.31,0,0,0,.27.45h6.55a.65.65,0,0,1,.66.37q1.29,2.26,2.6,4.52l.34.57a.31.31,0,0,0,.53,0h0c1-1.66,1.93-3.32,2.87-5a.81.81,0,0,1,.8-.47c2.13,0,4.25,0,6.46,0a.3.3,0,0,0,.27-.45Z"/><circle class="b" cx="601.32" cy="204.81" r="3.47"/><path class="e" d="M506.36,220.48a3.17,3.17,0,0,1-2.63-5.18l79-96.55a3.17,3.17,0,1,1,4.91,4l-79,96.55A3.19,3.19,0,0,1,506.36,220.48Z"/><circle class="e" cx="560.56" cy="101.66" r="3.47"/><path class="e" d="M620.26,120.77A36.09,36.09,0,0,0,566.74,94l3.12,5.53a29.78,29.78,0,0,1,40.52,11.26A29.83,29.83,0,0,1,613.24,133a29.7,29.7,0,0,1-46.9,16,3.18,3.18,0,0,0-3.88,5,35.93,35.93,0,0,0,22,7.51,36.57,36.57,0,0,0,4.66-.3,36,36,0,0,0,31.15-40.4Z"/><path class="e" d="M591.66,205a3.47,3.47,0,0,1-.64-.06,31.75,31.75,0,0,1-24.75-37.45,3.17,3.17,0,1,1,6.22,1.27,25.38,25.38,0,0,0,19.8,30,3.17,3.17,0,0,1-.63,6.28Z"/></svg>