<svg xmlns="http://www.w3.org/2000/svg" viewBox="0 0 587.75 214.88"><defs><style>.a{fill:#f8ea21;}</style></defs><path class="a" d="M63,50.16l5.76-36.48H80.05L65.77,104.16H54.49l6.84-43.44H18.25l-6.84,43.44H.13L14.41,13.68H25.69L19.93,50.16Z"/><path class="a" d="M140.29,76.2c-2.64,16.92-18,29.88-34.8,29.88s-27.84-13-25.2-29.88S98.17,46.32,115,46.32,142.93,59.28,140.29,76.2Zm-49.2,0c-1.68,10.56,5.4,19.56,16.08,19.56s20.64-9,22.32-19.56-5.4-19.56-16.08-19.56S92.77,65.52,91.09,76.2Z"/><path class="a" d="M175.09,60.84a6.69,6.69,0,0,0-6.36-4.92,7.28,7.28,0,0,0-6.84,5.52c-.72,4.92,5.4,7.08,11.52,10.08s11.88,7.08,10.44,16c-1.68,10.68-11.88,18.6-22.32,18.6-8.16,0-15.6-4.68-17.4-12.6l10-4.2c1.56,4.2,3.84,7.2,9,7.2a9.9,9.9,0,0,0,9.84-7.92c.48-3-.84-4.44-3-6.12l-9.72-5.64c-5.64-3.36-9.72-6.48-8.52-14.16a19.86,19.86,0,0,1,19.08-16.32c6.84,0,11.76,3.72,13.8,9.84Z"/><path class="a" d="M219,0l-8.76,55.56h.24a22.88,22.88,0,0,1,18.35-9.24c15.84,0,18.24,10.68,16.08,24.36l-5.28,33.48h-10.8l5-32.16c1.56-9.6,1.32-16.08-9.71-16.08-13.92,0-15.84,12.24-17.52,22.44l-4.08,25.8h-10.8L208.21,0Z"/><path class="a" d="M267.73,104.16h-10.8L265.81,48H276.6Zm15-81.84a9,9,0,0,1-8.64,7.32,6.12,6.12,0,0,1-6.23-7.32,9.16,9.16,0,0,1,8.63-7.56A6.22,6.22,0,0,1,282.72,22.32Z"/><path class="a" d="M303.24,55.08h.24c3.84-4.92,10.08-8.76,16.2-8.76,7.32,0,12,3.72,14.64,10,4.44-6,11.76-10,18.84-10,14.76,0,16.8,11.52,14.76,24.24l-5.28,33.6h-10.8l5-31.8c1.08-7.2,1.68-16.44-7.8-16.44-11.52,0-14.28,12-15.72,20.64L329,104.16h-10.8l4.68-29.76c1.2-7.32,2.64-18.48-7.32-18.48-11.52,0-14.4,11.88-15.84,20.64l-4.32,27.6H284.65L293.52,48h10.8Z"/><path class="a" d="M429.72,104.16h-10.8l1.44-8.76h-.24c-5.4,6.36-12.84,10.68-20.88,10.68-17.16,0-24.59-14.28-21.95-30.36,2.4-15.36,14.75-29.4,31.07-29.4a19.1,19.1,0,0,1,17.76,11h.24L427.8,48h10.8ZM424,76.08c1.68-10.92-3.36-20.16-15-20.16-11.16,0-19.32,9.72-21,20.16s3.12,20.4,14.52,20.4C414.24,96.48,422.16,87.12,424,76.08Z"/><path class="a" d="M491.4,64a17.23,17.23,0,0,0-14.88-7.56c-10.56,0-20.16,9.36-21.84,19.68C452.88,87.6,459.6,96,471,96c6.24,0,11.76-2.88,16.56-7.44l-2.28,13.8a34.72,34.72,0,0,1-16.08,3.72c-16.56,0-28.07-12.72-25.44-29.52a36.26,36.26,0,0,1,35.52-30.24c5,0,10.44,1.2,14.28,3.72Z"/><path class="a" d="M523.92,0l-8.76,55.56h.24a22.9,22.9,0,0,1,18.36-9.24C549.6,46.32,552,57,549.84,70.68l-5.28,33.48h-10.8l5-32.16c1.56-9.6,1.32-16.08-9.72-16.08-13.92,0-15.84,12.24-17.52,22.44l-4.08,25.8h-10.8L513.12,0Z"/><path class="a" d="M572.64,104.16h-10.8L570.72,48h10.8Zm15-81.84A9,9,0,0,1,579,29.64a6.13,6.13,0,0,1-6.24-7.32,9.18,9.18,0,0,1,8.64-7.56A6.22,6.22,0,0,1,587.64,22.32Z"/><path class="a" d="M52.93,139.64c-2.52-5.64-6.36-8.52-13.2-8.52-7.2,0-15.84,4.92-17.16,12.84-1.08,7.08,5.28,10.8,10.56,13l6.12,2.52c12,5,20.52,12.12,18.12,27.24-2.64,16.44-17.28,28.2-33.48,28.2C9.25,214.88-.35,204.08,0,189.56l11.76-2.4c-1.68,10,5,17.16,14.76,17.16s18-8.16,19.56-17.64c1.56-9.72-5.64-13.92-13-17.16l-5.76-2.64c-9.6-4.44-18.12-10.32-16.08-22.92,2.28-14.64,16.68-23.4,30.36-23.4,10.08,0,17.52,4.92,21.12,13.68Z"/><path class="a" d="M83.53,156.8l-4.92,31.08c-1.44,9-.36,16.92,10.32,16.92s14.16-7.92,15.6-16.92l4.92-31.08h10.8l-5,32.28c-2.52,15.36-11.4,25.8-28,25.8s-22.08-10.44-19.56-25.8l5-32.28Z"/><path class="a" d="M139,213h-10.8l8.88-56.16h10.8Zm15-81.84a9,9,0,0,1-8.64,7.32,6.13,6.13,0,0,1-6.24-7.32,9.18,9.18,0,0,1,8.64-7.56A6.22,6.22,0,0,1,154,131.12Z"/><path class="a" d="M185.65,169.64a6.69,6.69,0,0,0-6.36-4.92,7.28,7.28,0,0,0-6.84,5.52c-.72,4.92,5.4,7.08,11.52,10.08s11.88,7.08,10.44,16c-1.68,10.68-11.88,18.6-22.32,18.6-8.16,0-15.6-4.68-17.4-12.6l10-4.2c1.56,4.2,3.84,7.2,9,7.2a9.9,9.9,0,0,0,9.84-7.92c.48-3-.84-4.44-3-6.12l-9.72-5.64c-5.64-3.36-9.72-6.48-8.52-14.16a19.86,19.86,0,0,1,19.08-16.32c6.84,0,11.76,3.72,13.8,9.84Z"/><path class="a" d="M213,186.68c-1.44,9.6,3.6,18.6,13.91,18.6,8.28,0,13.44-4.2,18.6-10.92l8.28,5.16c-6.84,9.72-17.64,15.36-28.55,15.36-17.16,0-25.44-13-22.92-29.52,2.76-17.28,14-30.24,32.15-30.24,17.88,0,24.24,13.2,21.6,29.88l-.24,1.68Zm33.23-8.16c.12-8.4-4.56-14-13.2-14-8.39,0-15.59,6-18.23,14Z"/><path class="a" d="M274.08,213H263.29l8.87-56.16H283Zm15-81.84a9,9,0,0,1-8.64,7.32,6.13,6.13,0,0,1-6.24-7.32,9.18,9.18,0,0,1,8.64-7.56A6.22,6.22,0,0,1,289.08,131.12Z"/><path class="a" d="M318.87,177.07l.54-3h11.13l.38-2.14H324l.36-2.06c-.5.43-1,.83-1.55,1.2l-2.59-2a20.31,20.31,0,0,0,6.41-6.55h-2.23l1.89-10.74h20.23l-1.9,10.74h-8.28l-.3,1.72h9.25l-.53,3h-9.25l-.32,1.83h7.42l-.5,2.85h-7.43l-.38,2.14h11.37l-.53,3Zm6.47-8h6.09l.32-1.83h-4.6C326.58,167.85,326,168.45,325.34,169.05Zm16.29-10.75H328.81l-.24,1.35H341.4Zm-12.18,5.92h2.83l.3-1.72h-3.37l1.13.26C330.05,163.25,329.76,163.73,329.45,164.22Zm12.84-9.63H329.46l-.23,1.34h12.82Z"/><path class="a" d="M356.51,177.76h-3.63l2-11.17c-.48.43-1,.86-1.48,1.28l-1.38-3.2a27.41,27.41,0,0,0,6.32-7.37l3.46,1a32.93,32.93,0,0,1-2.45,3.52ZM362.39,152a38.83,38.83,0,0,1-6.8,7.14l-2-2.46a27.66,27.66,0,0,0,5.55-5.71Zm0,20.23.58-3.29H359.8l.55-3.11h3.14l.44-2.46h3.45l-.43,2.46h3.11l-.55,3.11H366.4l-.49,2.8c1.52-.23,3-.43,4.13-.63a24.92,24.92,0,0,1-.33,3.06c-3.29.65-8.27,1.51-11.15,2l-.28-3.43C359.36,172.62,360.79,172.44,362.36,172.25Zm2.17-12.32.45-2.54h-2.85l.55-3.14h2.86l.57-3.26h3.46l-.58,3.26h2.8l-.55,3.14h-2.8l-.45,2.54h3.37l-.55,3.12H360.47l.55-3.12Zm10.7,14.69c-.31,1.77-1,2.77-2.57,3a20.9,20.9,0,0,1-3.44.06l-.05-3.4c.67.06,1.59.06,1.93.06a.54.54,0,0,0,.55-.52l2-11.31h-2.37l.6-3.43H380l-.61,3.43h-2Zm5.36-22.14-.6,3.4h-7.46l.6-3.4Z"/><path class="a" d="M329.19,190.82c.17-1.14.33-2.23.47-3.14h4.17l-.56,3.14h7.2l-.62,3.54h-7.2l-1.07,6a6.33,6.33,0,0,1-.1,1.72c-1,5.6-3.4,9.74-12.19,11.62l-.91-3.57c4.08-.63,6.18-1.71,7.42-3.37a9.5,9.5,0,0,1-2.19.26c-3.45,0-5.16-2.17-4.58-5.46a6.78,6.78,0,0,1,6.84-5.71,7.33,7.33,0,0,1,2.47.37l.31-1.89h-12.4l.63-3.54Zm-3.77,8.23a2.91,2.91,0,0,0-2.6,2.46,1.86,1.86,0,0,0,1.87,2.34,2.91,2.91,0,0,0,2.76-2.34l.07-.4C327.53,199.56,326.68,199.05,325.42,199.05Z"/><path class="a" d="M351.14,191.51a52.43,52.43,0,0,0-1.52,6.05c-1.06,6-.08,9.52,1.46,9.52.83,0,2-1.66,2.88-4.17l3.05,1.48c-1.95,4.89-4.17,7.14-6.54,7.14-3.4,0-6.52-4.34-4.84-13.88.35-2,.82-4.14,1.43-6.51ZM365,190.42c3.53,4.6,4,9.23,3.11,15.86l-4.37.37c1.13-6.6.59-10.17-2.5-14.06Z"/><path class="a" d="M381.35,195.45c.4-2.26.76-4.51,1.09-6.54h4c-.38,2-.78,4.14-1.15,6.2l8.11-.63c.42-2.4.78-4.91,1-6.74h3.94c-.28,1.77-.66,4.08-1.05,6.43,1.69-.15,3.22-.26,4.53-.38l-.37,3.55-4.8.31c-1.3,6.91-2.24,8.34-6,8.34a27.08,27.08,0,0,1-3.19-.23l.59-3.34a16.5,16.5,0,0,0,2.37.14c1.2,0,1.54-.28,2.36-4.62-2.63.2-5.44.42-8.15.68-.48,2.89-.85,5.34-1,6.8-.25,2.71.94,3.57,6.23,3.54a46.47,46.47,0,0,0,5.75-.4l-.67,3.83c-1.59.11-3.92.2-5.69.2-7.35,0-10-1.46-9.51-6.68.13-1.55.47-4,1-6.95l-5,.49.28-3.51C377.43,195.79,379.29,195.62,381.35,195.45Z"/><path class="a" d="M413.94,191.51a52.43,52.43,0,0,0-1.52,6.05c-1.06,6-.08,9.52,1.46,9.52.83,0,2-1.66,2.88-4.17l3.05,1.48c-1.94,4.89-4.17,7.14-6.54,7.14-3.4,0-6.52-4.34-4.84-13.88.35-2,.82-4.14,1.44-6.51Zm13.82-1.09c3.53,4.6,4,9.23,3.12,15.86l-4.38.37c1.13-6.6.59-10.17-2.49-14.06Z"/></svg>