<svg xmlns="http://www.w3.org/2000/svg" viewBox="0 0 49.41 64.22"><defs><style>.a{fill:#e8c385;}</style></defs><path class="a" d="M48.68,31.13l-14.34-4.2,4.75-9.83a.69.69,0,0,0-.16-.8.68.68,0,0,0-.81-.08l-8.33,5L25.71.82a1,1,0,0,0-2,0L19.62,21.18l-8.33-5a.68.68,0,0,0-.81.08.69.69,0,0,0-.15.8l4.74,9.83L.74,31.13a1,1,0,0,0,0,2l14.43,4.23L10.32,47.85a.69.69,0,0,0,.18.8.66.66,0,0,0,.44.17.7.7,0,0,0,.37-.11l8.36-5.42,4,20.11a1,1,0,0,0,2,0L29.79,43l8.33,5a.64.64,0,0,0,.35.1.67.67,0,0,0,.46-.18.69.69,0,0,0,.16-.8l-4.75-9.83,14.34-4.2a1,1,0,0,0,0-2ZM33,26.54l-2.29-.67-.65-3.27,6.79-4.05ZM19.34,22.6l-.66,3.27-2.28.67-3.86-8ZM16.5,37.71l2.18.64.7,3.5-6.83,4.44Zm13.58,3.91.65-3.27L33,37.68l3.85,8Zm2.86-6-3.37,1a1,1,0,0,0-.72.78L28,41.57,24.71,58,21.45,41.77h0l-.89-4.43a1,1,0,0,0-.71-.78l-3.3-1L4.66,32.11l11.81-3.46,3.38-1a1,1,0,0,0,.71-.78l.85-4.23,3.3-16.43L28,22.65l.85,4.23a1,1,0,0,0,.72.78l3.37,1,11.81,3.46Z"/><path class="a" d="M24.59,31.07V18.45a.13.13,0,0,0-.13-.13.13.13,0,0,0-.14.13v12.6l-.51.57H12.75a.13.13,0,0,0-.13.14.14.14,0,0,0,.13.14H24l.32.35v15.3a.14.14,0,0,0,.14.14.13.13,0,0,0,.13-.14V32.24l.31-.34H36.51a.14.14,0,0,0,.13-.14.13.13,0,0,0-.13-.14H25.09Z"/></svg>