<svg xmlns="http://www.w3.org/2000/svg" viewBox="0 0 78.12 13.13"><defs><style>.a{fill:#fff;}</style></defs><path class="a" d="M2,0,9.84,9.86,11.32.51h1.34l-2,12.61L2.82,3.28l-1.48,9.3H0Z"/><path class="a" d="M16.13.51h6.26l-.2,1.25H17.28l-.56,3.59h4.77l-.21,1.24H16.51l-.75,4.74h4.91l-.19,1.25H14.22Z"/><path class="a" d="M24.93.51h1.53l1.75,4.55L31.4.51h1.53L28.75,6.34l2.58,6.24H29.79l-2-5-3.55,5H22.72l4.56-6.24Z"/><path class="a" d="M36.91,12.58H35.57L37.28,1.76H34.37L34.56.51h7.2l-.19,1.25H38.63Z"/><polygon class="a" points="78.12 11.08 48.32 11.08 48.32 10.08 75.71 10.08 70.24 4.61 70.94 3.9 78.12 11.08"/></svg>