<svg xmlns="http://www.w3.org/2000/svg" viewBox="0 0 74.74 12.79"><defs><style>.a{fill:#fff;}</style></defs><path class="a" d="M37.36,12.07H36L37.92,0h2a4.64,4.64,0,0,1,2.9.64,2.86,2.86,0,0,1,.92,2.75A4.16,4.16,0,0,1,42.17,6a4.92,4.92,0,0,1-3,.8h-1Zm1-6.53h.9c1.49,0,2.82-.45,3.09-2.18.32-2-1.25-2.11-2.82-2.11h-.49Z"/><path class="a" d="M46.37,12.07H45L46.93,0h1.75C51,0,53,.61,52.57,3.33A3.83,3.83,0,0,1,49,6.66l3,5.41H50.36l-2.82-5.3H47.2Zm1-6.48h.41c1.52,0,3.11-.29,3.41-2.16S50.1,1.25,48.48,1.25h-.4Z"/><path class="a" d="M56.56,0h6.26l-.19,1.25H57.72l-.56,3.58h4.77l-.21,1.25H57l-.75,4.74h4.91l-.19,1.25H54.66Z"/><path class="a" d="M68.39,9.2,73.29,0h1.45L67.83,12.79,65,0H66.4Z"/><polygon class="a" points="29.8 10.57 0 10.57 7.18 3.39 7.88 4.1 2.41 9.57 29.8 9.57 29.8 10.57"/></svg>