<svg xmlns="http://www.w3.org/2000/svg" viewBox="0 0 367.63 341.73"><defs><style>.cls-1{fill:#e3be80;}.cls-2{fill:#fff;}.cls-3{fill:#c85888;}</style></defs><g id="レイヤー_2" data-name="レイヤー 2"><g id="レイヤー_2-2" data-name="レイヤー 2"><path class="cls-1" d="M18,319.74c-.91-1.58-1.81-3.17-2.73-4.74a.54.54,0,0,1,0-.63c.85-1.44,1.67-2.9,2.51-4.35l.25-.44a.26.26,0,0,0-.23-.39H12.3a.57.57,0,0,1-.58-.33c-.8-1.42-1.63-2.83-2.45-4.24l0,0a.25.25,0,0,0-.44,0C8,306,7.16,307.42,6.37,308.82a.63.63,0,0,1-.64.38c-1.81,0-3.62,0-5.43,0h0a.26.26,0,0,0-.23.39.56.56,0,0,1,.05.08c.9,1.57,1.79,3.14,2.71,4.7a.59.59,0,0,1,0,.67C1.86,316.6,1,318.18.05,319.77l0,0a.26.26,0,0,0,.23.39H5.78a.57.57,0,0,1,.56.31c.72,1.28,1.46,2.55,2.19,3.82l.28.47a.26.26,0,0,0,.45,0h0c.81-1.4,1.63-2.8,2.42-4.21a.67.67,0,0,1,.67-.39c1.8,0,3.59,0,5.45,0a.26.26,0,0,0,.23-.39Z"/><path class="cls-2" d="M128.91,341.73a330.79,330.79,0,0,1-59.39-5.33,1.5,1.5,0,1,1,.54-2.95,327.69,327.69,0,0,0,58.85,5.28,331.61,331.61,0,0,0,35.62-1.91,1.5,1.5,0,1,1,.32,3A334.84,334.84,0,0,1,128.91,341.73Z"/><path class="cls-2" d="M174.14,338.65a1.5,1.5,0,0,1-.2-3c6.27-.86,12.56-1.92,18.7-3.15a1.5,1.5,0,0,1,.59,2.95c-6.2,1.23-12.55,2.3-18.88,3.18Z"/><path class="cls-2" d="M51.16,332.42a1.49,1.49,0,0,1-.36-.05c-6.22-1.54-12.42-3.28-18.44-5.19a1.5,1.5,0,0,1,.91-2.86c5.95,1.89,12.09,3.62,18.25,5.14a1.5,1.5,0,0,1-.36,3Z"/><path class="cls-2" d="M211.5,331.18a1.5,1.5,0,0,1-.39-2.95c31.92-8.47,61.5-22.12,85.55-39.48a1.5,1.5,0,1,1,1.76,2.44c-24.35,17.57-54.27,31.38-86.54,39.94A1.73,1.73,0,0,1,211.5,331.18Z"/><path class="cls-2" d="M305.14,285.73a1.53,1.53,0,0,1-1.18-.57,1.51,1.51,0,0,1,.25-2.11c5-4,9.79-8.14,14.25-12.42a1.49,1.49,0,0,1,2.12,0,1.51,1.51,0,0,1,0,2.12c-4.53,4.35-9.39,8.59-14.47,12.61A1.49,1.49,0,0,1,305.14,285.73Z"/><path class="cls-2" d="M332.51,259.31a1.5,1.5,0,0,1-1.15-2.47c21.76-25.92,33.27-55.66,33.27-86v-.43a1.49,1.49,0,0,1,1.49-1.5h0a1.51,1.51,0,0,1,1.5,1.49v.44c0,31.06-11.75,61.47-34,87.94A1.52,1.52,0,0,1,332.51,259.31Z"/><path class="cls-2" d="M365.72,162.38a1.49,1.49,0,0,1-1.49-1.37,122.35,122.35,0,0,0-3-18.56,1.5,1.5,0,1,1,2.92-.7,127,127,0,0,1,3,19,1.5,1.5,0,0,1-1.37,1.62Z"/><path class="cls-2" d="M356.94,125.49a1.5,1.5,0,0,1-1.39-.94c-10.85-27-31.34-51.85-59.25-71.91a1.5,1.5,0,0,1,1.75-2.43c28.37,20.39,49.22,45.71,60.28,73.22a1.5,1.5,0,0,1-.83,1.95A1.55,1.55,0,0,1,356.94,125.49Z"/><path class="cls-2" d="M289.32,47.53a1.53,1.53,0,0,1-.82-.24c-5.19-3.41-10.66-6.68-16.24-9.73a1.5,1.5,0,1,1,1.44-2.64c5.65,3.1,11.18,6.41,16.44,9.86a1.5,1.5,0,0,1,.44,2.08A1.52,1.52,0,0,1,289.32,47.53Z"/><path class="cls-2" d="M255.93,29.24a1.51,1.51,0,0,1-.62-.14C227.42,16.45,196.72,8.27,164.08,4.79a1.5,1.5,0,0,1,.32-3c33,3.51,64,11.78,92.15,24.56a1.5,1.5,0,0,1-.62,2.87Z"/><path class="cls-2" d="M154.75,3.93h-.11C148.39,3.44,142,3.13,135.69,3a1.5,1.5,0,0,1-1.47-1.53A1.55,1.55,0,0,1,135.75,0c6.38.13,12.81.44,19.12.93a1.5,1.5,0,0,1-.12,3Z"/><circle class="cls-3" cx="288.25" cy="100.63" r="10.36"/></g></g></svg>