<svg xmlns="http://www.w3.org/2000/svg" viewBox="0 0 471.34 397.01"><defs><style>.a{fill:#fff;}.b{fill:#e8c385;}.c{fill:#cd588d;}</style></defs><path class="a" d="M109.63,397c-32.85,0-60.49-10.27-79.92-29.71A90,90,0,0,1,23.17,360a1.5,1.5,0,1,1,2.33-1.88,91.54,91.54,0,0,0,6.33,7C50.69,384,77.59,394,109.63,394h.91a1.5,1.5,0,0,1,0,3Z"/><path class="a" d="M120.23,396.67a1.5,1.5,0,0,1-.1-3,184.93,184.93,0,0,0,19.08-2.26,1.5,1.5,0,0,1,.51,3,188.32,188.32,0,0,1-19.4,2.29Z"/><path class="a" d="M186,381.17a1.5,1.5,0,0,1-.55-2.89c28.48-11.18,56.37-27.55,82.91-48.66a1.5,1.5,0,0,1,1.87,2.35c-26.78,21.29-54.93,37.81-83.68,49.1A1.49,1.49,0,0,1,186,381.17Z"/><path class="a" d="M276.8,326.16a1.5,1.5,0,0,1-1-2.65c4.89-4.09,9.76-8.39,14.47-12.77a1.5,1.5,0,0,1,2,2.2c-4.75,4.41-9.66,8.74-14.59,12.87A1.46,1.46,0,0,1,276.8,326.16Z"/><path class="a" d="M4.27,317a1.51,1.51,0,0,1-1.47-1.19A135.31,135.31,0,0,1,.26,296.39a1.5,1.5,0,0,1,3-.18,130.44,130.44,0,0,0,2.48,19A1.5,1.5,0,0,1,4.58,317Z"/><path class="a" d="M1.5,288.11h0A1.5,1.5,0,0,1,0,286.6c.14-29,8.31-61.51,23.62-93.89A1.5,1.5,0,0,1,26.33,194C11.21,226,3.14,258,3,286.62A1.5,1.5,0,0,1,1.5,288.11Z"/><path class="a" d="M324.71,278.25a1.5,1.5,0,0,1-1.15-2.47c21.67-25.85,38.85-53.27,51.07-81.48a1.5,1.5,0,0,1,2.75,1.19C365,224,347.71,251.63,325.86,277.71A1.52,1.52,0,0,1,324.71,278.25Z"/><path class="a" d="M379.7,187.44a1.35,1.35,0,0,1-.55-.11,1.5,1.5,0,0,1-.85-1.94c2.38-6.06,4.53-12.18,6.38-18.18a1.5,1.5,0,1,1,2.86.88c-1.87,6.08-4,12.26-6.44,18.4A1.51,1.51,0,0,1,379.7,187.44Z"/><path class="a" d="M395.17,121.66h-.1a1.5,1.5,0,0,1-1.4-1.59c.23-3.51.34-7,.34-10.43,0-32-10-58.94-28.83-77.8l-.09-.09a1.5,1.5,0,1,1,2.11-2.14l.11.11C386.74,49.14,397,76.78,397,109.63c0,3.47-.11,7-.34,10.62A1.51,1.51,0,0,1,395.17,121.66Z"/><path class="a" d="M175.91,35.42a1.5,1.5,0,0,1-.72-2.81c5.72-3.17,11.55-6.16,17.33-8.9a1.5,1.5,0,0,1,1.28,2.72c-5.72,2.71-11.49,5.67-17.16,8.8A1.47,1.47,0,0,1,175.91,35.42Z"/><path class="a" d="M358.93,25.7a1.52,1.52,0,0,1-.94-.33A92.7,92.7,0,0,0,342,15a1.49,1.49,0,0,1-.65-2,1.51,1.51,0,0,1,2-.66A96.66,96.66,0,0,1,359.87,23a1.5,1.5,0,0,1-.94,2.67Z"/><path class="a" d="M202,22.57a1.5,1.5,0,0,1-.6-2.88C231.09,6.81,260.83,0,287.38,0c3,0,5.92.08,8.79.25a1.5,1.5,0,0,1,1.41,1.58A1.49,1.49,0,0,1,296,3.25c-2.81-.17-5.71-.25-8.62-.25-26.15,0-55.47,6.72-84.8,19.44A1.4,1.4,0,0,1,202,22.57Z"/><path class="b" d="M366.93,361.56c-1.68-2.93-3.34-5.85-5-8.76a1,1,0,0,1,0-1.17c1.56-2.66,3.08-5.35,4.62-8,.16-.27.31-.53.47-.82a.48.48,0,0,0-.41-.72h-.14c-3.34,0-6.69,0-10,0a1,1,0,0,1-1.08-.61c-1.48-2.62-3-5.22-4.52-7.83l0-.07a.47.47,0,0,0-.82,0c-1.55,2.66-3,5.23-4.5,7.81a1.19,1.19,0,0,1-1.18.7c-3.35,0-6.69,0-10,0h-.08a.48.48,0,0,0-.42.71l.09.15c1.66,2.9,3.32,5.81,5,8.69a1.07,1.07,0,0,1,0,1.24c-1.69,2.91-3.36,5.83-5,8.75l0,.07a.48.48,0,0,0,.42.71c3.47,0,6.84,0,10.21,0a1,1,0,0,1,1,.58c1.34,2.36,2.7,4.7,4.06,7.05l.52.88a.48.48,0,0,0,.82,0h0c1.49-2.59,3-5.17,4.47-7.77a1.23,1.23,0,0,1,1.24-.73c3.32,0,6.63,0,10.08,0a.48.48,0,0,0,.42-.71Z"/><circle class="c" cx="460.98" cy="135.3" r="10.36"/></svg>