<svg xmlns="http://www.w3.org/2000/svg" viewBox="0 0 404.52 337.29"><defs><style>.cls-1{fill:#e8c385;}.cls-2{fill:#fff;}.cls-3{fill:#cd588d;}</style></defs><g id="レイヤー_2" data-name="レイヤー 2"><g id="レイヤー_2-2" data-name="レイヤー 2"><path class="cls-1" d="M391.59,307.13q-.72-2.64-1.43-5.28a.52.52,0,0,0-.45-.44l-4.84-1.31-.49-.13a.27.27,0,0,1-.12-.44l.05,0q1.92-1.92,3.85-3.83a.59.59,0,0,0,.18-.65c-.44-1.57-.85-3.15-1.27-4.72v0a.26.26,0,0,1,.31-.32c1.62.43,3.17.84,4.71,1.27a.63.63,0,0,0,.72-.19c1.27-1.29,2.56-2.56,3.84-3.84l0,0a.26.26,0,0,1,.43.11l0,.09c.47,1.75.95,3.49,1.4,5.24a.58.58,0,0,0,.48.47c1.76.46,3.52.94,5.28,1.42h0a.26.26,0,0,1,.11.43c-1.32,1.33-2.61,2.62-3.91,3.91a.54.54,0,0,0-.17.61c.4,1.41.77,2.83,1.15,4.25,0,.17.09.35.13.53a.26.26,0,0,1-.31.32h0c-1.57-.41-3.13-.82-4.69-1.26a.67.67,0,0,0-.75.2c-1.26,1.28-2.53,2.54-3.85,3.86a.26.26,0,0,1-.43-.11Z"/><path class="cls-2" d="M255.07,333.31a1.5,1.5,0,0,1,0-3c6.43-.23,12.91-.64,19.27-1.2a1.5,1.5,0,0,1,.26,3c-6.41.57-12.94,1-19.42,1.21Z"/><path class="cls-2" d="M206.65,332.09h-.13c-33.89-3-65.71-10.3-94.57-21.73a1.49,1.49,0,0,1-.84-1.94,1.51,1.51,0,0,1,2-.85c28.59,11.32,60.12,18.57,93.72,21.54a1.5,1.5,0,0,1-.13,3Z"/><path class="cls-2" d="M284.06,331.14a1.5,1.5,0,0,1-.17-3c33.69-3.84,65-12,93-24.2a1.5,1.5,0,1,1,1.2,2.75c-28.32,12.34-59.91,20.56-93.9,24.43Z"/><path class="cls-2" d="M103.56,306.74a1.41,1.41,0,0,1-.6-.13c-6-2.63-11.95-5.48-17.57-8.45a1.5,1.5,0,0,1,1.4-2.65c5.56,2.94,11.4,5.75,17.37,8.35a1.5,1.5,0,0,1-.6,2.88Z"/><path class="cls-2" d="M46.12,271.14a1.48,1.48,0,0,1-1-.38C16.86,245.89,1.93,216.59,1.93,186v-.41a1.5,1.5,0,0,1,1.5-1.5h0a1.51,1.51,0,0,1,1.5,1.51v.4c0,29.67,14.58,58.19,42.18,82.48a1.5,1.5,0,0,1,.13,2.12A1.47,1.47,0,0,1,46.12,271.14Z"/><path class="cls-2" d="M4,177.46H3.82a1.49,1.49,0,0,1-1.33-1.65,96.24,96.24,0,0,1,4.17-19.19,1.5,1.5,0,1,1,2.85.94,92.79,92.79,0,0,0-4,18.58A1.5,1.5,0,0,1,4,177.46Z"/><path class="cls-2" d="M32.65,117.25a1.54,1.54,0,0,1-1-.38,1.5,1.5,0,0,1-.12-2.12c19.25-21.55,47.2-39.94,80.82-53.2a1.5,1.5,0,1,1,1.1,2.79C80.26,77.43,52.71,95.55,33.77,116.75A1.51,1.51,0,0,1,32.65,117.25Z"/><path class="cls-2" d="M122,61.05a1.5,1.5,0,0,1-.51-2.92c6-2.14,12.26-4.15,18.55-6a1.5,1.5,0,1,1,.83,2.88c-6.23,1.79-12.41,3.77-18.37,5.9A1.51,1.51,0,0,1,122,61.05Z"/><path class="cls-1" d="M46.74,37.1c-.88-3.25-1.77-6.5-2.63-9.75a1,1,0,0,0-.83-.82c-3-.79-6-1.6-9-2.41l-.91-.25a.48.48,0,0,1-.21-.8L33.3,23q3.54-3.56,7.1-7.09a1.06,1.06,0,0,0,.33-1.2c-.8-2.9-1.57-5.82-2.34-8.73l0-.08A.48.48,0,0,1,39,5.3c3,.8,5.84,1.55,8.7,2.35A1.17,1.17,0,0,0,49,7.3c2.34-2.38,4.72-4.74,7.09-7.1l.05-.06a.48.48,0,0,1,.8.21c0,.05,0,.11,0,.16.87,3.23,1.75,6.46,2.6,9.69a1.06,1.06,0,0,0,.88.86c3.26.86,6.51,1.75,9.76,2.63l.07,0a.48.48,0,0,1,.21.8c-2.45,2.45-4.83,4.84-7.22,7.21A1,1,0,0,0,63,22.85c.73,2.61,1.42,5.24,2.12,7.85.08.33.16.65.25,1a.48.48,0,0,1-.58.59h0c-2.89-.77-5.78-1.53-8.66-2.33a1.23,1.23,0,0,0-1.39.36C52.36,32.67,50,35,47.58,37.44a.48.48,0,0,1-.8-.21A.5.5,0,0,1,46.74,37.1Z"/><circle class="cls-3" cx="10.36" cy="326.94" r="10.36"/></g></g></svg>