<svg xmlns="http://www.w3.org/2000/svg" viewBox="0 0 424.27 208.87"><defs><style>.a{fill:#e8c385;}.b{fill:#fff;}</style></defs><path class="a" d="M329.7,203.7q-1.35-2.37-2.73-4.73a.56.56,0,0,1,0-.63q1.26-2.18,2.5-4.35l.26-.45a.26.26,0,0,0-.23-.38H324a.57.57,0,0,1-.58-.33q-1.21-2.13-2.45-4.24l0,0a.26.26,0,0,0-.45,0c-.83,1.44-1.64,2.83-2.43,4.23a.62.62,0,0,1-.64.37H312a.26.26,0,0,0-.23.38.56.56,0,0,0,.05.08c.9,1.57,1.79,3.14,2.71,4.7a.59.59,0,0,1,0,.67c-.92,1.58-1.82,3.16-2.73,4.74l0,0a.26.26,0,0,0,.23.38h5.52a.52.52,0,0,1,.55.31c.73,1.28,1.46,2.54,2.2,3.81l.28.48a.26.26,0,0,0,.45,0h0c.81-1.4,1.62-2.79,2.42-4.2a.67.67,0,0,1,.67-.4c1.79,0,3.59,0,5.45,0a.26.26,0,0,0,.23-.38Z"/><path class="b" d="M347.14,192.35a1.21,1.21,0,0,1-.47-2.32c5.21-2.23,10.27-4.6,15-7.05a1.21,1.21,0,1,1,1.11,2.15c-4.82,2.47-9.93,4.87-15.19,7.12A1.18,1.18,0,0,1,347.14,192.35Z"/><path class="b" d="M376.78,177a1.21,1.21,0,0,1-.64-2.23c29.91-18.71,45.72-40.85,45.72-64v-.38a1.21,1.21,0,0,1,1.2-1.21h0a1.21,1.21,0,0,1,1.21,1.19v.4c0,24.05-16.2,46.9-46.85,66.07A1.16,1.16,0,0,1,376.78,177Z"/><path class="b" d="M422.33,103.31a1.2,1.2,0,0,1-1.19-1,56.37,56.37,0,0,0-5.08-15.44,1.21,1.21,0,0,1,2.17-1.07,59,59,0,0,1,5.29,16.1,1.2,1.2,0,0,1-1,1.39A.68.68,0,0,1,422.33,103.31Z"/><path class="b" d="M408.1,73.59a1.23,1.23,0,0,1-.94-.45c-14-17.33-37.74-32.87-68.56-44.92a1.21,1.21,0,0,1-.68-1.57,1.19,1.19,0,0,1,1.56-.68C370.69,38.18,394.74,54,409,71.62a1.22,1.22,0,0,1-.17,1.7A1.24,1.24,0,0,1,408.1,73.59Z"/><path class="b" d="M52.9,20a1.2,1.2,0,0,0-1.51-.79A262.81,262.81,0,0,0,0,41.28v2.8C14.78,35.42,32.4,27.76,52.12,21.5A1.2,1.2,0,0,0,52.9,20Z"/><path class="b" d="M331.22,25.37a1.12,1.12,0,0,1-.4-.07c-5.09-1.83-10.41-3.58-15.8-5.21a1.21,1.21,0,0,1,.69-2.31c5.44,1.64,10.79,3.41,15.92,5.25a1.21,1.21,0,0,1-.41,2.34Z"/><path class="b" d="M67.79,16.9a1.21,1.21,0,0,1-.31-2.38c5.3-1.4,10.77-2.73,16.28-3.94a1.19,1.19,0,0,1,1.43.92,1.21,1.21,0,0,1-.92,1.44c-5.46,1.2-10.91,2.52-16.17,3.92A1.76,1.76,0,0,1,67.79,16.9Z"/><path class="b" d="M299.27,15.7a1,1,0,0,1-.29,0A448.07,448.07,0,0,0,216.76,3.31,1.22,1.22,0,0,1,215.62,2,1.19,1.19,0,0,1,216.9.9a450.26,450.26,0,0,1,82.67,12.42,1.21,1.21,0,0,1-.3,2.38Z"/><path class="b" d="M92.18,11.26A1.21,1.21,0,0,1,92,8.87,477.8,477.8,0,0,1,175.08.08a1.21,1.21,0,0,1,1.23,1.18,1.19,1.19,0,0,1-1.18,1.23,475.89,475.89,0,0,0-82.71,8.74Z"/><path class="b" d="M208.49,2.88h-.05c-5.49-.24-11.1-.39-16.65-.45a1.22,1.22,0,0,1-1.2-1.22A1.2,1.2,0,0,1,191.81,0c5.59.07,11.22.22,16.73.46a1.21,1.21,0,0,1,0,2.42Z"/><circle class="b" cx="338.41" cy="195.33" r="1.66"/></svg>