<svg xmlns="http://www.w3.org/2000/svg" viewBox="0 0 340 60"><defs><style>.a{fill:#1d9bf0;}.b{fill:#fff;}</style></defs><rect class="a" width="340" height="60" rx="30"/><circle class="a" cx="30" cy="30" r="20"/><path class="b" d="M26.34,40.55A13.63,13.63,0,0,0,40.06,26.83c0-.21,0-.42,0-.62a9.71,9.71,0,0,0,2.41-2.5,9.47,9.47,0,0,1-2.77.76A4.82,4.82,0,0,0,41.8,21.8,9.3,9.3,0,0,1,38.74,23a4.82,4.82,0,0,0-8.34,3.3,4.94,4.94,0,0,0,.12,1.1,13.66,13.66,0,0,1-9.93-5,4.81,4.81,0,0,0,1.49,6.44,4.78,4.78,0,0,1-2.19-.6v.06A4.85,4.85,0,0,0,23.76,33a4.81,4.81,0,0,1-1.27.16,5.5,5.5,0,0,1-.91-.08,4.85,4.85,0,0,0,4.51,3.35,9.69,9.69,0,0,1-6,2.06A8.77,8.77,0,0,1,19,38.38a13.63,13.63,0,0,0,7.39,2.17"/><path class="b" d="M64.77,23.53l-.61,3.82h2.19L67,23.53h1.86l-.61,3.82h2.08V29H67.94l-.47,3h2.07v1.69H67.2l-.67,4.09H64.7l.64-4.09H63.15l-.67,4.09H60.64l.65-4.09H59.15V32.08h2.41L62,29H59.91V27.35H62.3l.61-3.82Zm-1.35,8.55h2.19l.47-3h-2.2Z"/><path class="b" d="M83.49,23.12a4,4,0,0,0-.15.55c0,.24,0,.33-.11.62s0,.37-.3,1.72a6.65,6.65,0,0,1-.13.67c.53,0,.78-.05,1.12-.05a3.47,3.47,0,0,1,2.66.95c.62.68.85,1.55.85,3.19,0,3.09-.52,5.56-1.39,6.55a2.26,2.26,0,0,1-2,.81,8.71,8.71,0,0,1-2.77-.52c0-.36,0-.61,0-.79a7,7,0,0,0-.18-1.53,7.48,7.48,0,0,0,2.63.7c.52,0,.81-.34,1.08-1.23a15.83,15.83,0,0,0,.47-4.1c0-1.66-.42-2.14-1.84-2.14a9.92,9.92,0,0,0-1,.05,40.09,40.09,0,0,1-1.09,3.91,39.41,39.41,0,0,1-2.16,5.06l-.27.54c-.06.11-.06.12-.15.3l-2.09-1.15a20,20,0,0,0,1.88-3.38,31.05,31.05,0,0,0,1.74-5.1,30.22,30.22,0,0,0-3.22.58l-.22-2.13c.67,0,2.85-.21,3.84-.36a28.56,28.56,0,0,0,.47-3.63v-.35Zm6,2.3a17.59,17.59,0,0,1,3.71,7L91.1,33.49a15.88,15.88,0,0,0-1.44-4.09,11.68,11.68,0,0,0-2.07-3.08Z"/><path class="b" d="M101.2,24c-.09.52-.22,1.26-.4,2.23a4.63,4.63,0,0,1-.11.54c.54,0,.8,0,1.12,0a3.51,3.51,0,0,1,2.67,1c.61.68.84,1.54.84,3.18,0,3.1-.52,5.57-1.38,6.56a2.31,2.31,0,0,1-2,.81,8.55,8.55,0,0,1-2.78-.54c0-.34,0-.61,0-.79A7,7,0,0,0,99,35.4a7.58,7.58,0,0,0,2.63.72c.52,0,.81-.35,1.08-1.23a15.88,15.88,0,0,0,.47-4.1c0-1.66-.42-2.15-1.8-2.15a10.19,10.19,0,0,0-1.08.06,38.92,38.92,0,0,1-3.68,9.79l-2.09-1.15a26.25,26.25,0,0,0,3.62-8.48l-.84.14-1.64.27c-.29.06-.49.11-.74.18l-.22-2.12A37.89,37.89,0,0,0,98.57,27,25.68,25.68,0,0,0,99,23.31V23l2.34.23c0,.15-.11.38-.15.56Zm5.47-.74a11.63,11.63,0,0,1,1.89,2.64l-1.26.67a11.93,11.93,0,0,0-1.89-2.68Zm1.68,3.56a16.77,16.77,0,0,1,2.7,5.73l-2,1a17.08,17.08,0,0,0-2.47-5.85Zm1.11-1.38a13.21,13.21,0,0,0-1.83-2.61l1.2-.63a10.41,10.41,0,0,1,1.88,2.53Z"/><path class="b" d="M119.7,26.37c.51-.12.81-.19,1.53-.34,0-.36,0-.36,0-1a10.3,10.3,0,0,0-.1-2.16h2.27a17.55,17.55,0,0,0-.09,2.88c.43,0,.68-.05,1-.05,2.54,0,4.21,1.46,4.21,3.67a4.06,4.06,0,0,1-1.46,3.13,5,5,0,0,1-3.33,1.07,8.69,8.69,0,0,1-2.79-.51,7.71,7.71,0,0,0-.32-2.21,6.88,6.88,0,0,0,2.88.7,3.65,3.65,0,0,0,2-.59,1.87,1.87,0,0,0,.74-1.53c0-1.14-.88-1.8-2.39-1.8-1.28,0-2.36.21-5.4,1.11,1.11,3.91,1.2,4.25,2.28,8.75a5.16,5.16,0,0,0,.27.87l-2.37.54a67.35,67.35,0,0,0-2.2-9.58,6.86,6.86,0,0,1-.9.32,21.17,21.17,0,0,0-2.32.92l-.71-2.11a9.84,9.84,0,0,0,1.64-.47c.74-.25.89-.28,1.75-.55a19.8,19.8,0,0,0-1.22-3.35l2.23-.63a12.51,12.51,0,0,0,.63,2.12c.14.45.21.69.38,1.28Z"/><path class="b" d="M142.83,24.29a28,28,0,0,0-2.21,2c-.92.84-2.18,1.85-4.29,3.45-.55.42-.68.56-.68.76s0,.31,1.62,1.49a61.83,61.83,0,0,1,5.67,4.7,4.82,4.82,0,0,0,.52.45L141.61,39a17.39,17.39,0,0,0-2.34-2.47,55.7,55.7,0,0,0-4.65-3.84c-1.18-.91-1.51-1.4-1.51-2.23a2.11,2.11,0,0,1,.6-1.46,10.62,10.62,0,0,1,1.58-1.29,41.82,41.82,0,0,0,4.16-3.51,8.54,8.54,0,0,0,1.31-1.5Z"/><path class="b" d="M149.94,38.37a9.23,9.23,0,0,0-.16-1.52,36.84,36.84,0,0,1-.32-4.89,41.58,41.58,0,0,1,.82-7.71,5.3,5.3,0,0,0,.17-1.17l2.34.23a34,34,0,0,0-1.37,8.09c0,.25,0,1.13-.06,1.67,0,.22,0,.42,0,.6V34h0c.07-.17.07-.17.25-.67.09-.27.38-1,.49-1.19a3.64,3.64,0,0,0,.25-.59l1.46.7a13.66,13.66,0,0,0-1.75,5.62,2.43,2.43,0,0,0,0,.36Zm13.9-1.14a9,9,0,0,0-2.18-1.69c-.21-.13-.29-.16-.41-.25a1.84,1.84,0,0,1,0,.36,2.42,2.42,0,0,1-.36,1.29,3.82,3.82,0,0,1-3.3,1.3c-2.3,0-3.74-1.12-3.74-2.9s1.53-2.88,3.74-2.88a5,5,0,0,1,1.6.22c0-.22,0-.42-.1-2.56l-1.9.05c-.48,0-.82,0-2.43-.07a3.18,3.18,0,0,0-.41,0h-.29l.06-2a13.65,13.65,0,0,0,3.13.25c.49,0,1.08,0,1.8-.05,0-.81,0-1,0-1.21s0-.54,0-1c-.59,0-1.35.05-1.84.05-.72,0-1,0-2.46-.09a2.44,2.44,0,0,0-.35,0,1.34,1.34,0,0,0-.25,0l.07-2a16,16,0,0,0,3.25.23,28.39,28.39,0,0,0,6.35-.63l.06,1.95a7.33,7.33,0,0,0-1.16.14l-1.64.2a10.55,10.55,0,0,0,0,1.31s0,.51,0,.9a15.27,15.27,0,0,0,2.93-.52l.08,2a4.21,4.21,0,0,0-.62.08c-.9.14-1.76.25-2.37.3,0,1.33,0,1.73.12,3.13a14.42,14.42,0,0,1,2.94,1.64c.25.18.3.22.48.33Zm-6.21-3c-1,0-1.69.47-1.69,1.14s.61,1.08,1.65,1.08,1.68-.45,1.68-1.43c0-.14,0-.54,0-.54A4.88,4.88,0,0,0,157.63,34.24Z"/><path class="b" d="M171.88,23.3a17.61,17.61,0,0,0-.21,2.43c-.07,1.67-.18,5.33-.18,6.6,0,1.71.11,2.36.47,2.9a2.82,2.82,0,0,0,2.41.94,4.65,4.65,0,0,0,4.36-3.08,12,12,0,0,0,.82-3,7.8,7.8,0,0,0,2.18,1.38c-.72,2.43-1.26,3.6-2.14,4.59a6.81,6.81,0,0,1-5.4,2.29,5.89,5.89,0,0,1-3.15-.79c-1.24-.83-1.77-2.22-1.77-4.63,0-.94,0-2.74.15-7.26,0-.54,0-.91,0-1.17a8.07,8.07,0,0,0-.08-1.22Z"/><path class="b" d="M198.65,37.84a12,12,0,0,0-3.33-2.46,7.18,7.18,0,0,0-1-.45v.2a2.81,2.81,0,0,1-1,2.43,4.81,4.81,0,0,1-3,.77c-2.63,0-4.14-1-4.14-2.81,0-2,1.78-3.11,4.81-3.11a8.37,8.37,0,0,1,1.2.07,3,3,0,0,0,0-.43v-.4c0-.25,0-.25,0-1l-1.8,0c-1.1,0-1.77,0-3.26-.12-.23,0-.41,0-.68,0l0-1.94a23.45,23.45,0,0,0,4.2.3l1.47,0c0-.17,0-.78,0-1.81l-1.13,0c-.88,0-3.2-.09-4.41-.18l-.4,0h-.28v-2a24.2,24.2,0,0,0,4.85.37c.28,0,.9,0,1.35,0A13.37,13.37,0,0,0,192,23h2.28a11.63,11.63,0,0,0-.12,2.2,24.73,24.73,0,0,0,5.18-.69l.09,2a12.65,12.65,0,0,0-1.42.16c-1.58.22-2.29.27-3.87.36,0,.45,0,.67,0,1.79.9-.06.9-.06,2.55-.24a12.68,12.68,0,0,0,2.24-.4l.05,2c-.31,0-.76.07-1.17.12s-1.08.13-2.43.25l-1.23.08c.06,1.74.06,1.74.08,2.17a16.22,16.22,0,0,1,4.93,2.54c.31.2.4.27.65.42Zm-7.87-3.65c-1.45,0-2.34.47-2.34,1.24s.78,1.08,2.06,1.08a1.86,1.86,0,0,0,1.56-.57,2.26,2.26,0,0,0,.22-1.16v-.43A6.67,6.67,0,0,0,190.78,34.19Z"/><path class="b" d="M203.56,25.42a16.34,16.34,0,0,0,3.89.31,16.06,16.06,0,0,0,.51-3l2.41.2a10.09,10.09,0,0,0-.29,1.05c-.32,1.35-.32,1.35-.43,1.69,1.37,0,3.4-.18,4.59-.32a12.63,12.63,0,0,0,2.3-.42l.11,2.18c-.41,0-.57,0-1,.09-2.61.29-4.2.42-6.45.47a23.68,23.68,0,0,1-1.42,3.65v0a8.42,8.42,0,0,1,4.54-1.17c3.17,0,5.06,1.37,5.06,3.65,0,2.67-2.58,4.4-6.52,4.4a16.58,16.58,0,0,1-4.59-.63,10.38,10.38,0,0,0-.18-2.29,13.6,13.6,0,0,0,4.64.87c2.61,0,4.31-.92,4.31-2.36,0-1.12-1.08-1.73-3-1.73a9.07,9.07,0,0,0-3.87.88,3,3,0,0,0-1.31,1l-2.18-.75a12,12,0,0,0,.84-1.62,42,42,0,0,0,1.52-4c-1,0-1.77-.05-2.72-.13h-.72Z"/><path class="b" d="M227.3,25.73H228c.26,0,.47,0,1,0,1-.07,1.12-.09,3.33-.22l2.83-.18c2.21-.12,2.45-.14,3-.16l1,0a12.31,12.31,0,0,0,2.14-.2l.11,1.33a7.61,7.61,0,0,0-2,.25,9,9,0,0,0-3.46,1.8,5.51,5.51,0,0,0-2.21,4.16,3.53,3.53,0,0,0,2.52,3.33,9.06,9.06,0,0,0,2.7.58h.18l-.23,1.46c-.2,0-.24-.06-.56-.11a9.07,9.07,0,0,1-3.89-1.39,4.35,4.35,0,0,1-2-3.67,6.84,6.84,0,0,1,3.37-5.53,11.94,11.94,0,0,1,1.71-.95,35.74,35.74,0,0,1-4,.39,61.66,61.66,0,0,0-6.21.6Zm12,2.68a13.7,13.7,0,0,1,1.86,2.79l-.92.54a13.07,13.07,0,0,0-1.84-2.86Zm2-1a14.22,14.22,0,0,1,1.85,2.81l-.9.5a14,14,0,0,0-1.84-2.82Z"/><path class="b" d="M246.87,25.19a20.68,20.68,0,0,1,2.2,5l-1.3.41a21,21,0,0,0-2.1-5Zm12.7-.18a5.7,5.7,0,0,0-.36,1.24,18.24,18.24,0,0,1-1.52,4.48c-1.65,3.39-4,5.58-7.9,7.53a3.49,3.49,0,0,0-1-1.15,14.92,14.92,0,0,0,5-3.16,14.54,14.54,0,0,0,4-7.56,8.7,8.7,0,0,0,.24-1.71Zm-8.12-.71a21.53,21.53,0,0,1,2.17,4.79l-1.28.47a19.38,19.38,0,0,0-2.07-4.88Z"/><path class="b" d="M277,24.23a4,4,0,0,0-.8.76A31.45,31.45,0,0,1,272,28.61v7.67a12.32,12.32,0,0,0,.09,1.91h-1.57a9.45,9.45,0,0,0,.11-1.88V29.47a27.84,27.84,0,0,1-6.95,3.15,4.16,4.16,0,0,0-.7-1.2,25.36,25.36,0,0,0,9.34-4.67,14.72,14.72,0,0,0,3.44-3.4Z"/><path class="b" d="M281.25,30a12.66,12.66,0,0,0,2.23.11h10.46a14.37,14.37,0,0,0,2.18-.09v1.46a21.79,21.79,0,0,0-2.19-.07H283.48a20.91,20.91,0,0,0-2.23.07Z"/><path class="b" d="M303,38.2a10.57,10.57,0,0,0,.11-1.89V25.13A9.73,9.73,0,0,0,303,23.3h1.55a11.41,11.41,0,0,0-.09,1.87v3.36a46.07,46.07,0,0,1,8,3.8l-.78,1.34A37.1,37.1,0,0,0,305,30.1a2,2,0,0,1-.56-.3h0a6.86,6.86,0,0,1,.07,1.07V36.3a12.41,12.41,0,0,0,.09,1.9Z"/></svg>