<svg xmlns="http://www.w3.org/2000/svg" viewBox="0 0 140 40"><defs><style>.a{fill:#fff;}.b{fill:#0071b8;}</style></defs><rect class="a" width="140" height="40" rx="20"/><path class="b" d="M43.3,28.75H39.77l2.38-15H38.5L39,10.66H49.81l-.48,3.07H45.68Z"/><path class="b" d="M51.51,23.76l4-7.18h1.61l1.75,7.28L62.48,17h3.65l-7.4,12H57l-1.37-7.17L51.7,29H50l-3.5-12h3.67Z"/><path class="b" d="M68.55,28.75H65.19L67.06,17h3.36ZM71.5,12a2.41,2.41,0,0,1-2.3,2,1.66,1.66,0,0,1-1.68-2,2.47,2.47,0,0,1,2.33-2A1.64,1.64,0,0,1,71.5,12Z"/><path class="b" d="M74.86,28.75H71.5l1.42-8.95H71.76L72.22,17h1.15L74,13h3.36l-.63,4H78.8l-.46,2.83H76.28Z"/><path class="b" d="M81.44,28.75H78.08l1.41-8.95H78.34L78.8,17H80l.62-4h3.36l-.62,4h2.06l-.45,2.83H82.85Z"/><path class="b" d="M87.8,23.4c-.22,1.49.07,3.17,1.82,3.17A3,3,0,0,0,92.14,25l3,.51a6.61,6.61,0,0,1-6,3.67c-3.64,0-5.45-2.59-4.89-6.17s2.9-6.39,6.72-6.39,5.13,2.86,4.58,6.41l-.07.41Zm4.92-2.09c0-1.2-.55-2.37-1.85-2.37a3,3,0,0,0-2.64,2.37Z"/><path class="b" d="M101.31,18.19h0a4,4,0,0,1,3.17-1.61,3.42,3.42,0,0,1,1.34.29L105,20a2.05,2.05,0,0,0-1.32-.43c-2.33,0-2.9,2.06-3.19,3.89l-.84,5.3H96.27L98.14,17h3.36Z"/></svg>