<svg xmlns="http://www.w3.org/2000/svg" viewBox="0 0 200 40"><defs><style>.a{fill:#fff;}.b{fill:#0a3b67;}</style></defs><rect class="a" width="200" height="40" rx="20"/><path class="b" d="M65.62,23.74h0l6-12.19h3.79l-10,18.58H63.39l-4-18.58H63.2Z"/><path class="b" d="M77,29.65H73.59l1.87-11.79h3.36Zm3-16.73a2.41,2.41,0,0,1-2.3,2,1.66,1.66,0,0,1-1.68-2,2.48,2.48,0,0,1,2.33-2A1.65,1.65,0,0,1,79.9,12.92Z"/><path class="b" d="M83,24.29c-.21,1.49.08,3.17,1.83,3.17a3,3,0,0,0,2.52-1.61l3,.51a6.61,6.61,0,0,1-6,3.67c-3.65,0-5.45-2.59-4.9-6.17s2.91-6.38,6.73-6.38,5.13,2.85,4.58,6.41l-.07.4ZM88,22.21c0-1.2-.56-2.38-1.85-2.38a3,3,0,0,0-2.64,2.38Z"/><path class="b" d="M96.8,24.65l4-7.17h1.6l1.76,7.27,3.6-6.89h3.64l-7.39,12h-1.7L101,22.71l-4,7.18H95.26l-3.5-12h3.67Z"/><path class="b" d="M128.38,29.65h-3.31l.17-1.08h0A4.85,4.85,0,0,1,121.76,30c-3.46,0-4.92-3.14-4.42-6.34s3-6.21,6.36-6.21a3.65,3.65,0,0,1,3,1.48l.19-1.1h3.31Zm-2-5.91c.24-1.58-.55-3.29-2.28-3.29s-3.07,1.71-3.31,3.29.53,3.31,2.25,3.31S126.1,25.33,126.34,23.74Z"/><path class="b" d="M134.16,29.65H130.8L134,9.29h3.36Z"/><path class="b" d="M139.9,29.65h-3.36l3.22-20.36h3.36Z"/></svg>