<svg xmlns="http://www.w3.org/2000/svg" viewBox="0 0 140 40"><defs><style>.a{fill:#fff;}.b{fill:red;}</style></defs><rect class="a" width="140" height="40" rx="20"/><path class="b" d="M30.21,10.66h4.1l2.19,6.28,4.44-6.28h4.13l-7.25,9.79-1.32,8.3H33l1.32-8.3Z"/><path class="b" d="M53.13,22.87a7.23,7.23,0,0,1-7.2,6.27c-3.7,0-5.76-2.62-5.18-6.27a7.21,7.21,0,0,1,7.17-6.29C51.59,16.58,53.71,19.2,53.13,22.87Zm-9,0c-.26,1.59.53,3.29,2.26,3.29s3.05-1.7,3.31-3.29-.53-3.31-2.25-3.31S44.42,21.24,44.15,22.87Z"/><path class="b" d="M58.94,17l-1,6.38c-.22,1.35-.26,3,1.44,3s2.18-1.61,2.4-3l1-6.38h3.36L65,23.9c-.55,3.44-2.61,5.24-6.12,5.24s-5-1.8-4.44-5.24L55.58,17Z"/><path class="b" d="M72.59,28.75H69.06l2.38-15H67.79l.48-3.07H79.1l-.48,3.07H75Z"/><path class="b" d="M80.2,17l-1,6.38c-.21,1.35-.26,3,1.44,3s2.19-1.61,2.4-3L84,17H87.4L86.3,23.9c-.56,3.44-2.62,5.24-6.12,5.24s-5-1.8-4.44-5.24L76.84,17Z"/><path class="b" d="M91.09,8.4h3.37l-1.52,9.65a5.12,5.12,0,0,1,3.48-1.47c3.34,0,4.9,3.12,4.4,6.22s-3,6.34-6.46,6.34a3.26,3.26,0,0,1-2.9-1.49h0l-.17,1.1H87.88Zm6.32,14.45c.24-1.59-.53-3.29-2.26-3.29s-3.07,1.7-3.31,3.29.53,3.31,2.26,3.31S97.17,24.43,97.41,22.85Z"/><path class="b" d="M105,23.4c-.22,1.49.07,3.17,1.82,3.17A3,3,0,0,0,109.33,25l3,.51a6.61,6.61,0,0,1-6,3.67c-3.65,0-5.45-2.59-4.9-6.17s2.91-6.39,6.72-6.39,5.14,2.86,4.59,6.41l-.08.41Zm4.92-2.09c0-1.2-.55-2.37-1.85-2.37a3,3,0,0,0-2.64,2.37Z"/></svg>